<svg width="256" height="265" viewBox="0 0 256 265" fill="none" xmlns="http://www.w3.org/2000/svg">
<g clip-path="url(#clip0_15_172)">
<path opacity="0.18" d="M98.482 26.6895C88.4296 38.0136 83.1976 54.2203 73.4657 65.9282C55.6998 87.2937 24.933 91.5069 12.2724 117.488C5.94019 130.423 5.69482 146.653 9.50208 160.879C13.3093 175.106 20.8922 187.563 29.4843 198.507C44.7767 217.977 63.7892 233.477 84.8914 242.573C94.9043 246.889 105.55 249.791 116.157 248.808C128.687 247.652 140.425 241.206 152.785 238.509C165.822 235.7 179.345 237.105 192.326 233.903C205.307 230.701 218.625 221.081 221.355 205.735C223.053 196.186 220.358 186.074 222.186 176.576C225.384 159.962 240.605 151.179 248.972 137.304C253.307 130.08 255.746 121.506 255.985 112.652C256.222 103.243 253.685 93.4169 247.86 87.0082C243.455 82.1677 237.637 79.6538 232.061 76.9995C206.328 64.7766 185.182 46.2012 162.699 27.5556C143.401 11.5408 117.408 5.37087 98.482 26.6895Z" fill="#C0273D"/>
<path d="M130.821 166.69L135.016 245.79L141.79 246.36L157.229 164.379L163.767 247.406H170.541L182.489 167.924L157.229 152.285L130.821 166.69Z" fill="#25233A"/>
<path d="M219.373 64.3107C219.373 64.3107 220.667 61.1936 219.808 55.5293C218.95 49.8651 224.556 41.9431 224.556 41.9431C224.993 42.207 225.347 42.6103 225.57 43.0994C225.793 43.5886 225.875 44.1405 225.805 44.6817L229.816 33.2508C229.816 33.2508 231.793 32.2043 233.763 38.2872C235.732 44.37 234.198 49.6869 233.645 52.6126C232.721 57.5376 228.665 61.1624 228.433 63.478C228.199 65.3036 227.847 67.1087 227.379 68.8795L219.373 64.3107Z" fill="url(#paint0_linear_15_172)"/>
<path d="M157.107 46.3561C157.107 46.3561 139.206 46.3071 137.685 47.4114C136.163 48.5158 132.205 51.2321 129.658 58.2368C127.111 65.2414 113.909 103.76 113.909 103.76C113.909 103.76 112.856 107.741 116.379 111.736C119.902 115.73 131.061 130.149 131.061 130.149L126.688 166.499C126.688 166.499 154.353 168.783 157.607 159.655C157.607 159.655 167.701 165.929 182.506 167.928L187.388 169.959L187.794 101.298C189.798 103.953 192.405 105.985 195.352 107.189C198.3 108.393 201.485 108.728 204.588 108.16C215.532 106.307 225.943 91.0423 230.626 71.7294L215.52 63.0015C215.52 63.0015 209.788 87.8316 200.146 83.53C193.421 80.5242 193.425 69.2179 192.668 61.2648C192.468 59.1637 191.676 57.1826 190.402 55.5958C189.128 54.009 187.435 52.8949 185.557 52.4077L172.762 49.0813L157.107 46.3561Z" fill="white"/>
<path d="M143.864 119.154L141.875 166.419C141.875 166.419 129.479 166.975 126.684 166.499L131.057 130.153L143.864 119.154Z" fill="#C0273D" fill-opacity="0.6"/>
<path d="M143.638 119.197L141.649 166.461C141.649 166.461 129.253 167.018 126.458 166.541L130.831 130.196L143.638 119.197Z" fill="url(#paint1_linear_15_172)"/>
<path d="M187.794 101.298L183.742 91.3139L178.421 167.251L187.392 169.959L187.794 101.298Z" fill="#C0273D"/>
<path d="M187.794 101.298L183.742 91.3139L178.421 167.251L187.392 169.959L187.794 101.298Z" fill="url(#paint2_linear_15_172)"/>
<path d="M156.261 53.8372C156.261 53.8372 166.126 61.1936 171.623 55.9969L157.074 123.309L156.261 53.8372Z" fill="#25233A"/>
<path d="M158.746 35.9538C158.746 35.9538 154.17 55.1018 157.424 59.2654C160.679 63.429 170.85 63.7808 171.623 55.9969C172.396 48.213 175.768 37.8063 175.768 37.8063L158.746 35.9538Z" fill="url(#paint3_linear_15_172)"/>
<path opacity="0.19" d="M158.25 40.6339C158.25 40.6339 162.144 51.3212 165.5 53.0178C168.856 54.7144 171.777 53.4631 172.2 51.9714C172.624 50.4796 174.377 42.4775 174.377 42.4775L158.25 40.6339Z" fill="url(#paint4_linear_15_172)"/>
<path d="M182.205 25.4268C182.205 37.5791 175.947 47.4293 168.226 47.4293C160.504 47.4293 154.251 37.5658 154.251 25.4268C154.251 13.2878 161.118 8.79028 168.836 8.79028C176.554 8.79028 182.205 13.2656 182.205 25.4268Z" fill="url(#paint5_linear_15_172)"/>
<path d="M187.628 18.4444C187.103 21.762 185.402 24.7277 183.405 27.2882C183.405 27.07 183.372 26.8429 183.352 26.6291C183.148 24.1889 182.799 21.7308 181.834 19.5354C180.781 17.1308 178.885 15.0423 176.505 14.4857C174.918 14.1116 173.213 14.4234 171.574 14.5169C170.231 14.5881 168.934 14.5169 167.778 13.7955C167.248 13.3796 166.686 13.0146 166.098 12.7045C162.75 11.3686 160.504 17.9413 160.37 20.4572C160.215 23.3606 160.646 26.3887 159.711 29.1184C158.897 28.771 158.6 27.7068 158.295 26.8028C157.99 25.8988 157.351 24.9013 156.484 25.0527C156.27 25.1079 156.069 25.2123 155.895 25.3589C155.72 25.5055 155.576 25.6911 155.471 25.9033C154.792 27.1101 154.963 28.682 155.439 30.0001C155.915 31.3182 156.659 32.5116 157.119 33.8386C157.489 34.9339 157.656 36.099 157.61 37.2659C157.564 38.4327 157.306 39.5777 156.851 40.6339C154.939 37.8124 153.581 34.5894 152.86 31.1668L150.825 33.1038C150.872 30.3044 150.916 27.5034 150.96 24.701C151.07 18.1906 151.367 11.1014 155.24 6.16744C158.209 2.3779 162.839 0.569973 167.379 0.115764C172.42 -0.382976 177.737 0.699111 181.814 3.98545C185.89 7.27179 188.494 12.9806 187.628 18.4444Z" fill="#3F3D56"/>
<path d="M185.593 18.4712C184.088 23.9885 183.352 26.6291 183.352 26.6291C183.148 24.1889 182.798 21.7308 181.834 19.5354C180.781 17.1308 178.885 15.0423 176.505 14.4857C174.918 14.1117 173.213 14.4234 171.574 14.5169C171.574 14.5169 177.676 10.9945 180.386 10.1039C183.095 9.21332 187.099 12.9583 185.593 18.4712Z" fill="#25233A"/>
<path opacity="0.19" d="M158.25 30.7393C158.25 30.7393 156.859 30.1203 157.294 28.9313C157.729 27.7424 157.339 27.1056 156.887 26.9497C156.436 26.7939 155.113 28.0274 156.48 30.7393C157.847 33.4512 158.25 30.7393 158.25 30.7393Z" fill="url(#paint6_linear_15_172)"/>
<path d="M155.15 43.8802L151.082 45.4254C150.734 45.558 150.424 45.7882 150.183 46.0929C149.941 46.3977 149.777 46.7663 149.707 47.1621L146.086 67.646L153.083 68.8662L149.446 74.3612L157.058 119.141L156.509 44.9311C156.506 44.7539 156.464 44.5801 156.389 44.4235C156.313 44.267 156.204 44.1321 156.072 44.0299C155.94 43.9276 155.788 43.8608 155.627 43.8348C155.467 43.8088 155.304 43.8243 155.15 43.8802ZM172.774 49.0635L177.123 50.8002L178.421 71.7294H172.2L174.857 77.6253L157.074 123.309C157.074 123.309 170.663 64.8228 172.774 49.0635Z" fill="#C0273D"/>
<path d="M155.15 43.8802L151.082 45.4254C150.734 45.558 150.424 45.7882 150.183 46.0929C149.941 46.3977 149.777 46.7663 149.707 47.1621L146.086 67.646L153.083 68.8661L149.446 74.3612L157.058 119.141L156.509 44.9311C156.506 44.7539 156.464 44.5801 156.389 44.4235C156.313 44.267 156.204 44.1321 156.072 44.0299C155.94 43.9276 155.788 43.8608 155.627 43.8348C155.467 43.8088 155.304 43.8243 155.15 43.8802Z" fill="url(#paint7_linear_15_172)"/>
<path d="M172.774 49.0635L177.123 50.8002L178.421 71.7295H172.2L174.857 77.6253L157.074 123.309C157.074 123.309 170.663 64.8228 172.774 49.0635Z" fill="url(#paint8_linear_15_172)"/>
<path d="M137.339 69.7879L131.078 105.332L143.873 119.154L137.339 69.7879Z" fill="#C0273D" fill-opacity="0.8"/>
<path d="M137.089 70.241L129.542 106.256L144.964 120.261L142.076 101.915L137.089 70.241Z" fill="url(#paint9_linear_15_172)"/>
<path d="M143.873 119.154L134.585 131.819L131.061 130.149L142.766 117.956L143.873 119.154Z" fill="#25233A"/>
<path d="M142.831 120.57C142.831 120.57 145.638 127.25 146.086 131.102L134.568 131.819L142.831 120.57Z" fill="url(#paint10_linear_15_172)"/>
<path d="M133.34 131.819L151.594 131.102C151.594 131.102 150.276 151.586 150.162 153.857C150.048 156.128 130.354 157.682 130.354 157.682L133.34 131.819ZM186.208 132.558L168.238 131.222C168.238 131.222 166.289 151.563 166.403 153.848C166.517 156.132 184.784 159.045 184.784 159.045L186.208 132.558Z" fill="white"/>
<path d="M133.34 131.819L151.594 131.102C151.594 131.102 150.276 151.586 150.162 153.857C150.048 156.128 130.354 157.682 130.354 157.682L133.34 131.819Z" fill="#C0273D"/>
<path d="M133.34 131.819L151.594 131.102C151.594 131.102 150.276 151.586 150.162 153.857C150.048 156.128 130.354 157.682 130.354 157.682L133.34 131.819Z" fill="url(#paint11_linear_15_172)"/>
<path d="M186.208 132.558L168.238 131.222C168.238 131.222 166.289 151.563 166.403 153.848C166.517 156.132 184.784 159.045 184.784 159.045L186.208 132.558Z" fill="#C0273D"/>
<path d="M186.208 132.558L168.238 131.222C168.238 131.222 166.289 151.563 166.403 153.848C166.517 156.132 184.784 159.045 184.784 159.045L186.208 132.558Z" fill="url(#paint12_linear_15_172)"/>
<path d="M216.875 63.7763L217.794 62.1688L230.182 69.7879L230.642 71.725L216.875 63.7763Z" fill="#25233A"/>
<path d="M140.313 74.9445C139.446 53.7125 157.107 52.6037 155.512 74.9445M148.563 58.2412C148.392 45.7237 157.591 42.4775 157.591 42.4775L148.563 58.2412Z" stroke="#222A72" stroke-width="3.03" stroke-miterlimit="10" stroke-linecap="round"/>
<path d="M142.237 75.706C142.238 76.1017 142.131 76.4887 141.931 76.818C141.731 77.1474 141.446 77.4044 141.112 77.5564C140.779 77.7084 140.411 77.7487 140.057 77.672C139.702 77.5954 139.376 77.4053 139.12 77.1258C138.864 76.8464 138.69 76.4901 138.619 76.1022C138.548 75.7142 138.584 75.312 138.722 74.9464C138.861 74.5808 139.095 74.2682 139.395 74.0483C139.696 73.8284 140.049 73.7111 140.41 73.7111C140.894 73.7111 141.358 73.9211 141.701 74.2951C142.043 74.6691 142.236 75.1765 142.237 75.706Z" fill="url(#paint13_linear_15_172)"/>
<path d="M157.107 75.9465C157.107 76.3419 157 76.7285 156.799 77.0573C156.598 77.3861 156.313 77.6424 155.979 77.7937C155.646 77.945 155.278 77.9846 154.924 77.9075C154.57 77.8303 154.244 77.6399 153.989 77.3603C153.733 77.0807 153.559 76.7244 153.489 76.3366C153.418 75.9487 153.454 75.5467 153.593 75.1813C153.731 74.816 153.965 74.5037 154.265 74.284C154.566 74.0643 154.919 73.9471 155.28 73.9471C155.765 73.9471 156.229 74.1577 156.572 74.5327C156.915 74.9077 157.107 75.4162 157.107 75.9465Z" fill="url(#paint14_linear_15_172)"/>
<path d="M173.527 46.3561C173.527 46.3561 187.253 53.5834 179.243 80.5821L175.768 88.5664" stroke="#222A72" stroke-width="3.03" stroke-miterlimit="10" stroke-linecap="round"/>
<path d="M177.377 93.2911C178.768 91.7695 178.768 89.3024 177.377 87.7808C175.987 86.2591 173.733 86.2591 172.343 87.7808C170.953 89.3024 170.953 91.7695 172.343 93.2911C173.733 94.8128 175.987 94.8128 177.377 93.2911Z" fill="url(#paint15_linear_15_172)"/>
<path d="M176.795 92.1274C177.773 91.0562 177.773 89.3194 176.794 88.2481C175.816 87.1769 174.229 87.1769 173.25 88.2481C172.272 89.3194 172.272 91.0562 173.25 92.1274C174.229 93.1986 175.816 93.1986 176.795 92.1274Z" fill="url(#paint16_linear_15_172)"/>
<path d="M177.601 90.5082C178.58 89.4369 178.58 87.7001 177.601 86.6289C176.623 85.5576 175.036 85.5576 174.057 86.6289C173.078 87.7001 173.078 89.4369 174.057 90.5082C175.036 91.5794 176.623 91.5794 177.601 90.5082Z" fill="url(#paint17_linear_15_172)"/>
<path d="M108.877 151.831H57.6686C57.3561 151.831 57.0467 151.763 56.7581 151.632C56.4696 151.5 56.2076 151.308 55.9871 151.066C55.7667 150.823 55.5923 150.535 55.4738 150.219C55.3553 149.902 55.2952 149.563 55.2968 149.221C55.2968 148.533 55.5467 147.872 55.9915 147.385C56.4363 146.899 57.0396 146.625 57.6686 146.625H108.877C109.506 146.625 110.109 146.899 110.554 147.385C110.999 147.872 111.249 148.533 111.249 149.221C111.25 149.563 111.19 149.902 111.072 150.219C110.953 150.535 110.779 150.823 110.558 151.066C110.338 151.308 110.076 151.5 109.787 151.632C109.499 151.763 109.189 151.831 108.877 151.831Z" fill="#C0273D"/>
<path d="M83.6531 149.221C83.6537 149.562 83.5927 149.9 83.4737 150.215C83.3547 150.531 83.18 150.817 82.9596 151.058C82.7393 151.299 82.4776 151.491 82.1896 151.621C81.9016 151.751 81.5929 151.818 81.2813 151.817H0.252258V146.638H81.2894C81.9146 146.642 82.5134 146.915 82.9559 147.398C83.3983 147.882 83.6489 148.537 83.6531 149.221Z" fill="#C0273D"/>
<path d="M111.241 149.221C111.239 149.909 110.989 150.569 110.545 151.056C110.1 151.542 109.497 151.816 108.869 151.817H81.2894C81.9185 151.817 82.5218 151.544 82.9666 151.057C83.4114 150.57 83.6613 149.91 83.6613 149.221C83.6613 148.533 83.4114 147.872 82.9666 147.385C82.5218 146.899 81.9185 146.625 81.2894 146.625H108.877C109.504 146.627 110.106 146.902 110.549 147.389C110.992 147.875 111.241 148.534 111.241 149.221Z" fill="url(#paint18_linear_15_172)"/>
<path d="M83.6531 149.221C83.6537 149.562 83.5927 149.9 83.4737 150.215C83.3547 150.531 83.18 150.817 82.9596 151.058C82.7393 151.299 82.4776 151.491 82.1896 151.621C81.9016 151.751 81.5929 151.818 81.2813 151.817H0.252258V146.638H81.2894C81.9146 146.642 82.5134 146.915 82.9559 147.398C83.3983 147.882 83.6489 148.537 83.6531 149.221Z" fill="url(#paint19_linear_15_172)"/>
<path d="M108.027 151.831H57.6687V213.518H108.027V151.831Z" fill="#C0273D"/>
<path d="M108.027 151.831H57.6687V213.518H108.027V151.831Z" fill="url(#paint20_linear_15_172)"/>
<path d="M83.6612 151.831H0.256287V213.518H83.6612V151.831Z" fill="#C0273D"/>
<path d="M135.797 249.214L135.972 245.79L141.79 246.36L141.017 251.494C141.017 251.494 138.14 256.343 135.797 249.214Z" fill="url(#paint21_linear_15_172)"/>
<path d="M169.951 252.002L169.731 247.406L163.767 247.344V253.106C163.767 253.106 167.607 259.131 169.951 252.002Z" fill="url(#paint22_linear_15_172)"/>
<path d="M135.797 249.214C135.797 249.214 124.812 255.141 123.519 257.296C122.667 258.871 122.042 260.58 121.668 262.364C121.668 262.364 128.384 262.493 132.554 260.97C136.725 259.447 141.79 257.799 141.79 257.799V249.94C141.79 249.94 141.704 249.023 140.488 250.069C139.271 251.115 138.047 252.095 136.969 251.405C135.89 250.715 136.448 249.165 135.797 249.214ZM170.235 251.004C170.235 251.004 179.849 257.546 180.976 259.794C181.72 261.435 182.231 263.19 182.489 265C182.489 265 175.781 264.595 171.724 262.747C167.668 260.899 162.721 258.85 162.721 258.85L163.242 251.013C163.242 251.013 163.388 250.122 164.532 251.24C165.675 252.358 167.786 253.698 168.921 253.106C170.056 252.514 169.589 250.902 170.235 251.004Z" fill="#C0273D"/>
<path d="M135.797 249.214C135.797 249.214 124.812 255.141 123.519 257.296C122.667 258.871 122.042 260.58 121.668 262.364C121.668 262.364 128.384 262.493 132.554 260.97C136.725 259.447 141.79 257.799 141.79 257.799V249.94C141.79 249.94 141.704 249.023 140.488 250.069C139.271 251.115 138.047 252.095 136.969 251.405C135.89 250.715 136.448 249.165 135.797 249.214Z" fill="url(#paint23_linear_15_172)"/>
<path d="M170.235 251.004C170.235 251.004 179.849 257.546 180.976 259.794C181.72 261.435 182.231 263.19 182.489 265C182.489 265 175.781 264.595 171.724 262.747C167.668 260.899 162.721 258.85 162.721 258.85L163.242 251.013C163.242 251.013 163.388 250.122 164.532 251.24C165.675 252.358 167.786 253.698 168.921 253.106C170.056 252.514 169.589 250.902 170.235 251.004Z" fill="url(#paint24_linear_15_172)"/>
<path d="M83.9908 146.549C83.9908 146.585 83.9908 146.612 83.9908 146.634H39.4181C39.4181 146.634 45.9274 123.198 65.7321 123.923C66.1186 123.923 66.4969 123.959 66.8631 123.99C85.1828 125.455 84.2633 144.59 83.9908 146.549Z" fill="#C0273D"/>
<path d="M83.9908 146.549H72.5995L72.6849 145.316C72.6849 145.316 76.1593 127.058 66.8672 124.008C85.1828 125.455 84.2634 144.59 83.9908 146.549Z" fill="#C0273D"/>
<path d="M83.9908 146.549C83.9908 146.585 83.9908 146.612 83.9908 146.634H39.4181C39.4181 146.634 45.9274 123.198 65.7321 123.923C66.1186 123.923 66.4969 123.959 66.8631 123.99C85.1828 125.455 84.2633 144.59 83.9908 146.549Z" fill="url(#paint25_linear_15_172)"/>
<path d="M83.9908 146.549H72.5995L72.6849 145.316C72.6849 145.316 76.1593 127.058 66.8672 124.008C85.1828 125.455 84.2634 144.59 83.9908 146.549Z" fill="url(#paint26_linear_15_172)"/>
</g>
<defs>
<linearGradient id="paint0_linear_15_172" x1="221.92" y1="81.3079" x2="231.86" y2="32.4384" gradientUnits="userSpaceOnUse">
<stop stop-color="#ECC4D7"/>
<stop offset="0.42" stop-color="#EFD4D1"/>
<stop offset="1" stop-color="#F2EAC9"/>
</linearGradient>
<linearGradient id="paint1_linear_15_172" x1="126.462" y1="142.967" x2="143.643" y2="142.967" gradientUnits="userSpaceOnUse">
<stop offset="0.01" stop-color="white" stop-opacity="0"/>
<stop offset="0.13" stop-color="white" stop-opacity="0.17"/>
<stop offset="0.37" stop-color="white" stop-opacity="0.46"/>
<stop offset="0.59" stop-color="white" stop-opacity="0.68"/>
<stop offset="0.77" stop-color="white" stop-opacity="0.85"/>
<stop offset="0.91" stop-color="white" stop-opacity="0.95"/>
<stop offset="1" stop-color="white" stop-opacity="0.99"/>
</linearGradient>
<linearGradient id="paint2_linear_15_172" x1="193.099" y1="130.888" x2="176.307" y2="130.423" gradientUnits="userSpaceOnUse">
<stop offset="0.01" stop-color="white" stop-opacity="0"/>
<stop offset="0.13" stop-color="white" stop-opacity="0.17"/>
<stop offset="0.37" stop-color="white" stop-opacity="0.46"/>
<stop offset="0.59" stop-color="white" stop-opacity="0.68"/>
<stop offset="0.77" stop-color="white" stop-opacity="0.85"/>
<stop offset="0.91" stop-color="white" stop-opacity="0.95"/>
<stop offset="1" stop-color="white" stop-opacity="0.99"/>
</linearGradient>
<linearGradient id="paint3_linear_15_172" x1="169.174" y1="50.769" x2="200.247" y2="72.3988" gradientUnits="userSpaceOnUse">
<stop stop-color="#ECC4D7"/>
<stop offset="0.42" stop-color="#EFD4D1"/>
<stop offset="1" stop-color="#F2EAC9"/>
</linearGradient>
<linearGradient id="paint4_linear_15_172" x1="183.982" y1="39.6142" x2="152.65" y2="49.5709" gradientUnits="userSpaceOnUse">
<stop stop-color="#183866"/>
<stop offset="1" stop-color="#1A7FC1"/>
</linearGradient>
<linearGradient id="paint5_linear_15_172" x1="154.251" y1="28.0942" x2="182.205" y2="28.0942" gradientUnits="userSpaceOnUse">
<stop stop-color="#ECC4D7"/>
<stop offset="0.42" stop-color="#EFD4D1"/>
<stop offset="1" stop-color="#F2EAC9"/>
</linearGradient>
<linearGradient id="paint6_linear_15_172" x1="159.149" y1="28.6953" x2="155.081" y2="29.9896" gradientUnits="userSpaceOnUse">
<stop stop-color="#183866"/>
<stop offset="1" stop-color="#1A7FC1"/>
</linearGradient>
<linearGradient id="paint7_linear_15_172" x1="138.352" y1="85.2978" x2="167.548" y2="80.1037" gradientUnits="userSpaceOnUse">
<stop offset="0.01" stop-color="white" stop-opacity="0"/>
<stop offset="0.13" stop-color="white" stop-opacity="0.17"/>
<stop offset="0.37" stop-color="white" stop-opacity="0.46"/>
<stop offset="0.59" stop-color="white" stop-opacity="0.68"/>
<stop offset="0.77" stop-color="white" stop-opacity="0.85"/>
<stop offset="0.91" stop-color="white" stop-opacity="0.95"/>
<stop offset="1" stop-color="white" stop-opacity="0.99"/>
</linearGradient>
<linearGradient id="paint8_linear_15_172" x1="180.789" y1="95.1702" x2="154.13" y2="81.9788" gradientUnits="userSpaceOnUse">
<stop offset="0.01" stop-color="white" stop-opacity="0"/>
<stop offset="0.13" stop-color="white" stop-opacity="0.17"/>
<stop offset="0.37" stop-color="white" stop-opacity="0.46"/>
<stop offset="0.59" stop-color="white" stop-opacity="0.68"/>
<stop offset="0.77" stop-color="white" stop-opacity="0.85"/>
<stop offset="0.91" stop-color="white" stop-opacity="0.95"/>
<stop offset="1" stop-color="white" stop-opacity="0.99"/>
</linearGradient>
<linearGradient id="paint9_linear_15_172" x1="128.145" y1="96.2888" x2="140.823" y2="95.0807" gradientUnits="userSpaceOnUse">
<stop offset="0.01" stop-color="white" stop-opacity="0"/>
<stop offset="0.13" stop-color="white" stop-opacity="0.17"/>
<stop offset="0.37" stop-color="white" stop-opacity="0.46"/>
<stop offset="0.59" stop-color="white" stop-opacity="0.68"/>
<stop offset="0.77" stop-color="white" stop-opacity="0.85"/>
<stop offset="0.91" stop-color="white" stop-opacity="0.95"/>
<stop offset="1" stop-color="white" stop-opacity="0.99"/>
</linearGradient>
<linearGradient id="paint10_linear_15_172" x1="139.3" y1="137.603" x2="142.844" y2="120.191" gradientUnits="userSpaceOnUse">
<stop stop-color="#ECC4D7"/>
<stop offset="0.42" stop-color="#EFD4D1"/>
<stop offset="1" stop-color="#F2EAC9"/>
</linearGradient>
<linearGradient id="paint11_linear_15_172" x1="141.737" y1="118.072" x2="140.533" y2="152.621" gradientUnits="userSpaceOnUse">
<stop offset="0.01" stop-color="white" stop-opacity="0"/>
<stop offset="0.13" stop-color="white" stop-opacity="0.17"/>
<stop offset="0.37" stop-color="white" stop-opacity="0.46"/>
<stop offset="0.59" stop-color="white" stop-opacity="0.68"/>
<stop offset="0.77" stop-color="white" stop-opacity="0.85"/>
<stop offset="0.91" stop-color="white" stop-opacity="0.95"/>
<stop offset="1" stop-color="white" stop-opacity="0.99"/>
</linearGradient>
<linearGradient id="paint12_linear_15_172" x1="177.855" y1="111.802" x2="175.04" y2="158.83" gradientUnits="userSpaceOnUse">
<stop offset="0.01" stop-color="white" stop-opacity="0"/>
<stop offset="0.13" stop-color="white" stop-opacity="0.17"/>
<stop offset="0.37" stop-color="white" stop-opacity="0.46"/>
<stop offset="0.59" stop-color="white" stop-opacity="0.68"/>
<stop offset="0.77" stop-color="white" stop-opacity="0.85"/>
<stop offset="0.91" stop-color="white" stop-opacity="0.95"/>
<stop offset="1" stop-color="white" stop-opacity="0.99"/>
</linearGradient>
<linearGradient id="paint13_linear_15_172" x1="138.576" y1="75.706" x2="142.225" y2="75.706" gradientUnits="userSpaceOnUse">
<stop stop-color="#68E1FD"/>
<stop offset="0.2" stop-color="#5DB4CF"/>
<stop offset="0.46" stop-color="#50819B"/>
<stop offset="0.69" stop-color="#475C76"/>
<stop offset="0.87" stop-color="#41455E"/>
<stop offset="0.99" stop-color="#3F3D56"/>
</linearGradient>
<linearGradient id="paint14_linear_15_172" x1="153.458" y1="75.9465" x2="157.107" y2="75.9465" gradientUnits="userSpaceOnUse">
<stop stop-color="#68E1FD"/>
<stop offset="0.2" stop-color="#5DB4CF"/>
<stop offset="0.46" stop-color="#50819B"/>
<stop offset="0.69" stop-color="#475C76"/>
<stop offset="0.87" stop-color="#41455E"/>
<stop offset="0.99" stop-color="#3F3D56"/>
</linearGradient>
<linearGradient id="paint15_linear_15_172" x1="171.302" y1="90.533" x2="178.426" y2="90.533" gradientUnits="userSpaceOnUse">
<stop stop-color="#68E1FD"/>
<stop offset="0.2" stop-color="#5DB4CF"/>
<stop offset="0.46" stop-color="#50819B"/>
<stop offset="0.69" stop-color="#475C76"/>
<stop offset="0.87" stop-color="#41455E"/>
<stop offset="0.99" stop-color="#3F3D56"/>
</linearGradient>
<linearGradient id="paint16_linear_15_172" x1="174.044" y1="90.187" x2="179.061" y2="90.187" gradientUnits="userSpaceOnUse">
<stop stop-color="#68E1FD"/>
<stop offset="0.2" stop-color="#5DB4CF"/>
<stop offset="0.46" stop-color="#50819B"/>
<stop offset="0.69" stop-color="#475C76"/>
<stop offset="0.87" stop-color="#41455E"/>
<stop offset="0.99" stop-color="#3F3D56"/>
</linearGradient>
<linearGradient id="paint17_linear_15_172" x1="178.748" y1="82.7155" x2="171.251" y2="95.2637" gradientUnits="userSpaceOnUse">
<stop stop-color="#68E1FD"/>
<stop offset="0.2" stop-color="#5DB4CF"/>
<stop offset="0.46" stop-color="#50819B"/>
<stop offset="0.69" stop-color="#475C76"/>
<stop offset="0.87" stop-color="#41455E"/>
<stop offset="0.99" stop-color="#3F3D56"/>
</linearGradient>
<linearGradient id="paint18_linear_15_172" x1="95.7483" y1="144.314" x2="99.2713" y2="179.301" gradientUnits="userSpaceOnUse">
<stop stop-opacity="0"/>
<stop offset="0.99"/>
</linearGradient>
<linearGradient id="paint19_linear_15_172" x1="42.4206" y1="132.215" x2="39.2531" y2="222.304" gradientUnits="userSpaceOnUse">
<stop stop-opacity="0"/>
<stop offset="0.99"/>
</linearGradient>
<linearGradient id="paint20_linear_15_172" x1="65.4636" y1="182.94" x2="218.108" y2="180.988" gradientUnits="userSpaceOnUse">
<stop stop-opacity="0"/>
<stop offset="0.99"/>
</linearGradient>
<linearGradient id="paint21_linear_15_172" x1="135.797" y1="249.446" x2="141.79" y2="249.446" gradientUnits="userSpaceOnUse">
<stop stop-color="#ECC4D7"/>
<stop offset="0.42" stop-color="#EFD4D1"/>
<stop offset="1" stop-color="#F2EAC9"/>
</linearGradient>
<linearGradient id="paint22_linear_15_172" x1="169.955" y1="251.414" x2="163.767" y2="251.414" gradientUnits="userSpaceOnUse">
<stop stop-color="#ECC4D7"/>
<stop offset="0.42" stop-color="#EFD4D1"/>
<stop offset="1" stop-color="#F2EAC9"/>
</linearGradient>
<linearGradient id="paint23_linear_15_172" x1="121.668" y1="255.791" x2="141.79" y2="255.791" gradientUnits="userSpaceOnUse">
<stop stop-opacity="0"/>
<stop offset="0.99"/>
</linearGradient>
<linearGradient id="paint24_linear_15_172" x1="162.721" y1="257.835" x2="182.489" y2="257.835" gradientUnits="userSpaceOnUse">
<stop stop-opacity="0"/>
<stop offset="0.99"/>
</linearGradient>
<linearGradient id="paint25_linear_15_172" x1="60.3375" y1="125.442" x2="65.2689" y2="182.598" gradientUnits="userSpaceOnUse">
<stop stop-opacity="0"/>
<stop offset="0.99"/>
</linearGradient>
<linearGradient id="paint26_linear_15_172" x1="89.5115" y1="119.087" x2="-10.6045" y2="215.19" gradientUnits="userSpaceOnUse">
<stop stop-opacity="0"/>
<stop offset="0.99"/>
</linearGradient>
<clipPath id="clip0_15_172">
<rect width="256" height="265" fill="white"/>
</clipPath>
</defs>
</svg>
