<svg width="300" height="261" viewBox="0 0 300 261" fill="none" xmlns="http://www.w3.org/2000/svg">
<path d="M132.882 116.639C137.265 139.77 151.044 172.044 179.37 192.568C206.813 214.011 239.522 215.108 258.961 204.772C279.202 194.738 286.175 173.273 280.663 156.578C275.108 139.117 262.248 127.254 250.033 119.614C237.331 111.86 225.274 108.329 210.042 104.928C195.213 101.633 179.55 96.4604 167.153 89.2707C154.574 82.6239 145.262 73.9587 138.95 76.2303C133.23 78.0938 128.357 92.7951 132.882 116.639Z" fill="#FEE7E7"/>
<path d="M163.868 149.214C160.846 125.82 148.981 92.635 121.913 70.1446C95.7797 46.7973 63.2029 43.3817 43.2 52.3166C22.4139 60.893 14.2018 81.8191 18.7271 98.8694C23.25 116.689 35.3905 129.439 47.1324 137.931C59.3558 146.569 71.1805 150.948 86.1829 155.424C100.788 159.765 116.117 166.038 128.068 174.092C140.233 181.618 149.019 190.926 155.451 189.107C161.267 187.654 166.989 173.329 163.868 149.214Z" fill="#FEE7E7"/>
<path d="M170.372 196.96H131.247V219.229H170.372V196.96Z" fill="#FFBEBE"/>
<path opacity="0.3" d="M170.372 211.412L131.247 206.615V196.96H170.372V211.412Z" fill="#000141"/>
<path d="M226.374 215.321H74.171C70.9658 215.321 68.3668 218.185 68.3668 221.717H232.179C232.178 218.184 229.58 215.321 226.374 215.321Z" fill="#F2DCDC"/>
<path d="M265.999 49.0958V191.422C265.999 197.224 261.724 201.935 256.459 201.935H51.8495C47.393 201.935 43.6477 198.555 42.6016 193.993C42.4114 193.168 42.3135 192.308 42.3135 191.422V49.0958C42.3135 43.2886 46.5885 38.5828 51.8487 38.5828H256.458C261.724 38.5828 265.999 43.2886 265.999 49.0958Z" fill="#FFBEBE"/>
<path d="M252.83 44.5666H55.4819C51.2077 44.5666 47.7427 48.385 47.7427 53.0952V187.42C47.7427 192.13 51.2077 195.948 55.4819 195.948H252.83C257.104 195.948 260.569 192.13 260.569 187.42V53.0952C260.569 48.385 257.104 44.5666 252.83 44.5666Z" fill="#FEE7E7"/>
<path d="M252.83 44.5666H55.4819C51.2077 44.5666 47.7427 48.385 47.7427 53.0952V187.42C47.7427 192.13 51.2077 195.948 55.4819 195.948H252.83C257.104 195.948 260.569 192.13 260.569 187.42V53.0952C260.569 48.385 257.104 44.5666 252.83 44.5666Z" fill="#FEE7E7"/>
<path d="M252.83 49.6874H166.12V190.827H252.83C254.535 190.827 255.922 189.298 255.922 187.42V53.0952C255.922 51.216 254.534 49.6874 252.83 49.6874Z" fill="white"/>
<path d="M46.2806 222.417H262.033C262.622 222.417 263.101 221.89 263.101 221.24C263.101 220.59 262.622 220.063 262.033 220.063H46.2806C45.6908 220.063 45.2124 220.59 45.2124 221.24C45.2124 221.891 45.69 222.417 46.2806 222.417ZM185.329 74.9975C182.312 74.9975 179.867 77.6919 179.867 81.017C179.867 84.3421 182.312 87.0365 185.329 87.0365C188.346 87.0365 190.791 84.3421 190.791 81.017C190.791 77.6927 188.346 74.9975 185.329 74.9975ZM185.329 86.0473C182.807 86.0473 180.76 83.7966 180.76 81.0179C180.76 78.2391 182.807 75.9884 185.329 75.9884C187.851 75.9884 189.893 78.2391 189.893 81.0179C189.893 83.7966 187.851 86.0473 185.329 86.0473ZM211.51 76.3947H197.137C196.783 76.3947 196.456 76.6609 196.399 77.0455C196.326 77.5353 196.668 77.959 197.099 77.959H211.51C211.903 77.959 212.22 77.6083 212.22 77.1768C212.22 76.7453 211.902 76.3947 211.51 76.3947ZM238.96 76.3947H213.895C213.502 76.3947 213.185 76.7453 213.185 77.1768C213.185 77.6092 213.503 77.959 213.895 77.959H238.997C239.428 77.959 239.77 77.5353 239.698 77.0455C239.641 76.6609 239.313 76.3947 238.96 76.3947ZM217.706 80.2349H197.138C196.784 80.2349 196.457 80.5011 196.4 80.8856C196.327 81.3754 196.669 81.7991 197.1 81.7991H217.707C218.099 81.7991 218.417 81.4485 218.417 81.017C218.416 80.5855 218.098 80.2349 217.706 80.2349ZM217.706 84.0759H197.138C196.784 84.0759 196.457 84.3421 196.4 84.7267C196.327 85.2165 196.669 85.641 197.1 85.641H217.707C218.099 85.641 218.417 85.2904 218.417 84.8589C218.416 84.4257 218.098 84.0759 217.706 84.0759ZM238.96 80.2349H220.09C219.698 80.2349 219.38 80.5855 219.38 81.017C219.38 81.4494 219.698 81.7991 220.09 81.7991H238.997C239.428 81.7991 239.77 81.3754 239.697 80.8856C239.641 80.502 239.313 80.2349 238.96 80.2349Z" fill="#FFBEBE"/>
<path d="M185.25 84.0211C185.162 84.0211 185.073 84.0116 184.985 83.9916C184.641 83.9133 184.34 83.6862 184.15 83.3608L182.217 80.0626C181.824 79.3936 181.999 78.5001 182.607 78.0677C183.215 77.6336 184.025 77.8276 184.418 78.4966L185.628 80.5629L191.88 75.951C192.481 75.5056 193.294 75.6839 193.697 76.3477C194.099 77.0089 193.938 77.905 193.337 78.3487L185.979 83.7767C185.762 83.9376 185.507 84.0211 185.25 84.0211Z" fill="#FFBEBE"/>
<path d="M228.782 101.392C228.782 104.717 231.227 107.411 234.245 107.411C237.262 107.411 239.707 104.717 239.707 101.392C239.707 98.0664 237.262 95.372 234.245 95.372C231.227 95.372 228.782 98.0664 228.782 101.392ZM229.681 101.392C229.681 98.6128 231.723 96.3621 234.245 96.3621C236.766 96.3621 238.814 98.6128 238.814 101.392C238.814 104.17 236.766 106.421 234.245 106.421C231.723 106.421 229.681 104.17 229.681 101.392ZM208.063 96.7693H222.437C222.79 96.7693 223.118 97.0355 223.175 97.42C223.247 97.9098 222.905 98.3335 222.474 98.3335H208.063C207.671 98.3335 207.354 97.9829 207.354 97.5514C207.354 97.119 207.672 96.7693 208.063 96.7693ZM180.614 96.7693H205.679C206.072 96.7693 206.389 97.1199 206.389 97.5514C206.389 97.9838 206.071 98.3335 205.679 98.3335H180.576C180.145 98.3335 179.803 97.9098 179.876 97.42C179.933 97.0355 180.26 96.7693 180.614 96.7693ZM201.868 100.609H222.436C222.789 100.609 223.117 100.876 223.174 101.26C223.247 101.75 222.905 102.174 222.474 102.174H201.867C201.474 102.174 201.157 101.823 201.157 101.392C201.158 100.96 201.476 100.609 201.868 100.609ZM201.868 104.45H222.436C222.789 104.45 223.117 104.716 223.174 105.1C223.247 105.59 222.905 106.015 222.474 106.015H201.867C201.474 106.015 201.157 105.664 201.157 105.233C201.158 104.8 201.476 104.45 201.868 104.45ZM180.615 100.609H199.484C199.876 100.609 200.194 100.96 200.194 101.392C200.194 101.824 199.876 102.174 199.484 102.174H180.576C180.145 102.174 179.803 101.75 179.876 101.26C179.933 100.876 180.261 100.609 180.615 100.609Z" fill="#FFBEBE"/>
<path d="M234.853 103.687C234.765 103.687 234.677 103.677 234.589 103.657C234.245 103.579 233.944 103.352 233.754 103.026L231.82 99.7281C231.428 99.0591 231.602 98.1656 232.21 97.7332C232.818 97.2991 233.628 97.4931 234.021 98.1621L235.232 100.228L241.483 95.6165C242.084 95.171 242.897 95.3494 243.3 96.0132C243.703 96.6744 243.542 97.5705 242.94 98.0142L235.582 103.442C235.365 103.603 235.111 103.687 234.853 103.687Z" fill="#FFBEBE"/>
<path d="M224.093 175.541C224.093 175.541 220.771 185.092 217.977 190.601C222.857 190.601 226.558 190.601 226.558 190.601V178.412L224.093 175.541Z" fill="#FECECC"/>
<path d="M234.486 161.634C234.486 161.634 226.653 167.646 223.247 175.457C223.247 175.457 227.927 185.473 230.721 183.861C234.801 181.505 234.486 161.634 234.486 161.634Z" fill="#FFBEBE"/>
<path d="M249.752 190.601C249.617 177.946 246.182 161.404 236.98 161.173C229.623 160.988 224.955 177.389 224.092 190.601H249.752Z" fill="#FF7B7B"/>
<path d="M230.99 169.254C230.956 169.254 230.922 169.235 230.902 169.199C230.872 169.145 230.888 169.076 230.937 169.043C231.426 168.715 231.302 168.176 231.297 168.154C231.282 168.093 231.315 168.03 231.369 168.014C231.424 167.997 231.481 168.033 231.497 168.093C231.559 168.342 231.545 168.902 231.045 169.237C231.028 169.249 231.009 169.254 230.99 169.254ZM233.486 174.527C233.451 174.527 233.417 174.508 233.398 174.472C233.368 174.418 233.383 174.348 233.432 174.316C233.922 173.988 233.798 173.449 233.792 173.427C233.777 173.366 233.81 173.303 233.865 173.287C233.919 173.27 233.976 173.306 233.992 173.366C234.054 173.615 234.04 174.174 233.54 174.51C233.523 174.522 233.505 174.527 233.486 174.527ZM238.644 170.067C238.609 170.067 238.575 170.048 238.555 170.012C238.525 169.958 238.541 169.888 238.59 169.855C239.079 169.527 238.955 168.989 238.95 168.966C238.935 168.905 238.968 168.843 239.023 168.826C239.077 168.81 239.134 168.845 239.15 168.905C239.212 169.154 239.198 169.714 238.698 170.049C238.681 170.062 238.662 170.067 238.644 170.067ZM231.452 177.564C231.452 177.603 231.434 177.64 231.402 177.662C231.353 177.695 231.289 177.678 231.26 177.624C230.962 177.084 230.473 177.221 230.453 177.227C230.398 177.243 230.341 177.207 230.326 177.147C230.31 177.087 230.343 177.024 230.398 177.007C230.623 176.938 231.131 176.954 231.436 177.504C231.447 177.524 231.452 177.544 231.452 177.564ZM226.662 182.434C226.627 182.434 226.593 182.415 226.573 182.379C226.543 182.325 226.559 182.255 226.608 182.222C227.098 181.894 226.974 181.356 226.968 181.333C226.953 181.272 226.986 181.21 227.041 181.193C227.095 181.177 227.152 181.212 227.168 181.272C227.23 181.521 227.216 182.081 226.716 182.416C226.699 182.429 226.68 182.434 226.662 182.434ZM230.37 171.617C230.367 171.579 230.381 171.54 230.411 171.514C230.457 171.477 230.522 171.487 230.555 171.537C230.898 172.043 231.373 171.855 231.392 171.848C231.446 171.826 231.505 171.855 231.526 171.915C231.546 171.973 231.519 172.039 231.466 172.062C231.246 172.154 230.74 172.191 230.389 171.675C230.379 171.657 230.372 171.637 230.37 171.617ZM236.27 167.592C236.267 167.554 236.281 167.515 236.311 167.49C236.357 167.452 236.421 167.463 236.456 167.513C236.799 168.019 237.273 167.832 237.293 167.824C237.347 167.802 237.406 167.832 237.426 167.891C237.447 167.949 237.42 168.015 237.366 168.038C237.148 168.13 236.641 168.168 236.289 167.651C236.278 167.632 236.272 167.612 236.27 167.592ZM232.634 182.053C232.631 182.014 232.645 181.975 232.675 181.95C232.721 181.913 232.786 181.923 232.82 181.974C233.162 182.479 233.637 182.292 233.657 182.284C233.71 182.262 233.769 182.292 233.79 182.351C233.81 182.409 233.784 182.476 233.73 182.498C233.51 182.59 233.004 182.628 232.653 182.111C232.643 182.093 232.636 182.073 232.634 182.053ZM237.695 173.717C237.692 173.679 237.706 173.64 237.736 173.615C237.782 173.577 237.846 173.588 237.881 173.637C238.224 174.143 238.698 173.956 238.718 173.948C238.772 173.926 238.831 173.956 238.851 174.015C238.872 174.073 238.845 174.139 238.791 174.162C238.572 174.254 238.066 174.291 237.714 173.775C237.703 173.757 237.696 173.737 237.695 173.717ZM226.243 178.058C226.24 178.019 226.254 177.98 226.284 177.955C226.33 177.918 226.395 177.928 226.429 177.979C226.772 178.484 227.246 178.297 227.266 178.289C227.319 178.267 227.379 178.297 227.399 178.356C227.42 178.414 227.393 178.481 227.339 178.503C227.12 178.595 226.614 178.633 226.262 178.116C226.252 178.098 226.245 178.078 226.243 178.058ZM235.217 170.643C235.028 170.643 234.898 170.519 234.733 170.36C234.657 170.288 234.572 170.206 234.464 170.119C234.221 169.923 234.187 169.957 234.023 170.12C233.933 170.209 233.809 170.331 233.617 170.44C233.439 170.54 233.273 170.557 233.12 170.49C232.85 170.37 232.738 170.025 232.734 170.01C232.715 169.951 232.745 169.886 232.798 169.865C232.852 169.844 232.911 169.875 232.93 169.935C232.931 169.937 233.016 170.197 233.199 170.278C233.295 170.32 233.401 170.307 233.524 170.237C233.692 170.142 233.799 170.036 233.885 169.951C234.086 169.753 234.227 169.646 234.587 169.935C234.702 170.028 234.791 170.113 234.869 170.188C235.115 170.423 235.189 170.494 235.503 170.315C235.554 170.286 235.616 170.308 235.643 170.363C235.669 170.419 235.649 170.488 235.599 170.517C235.442 170.606 235.321 170.643 235.217 170.643ZM237.092 181.633C236.902 181.633 236.773 181.509 236.607 181.35C236.531 181.278 236.446 181.196 236.338 181.109C236.095 180.913 236.061 180.947 235.897 181.11C235.807 181.199 235.683 181.321 235.491 181.43C235.314 181.53 235.147 181.546 234.995 181.479C234.724 181.358 234.613 181.014 234.609 180.999C234.59 180.94 234.618 180.875 234.673 180.854C234.726 180.833 234.785 180.864 234.804 180.923C234.805 180.926 234.89 181.186 235.074 181.267C235.169 181.309 235.275 181.296 235.398 181.226C235.566 181.131 235.674 181.025 235.76 180.94C235.96 180.742 236.102 180.635 236.462 180.924C236.576 181.017 236.665 181.102 236.743 181.177C236.989 181.412 237.063 181.483 237.377 181.304C237.428 181.275 237.49 181.297 237.517 181.352C237.543 181.408 237.523 181.477 237.473 181.506C237.317 181.595 237.195 181.633 237.092 181.633ZM227.893 175.541C227.885 175.541 227.876 175.54 227.867 175.537C227.593 175.459 227.473 175.271 227.42 175.128C227.323 174.858 227.389 174.543 227.498 174.35C227.69 174.009 227.76 173.727 227.474 173.461C227.329 173.325 227.308 173.185 227.315 173.091C227.34 172.799 227.666 172.586 227.703 172.563C227.753 172.531 227.816 172.551 227.844 172.605C227.873 172.66 227.855 172.73 227.806 172.761C227.736 172.806 227.534 172.964 227.522 173.112C227.52 173.133 227.514 173.2 227.608 173.286C228.089 173.735 227.788 174.269 227.674 174.47C227.595 174.609 227.542 174.848 227.613 175.042C227.663 175.18 227.766 175.272 227.919 175.315C227.975 175.331 228.008 175.394 227.994 175.455C227.982 175.507 227.939 175.541 227.893 175.541ZM230.012 189.365C230.003 189.365 229.994 189.364 229.985 189.362C229.711 189.283 229.591 189.095 229.539 188.952C229.441 188.682 229.507 188.367 229.616 188.174C229.809 187.833 229.878 187.551 229.592 187.285C229.447 187.149 229.426 187.009 229.434 186.915C229.458 186.623 229.784 186.411 229.821 186.387C229.871 186.356 229.934 186.375 229.963 186.43C229.991 186.485 229.974 186.554 229.924 186.585C229.854 186.63 229.652 186.788 229.64 186.936C229.639 186.958 229.633 187.024 229.727 187.11C230.208 187.559 229.907 188.093 229.793 188.294C229.714 188.433 229.661 188.673 229.732 188.867C229.782 189.004 229.885 189.096 230.038 189.14C230.094 189.155 230.127 189.218 230.113 189.279C230.099 189.331 230.057 189.365 230.012 189.365ZM229.007 185.966C228.998 185.966 228.989 185.965 228.98 185.963C228.706 185.884 228.586 185.696 228.534 185.553C228.436 185.283 228.502 184.968 228.611 184.775C228.804 184.434 228.873 184.152 228.587 183.886C228.442 183.75 228.421 183.61 228.429 183.516C228.453 183.224 228.779 183.011 228.816 182.988C228.866 182.957 228.929 182.976 228.958 183.031C228.986 183.085 228.969 183.155 228.919 183.186C228.849 183.231 228.647 183.389 228.635 183.537C228.634 183.559 228.628 183.625 228.722 183.711C229.203 184.16 228.902 184.694 228.788 184.895C228.709 185.034 228.656 185.273 228.727 185.467C228.777 185.605 228.88 185.697 229.033 185.741C229.089 185.756 229.122 185.819 229.108 185.88C229.094 185.931 229.052 185.966 229.007 185.966ZM236.345 176.631C236.35 176.639 236.354 176.647 236.357 176.657C236.453 176.952 236.379 177.167 236.301 177.295C236.154 177.535 235.88 177.652 235.674 177.661C235.31 177.677 235.059 177.771 235.02 178.183C235 178.392 234.906 178.49 234.831 178.535C234.598 178.677 234.256 178.5 234.217 178.479C234.166 178.451 234.144 178.383 234.17 178.327C234.195 178.27 234.257 178.246 234.308 178.274C234.38 178.313 234.613 178.407 234.731 178.336C234.748 178.326 234.8 178.293 234.814 178.159C234.88 177.468 235.451 177.443 235.666 177.434C235.815 177.427 236.023 177.342 236.13 177.168C236.205 177.045 236.216 176.899 236.163 176.734C236.144 176.675 236.172 176.61 236.225 176.588C236.27 176.57 236.319 176.589 236.345 176.631ZM234.574 187.06C234.574 187.07 234.573 187.08 234.571 187.089C234.5 187.392 234.329 187.524 234.199 187.582C233.954 187.689 233.668 187.616 233.493 187.496C233.184 187.284 232.928 187.207 232.686 187.522C232.563 187.682 232.436 187.706 232.351 187.697C232.085 187.67 231.893 187.311 231.872 187.27C231.843 187.215 231.86 187.146 231.91 187.114C231.96 187.083 232.023 187.102 232.052 187.157C232.092 187.234 232.235 187.456 232.37 187.47C232.389 187.472 232.449 187.478 232.528 187.375C232.935 186.845 233.42 187.177 233.602 187.302C233.728 187.389 233.945 187.448 234.122 187.369C234.246 187.314 234.33 187.201 234.369 187.032C234.384 186.971 234.44 186.934 234.496 186.95C234.542 186.964 234.574 187.01 234.574 187.06ZM230.029 182.402C229.734 182.402 229.494 182.137 229.494 181.812C229.494 181.487 229.734 181.223 230.029 181.223C230.324 181.223 230.564 181.487 230.564 181.812C230.563 182.137 230.323 182.402 230.029 182.402ZM230.029 181.451C229.848 181.451 229.701 181.613 229.701 181.812C229.701 182.011 229.848 182.173 230.029 182.173C230.21 182.173 230.357 182.011 230.357 181.812C230.357 181.613 230.21 181.451 230.029 181.451ZM238.063 172.672C237.767 172.672 237.527 172.407 237.527 172.082C237.527 171.756 237.767 171.492 238.063 171.492C238.358 171.492 238.598 171.756 238.598 172.082C238.597 172.407 238.357 172.672 238.063 172.672ZM238.063 171.721C237.882 171.721 237.735 171.882 237.735 172.082C237.735 172.281 237.882 172.443 238.063 172.443C238.243 172.443 238.39 172.281 238.39 172.082C238.39 171.882 238.243 171.721 238.063 171.721ZM229.772 173.872C229.477 173.872 229.237 173.608 229.237 173.282C229.237 172.957 229.477 172.693 229.772 172.693C230.068 172.693 230.308 172.958 230.308 173.282C230.307 173.608 230.068 173.872 229.772 173.872ZM229.772 172.921C229.592 172.921 229.445 173.083 229.445 173.282C229.445 173.481 229.592 173.643 229.772 173.643C229.953 173.643 230.1 173.481 230.1 173.282C230.1 173.083 229.953 172.921 229.772 172.921ZM225.948 189.366C225.653 189.366 225.413 189.101 225.413 188.776C225.413 188.452 225.653 188.187 225.948 188.187C226.243 188.187 226.483 188.452 226.483 188.776C226.483 189.101 226.243 189.366 225.948 189.366ZM225.948 188.416C225.767 188.416 225.62 188.578 225.62 188.777C225.62 188.976 225.767 189.138 225.948 189.138C226.129 189.138 226.276 188.976 226.276 188.777C226.277 188.578 226.129 188.416 225.948 188.416ZM234.29 167.78C233.995 167.78 233.755 167.516 233.755 167.191C233.755 166.866 233.995 166.602 234.29 166.602C234.586 166.602 234.826 166.866 234.826 167.191C234.825 167.516 234.585 167.78 234.29 167.78ZM234.29 166.829C234.11 166.829 233.963 166.991 233.963 167.191C233.963 167.39 234.11 167.552 234.29 167.552C234.471 167.552 234.618 167.39 234.618 167.191C234.618 166.991 234.471 166.829 234.29 166.829ZM238.39 187.323C238.095 187.323 237.855 187.059 237.855 186.733C237.855 186.408 238.095 186.143 238.39 186.143C238.685 186.143 238.925 186.408 238.925 186.733C238.925 187.059 238.685 187.323 238.39 187.323ZM238.39 186.372C238.209 186.372 238.063 186.534 238.063 186.733C238.063 186.933 238.209 187.094 238.39 187.094C238.571 187.094 238.718 186.933 238.718 186.733C238.718 186.534 238.571 186.372 238.39 186.372Z" fill="#FFBEBE"/>
<path d="M235.081 157.879L234.492 161.713C234.492 161.713 235.138 165.318 239.589 162.576L238.502 157.096L235.081 157.879Z" fill="#FECECC"/>
<path opacity="0.1" d="M238.501 157.097L235.081 157.879L234.825 159.542C234.906 159.568 234.988 159.594 235.07 159.617C235.463 159.731 235.863 159.827 236.246 159.96C236.546 160.064 236.845 160.198 237.067 160.396C237.3 160.604 237.415 160.863 237.431 161.141C237.458 161.597 237.164 161.996 236.957 162.404C236.823 162.666 236.751 163.018 236.458 163.2C236.244 163.332 235.965 163.38 235.689 163.376C236.446 163.762 237.659 163.766 239.589 162.578L238.501 157.097Z" fill="#201135"/>
<path d="M232.005 147.307C232.005 147.307 229.954 159.623 234.135 159.913C238.317 160.203 241.183 155.305 241.183 155.305C241.183 155.305 242.919 155 243.038 152.696C243.133 150.839 242.091 151.175 242.091 151.175C242.091 151.175 242.893 146.436 239.896 145.508C236.897 144.583 232.005 147.307 232.005 147.307Z" fill="#FECECC"/>
<path opacity="0.1" d="M238.154 153.674C238.2 153.973 237.904 154.279 237.493 154.355C237.081 154.432 236.711 154.251 236.665 153.951C236.62 153.652 236.916 153.346 237.327 153.27C237.738 153.194 238.108 153.375 238.154 153.674ZM233.496 153.703C233.541 154.002 233.245 154.308 232.834 154.383C232.423 154.46 232.052 154.279 232.007 153.979C231.961 153.679 232.257 153.374 232.668 153.298C233.079 153.222 233.449 153.403 233.496 153.703Z" fill="#201135"/>
<path d="M233.693 150.886C233.653 150.886 233.615 150.863 233.593 150.822C233.575 150.787 233.13 149.978 232.039 150.51C231.981 150.539 231.913 150.509 231.887 150.446C231.861 150.382 231.887 150.306 231.946 150.279C233.232 149.65 233.787 150.687 233.792 150.696C233.824 150.757 233.805 150.835 233.75 150.869C233.732 150.881 233.712 150.886 233.693 150.886ZM235.923 150.908C235.909 150.908 235.895 150.906 235.881 150.9C235.821 150.874 235.792 150.801 235.816 150.735C235.82 150.724 236.238 149.618 237.75 149.975C237.812 149.99 237.852 150.057 237.838 150.125C237.825 150.193 237.765 150.238 237.702 150.223C236.377 149.91 236.033 150.82 236.03 150.829C236.012 150.878 235.969 150.908 235.923 150.908ZM234.613 154.08C234.574 154.08 234.535 154.074 234.496 154.061C234.252 153.983 234.149 153.68 234.145 153.668C234.132 153.631 234.137 153.589 234.156 153.555C234.569 152.857 234.46 151.915 234.458 151.905C234.449 151.836 234.493 151.772 234.557 151.763C234.621 151.752 234.677 151.802 234.686 151.872C234.692 151.912 234.802 152.867 234.383 153.633C234.416 153.699 234.478 153.792 234.561 153.819C234.638 153.843 234.733 153.809 234.842 153.718C234.892 153.675 234.964 153.686 235.003 153.741C235.041 153.797 235.032 153.876 234.981 153.919C234.855 154.026 234.731 154.08 234.613 154.08Z" fill="#000141"/>
<path d="M233.138 155.73C233.138 155.73 234.449 156.385 235.918 155.632C236.252 156.305 234.511 158.056 233.138 155.73Z" fill="#FCFAF7"/>
<path d="M233.344 151.907C233.344 152.302 233.145 152.622 232.9 152.622C232.655 152.622 232.457 152.302 232.457 151.907C232.457 151.512 232.655 151.193 232.9 151.193C233.145 151.193 233.344 151.513 233.344 151.907ZM237.337 151.907C237.337 152.302 237.139 152.622 236.893 152.622C236.649 152.622 236.45 152.302 236.45 151.907C236.45 151.512 236.649 151.193 236.893 151.193C237.139 151.193 237.337 151.513 237.337 151.907Z" fill="#000141"/>
<path opacity="0.1" d="M234.838 157.525C234.717 157.525 234.638 157.505 234.63 157.503C234.599 157.495 234.58 157.461 234.587 157.427C234.594 157.393 234.626 157.373 234.657 157.38C234.662 157.382 235.166 157.506 235.624 157.068C235.648 157.046 235.685 157.049 235.705 157.075C235.726 157.101 235.723 157.141 235.7 157.165C235.381 157.467 235.047 157.525 234.838 157.525ZM241.893 151.929C241.893 151.929 242.563 151.581 242.695 152.103C242.827 152.625 242.406 153.943 241.762 154.248C241.762 154.248 242.932 153.002 242.551 152.247C242.169 151.494 241.933 152.291 241.893 151.929Z" fill="#201135"/>
<path d="M239.404 161.49C239.404 161.49 240.407 162.508 239.864 164.072C239.404 165.398 238.808 166.565 237.123 166.243C235.438 165.921 235.378 164.072 235.378 164.072C235.378 164.072 233.923 166.2 232.708 165.082C230.644 163.182 234.549 161.343 234.549 161.343C234.549 161.343 234.493 162.424 235.97 162.908C237.448 163.392 239.404 161.49 239.404 161.49Z" fill="#FFBEBE"/>
<path d="M238.287 146.279C238.287 146.279 237.079 148.702 235.783 148.599C234.486 148.495 234.365 148.23 234.365 148.23C234.365 148.23 233.613 149.498 231.694 149.395C229.775 149.291 229.618 147.84 229.618 147.84C229.618 147.84 228.194 147.348 228.613 145.587C229.031 143.826 230.378 144.375 230.378 144.375C230.378 144.375 229.66 143.301 231.036 142.125C232.413 140.948 233.747 143.059 233.747 143.059C233.747 143.059 234.115 142.449 236.013 141.768C237.911 141.086 239.212 143.337 239.212 143.337C239.212 143.337 241.837 142.402 242.372 145.172C242.372 145.172 244.131 146.314 243.346 148.011C243.346 148.011 244.674 151.403 241.946 151.42C241.946 151.42 241.492 153.129 240.392 153.028C239.293 152.927 239.927 151.244 239.689 150.58C239.449 149.914 237.69 149.326 238.287 146.279Z" fill="#000141"/>
<path d="M248.889 178.589C248.889 178.589 252.214 188.782 250.623 190.602H237.527C237.527 190.602 242.909 188.607 243.043 186.372C243.178 184.137 241.226 180.747 241.226 180.747L248.889 178.589Z" fill="#FECECC"/>
<path d="M240.389 182.496C240.389 182.496 246.52 184.512 249.849 179.811C249.849 179.811 248.324 168.17 242.057 163.136C238.317 164.102 240.389 182.496 240.389 182.496Z" fill="#FFBEBE"/>
<path opacity="0.1" d="M219.065 116.834H160.841C159.274 116.834 158.004 118.236 158.006 119.963L158.042 151.983C158.044 153.707 159.313 155.104 160.877 155.104H210.126L216.013 157.323L217.246 155.104H219.066C222.913 155.104 226.031 151.667 226.031 147.428V124.511C226.03 120.271 222.912 116.834 219.065 116.834Z" fill="#000141"/>
<path d="M216.013 152.037V157.323L206.164 152.674L216.013 152.037Z" fill="white"/>
<path d="M162.029 115.697H217.831C221.678 115.697 224.796 119.133 224.796 123.373V146.288C224.796 150.527 221.678 153.964 217.831 153.964H162.029C158.182 153.964 155.064 150.527 155.064 146.288V123.373C155.064 119.133 158.182 115.697 162.029 115.697Z" fill="white"/>
<path d="M165.152 133.756C163.082 133.756 161.404 135.604 161.404 137.885C161.404 140.167 163.082 142.015 165.152 142.015C167.222 142.015 168.899 140.167 168.899 137.885C168.899 135.604 167.222 133.756 165.152 133.756ZM165.152 141.335C163.422 141.335 162.017 139.791 162.017 137.885C162.017 135.978 163.421 134.434 165.152 134.434C166.881 134.434 168.283 135.978 168.283 137.885C168.283 139.791 166.881 141.335 165.152 141.335Z" fill="#FFBEBE"/>
<path d="M165.643 137.885C165.643 138.185 165.423 138.427 165.151 138.427C164.878 138.427 164.657 138.185 164.657 137.885C164.657 137.584 164.878 137.342 165.151 137.342C165.423 137.342 165.643 137.584 165.643 137.885Z" fill="#FFBEBE"/>
<path d="M165.15 134.96C164.976 134.96 164.833 135.115 164.833 135.308V137.73C164.833 137.922 164.975 138.079 165.15 138.079C165.325 138.079 165.467 137.923 165.467 137.73V135.308C165.467 135.115 165.325 134.96 165.15 134.96Z" fill="#FFBEBE"/>
<path d="M167 135.958C166.877 135.822 166.676 135.822 166.552 135.958L164.998 137.67C164.875 137.805 164.875 138.026 164.998 138.163C165.122 138.299 165.322 138.299 165.446 138.163L167 136.451C167.123 136.314 167.123 136.093 167 135.958Z" fill="#FFBEBE"/>
<path d="M183.113 134.713H173.253C173.011 134.713 172.786 134.896 172.747 135.16C172.697 135.496 172.932 135.786 173.227 135.786H183.114C183.383 135.786 183.601 135.546 183.601 135.249C183.599 134.954 183.381 134.713 183.113 134.713ZM201.943 134.713H184.748C184.479 134.713 184.261 134.954 184.261 135.25C184.261 135.547 184.479 135.787 184.748 135.787H201.97C202.266 135.787 202.499 135.496 202.45 135.161C202.411 134.896 202.186 134.713 201.943 134.713ZM187.363 137.348H173.252C173.01 137.348 172.785 137.53 172.746 137.794C172.696 138.13 172.93 138.421 173.226 138.421H187.362C187.631 138.421 187.849 138.181 187.849 137.885C187.85 137.589 187.632 137.348 187.363 137.348ZM187.363 139.983H173.252C173.01 139.983 172.785 140.166 172.746 140.429C172.696 140.766 172.93 141.057 173.226 141.057H187.362C187.631 141.057 187.849 140.816 187.849 140.52C187.85 140.223 187.632 139.983 187.363 139.983ZM201.943 137.348H188.998C188.729 137.348 188.511 137.588 188.511 137.885C188.511 138.181 188.729 138.421 188.998 138.421H201.97C202.266 138.421 202.499 138.131 202.45 137.794C202.411 137.53 202.186 137.348 201.943 137.348Z" fill="#FFBEBE"/>
<path d="M156.297 127.392V123.373C156.297 119.889 158.868 117.056 162.028 117.056H217.83C220.99 117.056 223.562 119.889 223.562 123.373V127.392H156.297Z" fill="#FF7B7B"/>
<path d="M168.861 123.283L168.517 124.451H167.387L168.861 119.948H170.164L171.639 124.451H170.478L170.135 123.283H168.861ZM169.121 122.369H169.879L169.5 120.986L169.121 122.369ZM175.658 121.409C175.658 122.297 175.119 122.76 174.527 122.839C174.308 122.865 174.142 122.871 173.887 122.871H173.413V124.45H172.348V119.947H173.888C174.143 119.947 174.309 119.954 174.527 119.98C175.119 120.058 175.658 120.522 175.658 121.409ZM174.545 121.409C174.545 121.07 174.385 120.893 174.112 120.868C174.036 120.861 173.941 120.861 173.828 120.861H173.413V121.957H173.828C173.941 121.957 174.036 121.957 174.112 121.951C174.385 121.925 174.545 121.749 174.545 121.409ZM179.796 121.409C179.796 122.297 179.257 122.76 178.665 122.839C178.446 122.865 178.281 122.871 178.026 122.871H177.552V124.45H176.486V119.947H178.026C178.281 119.947 178.447 119.954 178.666 119.98C179.257 120.058 179.796 120.522 179.796 121.409ZM178.682 121.409C178.682 121.07 178.522 120.893 178.25 120.868C178.173 120.861 178.078 120.861 177.966 120.861H177.551V121.957H177.966C178.078 121.957 178.173 121.957 178.25 121.951C178.523 121.925 178.682 121.749 178.682 121.409ZM184.652 122.199C184.652 123.642 183.834 124.542 182.561 124.542C181.288 124.542 180.471 123.642 180.471 122.199C180.471 120.751 181.288 119.856 182.561 119.856C183.834 119.856 184.652 120.751 184.652 122.199ZM183.561 122.199C183.561 121.24 183.177 120.718 182.56 120.718C181.944 120.718 181.559 121.24 181.559 122.199C181.559 123.152 181.944 123.681 182.56 123.681C183.177 123.681 183.561 123.152 183.561 122.199ZM185.615 124.451V119.948H186.681V124.451H185.615ZM190.316 124.451L188.829 121.475C188.865 121.931 188.865 122.33 188.865 122.591V124.451H187.799V119.948H189.126L190.678 123.055C190.648 122.598 190.642 122.134 190.642 121.873V119.948H191.708V124.451H190.316ZM194.827 120.861V124.451H193.761V120.861H192.435V119.948H196.154V120.861H194.827ZM201.565 124.451H200.499V122.558C200.499 122.166 200.499 121.585 200.511 121.128C200.44 121.585 200.322 122.159 200.227 122.558L199.777 124.451H198.681L198.225 122.558C198.13 122.166 198.012 121.585 197.947 121.128C197.959 121.585 197.959 122.166 197.959 122.558V124.451H196.893V119.948H198.557L199.251 123.309L199.944 119.948H201.567V124.451H201.565ZM205.815 124.451H202.682V119.948H205.756V120.861H203.748V121.736H205.637V122.649H203.748V123.537H205.815V124.451ZM209.308 124.451L207.822 121.475C207.857 121.931 207.857 122.33 207.857 122.591V124.451H206.792V119.948H208.118L209.67 123.055C209.64 122.598 209.635 122.134 209.635 121.873V119.948H210.7V124.451H209.308ZM213.819 120.861V124.451H212.754V120.861H211.427V119.948H215.147V120.861H213.819Z" fill="white"/>
<path d="M218.172 131.516H209.162C207.506 131.516 206.164 132.995 206.164 134.82V144.682C206.164 146.506 207.506 147.985 209.162 147.985H218.172C219.827 147.985 221.169 146.506 221.169 144.682V134.82C221.169 132.995 219.827 131.516 218.172 131.516Z" fill="#FEE7E7"/>
<path d="M220.639 136.549V134.82C220.639 133.321 219.532 132.101 218.172 132.101H209.162C207.801 132.101 206.694 133.321 206.694 134.82V136.549H220.639Z" fill="#FFBEBE"/>
<path d="M211.089 134.886L210.977 135.266H210.608L211.088 133.799H211.513L211.993 135.266H211.614L211.502 134.886H211.089ZM211.174 134.588H211.421L211.298 134.137L211.174 134.588ZM213.302 134.276C213.302 134.565 213.127 134.716 212.934 134.741C212.863 134.75 212.808 134.752 212.725 134.752H212.571V135.266H212.223V133.799H212.724C212.807 133.799 212.861 133.801 212.933 133.809C213.127 133.836 213.302 133.986 213.302 134.276ZM212.94 134.276C212.94 134.165 212.888 134.108 212.799 134.099C212.774 134.097 212.743 134.097 212.707 134.097H212.572V134.455H212.707C212.743 134.455 212.775 134.455 212.799 134.453C212.888 134.444 212.94 134.386 212.94 134.276ZM214.71 135.266H214.332C214.301 135.161 214.281 135.077 214.27 134.973C214.253 134.811 214.195 134.718 214.106 134.711C214.067 134.708 214.035 134.708 213.996 134.708H213.919V135.265H213.572V133.798H214.1C214.183 133.798 214.237 133.8 214.308 133.809C214.501 133.834 214.669 133.938 214.669 134.198C214.669 134.383 214.578 134.505 214.401 134.563C214.539 134.619 214.59 134.731 214.609 134.907C214.627 135.075 214.658 135.179 214.71 135.266ZM214.044 134.433C214.081 134.433 214.112 134.433 214.137 134.432C214.225 134.423 214.307 134.389 214.307 134.266C214.307 134.144 214.236 134.109 214.146 134.1C214.121 134.098 214.09 134.098 214.054 134.098H213.919V134.434H214.044V134.433ZM214.993 135.266V133.799H215.341V135.266H214.993ZM216.726 135.266H215.706V133.799H216.053V134.943H216.726V135.266H216.726Z" fill="white"/>
<path d="M212.946 143.119V144.255H209.007V143.622L210.605 141.967C211.363 141.18 211.621 140.791 211.621 140.256C211.621 139.834 211.408 139.599 211.047 139.599C210.664 139.599 210.473 139.867 210.421 140.451L210.414 140.532H209.089L209.096 140.451C209.207 139.218 209.913 138.528 211.157 138.528C212.342 138.528 213.006 139.153 213.006 140.2C213.006 140.856 212.733 141.36 211.754 142.398L211.077 143.12H212.946V143.119ZM218.327 142.591C218.327 143.662 217.532 144.368 216.25 144.368C214.962 144.368 214.211 143.678 214.108 142.559L214.101 142.478H215.425L215.44 142.559C215.514 142.949 215.764 143.298 216.199 143.298C216.655 143.298 216.943 143.014 216.943 142.632C216.943 142.154 216.626 141.91 216.096 141.886L215.897 141.878V140.937L216.096 140.92C216.582 140.879 216.825 140.588 216.825 140.206C216.825 139.84 216.626 139.613 216.258 139.613C215.868 139.613 215.706 139.962 215.676 140.328L215.669 140.408H214.344L214.351 140.328C214.439 139.386 215.072 138.542 216.39 138.542C217.634 138.542 218.208 139.24 218.208 140.035C218.208 140.692 217.907 141.131 217.243 141.309C217.966 141.463 218.327 141.869 218.327 142.591Z" fill="#FFBEBE"/>
<path d="M121.547 83.8376C120.733 89.6892 120.999 93.2553 121.452 96.095C122.24 101.1 123.602 103.902 120.661 113.07C116.045 127.441 102.798 116.875 91.1202 129.265C78.2739 142.912 66.0978 148.484 55.9105 148.566C43.9365 148.666 34.6949 141.161 30.2897 130.227C22.1399 109.965 29.5871 103.799 45.8549 97.9472C62.1134 92.0965 54.7784 75.4134 63.4255 69.399C72.0742 63.396 82.5805 65.076 86.6968 61.2437C90.8115 57.4113 103.352 52.1626 114.684 57.1555C124.151 61.3115 123.785 67.7025 121.547 83.8376Z" fill="#000141"/>
<path opacity="0.5" d="M120.661 113.07C116.046 127.441 102.798 116.875 91.1203 129.265C78.2739 142.912 66.0979 148.484 55.9105 148.566C55.9468 148.277 55.9737 147.988 56.0116 147.709C57.1508 138.594 59.576 129.081 63.3726 120.879C67.0729 112.876 72.5953 106.473 79.0713 101.12C82.331 98.4135 85.7597 95.968 89.1521 93.4728C90.9403 92.1522 92.7631 90.882 94.7131 89.8562C96.5708 88.8879 98.6605 88.2154 100.285 86.7747C102.903 84.4527 103.731 80.8996 104.066 77.3813C104.358 74.2745 104.415 71.0138 106.369 68.7178C111.186 67.8992 111.241 75.8971 111.531 79.4928C111.765 82.4177 112.198 85.3479 112.995 88.1615C114.006 91.7232 116.042 94.3332 119.297 95.5147C120.002 95.7679 120.72 95.9636 121.45 96.0933C122.241 101.1 123.603 103.902 120.661 113.07Z" fill="black"/>
<path d="M117.246 106.558L116.598 95.8505C116.598 95.8505 134.29 100.466 140.173 142.382C142.344 157.857 137.987 164.073 131.154 165.284C124.319 166.496 107.11 139.744 117.246 106.558Z" fill="#FF7B7B"/>
<path d="M148.514 86.6572C148.493 86.8252 148.46 86.9739 148.424 87.0879C148.416 87.1114 148.41 87.1323 148.403 87.1505C148.225 87.6325 148.026 88.1023 147.829 88.5304C147.301 89.6831 146.789 90.5444 146.789 90.5444C146.789 90.5444 146.65 98.0603 146.305 98.9651C145.643 99.7307 141.965 98.7268 141.965 98.7268C141.467 97.9855 142.45 90.5009 142.367 89.0193C142.286 87.5359 142.76 85.8551 142.76 85.8551C142.76 85.8551 142.854 78.1948 144.425 78.2217C145.123 78.233 144.824 82.1002 144.862 83.5853C144.863 83.5975 144.862 83.6096 144.863 83.6218C144.864 83.6183 145.344 83.1929 145.829 83.507C146.067 83.6592 146.135 83.8515 146.135 83.8515C146.135 83.8515 146.48 83.7123 146.731 83.7958C146.983 83.8793 147.324 84.1586 147.318 84.2978C147.323 84.2978 147.621 84.1569 147.89 84.3709C148.158 84.5832 148.239 85.1234 148.239 85.1234H148.236C148.271 85.1782 148.303 85.2331 148.332 85.2896C148.547 85.7229 148.565 86.2492 148.514 86.6572Z" fill="#FECECC"/>
<path opacity="0.2" d="M148.514 86.6572C148.468 86.6015 148.415 86.5554 148.348 86.5276C148.054 86.4041 147.864 86.6842 147.757 86.9234C147.695 87.0635 147.653 87.221 147.575 87.3523C147.509 87.4681 147.392 87.562 147.285 87.6316C146.372 88.2441 144.569 87.7247 144.555 86.4206C144.549 85.8864 144.587 85.3313 144.65 84.8059C144.703 84.3665 144.731 84.0359 144.863 83.6218C144.864 83.6183 145.344 83.1929 145.829 83.5069C146.067 83.6592 146.136 83.8515 146.136 83.8515C146.136 83.8515 146.48 83.7123 146.731 83.7958C146.983 83.8793 147.324 84.1586 147.318 84.2978C147.323 84.2978 147.621 84.1568 147.89 84.3709C148.158 84.5831 148.239 85.1234 148.239 85.1234H148.236C148.271 85.1782 148.303 85.233 148.332 85.2896C148.547 85.7228 148.566 86.2492 148.514 86.6572Z" fill="white"/>
<path opacity="0.1" d="M147.852 86.6642C147.583 87.9814 146.931 88.2702 146.642 88.3329C145.871 88.1267 145.156 87.7908 144.819 87.4376C144.583 87.1914 144.506 86.6277 144.516 85.9891C144.51 86.0239 144.504 86.0587 144.497 86.0943C144.403 86.6807 144.323 87.3576 144.564 87.9153C144.801 88.466 145.329 88.7157 145.858 88.7383C146.283 88.7565 146.709 88.6574 147.115 88.5069H147.116C147.117 88.5069 147.118 88.506 147.118 88.5051C147.156 88.4912 147.194 88.4773 147.232 88.4625C147.222 88.4607 147.211 88.459 147.201 88.4564C147.833 88.0536 147.852 86.6642 147.852 86.6642Z" fill="#FF7B7B"/>
<path d="M146.625 88.1824C146.782 87.79 146.878 87.4681 146.977 87.0574C147.075 86.6381 147.142 86.204 147.118 85.7724C147.114 86.2048 147.021 86.6259 146.899 87.0322C146.774 87.4368 146.451 88.1797 146.451 88.1797C146.319 88.1771 145.88 87.9996 145.695 87.9118C145.685 87.9074 145.677 87.9031 145.667 87.8987C145.796 87.4855 145.91 87.0705 146.006 86.6485C146.102 86.2222 146.186 85.7881 146.202 85.3488C146.159 85.7855 146.049 86.2083 145.928 86.6242C145.807 87.0313 145.669 87.4333 145.519 87.8265C145.394 87.7639 145.271 87.6995 145.157 87.6195C144.844 87.3985 144.704 87.2175 144.606 86.5659C144.572 86.3475 144.566 86.1231 144.562 85.8986C144.553 85.6741 144.558 85.4497 144.563 85.2235C144.486 85.6681 144.454 86.1222 144.482 86.5798C144.497 86.8086 144.528 87.04 144.617 87.2628C144.643 87.3167 144.664 87.3741 144.702 87.4228L144.755 87.4977L144.815 87.5603C144.854 87.6038 144.896 87.6403 144.94 87.6743C144.983 87.7108 145.027 87.7439 145.073 87.7726C145.437 88.011 145.83 88.1606 146.228 88.2772C146.626 88.3929 147.013 88.3694 147.37 87.8326C147.139 88.1362 146.709 88.2093 146.625 88.1824Z" fill="#EAB2B2"/>
<path opacity="0.1" d="M146.751 90.4705C146.244 90.9124 145.198 90.8489 144.249 90.6836C143.527 90.5583 142.948 90.085 142.536 89.6161C142.588 89.7518 142.643 89.8876 142.708 90.0189C142.879 90.3617 143.548 91.892 144.496 91.9616C145.977 92.0704 146.453 90.6914 146.743 90.5357C146.746 90.514 146.749 90.4922 146.751 90.4705ZM144.388 85.561C144.388 85.561 144.538 86.0178 144.171 86.1561C143.805 86.2936 143.239 85.7324 143.092 86.8721C142.945 88.011 142.468 89.3221 142.357 88.3912C142.247 87.4603 142.106 85.802 142.685 85.5567C143.266 85.3096 144.388 85.561 144.388 85.561Z" fill="#FF7B7B"/>
<path d="M142.367 89.0193C142.367 89.0193 141.284 86.7651 141.257 85.996C141.23 85.2269 142.079 84.283 142.601 84.2125C143.083 84.1481 144.133 84.8267 144.336 85.1739C144.54 85.521 144.716 86.0108 143.743 85.9369C142.77 85.8629 142.715 86.1483 142.715 86.1483L142.367 89.0193Z" fill="#EAB2B2"/>
<path opacity="0.2" d="M143.713 85.2304C143.713 85.2304 144.241 85.6593 144.361 85.6115C144.481 85.5636 144.267 85.086 144.066 84.9981C143.864 84.9103 143.713 85.2304 143.713 85.2304Z" fill="white"/>
<path d="M141.407 94.3567C141.406 95.2485 131.744 134.033 131.205 136.869C126.253 162.91 140.525 163.624 140.525 163.624C140.735 163.546 140.943 163.465 141.133 163.36C156.494 154.909 147.384 94.0522 147.384 94.0522C147.384 94.0522 141.424 93.4354 141.407 94.3567Z" fill="#FF7B7B"/>
<g opacity="0.1">
<path d="M143.781 155.151C142.464 154.875 141.336 154.069 140.842 152.655C140.334 151.203 140.435 149.553 140.604 148.039C140.803 146.257 141.159 144.502 141.403 142.728C141.607 141.246 141.833 139.579 141.374 138.127C140.608 135.704 139.171 133.628 137.904 131.505C136.576 129.276 135.434 126.961 135.071 124.291C134.949 123.396 134.893 122.497 134.868 121.596C133.004 129.228 131.415 135.767 131.205 136.869C126.253 162.91 140.525 163.624 140.525 163.624C140.735 163.546 140.943 163.465 141.133 163.36C143.745 161.923 145.648 158.968 147.01 155.058C145.957 155.34 144.848 155.376 143.781 155.151Z" fill="#000141"/>
</g>
<path d="M75.5233 191.196H132.476C127.966 160.817 134.529 98.3344 109.675 92.6202C96.5138 89.5944 72.1325 109.483 77.8223 135.976C79.3831 154.437 81.8336 172.665 75.5233 191.196Z" fill="#F2DCDC"/>
<path d="M121.829 144.023C121.829 144.751 121.862 145.514 121.895 146.241C121.862 146.277 121.895 146.277 121.895 146.277C121.951 148.673 122.043 151.175 122.16 153.625C122.19 154.558 122.2 155.453 122.292 156.353C122.347 158.149 122.439 160.15 122.522 161.954C123.085 175.971 124.722 182.596 126.551 191.196H137.97C134.431 91.1995 117.893 97.1538 116.034 95.7861C115.711 105.732 121.312 129.888 121.829 143.951C121.797 143.987 121.797 143.987 121.829 144.023Z" fill="#F2DCDC"/>
<path d="M99.1816 190.601C100.138 186.025 105.38 182.185 105.627 173.103C105.66 173.067 105.66 173.03 105.627 172.993C105.677 172.087 105.655 171.032 105.66 170.12C105.66 170.084 105.66 170.084 105.627 170.048C105.55 154.105 103.551 137.945 101.006 122.33C100.974 122.293 100.974 122.293 100.974 122.293C99.6047 115.996 98.6368 94.837 99.8131 93.7704C97.3981 95.9584 92.9171 103.579 90.915 106.014C91.9926 108.794 95.4284 114.161 96.551 117.055L87.4413 137.023C100.374 157.908 99.1816 190.601 99.1816 190.601ZM118.562 117.978C119.642 130.947 112.843 164.774 119.845 190.386C119.845 190.386 121.053 157.909 126.088 137.634L118.903 120.504C125.233 117 123.32 108.796 124.084 106.016C121.806 103.58 116.859 95.4303 113.938 94.3846C116.574 95.3277 117.322 103.1 118.562 117.978Z" fill="#FF7B7B"/>
<path d="M99.1815 95.2685C98.7671 97.2939 100.78 106.165 105.523 110.249C107.45 112.013 109.614 113.026 111.719 112.634C118.745 111.392 115.395 98.618 114.18 94.8935C114.15 94.763 114.091 94.6317 114.062 94.5342C112.935 91.3657 113.35 80.5194 113.35 80.5194L106.146 78.8533C106.146 78.8533 106.591 80.7482 104.753 86.204C102.884 91.6597 99.8037 92.4271 99.1815 95.2685Z" fill="#FECECC"/>
<path opacity="0.5" d="M105.523 110.249C107.451 112.013 109.614 113.026 111.719 112.634C118.745 111.392 115.395 98.618 114.18 94.8935C114.15 94.763 114.091 94.6316 114.062 94.5342C112.935 91.3657 113.35 80.5194 113.35 80.5194L106.591 78.9838C106.828 79.1796 106.976 79.5067 107.006 79.9313C107.154 84.276 110.563 87.3141 111.986 91.1691C113.083 94.1427 113.794 98.2256 112.134 101.133C111.66 101.983 108.339 106.623 105.523 110.249Z" fill="#EAB2B2"/>
<path d="M118.395 84.504C115.826 88.4625 106.347 85.0382 105.275 79.9356C104.942 78.3296 104.37 75.5682 104.37 75.5682C104.37 75.5682 102.091 74.4685 102.415 71.8968C102.687 69.9062 104.18 71.1643 104.18 71.1643L104.173 68.9536L118.246 67.0405C118.246 67.0405 118.466 68.1645 118.753 69.8958C118.892 70.7876 119.023 71.8655 119.168 73.0017C119.624 77.1368 119.825 82.3255 118.395 84.504Z" fill="#FECECC"/>
<path opacity="0.5" d="M119.168 73C117.108 73.455 114.55 73.8317 113.225 73.7151C110.892 73.4933 104.206 70.7371 104.206 70.7371L117.873 66.1731C118.728 67.3441 119.023 71.8638 119.168 73Z" fill="#EAB2B2"/>
<path opacity="0.1" d="M109.676 78.4914C109.657 78.9508 110.152 79.3493 110.782 79.3814C111.412 79.4136 111.939 79.0682 111.958 78.6089C111.978 78.1504 111.483 77.7519 110.852 77.7189C110.222 77.6867 109.696 78.0329 109.676 78.4914ZM116.676 77.6023C116.657 78.0608 117.152 78.4592 117.782 78.4914C118.412 78.5236 118.939 78.1782 118.959 77.7189C118.978 77.2604 118.483 76.8619 117.853 76.8297C117.222 76.7967 116.696 77.1429 116.676 77.6023Z" fill="#201135"/>
<path d="M115.916 73.4124C115.976 73.4045 116.03 73.3628 116.055 73.2975C116.077 73.241 116.612 71.936 118.337 72.5171C118.431 72.5476 118.527 72.491 118.554 72.3901C118.582 72.2892 118.531 72.1822 118.439 72.1509C116.406 71.4644 115.742 73.1313 115.735 73.1479C115.698 73.2453 115.739 73.3575 115.828 73.3993C115.856 73.4124 115.887 73.4167 115.916 73.4124ZM112.571 73.8926C112.592 73.89 112.614 73.8822 112.633 73.8708C112.718 73.8204 112.749 73.7038 112.703 73.6116C112.695 73.5951 111.885 72.0195 109.674 72.8573C109.583 72.8912 109.535 73.0008 109.566 73.1009C109.598 73.2009 109.695 73.2549 109.787 73.2201C111.725 72.4849 112.391 73.7821 112.398 73.7952C112.432 73.8648 112.502 73.9022 112.571 73.8926ZM115.059 78.3922C115.119 78.3844 115.177 78.367 115.232 78.3409C115.585 78.1747 115.69 77.6997 115.695 77.6797C115.708 77.6205 115.694 77.5588 115.659 77.5127C114.924 76.5478 114.934 75.1106 114.934 75.0967C114.936 74.9905 114.858 74.9035 114.763 74.9027C114.664 74.9001 114.587 74.9862 114.587 75.0915C114.586 75.155 114.576 76.6087 115.332 77.6762C115.293 77.7824 115.216 77.9337 115.095 77.9894C114.983 78.0408 114.834 78.0103 114.657 77.8937C114.574 77.8398 114.467 77.8702 114.419 77.9616C114.37 78.0529 114.398 78.1704 114.481 78.2243C114.688 78.3592 114.883 78.4157 115.059 78.3922Z" fill="#000141"/>
<path d="M117.547 80.5751C117.547 80.5751 115.686 81.8209 113.356 80.984C112.967 82.0602 115.87 84.3413 117.547 80.5751Z" fill="#FCFAF7"/>
<path d="M116.608 74.8766C116.672 75.469 117.024 75.9101 117.392 75.8605C117.759 75.8118 118.005 75.2907 117.94 74.6982C117.876 74.1058 117.524 73.6647 117.156 73.7143C116.788 73.7638 116.543 74.2841 116.608 74.8766ZM110.612 75.6752C110.677 76.2677 111.028 76.7088 111.396 76.6592C111.764 76.6105 112.01 76.0902 111.945 75.4969C111.88 74.9044 111.529 74.4633 111.161 74.5129C110.792 74.5625 110.547 75.0828 110.612 75.6752Z" fill="#000141"/>
<path opacity="0.1" d="M115.289 83.6096C115.472 83.5853 115.587 83.54 115.599 83.5348C115.644 83.5165 115.667 83.4617 115.65 83.4121C115.633 83.3625 115.583 83.3373 115.539 83.3547C115.532 83.3582 114.794 83.6444 114.036 83.0789C113.994 83.0511 113.942 83.0615 113.915 83.105C113.888 83.1485 113.899 83.2086 113.938 83.2381C114.466 83.6314 114.977 83.6514 115.289 83.6096Z" fill="#201135"/>
<path opacity="0.5" d="M103.848 71.6741C103.848 71.6741 103.338 71.0695 103.093 71.5297C102.85 71.9908 103.011 73.7421 103.798 74.3293C103.798 74.3293 102.99 72.7581 103.22 72.2196C103.45 71.6802 104.071 72.1274 103.848 71.6741Z" fill="#EAB2B2"/>
<path d="M118.528 70.1942C118.281 68.9014 117.859 68.1332 116.508 67.8087C116.25 67.746 117.748 68.9092 117.869 70.6057C117.139 71.1521 116.275 71.6167 115.369 71.9116C112.023 73.0122 103.881 70.6231 103.881 70.6231C102.837 58.17 118.848 61.4351 120.527 65.8573C120.896 66.8247 119.808 68.8753 118.528 70.1942Z" fill="#000141"/>
<path d="M114.28 184.339C121.145 163.718 124.254 141.981 123.29 118.403C123.25 117.441 122.619 116.753 121.891 116.858C112.016 118.298 101.433 119.439 90.0836 120.26C89.5404 120.299 89.0786 120.992 89.0328 121.807C87.9489 141.973 83.7599 160.989 76.5433 179.301C76.241 180.068 76.4628 180.781 77.0502 180.887C89.3873 183.128 101.124 184.739 112.26 185.778C113.079 185.857 113.993 185.207 114.28 184.339Z" fill="white"/>
<g opacity="0.2">
<path opacity="0.1" d="M113.119 178.444C118.551 160.454 121.151 141.565 120.713 121.306C111.599 122.414 101.908 123.266 91.6034 123.847C90.521 142.695 86.7126 160.531 80.2523 177.723C87.4373 178.904 94.4092 179.878 101.169 180.656C105.249 179.941 109.231 179.203 113.119 178.444Z" fill="#FF7B7B"/>
</g>
<path d="M112.843 177.611C118.194 159.642 120.725 140.762 120.229 120.496C111.169 121.624 101.535 122.499 91.2891 123.111C90.2612 141.955 86.5183 159.778 80.1346 176.944C87.2881 178.107 94.2291 179.068 100.959 179.833C105.016 179.116 108.976 178.374 112.843 177.611Z" fill="#FFBEBE"/>
<path opacity="0.1" d="M120.229 120.496C118.261 120.741 116.252 120.969 114.229 121.19C116.291 126.167 117.519 131.65 115.929 136.632C114.671 140.573 112.046 142.891 108.537 144.142C107.539 144.497 106.153 144.895 105.473 145.869C105.456 145.892 105.448 145.898 105.434 145.916C105.434 145.917 105.435 145.917 105.435 145.918C105.452 146.069 105.717 146.471 105.76 146.56C106.612 148.289 107.248 150.101 107.452 152.067C107.811 155.536 106.396 158.537 103.844 160.532C100.404 163.22 95.8933 165.349 91.687 165.847C89.1473 166.148 86.5815 165.759 84.0907 165.026C82.9057 169.034 81.5983 173.009 80.1346 176.944C87.2881 178.108 94.2291 179.068 100.959 179.833C105.016 179.116 108.977 178.374 112.843 177.611C118.194 159.642 120.726 140.762 120.229 120.496Z" fill="#FF7B7B"/>
<path d="M112.843 177.611C112.156 176.694 111.464 175.767 110.766 174.827C107.596 176.485 104.328 178.154 100.959 179.833C105.016 179.116 108.977 178.374 112.843 177.611Z" fill="#FFBEBE"/>
<path opacity="0.25" d="M76.4083 168.161V175.052C76.4083 175.052 94.687 181.144 105.868 171.607C117.05 162.069 116.717 157.783 116.717 157.783C116.717 157.783 122.215 160.237 121.945 157.47C121.675 154.704 115.927 152.977 113.604 153.549C111.28 154.121 76.4083 168.161 76.4083 168.161Z" fill="#000141"/>
<path d="M116.609 152.12C115.365 152.44 109.942 152.307 109.393 152.938C109.393 152.938 109.132 156.232 109.887 156.791C110.709 157.005 116.93 156.232 116.93 156.232C116.93 156.232 117.668 156.969 119.277 157.359C119.705 157.463 120.14 157.54 120.553 157.574V157.576C120.555 157.576 120.555 157.576 120.557 157.578C120.578 157.581 120.684 157.602 120.838 157.629H120.84C121.399 157.727 122.6 157.906 122.792 157.662C123.035 157.358 123.139 156.921 122.904 156.661C122.915 156.648 122.923 156.633 122.934 156.62C123.08 156.601 123.447 156.519 123.594 156.2C123.738 155.889 123.563 155.638 123.477 155.54C123.482 155.523 123.488 155.506 123.493 155.491C123.614 155.482 123.88 155.441 123.949 155.251C124.036 155.004 124.108 154.576 123.771 154.37C123.773 154.365 123.773 154.358 123.774 154.353C123.845 154.313 124.12 154.134 124.081 153.699C124.036 153.2 123.824 153.13 123.824 153.13C123.824 153.13 124.098 152.718 124.039 152.37C123.98 152.02 123.696 151.592 122.976 151.487L122.97 151.488C122.9 151.458 122.826 151.431 122.747 151.418C122.421 151.36 122.101 151.328 121.796 151.315C121.734 151.313 121.672 151.312 121.61 151.31C120.423 151.285 119.515 151.529 119.515 151.529C119.515 151.529 121.204 149.665 120.556 148.636C119.91 147.608 117.855 151.8 116.609 152.12Z" fill="#FECECC"/>
<path opacity="0.2" d="M121.797 151.316C122.289 153.49 121.074 156.447 120.554 157.574C120.553 157.574 120.553 157.575 120.553 157.575H120.554C120.556 157.575 120.556 157.575 120.558 157.577C120.641 157.584 120.736 157.602 120.839 157.628H120.841C121.4 157.726 122.601 157.905 122.793 157.661C123.036 157.357 123.14 156.92 122.905 156.66C122.916 156.647 122.924 156.632 122.934 156.619C123.081 156.6 123.448 156.518 123.594 156.199C123.739 155.888 123.564 155.637 123.478 155.539C123.482 155.522 123.489 155.506 123.493 155.49C123.615 155.481 123.881 155.44 123.95 155.25C124.037 155.004 124.109 154.576 123.772 154.369C123.774 154.364 123.774 154.357 123.775 154.352C123.846 154.312 124.121 154.133 124.082 153.698C124.037 153.199 123.825 153.13 123.825 153.13C123.825 153.13 124.099 152.717 124.04 152.369C123.981 152.019 123.697 151.591 122.977 151.486L122.971 151.487C122.901 151.457 122.827 151.43 122.747 151.417C122.421 151.361 122.101 151.329 121.797 151.316Z" fill="white"/>
<path d="M122.853 156.529C122.611 156.37 122.36 156.242 122.101 156.135C121.841 156.028 121.572 155.95 121.298 155.919C121.569 155.973 121.829 156.072 122.077 156.197C122.324 156.323 122.564 156.472 122.784 156.642L122.786 156.643C122.814 156.664 122.852 156.657 122.872 156.626C122.892 156.596 122.885 156.553 122.857 156.532C122.855 156.53 122.854 156.53 122.853 156.529ZM123.745 153.028C123.474 152.865 123.194 152.735 122.906 152.629C122.617 152.524 122.319 152.451 122.018 152.429C122.317 152.476 122.605 152.573 122.882 152.699C123.158 152.825 123.427 152.978 123.673 153.154L123.676 153.156C123.707 153.178 123.749 153.169 123.769 153.134C123.789 153.099 123.781 153.053 123.749 153.031C123.748 153.03 123.747 153.029 123.745 153.028ZM123.684 154.232C123.414 154.054 123.133 153.911 122.842 153.791C122.552 153.672 122.251 153.585 121.944 153.55C122.248 153.61 122.539 153.721 122.816 153.861C123.092 154.001 123.362 154.168 123.607 154.358L123.609 154.36C123.64 154.384 123.684 154.375 123.705 154.342C123.727 154.308 123.719 154.26 123.688 154.236C123.688 154.235 123.686 154.233 123.684 154.232ZM123.412 155.386C123.141 155.209 122.862 155.064 122.571 154.945C122.282 154.827 121.981 154.74 121.675 154.705C121.978 154.765 122.268 154.876 122.545 155.016C122.822 155.156 123.089 155.322 123.335 155.512L123.337 155.513C123.369 155.538 123.411 155.529 123.433 155.495C123.455 155.461 123.447 155.413 123.416 155.39C123.414 155.387 123.413 155.386 123.412 155.386Z" fill="#FF97A6"/>
<path opacity="0.2" d="M120.142 148.605C120.142 148.605 119.663 149.436 119.503 149.448C119.342 149.46 119.291 149.252 119.291 149.252C119.291 149.252 119.859 148.544 120.142 148.605Z" fill="white"/>
<path d="M89.8696 100.029C89.8696 100.029 60.1136 125.687 66.8786 161.512C68.4165 169.655 85.7209 158.364 84.2817 154.44C75.2415 129.789 89.8696 100.029 89.8696 100.029Z" fill="#FF7B7B"/>
<path opacity="0.25" d="M83.5183 152.149C80.7085 142.953 80.9533 133.211 82.3396 124.668C82.3396 124.662 82.3396 124.658 82.3396 124.653C82.353 123.437 82.4517 122.225 82.5575 121.016C81.738 121.843 81.0875 122.859 80.5072 123.897C79.8314 125.107 79.2504 126.377 78.6472 127.632C78.3488 128.253 78.0369 128.861 77.8198 129.525C77.5972 130.205 77.4614 130.914 77.4014 131.634C77.2877 133.006 77.4527 134.38 77.6604 135.733C78.0543 138.306 78.7609 141.12 77.7109 143.61C77.2585 144.683 76.5922 145.615 75.9519 146.556C75.2114 147.643 74.5356 148.777 73.9941 150.001C72.9101 152.453 72.3227 155.22 72.7862 157.925C73.8804 156.704 75.093 155.62 76.4288 154.733C78.5864 153.304 81.0196 152.439 83.5183 152.149Z" fill="#000141"/>
<path d="M115.113 151.031C115.113 151.031 116.674 156.053 115.126 157.972C113.578 159.891 83.8507 171.17 75.5234 169.254C60.6939 165.842 65.6415 152.549 78.9923 149.99C92.3431 147.431 115.113 151.031 115.113 151.031Z" fill="#FF7B7B"/>
<path d="M67.5718 191.224H142.676C142.881 191.224 143.048 191.041 143.048 190.815C143.048 190.588 142.881 190.405 142.676 190.405H67.5718C67.3665 190.405 67.2 190.588 67.2 190.815C67.2 191.041 67.3665 191.224 67.5718 191.224Z" fill="#FFBEBE"/>
<path d="M184.146 62.881C184.146 64.6314 183.154 65.725 181.609 65.725C180.063 65.725 179.071 64.6314 179.071 62.881C179.071 61.1219 180.063 60.037 181.609 60.037C183.154 60.037 184.146 61.1219 184.146 62.881ZM182.823 62.881C182.823 61.7161 182.356 61.0827 181.608 61.0827C180.861 61.0827 180.393 61.7161 180.393 62.881C180.393 64.0372 180.861 64.6793 181.608 64.6793C182.356 64.6793 182.823 64.0372 182.823 62.881ZM188.375 65.6137L186.57 62.0006C186.613 62.5556 186.613 63.0385 186.613 63.3551V65.6128H185.319V60.1466H186.93L188.814 63.918C188.777 63.363 188.77 62.801 188.77 62.4834V60.1466H190.064V65.6128H188.375V65.6137ZM195.228 65.6137H191.425V60.1475H192.719V64.4096H195.228V65.6137ZM196.337 65.6137V60.1475H197.631V65.6137H196.337ZM202.045 65.6137L200.241 62.0006C200.284 62.5556 200.284 63.0385 200.284 63.3551V65.6128H198.99V60.1466H200.601L202.484 63.918C202.448 63.363 202.441 62.801 202.441 62.4834V60.1466H203.735V65.6128H202.045V65.6137ZM208.898 65.6137H205.095V60.1475H208.826V61.2567H206.389V62.3181H208.682V63.4274H206.389V64.5044H208.898V65.6137ZM216.355 62.8097C216.355 64.521 215.406 65.4397 214.256 65.5824C214.004 65.6137 213.89 65.6137 213.624 65.6137H211.747V60.1475H213.624C213.89 60.1475 214.004 60.1475 214.256 60.1788C215.406 60.3215 216.355 61.0984 216.355 62.8097ZM215.004 62.8331C215.004 61.8587 214.558 61.3359 213.911 61.2724C213.746 61.2567 213.631 61.2567 213.444 61.2567H213.041V64.5053H213.444C213.631 64.5053 213.746 64.5053 213.911 64.4896C214.558 64.4261 215.004 63.8075 215.004 62.8331ZM222.417 62.881C222.417 64.6314 221.424 65.725 219.879 65.725C218.333 65.725 217.341 64.6314 217.341 62.881C217.341 61.1219 218.333 60.037 219.879 60.037C221.424 60.037 222.417 61.1219 222.417 62.881ZM221.094 62.881C221.094 61.7161 220.627 61.0827 219.879 61.0827C219.132 61.0827 218.664 61.7161 218.664 62.881C218.664 64.0372 219.132 64.6793 219.879 64.6793C220.627 64.6793 221.094 64.0372 221.094 62.881ZM228.098 61.9458L228.105 62.0249H226.811L226.797 61.9458C226.689 61.3594 226.366 61.0827 225.841 61.0827C225.223 61.0827 224.755 61.6534 224.755 62.8331C224.755 64.2121 225.273 64.6793 225.848 64.6793C226.352 64.6793 226.674 64.3382 226.783 63.7362L226.797 63.657H228.091L228.084 63.7362C227.961 65.0517 227.049 65.725 225.804 65.725C224.474 65.725 223.404 64.7741 223.404 62.9201C223.404 61.0183 224.511 60.0361 225.855 60.0361C227.271 60.037 227.998 60.8687 228.098 61.9458ZM231.694 61.2567V65.6145H230.4V61.2567H228.789V60.1475H233.304V61.2567H231.694ZM238.935 62.881C238.935 64.6314 237.943 65.725 236.397 65.725C234.851 65.725 233.859 64.6314 233.859 62.881C233.859 61.1219 234.851 60.037 236.397 60.037C237.943 60.037 238.935 61.1219 238.935 62.881ZM237.612 62.881C237.612 61.7161 237.144 61.0827 236.397 61.0827C235.649 61.0827 235.182 61.7161 235.182 62.881C235.182 64.0372 235.649 64.6793 236.397 64.6793C237.144 64.6793 237.612 64.0372 237.612 62.881ZM244.35 65.6137H242.941C242.826 65.2257 242.754 64.909 242.711 64.5201C242.646 63.918 242.431 63.5692 242.1 63.5457C241.956 63.5378 241.834 63.5379 241.69 63.5379H241.403V65.6137H240.109V60.1475H242.079C242.388 60.1475 242.589 60.1553 242.855 60.1866C243.574 60.2814 244.199 60.6695 244.199 61.6369C244.199 62.3259 243.861 62.7853 243.2 62.9993C243.718 63.2055 243.904 63.6257 243.976 64.2826C244.041 64.9011 244.156 65.2892 244.35 65.6137ZM241.869 62.5086C242.006 62.5086 242.121 62.5086 242.214 62.5008C242.545 62.4695 242.847 62.3425 242.847 61.8831C242.847 61.4238 242.581 61.2967 242.25 61.2654C242.157 61.2576 242.042 61.2576 241.905 61.2576H241.402V62.5095H241.869V62.5086Z" fill="#FF7B7B"/>
<path d="M135.628 77.8337V71.9272H135.533C132.972 71.9272 130.888 69.6313 130.888 66.809V63.8128C130.888 60.9905 132.971 58.6945 135.533 58.6945H154.829C157.39 58.6945 159.474 60.9905 159.474 63.8128V66.809C159.474 69.6313 157.39 71.9272 154.829 71.9272H141.519L135.628 77.8337ZM135.533 59.3009C133.276 59.3009 131.44 61.3246 131.44 63.8119V66.8082C131.44 69.2955 133.276 71.3191 135.533 71.3191H136.18V76.4591L141.305 71.3191H154.828C157.086 71.3191 158.922 69.2955 158.922 66.8082V63.8119C158.922 61.3246 157.086 59.3009 154.828 59.3009H135.533Z" fill="#FFBEBE"/>
<path d="M143.699 65.518C143.752 66.4202 144.458 67.104 145.277 67.0457C146.095 66.9883 146.716 66.2096 146.663 65.3083C146.61 64.4061 145.904 63.7223 145.086 63.7806C144.268 63.838 143.646 64.6158 143.699 65.518ZM149.435 65.4136C149.435 66.3175 150.099 67.05 150.92 67.05C151.74 67.05 152.405 66.3175 152.405 65.4136C152.405 64.5096 151.74 63.7771 150.92 63.7771C150.099 63.7771 149.435 64.5096 149.435 65.4136ZM137.961 65.518C138.013 66.4202 138.719 67.104 139.537 67.0457C140.356 66.9883 140.976 66.2096 140.924 65.3083C140.871 64.4061 140.166 63.7223 139.347 63.7806C138.529 63.838 137.908 64.6158 137.961 65.518Z" fill="#FFBEBE"/>
<path opacity="0.2" d="M42.2589 91.6249V95.2632C42.2589 95.2632 44.9352 96.1245 47.7426 93.7712V89.764L42.2589 91.6249Z" fill="#000141"/>
<path d="M39.7863 93.4954C36.4129 93.4954 33.0394 92.0808 30.4713 89.2498C25.3357 83.5896 25.3357 74.3789 30.4713 68.7196C35.6068 63.0585 43.9657 63.0585 49.1013 68.7196C49.7581 69.4434 49.7581 70.6153 49.1013 71.3391C48.4444 72.063 47.3802 72.063 46.7242 71.3391C44.8713 69.2973 42.4065 68.1723 39.7863 68.1723C37.166 68.1723 34.7013 69.2973 32.8484 71.3391C29.0234 75.5552 29.0234 82.4142 32.8484 86.6303C34.7013 88.6722 37.166 89.7971 39.7863 89.7971C42.4065 89.7971 44.8713 88.6722 46.7242 86.6303C49.7273 83.3199 50.4607 78.2904 48.5494 74.1144C48.131 73.2009 48.4642 72.0865 49.2923 71.6254C50.1221 71.1591 51.1318 71.5305 51.551 72.444C54.1192 78.0521 53.1347 84.8059 49.1021 89.2498C46.5331 92.0799 43.1589 93.4954 39.7863 93.4954Z" fill="#FFBEBE"/>
<path d="M47.4024 70.5909C51.6087 75.2263 51.6087 82.7422 47.4024 87.3776C43.1961 92.013 36.3758 92.013 32.1695 87.3776C27.9632 82.7422 27.9632 75.2263 32.1695 70.5909C36.3758 65.9547 43.1953 65.9547 47.4024 70.5909Z" fill="white"/>
<path opacity="0.54" d="M43.3113 77.6501V83.5444C43.3113 84.5284 42.5905 85.3235 41.7016 85.3235H37.9958C37.1076 85.3235 36.3868 84.5284 36.3868 83.5444V77.6501C36.3868 77.5866 36.3916 77.5292 36.3963 77.4709C36.4247 77.1342 36.5447 76.8132 36.7358 76.5505L38.6171 73.9187H41.0818L42.9632 76.5505C43.1542 76.8132 43.2734 77.1351 43.3026 77.4709C43.3066 77.5292 43.3113 77.5875 43.3113 77.6501Z" fill="#FFBEBE"/>
<path d="M43.3113 77.6501V82.797H36.3868L36.3963 77.4709H43.3018C43.3066 77.5292 43.3113 77.5875 43.3113 77.6501Z" fill="#FF7B7B"/>
<path d="M41.475 71.9673V73.3384C41.475 73.6629 41.2382 73.9248 40.9429 73.9248H38.745C38.4505 73.9248 38.2129 73.6629 38.2129 73.3384V71.9429C38.2263 71.628 38.4592 71.3809 38.745 71.3809H40.9429C41.2382 71.3809 41.475 71.6428 41.475 71.9673Z" fill="#FFBEBE"/>
<path d="M40.3981 71.9429H38.2136V72.0638H40.3981V71.9429Z" fill="white"/>
<path d="M39.9899 72.3205H38.2136V72.4414H39.9899V72.3205Z" fill="white"/>
<path d="M40.3981 72.7277H38.2136V72.8486H40.3981V72.7277Z" fill="white"/>
<path d="M39.9899 73.1052H38.2136V73.2314H39.9899V73.1052Z" fill="white"/>
<path d="M42.0774 77.4709V82.797H41.6543V77.6501C41.6543 77.5866 41.6511 77.5292 41.6479 77.4709H42.0774Z" fill="white"/>
<path opacity="0.2" d="M265.999 135.266V139.292C265.999 139.292 264.298 140.451 260.569 139.292V134.271L265.999 135.266Z" fill="#000141"/>
<path d="M263.094 137.31C259.62 137.31 256.146 135.853 253.502 132.939C248.215 127.11 248.215 117.627 253.502 111.799C258.79 105.97 267.397 105.97 272.685 111.799C273.361 112.544 273.361 113.752 272.685 114.497C272.009 115.243 270.913 115.243 270.237 114.497C268.329 112.394 265.791 111.237 263.094 111.237C260.395 111.237 257.858 112.395 255.951 114.497C252.013 118.838 252.013 125.9 255.951 130.242C257.859 132.344 260.396 133.502 263.094 133.502C265.791 133.502 268.33 132.344 270.237 130.242C273.328 126.834 274.085 121.655 272.116 117.354C271.685 116.414 272.027 115.266 272.881 114.792C273.736 114.312 274.776 114.695 275.207 115.635C277.851 121.409 276.837 128.363 272.685 132.939C270.04 135.852 266.567 137.31 263.094 137.31Z" fill="#FFBEBE"/>
<path d="M270.936 113.726C275.267 118.499 275.267 126.238 270.936 131.011C266.605 135.784 259.582 135.784 255.251 131.011C250.92 126.238 250.92 118.499 255.251 113.726C259.582 108.954 266.605 108.954 270.936 113.726Z" fill="url(#paint0_linear_22_348)"/>
<path d="M267.103 117.276L265.247 124.104C264.95 125.2 263.901 125.831 262.905 125.502C261.91 125.173 261.35 124.012 261.647 122.915L263.503 116.088C263.802 114.991 264.85 114.361 265.845 114.69C266.841 115.018 267.402 116.18 267.103 117.276Z" fill="#FF7B7B"/>
<path d="M267.103 117.276L266.191 120.632L262.591 119.444L263.503 116.088C263.802 114.991 264.85 114.361 265.845 114.69C266.841 115.018 267.402 116.18 267.103 117.276Z" fill="#FFBEBE"/>
<path opacity="0.44" d="M262.591 119.444L266.059 121.128L266.191 120.632L262.591 119.444Z" fill="#F1BABA"/>
<path opacity="0.49" d="M266 115.132C266.316 115.341 266.591 115.647 266.759 116.038C266.961 116.432 266.841 116.945 266.747 117.304C266.574 118.091 266.383 118.872 266.179 119.649C265.773 121.205 265.335 122.749 264.831 124.272L264.824 124.293L264.821 124.299C264.651 124.599 264.426 124.839 264.148 125C263.871 125.162 263.534 125.183 263.263 125.053C263.556 125.11 263.845 125.036 264.069 124.855C264.288 124.674 264.465 124.418 264.588 124.162L264.578 124.188C264.918 122.611 265.322 121.055 265.76 119.511C265.978 118.738 266.207 117.969 266.455 117.207C266.593 116.811 266.693 116.487 266.584 116.109C266.489 115.744 266.263 115.412 266 115.132Z" fill="white"/>
<path d="M262.754 120.639V127.766C262.754 128.911 261.914 129.846 260.875 129.846C259.836 129.846 258.996 128.911 258.996 127.766V120.639C258.996 119.494 259.836 118.558 260.875 118.558C261.914 118.558 262.754 119.494 262.754 120.639Z" fill="#FF7B7B"/>
<path d="M262.754 120.639V124.142H258.996V120.639C258.996 119.494 259.836 118.558 260.876 118.558C261.914 118.558 262.754 119.494 262.754 120.639Z" fill="#FFBEBE"/>
<path opacity="0.44" d="M258.996 124.142L262.757 124.658L262.754 124.142H258.996Z" fill="#F1BABA"/>
<path opacity="0.49" d="M261.139 118.934C261.497 119.034 261.839 119.24 262.102 119.562C262.397 119.875 262.416 120.405 262.42 120.778C262.459 121.587 262.48 122.396 262.487 123.205C262.503 124.823 262.486 126.441 262.401 128.059L262.399 128.082L262.397 128.088C262.312 128.429 262.16 128.73 261.935 128.972C261.712 129.215 261.396 129.342 261.102 129.303C261.397 129.265 261.655 129.102 261.822 128.858C261.985 128.615 262.088 128.314 262.138 128.03L262.136 128.059C262.051 126.441 262.033 124.822 262.049 123.205C262.057 122.396 262.077 121.587 262.116 120.778C262.146 120.355 262.156 120.013 261.954 119.686C261.767 119.365 261.464 119.119 261.139 118.934Z" fill="white"/>
<path d="M265.895 128.641C265.577 129.195 264.986 129.434 264.443 129.292C264.379 129.279 264.319 129.26 264.256 129.232C264.181 129.203 264.101 129.156 264.029 129.107C263.948 129.051 263.878 128.986 263.811 128.917C263.762 128.866 263.721 128.814 263.683 128.757C263.345 128.279 263.292 127.601 263.606 127.052C263.917 126.508 264.498 126.262 265.034 126.392C265.098 126.405 265.158 126.423 265.221 126.451C265.307 126.488 265.39 126.529 265.471 126.586C265.542 126.635 265.615 126.694 265.671 126.756C265.721 126.807 265.762 126.859 265.8 126.916C266.152 127.396 266.211 128.087 265.895 128.641Z" fill="#FF7B7B"/>
<path d="M265.801 126.917C265.801 126.917 264.319 129.261 264.256 129.233C264.181 129.204 264.101 129.157 264.029 129.108C263.948 129.051 263.878 128.987 263.811 128.918C263.762 128.867 265.034 126.393 265.034 126.393C265.098 126.406 265.158 126.424 265.221 126.452C265.307 126.488 265.39 126.53 265.471 126.587C265.542 126.636 265.615 126.695 265.671 126.757C265.722 126.807 265.763 126.859 265.801 126.917Z" fill="#FFBEBE"/>
<path opacity="0.49" d="M265.672 126.757L264.256 129.233C264.181 129.204 264.101 129.157 264.029 129.108C263.948 129.051 263.878 128.987 263.811 128.917L265.221 126.452C265.307 126.488 265.39 126.53 265.471 126.587C265.543 126.635 265.616 126.694 265.672 126.757Z" fill="white"/>
<path d="M269.157 125.463C269.275 126.279 268.896 127.047 268.273 127.41C268.202 127.457 268.131 127.494 268.052 127.525C267.958 127.566 267.847 127.594 267.742 127.612C267.622 127.633 267.508 127.637 267.392 127.632C267.307 127.629 267.23 127.618 267.15 127.599C266.47 127.456 265.908 126.861 265.792 126.053C265.677 125.254 266.041 124.489 266.647 124.12C266.717 124.073 266.788 124.036 266.868 124.005C266.976 123.961 267.087 123.925 267.206 123.904C267.311 123.886 267.425 123.875 267.525 123.882C267.61 123.885 267.688 123.896 267.767 123.916C268.461 124.047 269.039 124.647 269.157 125.463Z" fill="#FF7B7B"/>
<path d="M267.767 123.916C267.767 123.916 268.131 127.494 268.052 127.525C267.958 127.566 267.847 127.594 267.742 127.612C267.622 127.633 267.508 127.637 267.392 127.632C267.307 127.629 266.647 124.12 266.647 124.12C266.717 124.073 266.788 124.036 266.868 124.005C266.976 123.961 267.087 123.925 267.206 123.904C267.311 123.886 267.425 123.875 267.525 123.882C267.61 123.885 267.688 123.896 267.767 123.916Z" fill="#FFBEBE"/>
<path opacity="0.49" d="M267.526 123.882L268.052 127.525C267.958 127.566 267.848 127.594 267.743 127.612C267.623 127.633 267.508 127.637 267.393 127.632L266.869 124.005C266.977 123.961 267.088 123.925 267.207 123.904C267.311 123.886 267.425 123.875 267.526 123.882Z" fill="white"/>
<path d="M271.063 86.3719C271.311 86.3719 271.513 86.15 271.513 85.876C271.513 85.6019 271.311 85.3801 271.063 85.3801C270.814 85.3801 270.613 85.6019 270.613 85.876C270.613 86.15 270.815 86.3719 271.063 86.3719ZM271.063 90.1738C271.311 90.1738 271.513 89.9519 271.513 89.6779C271.513 89.4038 271.311 89.182 271.063 89.182C270.814 89.182 270.613 89.4038 270.613 89.6779C270.613 89.9519 270.815 90.1738 271.063 90.1738ZM271.063 93.9757C271.311 93.9757 271.513 93.7538 271.513 93.4798C271.513 93.2057 271.311 92.9839 271.063 92.9839C270.814 92.9839 270.613 93.2057 270.613 93.4798C270.613 93.7538 270.815 93.9757 271.063 93.9757ZM271.063 97.7776C271.311 97.7776 271.513 97.5557 271.513 97.2817C271.513 97.0076 271.311 96.7858 271.063 96.7858C270.814 96.7858 270.613 97.0076 270.613 97.2817C270.613 97.5557 270.815 97.7776 271.063 97.7776ZM273.005 84.3839C273.253 84.3839 273.455 84.1621 273.455 83.888C273.455 83.614 273.253 83.3921 273.005 83.3921C272.756 83.3921 272.555 83.614 272.555 83.888C272.555 84.1621 272.757 84.3839 273.005 84.3839ZM273.005 88.1867C273.253 88.1867 273.455 87.9648 273.455 87.6908C273.455 87.4167 273.253 87.1949 273.005 87.1949C272.756 87.1949 272.555 87.4167 272.555 87.6908C272.555 87.964 272.757 88.1867 273.005 88.1867ZM273.005 91.9886C273.253 91.9886 273.455 91.7667 273.455 91.4927C273.455 91.2186 273.253 90.9968 273.005 90.9968C272.756 90.9968 272.555 91.2186 272.555 91.4927C272.555 91.7667 272.757 91.9886 273.005 91.9886ZM273.005 95.7905C273.253 95.7905 273.455 95.5686 273.455 95.2946C273.455 95.0205 273.253 94.7987 273.005 94.7987C272.756 94.7987 272.555 95.0205 272.555 95.2946C272.555 95.5686 272.757 95.7905 273.005 95.7905Z" fill="#FFBEBE"/>
<path d="M28.7984 179.175C29.111 179.175 29.3637 178.895 29.3637 178.552C29.3637 178.207 29.1103 177.929 28.7984 177.929C28.4866 177.929 28.2332 178.208 28.2332 178.552C28.2332 178.896 28.4858 179.175 28.7984 179.175ZM28.7984 183.952C29.111 183.952 29.3637 183.673 29.3637 183.329C29.3637 182.985 29.1103 182.706 28.7984 182.706C28.4866 182.706 28.2332 182.985 28.2332 183.329C28.2332 183.674 28.4858 183.952 28.7984 183.952ZM28.7984 188.729C29.111 188.729 29.3637 188.45 29.3637 188.106C29.3637 187.762 29.1103 187.483 28.7984 187.483C28.4866 187.483 28.2332 187.763 28.2332 188.106C28.2332 188.45 28.4858 188.729 28.7984 188.729ZM28.7984 193.506C29.111 193.506 29.3637 193.227 29.3637 192.883C29.3637 192.539 29.1103 192.26 28.7984 192.26C28.4866 192.26 28.2332 192.54 28.2332 192.883C28.2332 193.227 28.4858 193.506 28.7984 193.506ZM31.2387 176.678C31.5513 176.678 31.8039 176.399 31.8039 176.055C31.8039 175.711 31.5505 175.432 31.2387 175.432C30.9268 175.432 30.6734 175.711 30.6734 176.055C30.6734 176.399 30.926 176.678 31.2387 176.678ZM31.2387 181.455C31.5513 181.455 31.8039 181.176 31.8039 180.832C31.8039 180.488 31.5505 180.209 31.2387 180.209C30.9268 180.209 30.6734 180.488 30.6734 180.832C30.6734 181.176 30.926 181.455 31.2387 181.455ZM31.2387 186.232C31.5513 186.232 31.8039 185.953 31.8039 185.609C31.8039 185.265 31.5505 184.986 31.2387 184.986C30.9268 184.986 30.6734 185.266 30.6734 185.609C30.6726 185.953 30.926 186.232 31.2387 186.232ZM31.2387 191.009C31.5513 191.009 31.8039 190.73 31.8039 190.386C31.8039 190.043 31.5505 189.764 31.2387 189.764C30.9268 189.764 30.6734 190.043 30.6734 190.386C30.6726 190.73 30.926 191.009 31.2387 191.009Z" fill="#FFBEBE"/>
<defs>
<linearGradient id="paint0_linear_22_348" x1="252.002" y1="122.369" x2="274.184" y2="122.369" gradientUnits="userSpaceOnUse">
<stop stop-color="#FFD1D1"/>
<stop offset="0.418" stop-color="#FBFEFE"/>
<stop offset="1" stop-color="#FFD1D1"/>
</linearGradient>
</defs>
</svg>
