<svg width="74" height="75" viewBox="0 0 74 75" fill="none" xmlns="http://www.w3.org/2000/svg">
<g clip-path="url(#clip0_141_479)">
<path d="M19.745 42.619H25.8181V48.7771C25.8181 49.9063 26.7166 50.8119 27.8258 50.8119H37.9437C39.0521 50.8119 39.9513 49.9063 39.9513 48.7771V42.619H46.0288C47.1358 42.619 48.0365 41.7141 48.0365 40.5842V30.3455C48.0365 29.217 47.1358 28.3107 46.0288 28.3107H39.9513V22.149C39.9513 21.0299 39.0521 20.1149 37.9437 20.1149H27.8258C26.7174 20.1149 25.8181 21.0306 25.8181 22.149V28.31H19.745C18.6358 28.31 17.7373 29.2163 17.7373 30.3448V40.5834C17.7373 41.7134 18.6358 42.619 19.745 42.619ZM21.7519 32.3803H27.8258C28.935 32.3803 29.8335 31.4639 29.8335 30.3448V24.1838H35.936V30.3448C35.936 31.4639 36.8352 32.3803 37.9444 32.3803H44.019V38.5472H37.9444C36.8352 38.5472 35.936 39.4629 35.936 40.5842V46.7423H29.8335V40.5842C29.8335 39.4629 28.9357 38.5472 27.8258 38.5472H21.7519V32.3803Z" fill="#FE7F7F"/>
<path d="M71.993 3.14297H16.2584C15.1507 3.14297 14.2507 4.05508 14.2507 5.17777V12.6881H2.00695C0.897791 12.6881 0 13.6082 0 14.7222V55.286C0 56.4058 0.897791 57.3208 2.00695 57.3208H14.7953V69.8222C14.7953 70.5927 15.2237 71.3 15.903 71.6428C16.1875 71.7851 16.4934 71.857 16.8029 71.857C17.2278 71.857 17.6534 71.7314 18.006 71.4511L36.6066 57.3128H63.7625C64.8637 57.3128 65.7701 56.4021 65.7701 55.278V42.3198H71.993C73.1036 42.3198 74.0007 41.4113 74.0007 40.2857V5.17414C74 4.04491 73.1029 3.14297 71.993 3.14297ZM61.7548 53.2439H35.9353C35.5025 53.2439 35.0805 53.3826 34.7308 53.6491L18.8027 65.7534V55.2787C18.8027 54.1655 17.9057 53.2439 16.7951 53.2439H4.01104V16.7533H61.7526L61.7548 53.2439ZM69.9854 38.2552H65.7701V14.7222C65.7701 13.6075 64.8637 12.6874 63.7625 12.6874H18.2661V7.21185H69.9854V38.2552Z" fill="#FE7F7F"/>
</g>
<defs>
<clipPath id="clip0_141_479">
<rect width="74" height="75" fill="white"/>
</clipPath>
</defs>
</svg>
