<svg width="60" height="60" viewBox="0 0 60 60" fill="none" xmlns="http://www.w3.org/2000/svg">
<g clip-path="url(#clip0_401_715)">
<path d="M45.9 11.7V11.6C45.8 11.5 45.8 11.4 45.7 11.3L34.7 0.3C34.6 0.2 34.5 0.2 34.4 0.1H34.3C34.2 0.1 34.1 0 34 0H1C0.4 0 0 0.4 0 1V59C0 59.6 0.4 60 1 60H45C45.6 60 46 59.6 46 59V12C46 11.9 46 11.8 45.9 11.7ZM42.6 11H35V3.4L42.6 11ZM2 58V2H33V12C33 12.6 33.4 13 34 13H44V58H2Z" fill="#FE7F7F"/>
<path d="M59 38V11C59 10.7 58.9 10.5 58.8 10.3L55.9 2.70001C55.8 2.40001 55.4 2.10001 55 2.10001C54.6 2.10001 54.2 2.30001 54.1 2.70001L51.2 10.3C51.1 10.5 51 10.7 51 11V38C50.4 38 50 38.4 50 39V59C50 59.6 50.4 60 51 60H59C59.6 60 60 59.6 60 59V39C60 38.4 59.6 38 59 38ZM54.9 5.80001L56.5 10H53.4L54.9 5.80001ZM53 12H57V38H56V22H54V38H53V12ZM52 40H54V58H52V40ZM58 58H56V40H58V58Z" fill="#FE7F7F"/>
<path d="M8 13H10V10H13V8H10V5H8V8H5V10H8V13Z" fill="#FE7F7F"/>
<path d="M22 6H16V8H22V6Z" fill="#FE7F7F"/>
<path d="M26 10H16V12H26V10Z" fill="#FE7F7F"/>
<path d="M41 49H27V51H41V49Z" fill="#FE7F7F"/>
<path d="M29 53H27V55H29V53Z" fill="#FE7F7F"/>
<path d="M33 53H31V55H33V53Z" fill="#FE7F7F"/>
<path d="M37 53H35V55H37V53Z" fill="#FE7F7F"/>
<path d="M41 53H39V55H41V53Z" fill="#FE7F7F"/>
<path d="M29 18H5V20H29V18Z" fill="#FE7F7F"/>
<path d="M41 24H5V26H41V24Z" fill="#FE7F7F"/>
<path d="M41 30H5V32H41V30Z" fill="#FE7F7F"/>
<path d="M41 36H5V38H41V36Z" fill="#FE7F7F"/>
<path d="M41 42H5V44H41V42Z" fill="#FE7F7F"/>
</g>
<defs>
<clipPath id="clip0_401_715">
<rect width="60" height="60" fill="white"/>
</clipPath>
</defs>
</svg>
