<svg width="35" height="35" viewBox="0 0 35 35" fill="none" xmlns="http://www.w3.org/2000/svg">
<path d="M17.5 35C27.165 35 35 27.165 35 17.5C35 7.83502 27.165 0 17.5 0C7.83502 0 0 7.83502 0 17.5C0 27.165 7.83502 35 17.5 35Z" fill="#D95656"/>
<path d="M0 17.5C0 27.1452 7.79703 34.9422 17.5 34.9422C27.1452 34.9422 34.9422 27.1452 34.9422 17.5" fill="#B84B4B"/>
<path d="M28.4736 14.6122H20.3878V6.5264H14.6122V14.6122H6.52637V20.3878H14.6122V28.4736H20.3878V20.3878H28.4736V14.6122Z" fill="#EBFFF6"/>
<path d="M20.3878 14.4967L14.4967 20.3878H14.6122V28.4736H20.3878V20.3878H28.4736V14.6122H20.3878V14.4967Z" fill="#D6EAE0"/>
</svg>
