<svg width="93" height="110" viewBox="0 0 93 110" fill="none" xmlns="http://www.w3.org/2000/svg">
<g clip-path="url(#clip0_116_37)">
<path opacity="0.18" d="M88.6975 92.5739C85.7175 96.9791 81.5434 100.526 76.9648 103.373L76.1096 103.897C72.7052 105.92 69.0871 107.619 65.1959 108.513C61.1666 109.438 56.9728 109.47 52.8415 109.515C45.2434 109.579 37.6123 109.429 30.0405 109.962C24.0573 110.386 18.8571 107.21 14.91 102.977C14.7455 102.802 14.581 102.62 14.4264 102.441C10.8971 98.4731 8.45648 93.7071 6.16387 88.9571C3.33842 83.109 0.63795 77.047 0.105093 70.6147C-0.332376 65.338 0.707024 60.055 0.789255 54.7623C0.891222 48.1895 -0.483681 41.604 0.282712 35.0696C0.94056 29.3524 3.24303 23.8969 6.20335 18.9107C8.83474 14.4576 12.0319 10.2566 16.1467 7.0389C20.9667 3.33618 26.7446 0.993599 32.8462 0.268246C46.8189 -1.47789 61.5415 5.51303 68.6858 17.3242C75.5142 28.5958 75.4419 42.7149 81.471 54.4079C85.3129 61.8585 91.6348 68.3994 92.8091 76.6512C93.5985 82.1801 91.8651 87.8973 88.6975 92.5739Z" fill="#68E1FD"/>
<path opacity="0.54" d="M76.9618 103.373L76.1066 103.897C72.7055 105.92 69.0874 107.619 65.1962 108.512C61.1669 109.438 56.9731 109.47 52.8418 109.515C45.2437 109.579 37.6126 109.429 30.0408 109.962C24.0577 110.386 18.8574 107.21 14.9103 102.977C14.7458 102.802 14.5814 102.62 14.4268 102.441C21.4098 100.315 32.2183 98.9486 44.3589 98.9486C58.1704 98.9486 70.2748 100.72 76.9618 103.373Z" fill="#68E1FD"/>
<path d="M48.8911 96.5321L49.22 99.686C49.22 99.686 47.9767 101.512 46.3518 101.63C44.7269 101.748 44.1743 100.992 44.1743 100.992L44.4407 96.3533" fill="#F7AD7E"/>
<path d="M44.1582 100.992L44.2667 99.1305L49.0263 97.8856L49.2039 99.686C49.2039 99.686 47.9606 101.512 46.3357 101.63C44.7108 101.748 44.1582 100.992 44.1582 100.992Z" fill="white"/>
<path d="M33.7149 95.8522L33.3662 100.091C33.3662 100.091 34.6424 101.968 36.3101 102.09C37.9777 102.211 38.5468 101.432 38.5468 101.432L38.2738 96.6694" fill="#F7AD7E"/>
<path d="M38.5468 101.445L38.4382 99.5296L33.5471 98.2527L33.3662 100.098C33.3662 100.098 34.6424 101.975 36.3101 102.096C37.9777 102.217 38.5468 101.445 38.5468 101.445Z" fill="white"/>
<path d="M31.8133 55.4581C31.8133 55.4581 31.5206 60.074 32.2508 73.7558C32.981 87.4375 33.1981 95.9352 33.1981 95.9352C33.1981 95.9352 33.9185 97.5568 36.3459 97.5887C38.7734 97.6207 38.9378 96.6311 38.9378 96.6311L41.3094 61.5552L43.7862 97.3493C43.7862 97.3493 46.9636 97.9048 49.2365 96.6853C50.8482 95.8171 48.8779 55.4166 48.8779 55.4166C48.8779 55.4166 41.089 59.5696 31.8133 55.4581Z" fill="#3F3D56"/>
<path d="M37.6817 26.0643C37.6817 26.0643 31.2282 29.0905 31.0802 30.0929C30.9322 31.0952 31.8137 55.4677 31.8137 55.4677C31.8137 55.4677 33.9057 58.1044 40.323 58.1044C46.9015 58.1044 48.5889 56.2817 48.875 55.4325C49.1612 54.5834 50.217 30.2812 50.0723 29.2565C49.9276 28.2318 43.9741 26.1058 43.9741 26.1058L37.6817 26.0643Z" fill="#F3FCFF"/>
<path d="M44.9935 35.4717L44.4179 35.3919C44.6284 33.9267 45.0264 30.9994 45.0264 30.4185C45.0264 29.8375 44.7205 27.2933 43.2962 26.0292C42.9908 25.7547 42.6277 25.5478 42.2319 25.4226C41.8361 25.2975 41.417 25.2573 41.0036 25.3046C37.5664 25.5982 36.7046 27.804 36.6487 27.9573C36.4347 28.7834 36.2721 29.6213 36.1619 30.4663H35.5698C35.6808 29.5716 35.85 28.6845 36.0764 27.8104V27.7913C36.1125 27.6796 37.0138 25.0683 40.9444 24.7332C41.4374 24.6777 41.9368 24.7263 42.4086 24.8756C42.8804 25.0249 43.3133 25.2714 43.6778 25.5982C45.2731 27.0188 45.5987 29.7481 45.5987 30.4121C45.6053 31.1846 45.0165 35.2993 44.9935 35.4717Z" fill="#68E1FD"/>
<path d="M44.9935 35.4717L44.4179 35.3919C44.6284 33.9267 45.0264 30.9994 45.0264 30.4185C45.0264 29.8375 44.7205 27.2933 43.2962 26.0292C42.9908 25.7547 42.6277 25.5478 42.2319 25.4226C41.8361 25.2975 41.417 25.2573 41.0036 25.3046C37.5664 25.5982 36.7046 27.804 36.6487 27.9573C36.4347 28.7834 36.2721 29.6213 36.1619 30.4663H35.5698C35.6808 29.5716 35.85 28.6845 36.0764 27.8104V27.7913C36.1125 27.6796 37.0138 25.0683 40.9444 24.7332C41.4374 24.6777 41.9368 24.7263 42.4086 24.8756C42.8804 25.0249 43.3133 25.2714 43.6778 25.5982C45.2731 27.0188 45.5987 29.7481 45.5987 30.4121C45.6053 31.1846 45.0165 35.2993 44.9935 35.4717Z" fill="url(#paint0_linear_116_37)"/>
<path d="M44.7534 56.3551L44.9113 70.6976L51.6312 70.0496L49.0525 47.2956L44.7534 56.3551Z" fill="#F3FCFF"/>
<path d="M38.0697 26.0515L37.9907 58.5034C40.2555 59.1671 42.6963 58.9614 44.8093 57.9288L43.0693 26.0515L40.5498 26.6261L38.0697 26.0515Z" fill="#68E1FD"/>
<path d="M38.0697 26.0515L37.9907 58.5034C40.2555 59.1671 42.6963 58.9614 44.8093 57.9288L43.0693 26.0515L40.5498 26.6261L38.0697 26.0515Z" fill="#68E1FD"/>
<path d="M38.1127 22.3869C38.1127 22.3869 38.0732 24.5736 38.0929 26.1728C38.1127 27.3667 38.4712 29.6555 40.6947 29.6555C42.9182 29.6555 43.1781 26.7379 43.1386 26.1728C43.2017 25.3227 43.2017 24.4692 43.1386 23.6191C42.9939 22.2401 38.2377 21.4197 38.1127 22.3869Z" fill="#F7AD7E"/>
<path d="M38.1255 24.8992C38.1255 24.8992 38.3821 27.6668 40.1977 27.3093C40.9234 27.1845 41.5914 26.8442 42.1092 26.3353C42.6271 25.8264 42.9695 25.174 43.089 24.4682C43.158 24.1642 43.1429 23.8478 43.0453 23.5512C42.9476 23.2547 42.7709 22.9884 42.5331 22.7795L38.1255 24.8992Z" fill="url(#paint1_linear_116_37)"/>
<path d="M44.3063 22.5561C43.6057 24.5544 41.7243 25.793 40.4053 25.9111C39.0863 26.0292 37.6456 24.8609 37.0667 23.4052C36.4878 21.9496 36.4089 16.36 36.4089 16.36C36.3908 15.9883 36.4665 15.618 36.6292 15.2811C36.8134 14.8756 37.1489 13.653 37.616 13.2987C39.7114 12.7684 41.9175 12.8148 43.9873 13.4328C44.4247 13.8031 44.6451 14.9842 44.7438 15.2013C44.789 15.3338 44.8188 15.4709 44.8326 15.6099C45.0003 16.9602 44.9214 20.8068 44.3063 22.5561Z" fill="#F7AD7E"/>
<path d="M36.3492 17.854C36.2125 17.7688 36.0482 17.7356 35.8879 17.761C35.7276 17.7863 35.5826 17.8683 35.4808 17.9912C35.3988 18.1535 35.3657 18.335 35.3854 18.5148C35.3876 18.6965 35.403 18.8778 35.4315 19.0574C35.5411 19.5404 35.7898 19.9832 36.1486 20.3343C36.2319 20.4284 36.3308 20.5082 36.4413 20.5705C36.4973 20.6012 36.5593 20.6202 36.6233 20.6263C36.6873 20.6323 36.7519 20.6253 36.813 20.6056C36.9085 20.5544 36.9889 20.4803 37.0465 20.3903C37.1041 20.3003 37.1369 20.1975 37.1419 20.0917C37.2172 19.6451 37.1753 19.1873 37.0202 18.7606C36.9032 18.396 36.6678 18.0779 36.3492 17.854Z" fill="#F7AD7E"/>
<path d="M45.0758 17.7837C45.2121 17.6982 45.3761 17.6645 45.5364 17.6893C45.6967 17.714 45.8419 17.7954 45.9441 17.9178C46.0288 18.0804 46.062 18.2637 46.0395 18.4445C46.0408 18.6253 46.0254 18.8059 45.9935 18.984C45.884 19.467 45.6353 19.9098 45.2764 20.2609C45.193 20.3548 45.094 20.4346 44.9837 20.4971C44.9277 20.5278 44.8657 20.5468 44.8017 20.5529C44.7376 20.5589 44.673 20.5519 44.612 20.5322C44.5162 20.4812 44.4357 20.4072 44.378 20.3171C44.3204 20.2271 44.2877 20.1242 44.2831 20.0183C44.2067 19.5709 44.2475 19.1121 44.4015 18.6839C44.519 18.3205 44.7558 18.0044 45.0758 17.7837Z" fill="#F7AD7E"/>
<path d="M37.9742 56.3551L37.7538 70.6976L28.1953 70.0496L31.8628 47.2956L37.9742 56.3551Z" fill="#F3FCFF"/>
<path d="M31.3464 42.9478L34.162 36.9784L32.7542 70.1773L28.1953 70.0688C28.1953 70.0688 31.7707 52.4542 31.3464 42.9478Z" fill="url(#paint2_linear_116_37)"/>
<path d="M49.5888 42.2232L46.7733 36.257L46.6812 70.4806L51.6315 70.0496C51.6315 70.0496 49.1645 51.736 49.5888 42.2232Z" fill="url(#paint3_linear_116_37)"/>
<path d="M31.2148 29.8503C31.2148 29.8503 26.406 41.2081 25.86 43.1809C25.3139 45.1537 27.0112 51.1071 27.6789 50.0856C29.7281 46.9445 31.7312 42.0381 31.7312 42.0381L31.2148 29.8503Z" fill="#F3FCFF"/>
<path d="M49.6609 28.5829C49.6609 28.5829 54.4665 39.944 55.0158 41.9136C55.5651 43.8832 53.8613 49.8398 53.1969 48.8183C51.1444 45.6772 49.1445 40.7708 49.1445 40.7708L49.6609 28.5829Z" fill="#F3FCFF"/>
<path d="M50.6447 44.0619C50.5098 44.196 46.6812 55.3144 46.6812 55.3144C46.6812 55.3144 49.1547 55.3144 50.9769 55.4581C50.9769 55.4581 54.7365 46.9572 54.8911 46.2007C55.0457 45.4441 56.1871 41.3294 53.6445 40.8346C51.1019 40.3398 50.6447 44.0619 50.6447 44.0619Z" fill="#F3FCFF"/>
<path d="M30.2314 45.3292C30.3629 45.4633 34.1785 56.5818 34.1785 56.5818C34.1785 56.5818 31.7017 56.5818 29.8794 56.7254C29.8794 56.7254 26.1231 48.2246 25.9652 47.468C25.8073 46.7115 24.6726 42.5967 27.2119 42.1019C29.7511 41.6071 30.2314 45.3292 30.2314 45.3292Z" fill="#F3FCFF"/>
<path d="M44.8852 17.9944C44.8852 17.9051 44.8523 17.8157 44.8325 17.7263C44.7128 17.2479 44.5488 16.781 44.3424 16.3313C44.0135 15.5684 43.7076 14.8086 43.3918 14.0457C43.3425 13.9244 43.2899 13.8063 43.2405 13.685V13.6626C43.2434 13.6675 43.2449 13.673 43.2449 13.6786C43.2449 13.6842 43.2434 13.6897 43.2405 13.6945C43.1888 13.7473 43.1244 13.7868 43.0531 13.8095C42.6247 13.9656 42.1849 14.0905 41.7374 14.1829C41.1517 14.2594 40.556 14.2181 39.9875 14.0616C39.4974 13.9244 39.0007 13.519 38.481 13.5413H38.4021C38.1365 13.5529 37.8831 13.6524 37.6839 13.8231C37.4846 13.9938 37.3515 14.2256 37.3068 14.4798C37.2027 15.7154 36.9283 16.9318 36.491 18.0966C35.9318 17.7295 35.8726 17.0017 35.8693 16.3728C35.8661 15.7439 35.8693 15.0704 35.8693 14.416C35.8455 14.1004 35.8823 13.7832 35.9779 13.4807C36.0298 13.324 36.1224 13.1829 36.2469 13.0711C36.3713 12.9592 36.5234 12.8804 36.6884 12.8422C36.9581 12.7975 37.2673 12.8837 37.4975 12.7401C37.5843 12.6635 37.6538 12.5704 37.7019 12.4666C37.75 12.3628 37.7756 12.2505 37.7771 12.1367C37.819 11.6728 37.9958 11.23 38.2869 10.8599C38.9251 10.1289 40.1421 10.081 41.1058 10.3874C42.0696 10.6939 42.9017 11.2717 43.8458 11.626C44.5036 11.8654 45.2207 12.0282 45.6318 12.539C45.8183 12.8269 45.93 13.1544 45.9575 13.4934C46.0986 14.2751 46.0764 15.0764 45.8922 15.8496C45.708 16.6228 45.3656 17.3522 44.8852 17.9944Z" fill="#3F3D56"/>
<path d="M45.0921 17.3815C45.0321 17.5133 44.9434 17.6309 44.8322 17.7263C44.7125 17.2479 44.5485 16.781 44.3421 16.3313C43.9759 15.4502 43.6086 14.5681 43.2402 13.685C43.4549 13.5604 43.6912 13.475 43.9376 13.4328C44.1008 13.404 44.2686 13.4099 44.4293 13.4502C44.59 13.4904 44.7398 13.564 44.8684 13.6658C45.0566 13.8521 45.1857 14.087 45.2401 14.3425C45.3368 14.7615 45.3821 15.1901 45.375 15.6194C45.437 16.2206 45.3396 16.8272 45.0921 17.3815Z" fill="url(#paint4_linear_116_37)"/>
<path d="M44.556 13.3051C44.1265 13.4845 43.7325 13.7351 43.3916 14.0457C43.3423 13.9244 43.2897 13.8063 43.2403 13.685V13.6626C43.2432 13.6675 43.2447 13.673 43.2447 13.6786C43.2447 13.6842 43.2432 13.6897 43.2403 13.6945C43.1886 13.7473 43.1242 13.7868 43.0528 13.8095C42.6245 13.9656 42.1847 14.0905 41.7371 14.1829C41.1515 14.2594 40.5558 14.2181 39.9873 14.0616C39.4972 13.9244 39.0005 13.519 38.4808 13.5413H38.4019C38.4282 13.4647 38.4611 13.3817 38.4907 13.2923C38.7406 12.507 38.9051 11.8271 39.8327 11.5813C40.3824 11.4508 40.9613 11.5025 41.4773 11.7281C41.974 11.9324 42.4312 12.2517 42.964 12.3347C43.285 12.3436 43.6044 12.3821 43.9179 12.4496C44.0945 12.5222 44.2473 12.6403 44.3597 12.7911C44.4722 12.9419 44.5401 13.1196 44.556 13.3051Z" fill="url(#paint5_linear_116_37)"/>
<path d="M30.7808 56.6775L31.2248 58.5098L34.6127 58.3502L33.7246 56.569L30.7808 56.6775Z" fill="#F7AD7E"/>
<path d="M47.309 55.2761L46.3091 57.6479L49.5325 57.8299L49.9404 55.3847L47.309 55.2761Z" fill="#F7AD7E"/>
<path d="M35.7541 58.296H30.5308V59.1962H35.7541V58.296Z" fill="#F3FCFF"/>
<path d="M50.148 57.6639H45.3457V58.5098H50.148V57.6639Z" fill="#F3FCFF"/>
<path d="M37.7045 36.8348H36.2736V36.2602H37.2078C37.4512 34.7375 37.6551 31.3857 36.1618 30.8111C36.0138 30.7472 35.848 30.7335 35.691 30.7723C35.5341 30.8111 35.3952 30.9001 35.2967 31.025C34.2902 32.0688 34.1258 35.2195 34.2837 35.6154C34.3576 35.69 34.4474 35.7481 34.5468 35.7856C34.6462 35.823 34.7528 35.839 34.8593 35.8324L34.9481 36.4007C34.7411 36.4223 34.5319 36.3959 34.3375 36.3238C34.143 36.2516 33.969 36.1358 33.8297 35.9857C33.3791 35.5036 33.7146 32.2029 34.6488 30.8941C35.1125 30.2557 35.7276 30.0258 36.3822 30.278C38.7274 31.1814 37.79 36.3783 37.7472 36.5986L37.7045 36.8348Z" fill="#68E1FD"/>
<path d="M37.7045 36.8348H36.2736V36.2602H37.2078C37.4512 34.7375 37.6551 31.3857 36.1618 30.8111C36.0138 30.7472 35.848 30.7335 35.691 30.7723C35.5341 30.8111 35.3952 30.9001 35.2967 31.025C34.2902 32.0688 34.1258 35.2195 34.2837 35.6154C34.3576 35.69 34.4474 35.7481 34.5468 35.7856C34.6462 35.823 34.7528 35.839 34.8593 35.8324L34.9481 36.4007C34.7411 36.4223 34.5319 36.3959 34.3375 36.3238C34.143 36.2516 33.969 36.1358 33.8297 35.9857C33.3791 35.5036 33.7146 32.2029 34.6488 30.8941C35.1125 30.2557 35.7276 30.0258 36.3822 30.278C38.7274 31.1814 37.79 36.3783 37.7472 36.5986L37.7045 36.8348Z" fill="url(#paint6_linear_116_37)"/>
<path d="M35.1556 36.1697C35.1808 35.9153 35.0428 35.6942 34.8475 35.6761C34.6522 35.6579 34.4735 35.8494 34.4484 36.1039C34.4232 36.3584 34.5612 36.5794 34.7564 36.5976C34.9517 36.6157 35.1305 36.4242 35.1556 36.1697Z" fill="#68E1FD"/>
<path d="M36.5609 36.5824C36.586 36.328 36.4481 36.1069 36.2528 36.0887C36.0575 36.0706 35.8788 36.2621 35.8537 36.5166C35.8285 36.771 35.9664 36.9921 36.1617 37.0102C36.357 37.0284 36.5357 36.8369 36.5609 36.5824Z" fill="#68E1FD"/>
<path d="M35.1556 36.1697C35.1808 35.9153 35.0428 35.6942 34.8475 35.6761C34.6522 35.6579 34.4735 35.8494 34.4484 36.1039C34.4232 36.3584 34.5612 36.5794 34.7564 36.5976C34.9517 36.6157 35.1305 36.4242 35.1556 36.1697Z" fill="url(#paint7_linear_116_37)"/>
<path d="M36.5609 36.5824C36.586 36.328 36.4481 36.1069 36.2528 36.0887C36.0575 36.0706 35.8788 36.2621 35.8537 36.5166C35.8285 36.771 35.9664 36.9921 36.1617 37.0102C36.357 37.0284 36.5357 36.8369 36.5609 36.5824Z" fill="url(#paint8_linear_116_37)"/>
<path d="M44.7733 36.8635C45.3674 36.8635 45.8489 36.3962 45.8489 35.8197C45.8489 35.2432 45.3674 34.7758 44.7733 34.7758C44.1793 34.7758 43.6978 35.2432 43.6978 35.8197C43.6978 36.3962 44.1793 36.8635 44.7733 36.8635Z" fill="#68E1FD"/>
<path d="M44.9477 36.324C45.3691 36.324 45.7108 35.9925 45.7108 35.5835C45.7108 35.1744 45.3691 34.8429 44.9477 34.8429C44.5262 34.8429 44.1846 35.1744 44.1846 35.5835C44.1846 35.9925 44.5262 36.324 44.9477 36.324Z" fill="url(#paint9_linear_116_37)"/>
<path d="M44.9871 36.0144C45.245 36.0144 45.4542 35.8115 45.4542 35.5611C45.4542 35.3108 45.245 35.1078 44.9871 35.1078C44.7291 35.1078 44.52 35.3108 44.52 35.5611C44.52 35.8115 44.7291 36.0144 44.9871 36.0144Z" fill="#F3FCFF"/>
<path d="M44.27 35.9186L43.7964 36.257C43.7964 36.257 44.0595 36.7007 44.326 36.7678L44.6549 36.257C44.6549 36.257 44.4181 36.257 44.27 35.9186Z" fill="url(#paint10_linear_116_37)"/>
<path d="M53.6837 102.556C53.9534 102.715 54.2659 102.948 54.2461 103.284C54.2289 103.43 54.1696 103.568 54.0751 103.683C53.4666 104.49 50.128 104.238 49.1741 104.228C47.0065 104.206 47.0953 104.337 44.9573 103.944C44.7841 103.926 44.6186 103.864 44.4771 103.766C44.2701 103.55 44.1529 103.268 44.1482 102.974C44.0725 102.284 44.0891 101.588 44.1975 100.902C44.1983 100.867 44.2066 100.832 44.2219 100.799C44.2372 100.767 44.2591 100.738 44.2863 100.714C44.3136 100.701 44.3433 100.695 44.3735 100.695C44.4036 100.695 44.4334 100.701 44.4606 100.714C44.7999 100.854 45.1524 100.96 45.5132 101.033C46.1054 101.096 46.7022 100.963 47.2072 100.656C47.4684 100.507 47.717 100.337 47.9505 100.149C48.1117 100.024 48.4275 99.6285 48.6248 99.6094C48.8222 99.5902 49.1906 99.9094 49.3781 100.018L50.2694 100.542L53.6837 102.556Z" fill="#3F3D56"/>
<path d="M36.149 100.985C35.3531 100.736 34.6202 100.327 33.9978 99.785C33.881 99.6708 33.7303 99.5949 33.5669 99.5679C33.4858 99.5685 33.4055 99.5836 33.3301 99.6126C31.8291 100.081 30.4023 100.749 29.0903 101.598C28.7416 101.818 28.3568 102.144 28.3864 102.585C28.4193 103.095 28.9653 103.338 29.4225 103.45C32.0646 104.098 34.8107 104.247 37.5107 103.887C37.7476 103.873 37.9755 103.794 38.1686 103.66C38.3884 103.431 38.5207 103.136 38.5436 102.824C38.6587 102.144 38.708 101.196 38.4087 100.57C38.0857 100.795 37.7163 100.948 37.326 101.02C36.9357 101.091 36.5341 101.08 36.149 100.985Z" fill="#3F3D56"/>
<path d="M38.1847 26.4282C38.1847 26.4282 39.5004 29.2278 40.2208 29.5821L38.5762 30.6419L38.0894 27.9318L38.1847 26.4282Z" fill="#68E1FD"/>
<path d="M43.102 26.4569C43.102 26.4569 41.931 29.5215 40.2305 29.5821L41.9705 31.1335L43.2237 28.899L43.102 26.4569Z" fill="#68E1FD"/>
<path d="M38.1847 26.4282C38.1847 26.4282 39.5004 29.2278 40.2208 29.5821L38.5762 30.6419L38.0894 27.9318L38.1847 26.4282Z" fill="url(#paint11_linear_116_37)"/>
<path d="M43.102 26.4569C43.102 26.4569 41.931 29.5215 40.2305 29.5821L41.9705 31.1335L43.2237 28.899L43.102 26.4569Z" fill="url(#paint12_linear_116_37)"/>
<path d="M39.2178 30.1407L39.7934 31.0824L39.3691 51.0912L41.1913 53.5683L42.405 49.4408L40.7045 31.1112L41.1913 30.4057L40.221 29.5789L39.2178 30.1407Z" fill="#3F3D56"/>
</g>
<defs>
<linearGradient id="paint0_linear_116_37" x1="40.155" y1="34.3193" x2="41.6214" y2="20.7556" gradientUnits="userSpaceOnUse">
<stop offset="0.02" stop-color="white" stop-opacity="0"/>
<stop offset="0.39" stop-color="white" stop-opacity="0.39"/>
<stop offset="1" stop-color="white"/>
</linearGradient>
<linearGradient id="paint1_linear_116_37" x1="41.1351" y1="18.6105" x2="40.2983" y2="28.8968" gradientUnits="userSpaceOnUse">
<stop offset="0.01"/>
<stop offset="0.83" stop-opacity="0.07"/>
<stop offset="1" stop-opacity="0"/>
</linearGradient>
<linearGradient id="paint2_linear_116_37" x1="1.74979" y1="46.903" x2="37.6412" y2="55.4644" gradientUnits="userSpaceOnUse">
<stop offset="0.01"/>
<stop offset="0.83" stop-opacity="0.07"/>
<stop offset="1" stop-opacity="0"/>
</linearGradient>
<linearGradient id="paint3_linear_116_37" x1="85.2606" y1="45.0547" x2="41.4211" y2="55.5115" gradientUnits="userSpaceOnUse">
<stop offset="0.01"/>
<stop offset="0.83" stop-opacity="0.07"/>
<stop offset="1" stop-opacity="0"/>
</linearGradient>
<linearGradient id="paint4_linear_116_37" x1="43.4376" y1="15.5715" x2="45.5756" y2="15.5715" gradientUnits="userSpaceOnUse">
<stop offset="0.01"/>
<stop offset="0.83" stop-opacity="0.07"/>
<stop offset="1" stop-opacity="0"/>
</linearGradient>
<linearGradient id="paint5_linear_116_37" x1="38.3755" y1="12.8678" x2="44.556" y2="12.8678" gradientUnits="userSpaceOnUse">
<stop offset="0.01"/>
<stop offset="0.83" stop-opacity="0.07"/>
<stop offset="1" stop-opacity="0"/>
</linearGradient>
<linearGradient id="paint6_linear_116_37" x1="35.823" y1="36.506" x2="35.7177" y2="26.4058" gradientUnits="userSpaceOnUse">
<stop offset="0.02" stop-color="white" stop-opacity="0"/>
<stop offset="0.39" stop-color="white" stop-opacity="0.39"/>
<stop offset="1" stop-color="white"/>
</linearGradient>
<linearGradient id="paint7_linear_116_37" x1="34.4462" y1="36.1353" x2="35.1599" y2="36.1353" gradientUnits="userSpaceOnUse">
<stop offset="0.01"/>
<stop offset="0.83" stop-opacity="0.07"/>
<stop offset="1" stop-opacity="0"/>
</linearGradient>
<linearGradient id="paint8_linear_116_37" x1="35.8528" y1="36.5466" x2="36.5666" y2="36.5466" gradientUnits="userSpaceOnUse">
<stop offset="0.01"/>
<stop offset="0.83" stop-opacity="0.07"/>
<stop offset="1" stop-opacity="0"/>
</linearGradient>
<linearGradient id="paint9_linear_116_37" x1="45.247" y1="34.1629" x2="44.7036" y2="36.8859" gradientUnits="userSpaceOnUse">
<stop offset="0.01"/>
<stop offset="0.83" stop-opacity="0.07"/>
<stop offset="1" stop-opacity="0"/>
</linearGradient>
<linearGradient id="paint10_linear_116_37" x1="44.4838" y1="33.4128" x2="44.0902" y2="38.0531" gradientUnits="userSpaceOnUse">
<stop offset="0.01"/>
<stop offset="0.83" stop-opacity="0.07"/>
<stop offset="1" stop-opacity="0"/>
</linearGradient>
<linearGradient id="paint11_linear_116_37" x1="39.3985" y1="25.8696" x2="38.7135" y2="33.7707" gradientUnits="userSpaceOnUse">
<stop offset="0.02" stop-color="white" stop-opacity="0"/>
<stop offset="0.39" stop-color="white" stop-opacity="0.39"/>
<stop offset="1" stop-color="white"/>
</linearGradient>
<linearGradient id="paint12_linear_116_37" x1="42.0067" y1="26.0962" x2="41.3217" y2="33.9974" gradientUnits="userSpaceOnUse">
<stop offset="0.02" stop-color="white" stop-opacity="0"/>
<stop offset="0.39" stop-color="white" stop-opacity="0.39"/>
<stop offset="1" stop-color="white"/>
</linearGradient>
<clipPath id="clip0_116_37">
<rect width="93" height="110" fill="white"/>
</clipPath>
</defs>
</svg>
