<svg width="143" height="100" viewBox="0 0 143 100" fill="none" xmlns="http://www.w3.org/2000/svg">
<path d="M131.523 24.0885C129.567 24.089 127.654 23.4672 126.028 22.3017C124.401 21.1362 123.133 19.4795 122.385 17.541C121.636 15.6025 121.44 13.4694 121.821 11.4113C122.203 9.35333 123.145 7.46292 124.528 5.97919C125.911 4.49546 127.673 3.48508 129.592 3.07584C131.51 2.66659 133.499 2.87687 135.306 3.68007C137.113 4.48328 138.657 5.84332 139.744 7.58819C140.83 9.33306 141.41 11.3844 141.409 13.4827C141.406 16.2944 140.363 18.9898 138.51 20.978C136.656 22.9662 134.144 24.0848 131.523 24.0885ZM131.523 3.34648C129.654 3.34601 127.827 3.94009 126.272 5.05359C124.718 6.16709 123.507 7.74998 122.791 9.60209C122.076 11.4542 121.888 13.4923 122.253 15.4587C122.617 17.4251 123.517 19.2314 124.838 20.6492C126.16 22.067 127.843 23.0326 129.676 23.4239C131.509 23.8152 133.409 23.6147 135.136 22.8475C136.863 22.0804 138.338 20.7812 139.377 19.1143C140.415 17.4474 140.969 15.4875 140.969 13.4827C140.966 10.7958 139.97 8.21975 138.199 6.31959C136.429 4.41942 134.027 3.35023 131.523 3.34648Z" fill="#EBEBEB"/>
<path d="M131.03 25.5895C130.878 25.5895 130.728 25.573 130.59 25.5588L130.625 25.0868C130.768 25.0986 130.913 25.108 131.065 25.1151L131.03 25.5895ZM132.603 25.547L132.563 25.075C132.706 25.0585 132.849 25.042 132.992 25.0207L133.052 25.4927C132.898 25.514 132.75 25.5305 132.598 25.547H132.603ZM129.023 25.311C128.876 25.2756 128.731 25.2378 128.583 25.1954L128.698 24.7399C128.836 24.78 128.977 24.8178 129.118 24.8508L129.023 25.311ZM134.594 25.1576L134.475 24.7045C134.614 24.662 134.752 24.6172 134.889 24.57L135.025 25.0184C134.878 25.0585 134.735 25.1057 134.589 25.1482L134.594 25.1576ZM127.096 24.6431C126.958 24.5794 126.819 24.5133 126.685 24.4449L126.872 24.0177C127.004 24.0838 127.136 24.1475 127.268 24.2089L127.096 24.6431ZM136.486 24.3835L136.292 23.9587C136.422 23.8903 136.55 23.8195 136.677 23.7463L136.897 24.1617C136.75 24.2301 136.616 24.3033 136.481 24.3741L136.486 24.3835ZM125.31 23.6047C125.184 23.515 125.061 23.423 124.938 23.331L125.195 22.9463C125.312 23.036 125.431 23.1256 125.552 23.2106L125.31 23.6047ZM138.213 23.2484L137.953 22.8684C138.068 22.7756 138.182 22.6812 138.296 22.5852L138.569 22.9557C138.45 23.0548 138.332 23.154 138.211 23.2484H138.213ZM123.726 22.2501C123.618 22.1392 123.506 22.0259 123.407 21.9102L123.721 21.5822C123.823 21.6931 123.926 21.8017 124.029 21.9102L123.726 22.2501ZM139.729 21.8111L139.41 21.4878C139.509 21.3745 139.605 21.2518 139.702 21.1432L140.032 21.4548C139.931 21.5751 139.83 21.6955 139.726 21.8111H139.729ZM122.393 20.617C122.305 20.4872 122.217 20.3574 122.133 20.2228L122.498 19.9585C122.58 20.0883 122.663 20.2158 122.747 20.3408L122.393 20.617ZM140.985 20.1072L140.617 19.85C140.697 19.7202 140.771 19.588 140.837 19.4558L141.216 19.6918C141.15 19.8358 141.064 19.9727 140.983 20.1072H140.985ZM121.35 18.7573C121.286 18.6133 121.222 18.467 121.163 18.3207L121.57 18.1272C121.627 18.2688 121.689 18.408 121.75 18.5472L121.35 18.7573ZM141.937 18.1885L141.533 18.0068C141.588 17.8628 141.64 17.7189 141.691 17.5726L142.105 17.7401C142.05 17.8912 141.992 18.0422 141.935 18.1885H141.937ZM120.635 16.7277C120.595 16.5719 120.558 16.4162 120.525 16.2557L120.952 16.1495C120.985 16.3005 121.022 16.4492 121.059 16.5979L120.635 16.7277ZM142.553 16.1188L142.113 16.015C142.144 15.8639 142.173 15.7129 142.197 15.5595L142.637 15.6444C142.613 15.8026 142.584 15.9607 142.551 16.1188H142.553ZM120.272 14.5872C120.256 14.429 120.248 14.2686 120.239 14.1152L120.679 14.0916C120.679 14.2473 120.696 14.4007 120.71 14.5636L120.272 14.5872ZM142.811 13.9618L142.371 13.9429C142.371 13.7895 142.371 13.6361 142.371 13.4709V13.4213H142.811V13.4662C142.82 13.6432 142.815 13.8036 142.811 13.9641V13.9618ZM120.705 12.4632L120.265 12.4207C120.278 12.2602 120.294 12.0997 120.311 11.9487L120.751 12.0077C120.734 12.1516 120.718 12.305 120.705 12.4632ZM142.265 11.8165C142.245 11.6631 142.223 11.5097 142.197 11.3587L142.637 11.2737C142.666 11.4318 142.69 11.59 142.712 11.7457L142.265 11.8165ZM121.044 10.4005L120.619 10.2778C120.659 10.122 120.703 9.96628 120.747 9.8058L121.167 9.94976C121.13 10.1032 121.084 10.2566 121.046 10.4052L121.044 10.4005ZM141.819 9.77984C141.772 9.63116 141.724 9.4872 141.673 9.34324L142.085 9.17568C142.138 9.32357 142.188 9.47461 142.237 9.6288L141.819 9.77984ZM121.726 8.45116L121.33 8.2482C121.396 8.10188 121.462 7.95792 121.532 7.81632L121.922 8.03816C121.854 8.17268 121.79 8.30956 121.726 8.45116ZM141.04 7.87532C140.969 7.7408 140.899 7.60628 140.82 7.47412L141.196 7.23812C141.274 7.375 141.347 7.51424 141.416 7.65584L141.04 7.87532ZM122.723 6.65756L122.366 6.38144C122.454 6.25164 122.544 6.12184 122.639 5.99676L122.984 6.28704C122.89 6.4074 122.808 6.53012 122.723 6.6552V6.65756ZM139.953 6.1478C139.863 6.02744 139.77 5.9118 139.674 5.79144L140.004 5.47992C140.103 5.60028 140.199 5.71592 140.296 5.84808L139.953 6.1478ZM124.001 5.08344L123.695 4.7436C123.805 4.63268 123.915 4.52176 124.027 4.41556L124.318 4.76956C124.21 4.86868 124.104 4.97488 124.001 5.08108V5.08344ZM138.598 4.6492L138.263 4.3542L138.536 3.98368C138.655 4.08516 138.769 4.18664 138.884 4.29284L138.598 4.6492ZM125.53 3.776L125.286 3.38188C125.411 3.29456 125.536 3.20724 125.666 3.12228L125.886 3.52584C125.75 3.60608 125.638 3.69104 125.53 3.776ZM137.025 3.4338C136.902 3.35356 136.776 3.27804 136.649 3.1978L136.855 2.78244C136.987 2.85796 137.119 2.9382 137.249 3.01844L137.025 3.4338ZM127.226 2.78716L127.052 2.35292C127.191 2.2892 127.329 2.22784 127.468 2.1712L127.626 2.61016C127.492 2.66208 127.358 2.72108 127.226 2.78716ZM135.254 2.55116C135.12 2.49688 134.981 2.44732 134.845 2.40012L134.979 1.94936C135.122 1.99892 135.265 2.05084 135.406 2.10748L135.254 2.55116ZM129.074 2.14052L128.975 1.68032C129.122 1.64413 129.268 1.61109 129.415 1.5812L129.494 2.0532C129.356 2.065 129.215 2.09804 129.074 2.13108V2.14052ZM133.373 2.01308C133.232 1.98712 133.089 1.96352 132.946 1.94228L133.003 1.47028C133.153 1.49152 133.3 1.51512 133.443 1.54344L133.373 2.01308ZM131.001 1.84316L130.981 1.37116C131.131 1.37116 131.281 1.35936 131.421 1.35936V1.83136C131.289 1.84316 131.144 1.84316 131.001 1.84316Z" fill="#EBEBEB"/>
<path d="M130.005 20.0411H133.052V15.1111H137.65V11.8425H133.052V6.91244H130.005V11.8425H125.409V15.1111H130.005V20.0411Z" fill="#EBEBEB"/>
<path d="M17.4416 51.9979C15.7953 54.3624 13.6945 56.3197 11.2816 57.7374C8.86912 56.319 6.76849 54.3618 5.1216 51.9979C2.9524 48.9157 3.058 44.0895 6.1644 43.0464C9.5898 41.8924 11.275 47.4384 11.275 47.4384C11.275 47.4384 12.9866 41.857 16.3988 43.0464C19.4898 44.1273 19.613 48.9157 17.4416 51.9979Z" fill="#EBEBEB"/>
<path d="M8.8506 55.3019L7.9156 51.1223L7.304 52.595H3.5222V52.123H7.018L8.041 49.6568L8.7692 52.9183L9.8032 46.1616L10.714 51.507L11.4334 49.2744L12.5686 52.9277L12.8194 52.1206H19.0322V52.5926H13.1362L12.5686 54.4169L11.4246 50.7424L10.582 53.3572L9.8252 48.9252L8.8506 55.3019Z" fill="white"/>
<path d="M11.2838 59.7222C9.32785 59.7226 7.41569 59.1009 5.78917 57.9355C4.16264 56.7701 2.8948 55.1135 2.14599 53.1752C1.39717 51.2368 1.20103 49.1038 1.58235 47.0458C1.96367 44.9879 2.90533 43.0975 4.28824 41.6137C5.67116 40.1298 7.43321 39.1193 9.35154 38.7098C11.2699 38.3003 13.2583 38.5102 15.0654 39.313C16.8726 40.1159 18.4171 41.4756 19.5038 43.2201C20.5906 44.9647 21.1706 47.0158 21.1706 49.114C21.1677 51.9261 20.1252 54.6221 18.2717 56.6108C16.4183 58.5995 13.9053 59.7184 11.2838 59.7222ZM11.2838 38.9801C9.41478 38.9797 7.58761 39.5738 6.03339 40.6874C4.47917 41.801 3.26773 43.384 2.55228 45.2363C1.83684 47.0885 1.64953 49.1268 2.01405 51.0932C2.37857 53.0597 3.27855 54.866 4.60015 56.2837C5.92175 57.7014 7.6056 58.6668 9.43873 59.0579C11.2719 59.4489 13.1719 59.248 14.8986 58.4805C16.6253 57.713 18.101 56.4135 19.1391 54.7462C20.1772 53.079 20.731 51.1189 20.7306 49.114C20.7271 46.4274 19.7307 43.852 17.9598 41.9524C16.189 40.0527 13.7882 38.9839 11.2838 38.9801Z" fill="#EBEBEB"/>
<path d="M10.7866 61.2231L10.3466 61.1924L10.3818 60.7204C10.527 60.7346 10.67 60.744 10.8218 60.7511L10.7866 61.2231ZM12.3618 61.1783L12.32 60.7063C12.463 60.6921 12.6082 60.6732 12.76 60.6544L12.8172 61.1264C12.6698 61.1452 12.5114 61.1641 12.3618 61.1783ZM8.7802 60.9423C8.635 60.9069 8.4876 60.8668 8.3402 60.8266L8.4524 60.3712L8.8748 60.4821L8.7802 60.9423ZM14.3506 60.7889L14.2318 60.3334C14.3726 60.2909 14.509 60.2461 14.6454 60.1989L14.784 60.6473C14.6498 60.6898 14.4958 60.737 14.3506 60.7818V60.7889ZM6.853 60.2744C6.7144 60.2107 6.578 60.1446 6.4416 60.0738L6.6308 59.649C6.76133 59.7151 6.89333 59.7788 7.0268 59.8402L6.853 60.2744ZM16.2426 60.0124L16.049 59.59C16.1788 59.5216 16.3064 59.4508 16.434 59.3776L16.654 59.793C16.511 59.8614 16.3768 59.9346 16.2426 60.0054V60.0124ZM5.0688 59.2431C4.9434 59.1558 4.8202 59.0637 4.697 58.9693L4.9544 58.587C5.071 58.6767 5.192 58.764 5.3108 58.849L5.0688 59.2431ZM17.9718 58.8891L17.7122 58.5091C17.8281 58.4179 17.9425 58.3235 18.0554 58.2259L18.3304 58.5941C18.2138 58.6885 18.0928 58.7852 17.9718 58.882V58.8891ZM3.4848 57.8908C3.377 57.7799 3.2648 57.6666 3.1658 57.551L3.4826 57.2229C3.5816 57.3338 3.685 57.4424 3.7884 57.5486L3.4848 57.8908ZM19.4898 57.4448L19.1708 57.1191C19.2698 57.0058 19.3666 56.8831 19.4612 56.7769L19.7934 57.086C19.6944 57.2088 19.5932 57.3268 19.4898 57.4448ZM2.1516 56.2506C2.0636 56.1208 1.9778 55.9886 1.8942 55.8565L2.2594 55.5922C2.3386 55.722 2.4222 55.847 2.508 55.9721L2.1516 56.2506ZM20.7438 55.7408L20.3764 55.4812C20.4556 55.3514 20.5326 55.2216 20.6074 55.0871L20.9836 55.3231C20.9066 55.4694 20.8274 55.604 20.7438 55.7408ZM1.111 54.3909C1.045 54.247 0.9812 54.1006 0.9218 53.952L1.3266 53.7632C1.3838 53.9048 1.4432 54.0464 1.507 54.1856L1.111 54.3909ZM21.6898 53.8222L21.285 53.6381C21.34 53.4965 21.395 53.3525 21.4456 53.2062L21.857 53.3714C21.8108 53.5272 21.7558 53.6735 21.6898 53.8222ZM0.3894 52.359C0.3498 52.2016 0.3124 52.0443 0.2772 51.887L0.7062 51.7784C0.7392 51.9294 0.7744 52.0805 0.814 52.2292L0.3894 52.359ZM22.3058 51.7501L21.8658 51.6486C21.8966 51.4976 21.9252 51.3465 21.9516 51.1931L22.3916 51.2781C22.374 51.4362 22.3498 51.5943 22.3124 51.7501H22.3058ZM0.0330003 50.2232C0.0198003 50.0658 0.0088 49.9085 0 49.7512L0.44 49.7276C0.44 49.881 0.4576 50.0367 0.4708 50.1996L0.0330003 50.2232ZM22.5698 49.5978L22.1298 49.5789C22.1298 49.4255 22.1298 49.2697 22.1298 49.1069V49.0573H22.5698V49.1045C22.5808 49.2792 22.5698 49.4373 22.5698 49.5978ZM0.4664 48.0992L0.0263998 48.0567C0.0395998 47.8962 0.055 47.7357 0.0748 47.5847L0.5148 47.6437C0.495 47.7853 0.4796 47.9387 0.4664 48.0992ZM22.0264 47.4525C22.0066 47.2968 21.9824 47.1457 21.956 46.9805L22.396 46.8956C22.4224 47.0537 22.4466 47.2118 22.4686 47.3676L22.0264 47.4525ZM0.8052 46.0365L0.3806 45.9114C0.4202 45.7557 0.462 45.6023 0.5082 45.4394L0.9262 45.581C0.8866 45.7392 0.847 45.8902 0.8096 46.0389L0.8052 46.0365ZM21.5776 45.4135C21.5314 45.2672 21.483 45.1208 21.4324 44.9769L21.8438 44.8093C21.8966 44.9604 21.9472 45.1114 21.9956 45.2648L21.5776 45.4135ZM1.4894 44.0872L1.0912 43.8842C1.1572 43.7379 1.2254 43.5939 1.2958 43.45L1.683 43.6718C1.617 43.804 1.551 43.9432 1.4894 44.0872ZM20.8098 43.5066C20.7416 43.3697 20.669 43.2376 20.5898 43.1054L20.966 42.8694C21.0452 43.0086 21.12 43.1479 21.186 43.2871L20.8098 43.5066ZM2.4838 42.2888L2.1274 42.0127C2.2176 41.8806 2.3078 41.7531 2.4002 41.6257L2.7456 41.9183C2.6554 42.0387 2.5696 42.1638 2.4838 42.2888ZM19.7098 41.7767C19.6174 41.6564 19.525 41.5407 19.4304 41.4227L19.7604 41.1112C19.8601 41.2323 19.9569 41.3551 20.0508 41.4794L19.7098 41.7767ZM3.7554 40.7147L3.4518 40.3725C3.56033 40.2624 3.67033 40.1538 3.7818 40.0468L4.0898 40.3985C3.9732 40.5023 3.8698 40.6062 3.762 40.7147H3.7554ZM18.3524 40.2805C18.2424 40.179 18.1324 40.0799 18.018 39.9831L18.293 39.615C18.4096 39.7141 18.5262 39.8179 18.6406 39.9218L18.3524 40.2805ZM5.2734 39.4073L5.0292 39.0155C5.1546 38.9258 5.28 38.8409 5.4098 38.7559L5.6298 39.1595C5.522 39.2397 5.4098 39.3223 5.28 39.4073H5.2734ZM16.7706 39.0651C16.6452 38.9872 16.5198 38.9117 16.3922 38.8291L16.599 38.4114C16.731 38.4892 16.863 38.5671 16.9928 38.6474L16.7706 39.0651ZM6.9894 38.4232L6.8134 37.9889L7.2292 37.8072L7.3876 38.2485C7.2534 38.2934 7.1214 38.3524 6.9894 38.4232ZM15.015 38.1872C14.8808 38.1352 14.7444 38.0833 14.6058 38.0361L14.74 37.5877C14.883 37.6373 15.026 37.6892 15.1668 37.7435L15.015 38.1872ZM8.8352 37.7789L8.7362 37.3069L9.1762 37.2078L9.2576 37.6798C9.1168 37.6986 8.976 37.7293 8.8352 37.7647V37.7789ZM13.1362 37.6491C12.9932 37.6231 12.8502 37.6019 12.6962 37.5806L12.7534 37.1086C12.903 37.1299 13.0504 37.1535 13.1934 37.1794L13.1362 37.6491ZM10.7624 37.4792L10.7426 37.0072C10.8922 37.0072 11.0418 37.0072 11.1936 36.993V37.465C11.0506 37.4792 10.9098 37.4792 10.7624 37.4792Z" fill="#EBEBEB"/>
<path d="M126.698 65.162C126.589 62.2135 126.627 59.2609 126.81 56.3167C127.217 50.2456 128.08 44.2197 129.393 38.2981C130.115 34.9634 131.001 31.6901 131.925 28.4097C131.954 28.3106 132.099 28.3389 132.075 28.4427C129.215 39.9855 126.872 51.8988 127.032 63.8994C127.079 67.2576 127.442 70.5569 127.739 73.894C127.739 73.9836 127.609 74.019 127.589 73.927C126.999 71.0714 126.808 68.0789 126.698 65.162Z" fill="#EBEBEB"/>
<path d="M132.075 28.4427C132.075 28.4427 136.404 40.2309 135.43 43.0016C134.455 45.7722 132.462 46.3646 132.462 46.3646C132.462 46.3646 135.102 50.4214 133.261 54.2257C131.419 58.03 127.296 57.8507 127.024 62.1648C127.028 62.1648 126.799 44.1249 132.075 28.4427Z" fill="#EBEBEB"/>
<path d="M127.51 54.7072C127.502 54.6875 127.502 54.6654 127.51 54.6458C128.117 46.6218 129.444 38.6379 131.71 30.9302C131.71 30.9252 131.711 30.9204 131.715 30.9168C131.718 30.9133 131.723 30.9113 131.727 30.9113C131.732 30.9113 131.736 30.9133 131.74 30.9168C131.743 30.9204 131.745 30.9252 131.745 30.9302C130.887 34.3773 130.129 37.8442 129.47 41.3307C130.052 40.7391 130.763 40.3139 131.538 40.094C131.541 40.094 131.544 40.0953 131.546 40.0975C131.548 40.0997 131.549 40.1027 131.549 40.1058C131.549 40.109 131.548 40.112 131.546 40.1142C131.544 40.1164 131.541 40.1176 131.538 40.1176C130.737 40.4882 129.972 40.92 129.404 41.6469C129.279 42.3313 129.155 43.0134 129.037 43.6978C130.005 42.539 131.347 41.9632 132.689 41.4156C132.708 41.4156 132.717 41.4392 132.7 41.4487C131.3 42.0576 129.908 42.8458 128.96 44.1367C128.628 46.0939 128.335 48.0606 128.08 50.0367C128.78 49.2509 129.677 48.6993 130.662 48.4484C130.693 48.4484 130.709 48.4886 130.678 48.498C129.662 48.8137 128.752 49.4383 128.06 50.2963C128.06 50.2963 128.06 50.2963 128.044 50.3105C127.956 51.0043 127.875 51.6958 127.8 52.392C128.34 51.8975 128.951 51.4991 129.609 51.212C129.626 51.212 129.635 51.2332 129.609 51.2403C128.938 51.5508 128.324 51.9862 127.796 52.5265C127.796 52.5265 127.78 52.5265 127.772 52.5383C127.699 53.1968 127.629 53.8576 127.565 54.5184C128.541 53.2553 129.807 52.2866 131.239 51.7076C131.267 51.6958 131.281 51.7406 131.254 51.7548C129.84 52.422 128.598 53.4473 127.635 54.7426C127.624 54.757 127.61 54.7677 127.593 54.7732C127.577 54.7787 127.559 54.7787 127.543 54.7732C127.45 55.7849 127.368 56.8005 127.296 57.82C127.296 57.8342 127.274 57.8365 127.274 57.82C127.345 56.791 127.423 55.7534 127.51 54.7072Z" fill="#A6A6A6"/>
<path d="M130.977 38.9424C131.727 38.3878 132.682 38.1518 133.577 38.0715C133.58 38.0705 133.583 38.0701 133.586 38.0705C133.589 38.0709 133.591 38.072 133.594 38.0737C133.596 38.0755 133.598 38.0778 133.599 38.0805C133.6 38.0832 133.601 38.0862 133.601 38.0892C133.601 38.0923 133.6 38.0953 133.599 38.098C133.598 38.1007 133.596 38.103 133.594 38.1047C133.591 38.1065 133.589 38.1076 133.586 38.108C133.583 38.1083 133.58 38.108 133.577 38.1069C132.647 38.2556 131.864 38.6167 131.006 39.0084C130.998 39.0098 130.99 39.0085 130.983 39.0046C130.977 39.0008 130.971 38.9946 130.968 38.9871C130.965 38.9796 130.964 38.9712 130.965 38.9631C130.967 38.955 130.971 38.9477 130.977 38.9424Z" fill="#A6A6A6"/>
<path d="M130.451 51.422C131.054 51.0545 131.717 50.8142 132.405 50.714C132.427 50.714 132.429 50.7494 132.405 50.7518C131.732 50.896 131.082 51.1407 130.473 51.4787C130.449 51.4858 130.425 51.4386 130.451 51.422Z" fill="#A6A6A6"/>
<path d="M115.315 43.1927C117.147 44.5508 118.828 46.128 120.327 47.8938C121.875 49.7603 123.07 51.9316 123.847 54.2871C125.489 59.1964 126.371 64.3604 126.46 69.5752C126.514 72.4642 126.255 75.3501 125.688 78.175C125.682 78.1937 125.67 78.2094 125.654 78.2193C125.638 78.2291 125.619 78.2325 125.601 78.2288C125.583 78.2251 125.567 78.2145 125.555 78.199C125.544 78.1835 125.538 78.1641 125.539 78.1443C126.245 73.1604 126.218 68.0885 125.459 63.1135C124.716 58.2472 123.55 52.9324 120.657 48.97C119.084 46.8106 117.121 45.1138 115.183 43.3579C115.08 43.2659 115.212 43.1148 115.315 43.1927Z" fill="#EBEBEB"/>
<path d="M125.822 66.0658C124.78 64.2577 123.556 62.5783 122.17 61.0579C120.003 58.7333 118.18 57.0837 117.898 55.5473C117.616 54.011 120.067 52.8805 120.067 52.8805C120.067 52.8805 117.071 53.4564 116.25 52.1064C115.43 50.7565 115.034 42.9426 115.034 42.9426C115.034 42.9426 120.487 47.1198 123.028 52.9726C125.569 58.8254 125.822 66.0658 125.822 66.0658Z" fill="#EBEBEB"/>
<path d="M116.983 50.2732C117.341 50.2181 117.704 50.2046 118.065 50.2327C118.109 50.2327 118.107 50.316 118.065 50.316C117.704 50.3279 117.346 50.2994 116.987 50.316C116.95 50.3232 116.95 50.2779 116.983 50.2732Z" fill="#A6A6A6"/>
<path d="M120.91 57.8554C121.485 57.8698 122.054 57.992 122.591 58.2165C122.604 58.2165 122.591 58.2472 122.591 58.2424C122.034 58.1008 121.473 58.0442 120.912 57.9451C120.857 57.9356 120.859 57.8554 120.91 57.8554Z" fill="#A6A6A6"/>
<path d="M122.082 55.2358C122.322 55.2338 122.56 55.2567 122.795 55.3042C122.819 55.3042 122.819 55.3514 122.795 55.3514C122.556 55.3645 122.317 55.3526 122.08 55.316C122.075 55.3159 122.07 55.3147 122.066 55.3125C122.062 55.3104 122.057 55.3073 122.054 55.3035C122.047 55.2957 122.044 55.2854 122.044 55.2747C122.044 55.2641 122.048 55.254 122.056 55.2467C122.063 55.2394 122.073 55.2355 122.082 55.2358Z" fill="#A6A6A6"/>
<path d="M141.81 51.4881C140.038 52.1337 138.341 52.9928 136.75 54.0487C135.096 55.1764 133.663 56.6375 132.528 58.351C130.139 61.916 128.31 65.8766 127.114 70.0755C126.448 72.4 126.036 74.7997 125.886 77.2263C125.884 77.2444 125.889 77.2626 125.9 77.2767C125.911 77.2909 125.926 77.2999 125.943 77.3018C125.96 77.3037 125.977 77.2983 125.99 77.2868C126.004 77.2753 126.012 77.2586 126.014 77.2404C126.515 73.0313 127.629 68.9326 129.314 65.0935C130.968 61.3317 133.054 57.3291 136.248 54.837C137.986 53.48 139.94 52.5926 141.889 51.6533C141.981 51.6038 141.909 51.4504 141.81 51.4881Z" fill="#EBEBEB"/>
<path d="M128.377 67.3922C129.61 66.1868 130.963 65.131 132.411 64.2439C134.664 62.9011 136.497 62.0184 137.056 60.8455C137.614 59.6726 135.87 58.148 135.87 58.148C135.87 58.148 138.171 59.3587 139.126 58.469C140.081 57.5793 142.085 51.3536 142.085 51.3536C142.085 51.3536 136.772 53.3832 133.454 57.4896C130.137 61.596 128.377 67.3922 128.377 67.3922Z" fill="#EBEBEB"/>
<path d="M128.652 66.1083C131.309 60.7582 134.856 55.9178 139.713 52.7248C138.445 53.5998 137.254 54.5992 136.158 55.7102C137.148 55.6514 138.135 55.8745 139.018 56.3568C139.02 56.3577 139.022 56.3591 139.023 56.3607C139.024 56.3623 139.025 56.3642 139.026 56.3663C139.027 56.3684 139.027 56.3706 139.027 56.3728C139.027 56.375 139.027 56.3772 139.026 56.3792C139.025 56.3812 139.024 56.3831 139.022 56.3846C139.021 56.3861 139.019 56.3872 139.017 56.388C139.015 56.3888 139.013 56.3891 139.011 56.389C139.009 56.3889 139.007 56.3884 139.005 56.3875C138.066 56.0107 137.068 55.8304 136.066 55.8565C136.053 55.8562 136.042 55.8512 136.033 55.8423C135.859 56.017 135.689 56.1963 135.52 56.3757C136.034 56.4016 136.545 56.4743 137.047 56.5928C137.05 56.5928 137.053 56.594 137.055 56.5963C137.057 56.5985 137.058 56.6015 137.058 56.6046C137.058 56.6077 137.057 56.6107 137.055 56.6129C137.053 56.6152 137.05 56.6164 137.047 56.6164C136.515 56.5084 135.975 56.4601 135.434 56.4724C134.547 57.4395 133.71 58.459 132.928 59.5263C133.286 59.4718 133.649 59.5 133.995 59.6089C134.001 59.6089 134.006 59.6111 134.009 59.6151C134.013 59.6191 134.015 59.6245 134.015 59.6301C134.015 59.6358 134.013 59.6412 134.009 59.6451C134.006 59.6491 134.001 59.6514 133.995 59.6514C133.617 59.6058 133.235 59.6002 132.856 59.6348C132.711 59.8331 132.563 60.0313 132.416 60.2319C133.501 60.1609 134.589 60.2748 135.641 60.5694C135.656 60.5694 135.652 60.5977 135.641 60.5954C134.555 60.3659 133.446 60.2866 132.341 60.3594C132.205 60.5529 132.077 60.7511 131.943 60.9446C132.59 60.9275 133.236 61.007 133.863 61.1806C133.869 61.1806 133.874 61.1829 133.877 61.1869C133.881 61.1908 133.883 61.1962 133.883 61.2019C133.883 61.2075 133.881 61.2129 133.877 61.2169C133.874 61.2209 133.869 61.2231 133.863 61.2231C133.214 61.0714 132.547 61.015 131.883 61.0556C131.311 61.9004 130.763 62.7618 130.238 63.6398C130.519 63.5856 130.808 63.6042 131.08 63.694C131.083 63.694 131.086 63.6953 131.088 63.6975C131.09 63.6997 131.091 63.7027 131.091 63.7058C131.091 63.709 131.09 63.712 131.088 63.7142C131.086 63.7164 131.083 63.7176 131.08 63.7176C130.776 63.6931 130.47 63.709 130.17 63.7648C129.696 64.5515 129.24 65.3484 128.801 66.1555C128.72 66.231 128.61 66.1791 128.652 66.1083Z" fill="#A6A6A6"/>
<path d="M132.79 61.6715C133.31 61.6323 133.833 61.7004 134.33 61.8721C134.343 61.8721 134.33 61.9004 134.33 61.8981C133.82 61.8059 133.306 61.7492 132.79 61.7282C132.757 61.7282 132.75 61.6739 132.79 61.6715Z" fill="#A6A6A6"/>
<path d="M137.421 55.1509C137.658 55.1314 137.897 55.1467 138.131 55.1961C138.16 55.1961 138.151 55.2437 138.131 55.2413C137.898 55.2152 137.667 55.2223 137.434 55.2152C137.427 55.2157 137.419 55.2133 137.414 55.2085C137.408 55.2038 137.404 55.1969 137.402 55.1891C137.4 55.1814 137.401 55.1733 137.405 55.1663C137.408 55.1593 137.414 55.1538 137.421 55.1509Z" fill="#A6A6A6"/>
<path d="M121.524 85.1724H133.516L131.806 71.7369L131.369 68.2913H123.671L123.233 71.7369L121.524 85.1724Z" fill="#DBDBDB"/>
<path d="M123.233 71.7369H131.806L131.369 68.2913H123.671L123.233 71.7369Z" fill="#C7C7C7"/>
<path d="M122.571 70.0141H132.471V67.0972H122.571V70.0141Z" fill="#DBDBDB"/>
<path d="M6.3492 85.1724L22.6138 85.1158L71.4098 85.0544L120.206 85.1158L136.47 85.1724L120.206 85.2314L71.4098 85.2904L22.6138 85.229L6.3492 85.1724Z" fill="#263238"/>
<path d="M71.4098 99.0138C107.478 99.0138 136.717 96.2381 136.717 92.8141C136.717 89.3901 107.478 86.6144 71.4098 86.6144C35.3417 86.6144 6.1028 89.3901 6.1028 92.8141C6.1028 96.2381 35.3417 99.0138 71.4098 99.0138Z" fill="#2C8469"/>
<path d="M122.654 0H20.1652V78.3048H122.654V0Z" fill="#263238"/>
<path d="M117.7 5.09052H25.1196V61.3199H117.7V5.09052Z" fill="white"/>
<path d="M122.654 66.7526H20.1652V78.3024H122.654V66.7526Z" fill="#EBEBEB"/>
<path d="M92.3296 89.4582H50.4922V92.4223H92.3296V89.4582Z" fill="#C7C7C7"/>
<path d="M87.3466 89.4605H55.473L56.2826 84.3181L56.3222 84.075L56.397 83.5936L56.4344 83.3505L56.5136 82.8667L56.5224 82.7935L56.551 82.626L56.628 82.1422L56.6654 81.8991L57.2308 78.3072H85.5866L86.1212 81.6961L86.1498 81.859L86.2378 82.4206L86.262 82.5835L86.295 82.7935L86.3522 83.1452L86.3764 83.3104L86.4644 83.8744L86.4908 84.0349L87.3466 89.4605Z" fill="#DBDBDB"/>
<path d="M117.7 5.09052H25.1196V8.13256H117.7V5.09052Z" fill="#455A64"/>
<path d="M27.3724 6.61036C27.3724 6.75982 27.3311 6.90593 27.2536 7.03017C27.1761 7.15441 27.0661 7.25121 26.9373 7.3083C26.8085 7.36539 26.6669 7.3802 26.5302 7.35087C26.3936 7.32154 26.2682 7.24938 26.1698 7.14353C26.0715 7.03767 26.0046 6.90289 25.9777 6.75624C25.9507 6.60959 25.965 6.45767 26.0186 6.31972C26.0722 6.18177 26.1628 6.06398 26.2789 5.98129C26.3949 5.89859 26.5313 5.85469 26.6706 5.85516C26.7629 5.85516 26.8544 5.87471 26.9397 5.91269C27.025 5.95067 27.1024 6.00634 27.1676 6.07649C27.2328 6.14665 27.2845 6.22992 27.3196 6.32154C27.3548 6.41315 27.3727 6.5113 27.3724 6.61036Z" fill="#C7C7C7"/>
<path d="M30.2434 6.61036C30.2434 6.75982 30.2021 6.90593 30.1246 7.03017C30.0471 7.15441 29.9371 7.25121 29.8083 7.3083C29.6795 7.36539 29.5379 7.3802 29.4012 7.35087C29.2646 7.32154 29.1392 7.24938 29.0408 7.14353C28.9425 7.03767 28.8756 6.90289 28.8487 6.75624C28.8217 6.60959 28.836 6.45767 28.8896 6.31972C28.9432 6.18177 29.0338 6.06398 29.1499 5.98129C29.2659 5.89859 29.4023 5.85469 29.5416 5.85516C29.6339 5.85516 29.7254 5.87471 29.8107 5.91269C29.896 5.95067 29.9734 6.00634 30.0386 6.07649C30.1038 6.14665 30.1555 6.22992 30.1906 6.32154C30.2257 6.41315 30.2437 6.5113 30.2434 6.61036Z" fill="white"/>
<path d="M33.1144 6.61036C33.1144 6.75982 33.0731 6.90593 32.9956 7.03017C32.9181 7.15441 32.8081 7.25121 32.6793 7.3083C32.5505 7.36539 32.4089 7.3802 32.2722 7.35087C32.1356 7.32154 32.0102 7.24938 31.9118 7.14353C31.8134 7.03767 31.7466 6.90289 31.7197 6.75624C31.6927 6.60959 31.707 6.45767 31.7606 6.31972C31.8142 6.18177 31.9048 6.06398 32.0209 5.98129C32.1369 5.89859 32.2733 5.85469 32.4126 5.85516C32.5049 5.85516 32.5964 5.87471 32.6817 5.91269C32.767 5.95067 32.8444 6.00634 32.9096 6.07649C32.9748 6.14665 33.0265 6.22992 33.0616 6.32154C33.0968 6.41315 33.1147 6.5113 33.1144 6.61036Z" fill="#1B926D"/>
<path d="M72.8153 72.413C73.0411 71.3915 72.4522 70.367 71.4999 70.1247C70.5476 69.8825 69.5926 70.5143 69.3668 71.5358C69.141 72.5574 69.7299 73.5819 70.6822 73.8241C71.6345 74.0663 72.5895 73.4346 72.8153 72.413Z" fill="#263238"/>
<path d="M86.295 82.7935H56.5224L56.551 82.626L56.628 82.1422L56.6654 81.8991L57.2308 78.3072H85.5866L86.1212 81.6961L86.1498 81.859L86.2378 82.4206L86.262 82.5835L86.295 82.7935Z" fill="#C7C7C7"/>
<path d="M117.702 8.13256H97.1564V61.3222H117.702V8.13256Z" fill="#EBEBEB"/>
<path d="M102.238 30.0286H114.442V21.502H102.238V30.0286Z" fill="#1B926D"/>
<path d="M112.992 22.977H103.688V23.1398H112.992V22.977Z" fill="white"/>
<path d="M108.339 23.8525H103.688V24.0154H108.339V23.8525Z" fill="white"/>
<path d="M111.148 25.6013H103.688V25.7641H111.148V25.6013Z" fill="white"/>
<path d="M112.992 26.4768H103.688V26.6397H112.992V26.4768Z" fill="white"/>
<path d="M112.992 27.3524H103.688V27.5152H112.992V27.3524Z" fill="white"/>
<path d="M106.784 28.2256H103.688V28.3884H106.784V28.2256Z" fill="white"/>
<path d="M114.435 28.464L115.276 31.3927L112.38 30.0192L114.435 28.464Z" fill="#1B926D"/>
<path d="M112.625 11.6702H100.421V18.8635H112.625V11.6702Z" fill="#263238"/>
<path d="M100.421 17.3082L99.5808 20.2394L102.476 18.8635L100.421 17.3082Z" fill="#263238"/>
<path d="M107.457 12.9989H101.9V13.1617H107.457V12.9989Z" fill="white"/>
<path d="M111.203 13.8744H101.9V14.0373H111.203V13.8744Z" fill="white"/>
<path d="M111.203 14.7476H101.9V14.9105H111.203V14.7476Z" fill="white"/>
<path d="M109.428 15.6232H101.9V15.786H109.428V15.6232Z" fill="white"/>
<path d="M111.203 16.4988H101.9V16.6616H111.203V16.4988Z" fill="white"/>
<path d="M105.351 17.3743H101.9V17.5372H105.351V17.3743Z" fill="white"/>
<path d="M112.625 32.4429H100.421V37.3659H112.625V32.4429Z" fill="#263238"/>
<path d="M100.421 35.8106L99.5808 38.7394L102.476 37.3659L100.421 35.8106Z" fill="#263238"/>
<path d="M109.956 33.7716H101.9V33.9344H109.956V33.7716Z" fill="white"/>
<path d="M106.108 34.6472H101.9V34.81H106.108V34.6472Z" fill="white"/>
<path d="M108.924 35.5204H101.9V35.6832H108.924V35.5204Z" fill="white"/>
<path d="M115.276 48.4838H99.5808V51.5849H115.276V48.4838Z" fill="white"/>
<path d="M114.589 50.0721C114.59 50.2235 114.548 50.3717 114.47 50.4978C114.392 50.6239 114.281 50.7223 114.15 50.7805C114.02 50.8386 113.876 50.854 113.738 50.8245C113.599 50.7951 113.472 50.7222 113.372 50.6152C113.273 50.5081 113.205 50.3716 113.177 50.2231C113.15 50.0745 113.164 49.9206 113.218 49.7808C113.273 49.641 113.364 49.5216 113.482 49.4377C113.599 49.3539 113.737 49.3094 113.879 49.3098C114.067 49.3105 114.247 49.391 114.38 49.5338C114.514 49.6766 114.589 49.8701 114.589 50.0721Z" fill="#1B926D"/>
<path d="M113.747 49.6308L114.187 50.0721L113.747 50.5134L113.656 50.4096L113.991 50.0721L113.656 49.7346L113.747 49.6308Z" fill="white"/>
<path d="M100.393 49.1092H100.203V50.9595H100.393V49.1092Z" fill="#263238"/>
<path d="M117.7 53.5531H25.1196V61.3222H117.7V53.5531Z" fill="#1B926D"/>
<path d="M62.7044 60.1068C64.0786 60.1068 65.1926 58.9118 65.1926 57.4377C65.1926 55.9635 64.0786 54.7685 62.7044 54.7685C61.3302 54.7685 60.2162 55.9635 60.2162 57.4377C60.2162 58.9118 61.3302 60.1068 62.7044 60.1068Z" fill="#A6A6A6"/>
<path d="M64.3089 56.7509H64.1938V58.1221H64.3089V56.7509Z" fill="white"/>
<path d="M64.1432 56.7509V58.1221L63.5536 57.9616L63.382 57.9144V56.9586L63.8264 56.8382L64.1432 56.7509Z" fill="white"/>
<path d="M63.0586 56.3403H61.4196C61.2422 56.3403 61.0984 56.4945 61.0984 56.6848V58.1905C61.0984 58.3808 61.2422 58.5351 61.4196 58.5351H63.0586C63.236 58.5351 63.3798 58.3808 63.3798 58.1905V56.6848C63.3798 56.4945 63.236 56.3403 63.0586 56.3403Z" fill="white"/>
<path d="M80.1152 60.1068C81.4894 60.1068 82.6034 58.9118 82.6034 57.4377C82.6034 55.9635 81.4894 54.7685 80.1152 54.7685C78.741 54.7685 77.627 55.9635 77.627 57.4377C77.627 58.9118 78.741 60.1068 80.1152 60.1068Z" fill="#A6A6A6"/>
<path d="M80.1178 59.2856C80.099 59.2856 80.081 59.2776 80.0677 59.2634C80.0545 59.2493 80.047 59.2301 80.047 59.21V58.3298C80.047 58.3097 80.0545 58.2905 80.0677 58.2764C80.081 58.2622 80.099 58.2542 80.1178 58.2542C80.1366 58.2542 80.1546 58.2622 80.1679 58.2764C80.1812 58.2905 80.1887 58.3097 80.1887 58.3298V59.21C80.1887 59.2301 80.1812 59.2493 80.1679 59.2634C80.1546 59.2776 80.1366 59.2856 80.1178 59.2856Z" fill="white"/>
<path d="M80.5662 59.2856H79.6664C79.6477 59.2856 79.6298 59.2776 79.6166 59.2634C79.6034 59.2493 79.596 59.2301 79.596 59.21C79.5965 59.1902 79.6042 59.1713 79.6172 59.1573C79.6303 59.1433 79.6479 59.1351 79.6664 59.1345H80.5662C80.5847 59.1351 80.6023 59.1433 80.6154 59.1573C80.6285 59.1713 80.6361 59.1902 80.6366 59.21C80.6366 59.2301 80.6292 59.2493 80.616 59.2634C80.6028 59.2776 80.5849 59.2856 80.5662 59.2856Z" fill="white"/>
<path d="M80.6938 56.2081V57.4896C80.6972 57.6319 80.6546 57.7712 80.5734 57.8838C80.4921 57.9963 80.3771 58.0754 80.2478 58.1076C80.1186 58.1398 79.9829 58.1231 79.8637 58.0604C79.7445 57.9977 79.6492 57.8928 79.5938 57.7634C79.5538 57.6785 79.5334 57.5846 79.5344 57.4896V56.2081C79.5391 56.0497 79.6001 55.8991 79.705 55.7874C79.8099 55.6757 79.9506 55.6112 80.0984 55.6073C80.2461 55.6034 80.3897 55.6603 80.4996 55.7663C80.6095 55.8723 80.6774 56.0194 80.6894 56.1774L80.6938 56.2081Z" fill="white"/>
<path d="M80.1152 58.4053C79.8927 58.4047 79.6795 58.3094 79.5224 58.1404C79.3652 57.9714 79.277 57.7424 79.277 57.5038V56.9633C79.2752 56.9524 79.2756 56.9413 79.2783 56.9306C79.2809 56.9199 79.2857 56.91 79.2923 56.9016C79.2989 56.8931 79.3072 56.8863 79.3165 56.8816C79.3258 56.8769 79.336 56.8745 79.3463 56.8745C79.3566 56.8745 79.3668 56.8769 79.3761 56.8816C79.3854 56.8863 79.3937 56.8931 79.4003 56.9016C79.4069 56.91 79.4117 56.9199 79.4143 56.9306C79.417 56.9413 79.4174 56.9524 79.4156 56.9633V57.5038C79.4158 57.6055 79.4354 57.7062 79.4732 57.7996C79.5111 57.8929 79.5663 57.977 79.6356 58.0466C79.7035 58.1171 79.7843 58.1717 79.8729 58.2071C79.9615 58.2424 80.056 58.2577 80.1504 58.2519C80.3313 58.2364 80.5 58.1479 80.6225 58.0042C80.7449 57.8606 80.8121 57.6725 80.8104 57.4778V56.9633C80.8104 56.9433 80.8178 56.9241 80.831 56.9099C80.8442 56.8958 80.8621 56.8878 80.8808 56.8878C80.8995 56.8878 80.9174 56.8958 80.9306 56.9099C80.9438 56.9241 80.9512 56.9433 80.9512 56.9633V57.4778C80.955 57.7131 80.8737 57.9408 80.7244 58.1133C80.5751 58.2857 80.3694 58.3895 80.1504 58.4029L80.1152 58.4053Z" fill="white"/>
<path d="M72.5714 60.1045H70.1668C69.8394 60.106 69.515 60.0382 69.2121 59.9049C68.9092 59.7716 68.6338 59.5754 68.4018 59.3276C68.1698 59.0798 67.9857 58.7853 67.8601 58.461C67.7345 58.1366 67.6698 57.7889 67.6698 57.4377C67.6698 56.7298 67.9319 56.0509 68.3986 55.5503C68.8652 55.0497 69.4981 54.7685 70.158 54.7685H72.5626C73.2225 54.7685 73.8554 55.0497 74.322 55.5503C74.7886 56.0509 75.0508 56.7298 75.0508 57.4377C75.0502 58.1435 74.789 58.8204 74.3244 59.3202C73.8597 59.82 73.2294 60.102 72.5714 60.1045Z" fill="#455A64"/>
<path d="M69.4543 57.3905C69.459 57.306 69.4849 57.2245 69.5291 57.1545L69.5885 57.0577L69.7205 56.9161C69.7711 56.8784 69.8195 56.8359 69.8723 56.8005C70.0813 56.6578 70.3146 56.5607 70.5587 56.5149C71.1214 56.3934 71.701 56.3934 72.2637 56.5149C72.5046 56.5596 72.7349 56.655 72.9413 56.7958C72.9941 56.8335 73.0447 56.876 73.0975 56.9161L73.2229 57.0506C73.297 57.1485 73.3476 57.2644 73.3703 57.3881H72.2549C72.2457 57.3889 72.2365 57.3866 72.2286 57.3816C72.2207 57.3765 72.2145 57.3689 72.2109 57.3598C72.181 57.2965 72.1359 57.243 72.0801 57.2048C72.0244 57.1666 71.9602 57.1452 71.8941 57.1427C71.5695 57.1214 71.244 57.1214 70.9195 57.1427C70.8533 57.1461 70.7892 57.1682 70.7336 57.2068C70.678 57.2453 70.6328 57.2989 70.6027 57.3622C70.6027 57.3787 70.5873 57.3905 70.5653 57.3905H69.4543Z" fill="white"/>
<path d="M69.4518 58.0654V57.6595C69.4518 57.6477 69.4518 57.6383 69.4518 57.6312H70.5518C70.5518 57.6595 70.5518 57.6878 70.5518 57.7185V58.0654C70.5548 58.086 70.5532 58.107 70.5472 58.1268C70.5412 58.1466 70.5309 58.1646 70.5172 58.1794C70.5035 58.1941 70.4867 58.2051 70.4682 58.2116C70.4498 58.218 70.4302 58.2197 70.411 58.2165H69.5882C69.5695 58.2184 69.5506 58.2158 69.5329 58.2088C69.5152 58.2018 69.4992 58.1907 69.4861 58.1762C69.473 58.1617 69.4631 58.1442 69.4572 58.125C69.4512 58.1058 69.4494 58.0855 69.4518 58.0654Z" fill="white"/>
<path d="M72.2612 58.0725C72.2612 57.9238 72.2612 57.7752 72.2722 57.6288H73.359C73.3602 57.6374 73.3602 57.6462 73.359 57.6548V58.0678C73.3615 58.0874 73.3597 58.1074 73.3539 58.1262C73.3481 58.145 73.3383 58.1621 73.3253 58.1763C73.3124 58.1904 73.2966 58.2011 73.2792 58.2077C73.2617 58.2143 73.2431 58.2165 73.2248 58.2141H72.3932C72.3754 58.2159 72.3575 58.2135 72.3407 58.2071C72.324 58.2006 72.3087 58.1902 72.2961 58.1767C72.2835 58.1632 72.2738 58.1468 72.2678 58.1288C72.2617 58.1108 72.2595 58.0916 72.2612 58.0725Z" fill="white"/>
<path d="M97.1542 8.13256H75.4358V30.9372H97.1542V8.13256Z" fill="#DBDBDB"/>
<path d="M87.1398 22.6702C85.5206 24.3222 82.1964 25.9411 79.0702 26.019C77.3102 26.0638 73.7792 18.8422 73.1082 17.2728C71.9862 14.6556 76.3576 14.016 77.3696 14.2733C78.6302 14.5942 80.5508 20.5556 81.246 21.1716C81.4902 21.3887 84.9046 20.8978 86.35 20.5863C87.8944 20.2512 87.9736 21.8206 87.1398 22.6702Z" fill="#AD6359"/>
<path d="M73.1896 17.438C72.9234 16.8315 71.9334 13.9358 71.8278 13.065C71.7222 12.1941 71.5814 9.65948 72.1952 9.50372C72.809 9.34796 72.9058 10.0866 72.9058 10.0866C72.9058 10.0866 73.0048 9.00576 73.6362 8.90664C74.2676 8.80752 74.382 9.96392 74.382 9.96392C74.382 9.96392 74.558 8.86416 75.1938 8.81696C75.8296 8.76976 75.7636 9.9474 75.7636 9.9474C75.7636 9.9474 75.8824 8.93496 76.4236 9.13084C77.0726 9.36684 76.6568 11.2124 76.8416 12.1658C76.8834 12.3806 77.9878 16.4846 77.9878 16.4846L73.1896 17.438Z" fill="#AD6359"/>
<path d="M75.768 9.84828C75.4666 11.2053 75.548 11.8566 75.966 13.1523C75.966 13.1782 75.9396 13.1971 75.9286 13.1712C75.4182 11.9369 75.1982 11.1392 75.7086 9.82704C75.7328 9.76568 75.7834 9.78456 75.768 9.84828Z" fill="#263238"/>
<path d="M74.4062 9.86716C74.2082 11.3044 74.2962 12.01 74.6262 13.4072C74.6262 13.4284 74.5998 13.4378 74.5932 13.419C74.1532 12.0808 73.953 11.2784 74.3292 9.87896C74.3556 9.79636 74.4172 9.794 74.4062 9.86716Z" fill="#263238"/>
<path d="M72.9256 10.1551C72.8244 11.5711 72.8904 12.3404 73.3832 13.6502C73.3832 13.6809 73.3524 13.7022 73.3392 13.6738C72.7166 12.39 72.6286 11.42 72.8838 10.1574C72.9014 10.0701 72.93 10.0678 72.9256 10.1551Z" fill="#263238"/>
<path d="M78.298 17.4734C78.298 17.4734 78.848 15.8214 78.9404 15.0474C79.0328 14.2733 78.3838 11.2242 77.7634 11.3374C76.9626 11.4838 77.0154 13.3198 77.1496 14.2166C77.1496 14.2166 75.295 14.5518 75.0684 15.8686C74.8418 17.1855 78.298 17.4734 78.298 17.4734Z" fill="#AD6359"/>
<path d="M77.5566 11.4554C76.9142 12.1634 77.1628 13.3175 77.2332 14.1978C77.2349 14.2106 77.2337 14.2237 77.2297 14.2359C77.2256 14.2481 77.2189 14.2591 77.21 14.2679C77.2011 14.2768 77.1904 14.2831 77.1787 14.2865C77.1671 14.2899 77.1548 14.2902 77.143 14.2874C76.373 14.4833 75.3434 14.9954 75.0376 15.8332C75.0376 15.8382 75.0358 15.8431 75.0324 15.8466C75.0291 15.8501 75.0247 15.8521 75.02 15.8521C75.0153 15.8521 75.0109 15.8501 75.0076 15.8466C75.0042 15.8431 75.0024 15.8382 75.0024 15.8332C75.2224 14.8892 76.1904 14.2969 77.044 14.1388C76.9582 13.2372 76.758 12.0596 77.55 11.4602L77.5566 11.4554Z" fill="#263238"/>
<path d="M78.8744 16.0032C78.8744 16.0032 74.206 19.8264 74.2126 20.2512C74.2126 20.2512 77.3696 26.019 78.8326 26.137C81.0326 26.3116 84.436 24.9806 86.4402 23.508C88.5852 21.9315 88.7282 20.0411 86.0376 20.4258C83.1424 20.8412 81.5672 21.1338 81.2834 20.8978C80.9996 20.6618 79.1098 16.0976 78.8744 16.0032Z" fill="#1B926D"/>
<path d="M79.244 17.464C78.8681 17.7175 78.5046 17.9916 78.155 18.2853C77.7986 18.5708 77.4444 18.8611 77.099 19.1608C76.7536 19.4606 76.406 19.7626 76.0694 20.0742C75.7328 20.3857 75.4292 20.6925 75.1058 20.9969C75.0904 21.0111 75.1058 21.037 75.1278 21.0252C75.4754 20.7302 75.834 20.4494 76.186 20.1591C76.538 19.8688 76.8834 19.5715 77.2354 19.2765C77.5874 18.9815 77.9306 18.6841 78.2782 18.3844C78.6258 18.0847 78.9558 17.8109 79.2682 17.4947C79.2836 17.4782 79.2616 17.4546 79.244 17.464Z" fill="#263238"/>
<path d="M86.4402 23.508C84.436 24.9806 81.026 26.3116 78.8326 26.137C78.7439 26.1279 78.657 26.104 78.5752 26.0662L87.9098 20.8081C88.3498 21.4028 87.7888 22.5168 86.4402 23.508Z" fill="black"/>
<path d="M87.0034 22.0353C87.7338 22.3185 89.1528 21.2447 89.7666 20.3078C89.8084 20.2441 89.7864 19.5125 89.7996 18.6204C89.8106 18.08 89.8326 17.4758 89.892 16.9283L86.592 17.3743C86.7024 18.0813 86.7319 18.8001 86.68 19.5148C86.6721 19.5904 86.6566 19.6647 86.6338 19.7367C86.6338 19.7485 86.6338 19.7603 86.6338 19.7744C86.5216 20.1922 86.2972 21.7639 87.0034 22.0353Z" fill="#AD6359"/>
<path d="M89.705 16.9472C89.518 17.6858 88.781 20.0034 86.9594 19.8264C86.8489 19.8156 86.7393 19.7959 86.6316 19.7674C86.6316 19.7532 86.6316 19.7414 86.6316 19.7296C86.6544 19.6577 86.6699 19.5833 86.6778 19.5078C86.7297 18.7931 86.7002 18.0742 86.5898 17.3672L89.705 16.9472Z" fill="#263238"/>
<path d="M90.2594 12.5127C90.6444 13.7258 90.145 17.287 89.3552 18.1036C88.209 19.2836 86.2752 19.4606 85.3336 17.9714C84.4118 16.5294 85.14 11.9015 86.0288 11.1534C87.3334 10.0512 89.6918 10.7191 90.2594 12.5127Z" fill="#AD6359"/>
<path d="M87.6018 14.8232C87.6018 14.8232 87.6194 14.8373 87.6172 14.8468C87.5776 15.0828 87.5688 15.366 87.7602 15.4769C87.7602 15.4769 87.7602 15.4934 87.7602 15.491C87.516 15.4202 87.5292 15.0592 87.6018 14.8232Z" fill="#263238"/>
<path d="M87.8372 14.6084C88.2002 14.6344 88.1232 15.4132 87.7866 15.3896C87.45 15.366 87.5314 14.5872 87.8372 14.6084Z" fill="#263238"/>
<path d="M86.2818 14.6249C86.2818 14.6249 86.262 14.6249 86.262 14.6462C86.2444 14.8822 86.1872 15.1606 85.976 15.2173V15.2314C86.229 15.222 86.3016 14.8586 86.2818 14.6249Z" fill="#263238"/>
<path d="M86.1058 14.3512C85.7472 14.2804 85.6416 15.0592 85.9738 15.1205C86.306 15.1819 86.405 14.4102 86.1058 14.3512Z" fill="#263238"/>
<path d="M88.1584 14.2851C88.0655 14.2449 87.9751 14.1984 87.8878 14.1458C87.7863 14.1122 87.6981 14.0433 87.637 13.95C87.623 13.9163 87.6197 13.8787 87.6277 13.8428C87.6356 13.807 87.6544 13.775 87.681 13.7517C87.7399 13.7153 87.8066 13.6961 87.8746 13.6961C87.9426 13.6961 88.0093 13.7153 88.0682 13.7517C88.1982 13.8078 88.3041 13.9138 88.3652 14.0491C88.3777 14.0807 88.3813 14.1155 88.3757 14.1493C88.3701 14.1831 88.3554 14.2144 88.3335 14.2394C88.3116 14.2644 88.2834 14.282 88.2523 14.2901C88.2212 14.2983 88.1886 14.2965 88.1584 14.2851Z" fill="#263238"/>
<path d="M85.8638 13.9264C85.96 13.9173 86.0555 13.9016 86.1498 13.8792C86.257 13.8793 86.361 13.8401 86.4446 13.7682C86.4667 13.7408 86.4798 13.7062 86.4818 13.6699C86.4838 13.6337 86.4746 13.5977 86.4556 13.5676C86.4091 13.514 86.3502 13.4746 86.2849 13.4535C86.2196 13.4323 86.1502 13.4302 86.0838 13.4473C85.9447 13.4599 85.8152 13.5282 85.7208 13.6384C85.6992 13.6651 85.6856 13.6982 85.6819 13.7333C85.6781 13.7685 85.6844 13.804 85.6999 13.8352C85.7154 13.8664 85.7394 13.8918 85.7687 13.9081C85.7979 13.9244 85.8311 13.9307 85.8638 13.9264Z" fill="#263238"/>
<path d="M87.527 17.051C87.4654 17.1006 87.406 17.1714 87.3224 17.1714C87.239 17.1594 87.1588 17.1288 87.087 17.0817C87.087 17.0817 87.0716 17.0817 87.076 17.0935C87.1033 17.1448 87.1431 17.187 87.1912 17.2157C87.2393 17.2444 87.2938 17.2585 87.3488 17.2563C87.396 17.2489 87.4401 17.2265 87.4753 17.192C87.5106 17.1575 87.5355 17.1125 87.5468 17.0628C87.5468 17.0628 87.5336 17.0439 87.527 17.051Z" fill="#263238"/>
<path d="M87.362 16.3005C87.2955 16.3898 87.2125 16.4634 87.1182 16.5166C87.024 16.5698 86.9204 16.6015 86.8142 16.6097C86.7214 16.6163 86.6282 16.61 86.537 16.5908H86.4842L86.4358 16.5766C86.4244 16.5723 86.4145 16.5643 86.4074 16.5538C86.4003 16.5432 86.3964 16.5306 86.3962 16.5176C86.3949 16.5098 86.3949 16.5018 86.3962 16.494V16.4728C86.4094 16.2864 86.4534 16.0008 86.4534 16.0008C86.3874 16.0291 86.0486 16.1471 86.064 16.0504C86.1675 15.2154 86.3496 14.3939 86.6074 13.5983C86.6074 13.5927 86.6095 13.5873 86.6132 13.5833C86.6169 13.5793 86.622 13.5771 86.6272 13.5771C86.6325 13.5771 86.6375 13.5793 86.6412 13.5833C86.6449 13.5873 86.647 13.5927 86.647 13.5983C86.5568 14.37 86.339 15.1205 86.2356 15.8946C86.3563 15.85 86.4821 15.8238 86.6096 15.8167C86.6338 15.8285 86.515 16.3572 86.515 16.4421C86.6554 16.4733 86.8001 16.474 86.9407 16.444C87.0813 16.414 87.2149 16.354 87.3334 16.2675C87.3598 16.2651 87.3774 16.284 87.362 16.3005Z" fill="#263238"/>
<path d="M86.6514 16.5389C86.7389 16.6786 86.8587 16.7916 86.999 16.8669C87.0771 16.9035 87.1635 16.915 87.2476 16.9C87.4302 16.8598 87.4434 16.6828 87.4192 16.5294C87.4055 16.4484 87.3833 16.3692 87.3532 16.2934C87.1496 16.4534 86.9037 16.5394 86.6514 16.5389Z" fill="#263238"/>
<path d="M86.999 16.8669C87.0771 16.9035 87.1635 16.915 87.2476 16.9C87.4302 16.8598 87.4434 16.6828 87.4192 16.5294C87.3238 16.5262 87.2303 16.5578 87.1539 16.6191C87.0776 16.6805 87.0229 16.7679 86.999 16.8669Z" fill="#FF99BA"/>
<path d="M85.5998 12.1965C86.6074 13.2703 88.4048 12.298 88.4048 12.298C88.4565 12.5877 88.5941 12.8517 88.7971 13.0507C89.0001 13.2498 89.2576 13.3731 89.5312 13.4024C89.5312 13.4024 89.3992 15.5406 89.914 15.6374C90.6994 15.786 91.4298 12.98 91.2802 12.3688C91.1306 11.7575 90.4882 11.4838 90.4882 11.4838C90.4732 11.1274 90.3333 10.7903 90.0966 10.5398C89.6368 10.0017 87.6898 10.2282 87.6898 10.2282C87.6291 9.94314 87.5071 9.67723 87.3334 9.4518C87.292 9.39562 87.2405 9.34904 87.1818 9.31488C87.1232 9.28072 87.0587 9.25969 86.9922 9.25307C86.9258 9.24645 86.8588 9.25438 86.7953 9.27637C86.7318 9.29836 86.6731 9.33396 86.6228 9.381C86.6959 9.55504 86.7305 9.74484 86.724 9.9356C86.7108 10.5657 86.2444 10.4737 86.3434 9.91908C86.3731 9.70948 86.4723 9.51842 86.6228 9.381C86.4556 8.97272 86.0992 8.78156 85.8374 8.93024C85.36 9.20164 84.7594 11.302 85.5998 12.1965Z" fill="#263238"/>
<path d="M89.639 15.4202C89.639 15.4202 90.3738 14.2662 90.86 14.547C91.3462 14.8279 90.805 16.494 90.2374 16.7277C90.1665 16.7627 90.0898 16.782 90.0118 16.7845C89.9339 16.787 89.8562 16.7726 89.7835 16.7422C89.7108 16.7118 89.6446 16.6661 89.5888 16.6076C89.533 16.5491 89.4887 16.4792 89.4586 16.402L89.639 15.4202Z" fill="#AD6359"/>
<path d="M90.6928 15.019V15.0356C90.2946 15.2149 90.09 15.6138 89.947 16.0268C89.9697 15.9835 90.0009 15.9461 90.0384 15.9171C90.076 15.8881 90.1189 15.8682 90.1643 15.8587C90.2097 15.8493 90.2565 15.8506 90.3014 15.8625C90.3463 15.8744 90.3883 15.8966 90.4244 15.9276C90.4244 15.9276 90.4244 15.9536 90.4134 15.9512C90.3429 15.9281 90.2675 15.9289 90.1975 15.9534C90.1274 15.9779 90.0661 16.0249 90.0218 16.0881C89.95 16.195 89.8888 16.3097 89.8392 16.4303C89.8194 16.4681 89.7556 16.4492 89.7688 16.4044C89.76 15.8498 90.1472 15.0804 90.6928 15.019Z" fill="#263238"/>
<path d="M94.4724 30.9396C93.2778 26.668 91.6388 21.9834 90.057 20.6193C89.9074 20.3833 90.1054 19.5054 89.9998 19.4157C89.8942 19.326 86.5106 19.4747 86.4116 19.5644C86.3126 19.6541 86.4116 20.1945 86.3038 20.3338C85.6034 21.5442 84.9935 22.8124 84.48 24.1263C83.9806 25.4856 83.4372 28.2138 82.9928 30.9396H94.4724Z" fill="#1B926D"/>
<path d="M89.6693 19.6564C89.6318 19.931 89.6318 20.2102 89.6693 20.4848C89.7097 20.2104 89.7097 19.9308 89.6693 19.6564Z" fill="#263238"/>
<path d="M89.2425 19.6564C89.2021 19.9308 89.2021 20.2104 89.2425 20.4848C89.2829 20.2104 89.2829 19.9308 89.2425 19.6564Z" fill="#263238"/>
<path d="M88.8201 19.6564C88.7797 19.9308 88.7797 20.2104 88.8201 20.4848C88.8576 20.2102 88.8576 19.931 88.8201 19.6564Z" fill="#263238"/>
<path d="M88.3955 19.6564C88.358 19.931 88.358 20.2102 88.3955 20.4848C88.4163 20.3483 88.4265 20.2102 88.4258 20.0718C88.4255 19.9327 88.4154 19.7938 88.3955 19.6564Z" fill="#263238"/>
<path d="M87.9731 19.6564C87.9532 19.7938 87.9431 19.9327 87.9428 20.0718C87.9421 20.2102 87.9523 20.3483 87.9731 20.4848C88.0106 20.2102 88.0106 19.931 87.9731 19.6564Z" fill="#263238"/>
<path d="M87.5485 19.6564C87.511 19.931 87.511 20.2102 87.5485 20.4848C87.5704 20.3485 87.5806 20.2102 87.5788 20.0718C87.5796 19.9327 87.5694 19.7937 87.5485 19.6564Z" fill="#263238"/>
<path d="M87.1261 19.6564C87.0857 19.9308 87.0857 20.2104 87.1261 20.4848C87.1665 20.2104 87.1665 19.9308 87.1261 19.6564Z" fill="#263238"/>
<path d="M86.7037 19.6564C86.6633 19.9308 86.6633 20.2104 86.7037 20.4848C86.7412 20.2102 86.7412 19.931 86.7037 19.6564Z" fill="#263238"/>
<path d="M85.019 22.7268C84.8896 22.9671 84.7735 23.2153 84.6714 23.4702C84.6714 23.4183 84.6912 23.364 84.7 23.3097C84.7264 23.1681 84.7616 23.0242 84.799 22.8849C84.799 22.8849 84.799 22.8849 84.788 22.8849C84.7356 23.0213 84.6929 23.1617 84.6604 23.305C84.636 23.4114 84.6184 23.5194 84.6076 23.6283C84.5944 23.6614 84.579 23.6944 84.568 23.7298C84.4457 24.0672 84.3407 24.4115 84.2534 24.7611C84.2534 24.7847 84.2798 24.7918 84.2864 24.7611C84.5262 24.0791 84.8012 23.4136 85.0366 22.7292C85.0498 22.7221 85.0234 22.7174 85.019 22.7268Z" fill="#263238"/>
<path d="M97.1498 28.3483C94.875 25.0443 91.8698 21.9055 90.4442 21.1196C88.7282 20.1756 90.0548 23.6991 91.1438 25.7523C92.0238 27.4256 93.9818 30.2363 93.8564 30.3166C93.731 30.3968 93.313 29.2711 92.6684 29.1578C91.9292 29.0256 88.7898 29.1578 88.8426 29.6298C88.8624 29.8257 89.0736 30.3024 89.43 30.9372H97.1498V28.3483Z" fill="#AD6359"/>
<path d="M97.1498 30.9325V28.1454C95.5602 25.959 93.8069 23.9155 91.9072 22.0353C89.8766 20.1237 88.6644 20.027 90.1802 23.8926C91.0606 26.1701 92.2676 28.2858 93.7574 30.1632C93.7574 30.1632 91.5948 30.6021 90.3254 30.9349L97.1498 30.9325Z" fill="#1B926D"/>
<path d="M89.9008 24.367C90.068 24.4968 90.2268 24.6388 90.376 24.7918L90.5014 24.9287C90.3034 24.5676 90.1098 24.2042 89.925 23.836C89.9224 23.8304 89.922 23.8238 89.9238 23.8179C89.9257 23.8119 89.9296 23.807 89.9349 23.8041C89.9401 23.8013 89.9462 23.8009 89.9518 23.8029C89.9574 23.8048 89.962 23.8091 89.9646 23.8148C90.5146 24.7588 91.0646 25.7028 91.6168 26.6208C92.169 27.5388 92.7476 28.4451 93.3196 29.3513C93.6452 29.8658 93.9576 30.3921 94.2854 30.9042C94.2986 30.9231 94.2678 30.9443 94.2546 30.9254C93.94 30.4912 93.6144 30.0664 93.313 29.6204C93.0116 29.1743 92.7322 28.7401 92.4528 28.2917C91.8793 27.3744 91.3308 26.4399 90.8072 25.488L90.651 25.2048C90.607 25.16 90.5608 25.1198 90.5168 25.0797C90.4398 25.0089 90.365 24.9358 90.2968 24.8626C90.1537 24.7143 90.0192 24.5567 89.8942 24.3906C89.8942 24.3906 89.8898 24.3576 89.9008 24.367Z" fill="#263238"/>
<path d="M93.8234 28.379C93.2074 28.294 92.928 28.9643 92.928 28.9643C92.928 28.9643 92.653 28.1406 92.0216 28.1406C91.696 28.1406 91.4122 28.7 91.4122 28.7C91.3326 28.5358 91.2126 28.3982 91.0652 28.3021C90.9178 28.206 90.7487 28.1551 90.5762 28.1548C90.1362 28.1855 89.9162 28.7401 89.9162 28.7401C89.9162 28.7401 89.4102 28.3106 88.9636 28.5041C88.0572 28.8864 87.8988 33.014 89.2936 33.7126C89.9536 34.0383 89.9294 33.0282 89.9294 33.0282C89.9294 33.0282 90.2748 34.4772 91.0668 34.5339C91.8588 34.5905 91.7686 33.2784 91.7686 33.2784C91.7686 33.2784 92.114 34.6778 92.9412 34.6472C93.7684 34.6165 93.5022 33.3208 93.5022 33.3208C93.5022 33.3208 94.0478 34.2648 94.6748 34.0855C95.7132 33.7905 94.5384 31.8388 94.7738 30.9396H96.9298C96.9298 30.9396 95.3546 28.5961 93.8234 28.379Z" fill="#AD6359"/>
<path d="M88.847 29.5708C87.9802 29.7242 87.1772 28.4404 86.3302 28.4592C85.1818 28.4828 85.9122 30.5644 87.494 30.9302H88.8426L88.847 29.5708Z" fill="#AD6359"/>
<path d="M89.8656 28.8227C89.8656 28.8085 89.848 28.8038 89.8458 28.8227C89.4667 30.2185 89.4921 31.7049 89.9184 33.0848C89.9338 33.1273 90.0064 33.1202 89.9976 33.0707C89.762 31.669 89.7175 30.2381 89.8656 28.8227Z" fill="#263238"/>
<path d="M91.4056 28.6811C91.4045 28.678 91.4025 28.6754 91.3999 28.6735C91.3974 28.6717 91.3944 28.6707 91.3913 28.6707C91.3882 28.6707 91.3852 28.6717 91.3827 28.6735C91.3801 28.6754 91.3781 28.678 91.377 28.6811C90.9743 30.2237 91.0984 31.8699 91.7268 33.3232C91.751 33.3728 91.8192 33.394 91.795 33.3232C91.4122 32.3226 91.2472 30.005 91.4056 28.6811Z" fill="#263238"/>
<path d="M93.5792 33.4058C92.9764 31.9898 92.8598 30.4888 92.9456 28.9407C92.9456 28.9194 92.9214 28.9194 92.9148 28.9407C92.6816 29.6864 92.7212 30.68 92.8158 31.4517C92.8887 32.1686 93.136 32.8522 93.533 33.4341C93.5484 33.453 93.5924 33.4365 93.5792 33.4058Z" fill="#263238"/>
<path d="M88.3894 29.5307C88.2392 29.9761 88.1806 30.4511 88.2178 30.9231C88.2178 30.9443 88.2508 30.949 88.253 30.9231C88.2794 30.6871 88.3432 29.9649 88.4246 29.5354C88.429 29.5212 88.3982 29.5118 88.3894 29.5307Z" fill="#263238"/>
<path d="M42.3962 24.2419C42.0838 29.349 41.8418 34.6094 42.262 39.7117C42.5876 43.6883 44.1122 46.9758 47.9512 47.9953C51.5108 48.9393 56.5972 48.9252 59.642 46.4212C61.0588 45.253 61.5648 43.5892 61.49 41.7154C61.3866 39.1194 59.6024 24.8414 59.07 20.3928C58.751 17.6811 58.4408 14.9341 57.6752 12.3098C56.067 6.80388 53.537 6.8204 53.1872 6.70712C52.8858 6.49472 50.952 5.54364 48.1778 6.45696C47.4533 6.69489 46.7838 7.09406 46.2129 7.62841C45.642 8.16276 45.1826 8.82026 44.8646 9.558C42.834 13.9382 42.6932 19.4606 42.3962 24.2419Z" fill="#263238"/>
<path d="M53.9682 7.47648C56.9976 9.03644 57.6884 12.6095 58.3946 15.8144C59.378 20.2748 60.2888 24.754 60.9972 29.2664C61.3382 31.4399 61.633 33.6229 61.8772 35.8106C62.0972 37.9063 62.4602 40.1436 62.3172 42.2582C62.0664 45.751 59.0678 47.3086 56.1748 47.7735C56.1456 47.7791 56.1156 47.7721 56.0912 47.7539C56.0669 47.7358 56.0503 47.708 56.045 47.6767C56.0397 47.6454 56.0463 47.6132 56.0632 47.5871C56.0801 47.561 56.106 47.5431 56.1352 47.5375C57.783 47.2071 59.4682 46.7351 60.7046 45.4394C62.293 43.7874 62.1324 41.5832 61.9674 39.4002C61.688 35.6808 61.2106 31.9827 60.61 28.3082C60.0094 24.6337 59.29 20.9757 58.5112 17.3366C57.772 13.8721 57.255 9.31256 53.966 7.52132C53.9198 7.50716 53.9374 7.45996 53.9682 7.47648Z" fill="#263238"/>
<path d="M43.4258 12.5977C44.0308 9.93324 45.3508 7.34432 47.9798 6.59856C44.5786 7.71956 43.714 11.682 43.23 14.9978C42.7225 18.4827 42.3346 21.9865 42.0662 25.5092C41.8066 28.8935 41.613 32.3037 41.6416 35.7021C41.6724 39.3672 42.2576 42.808 44.2442 45.8501C44.2508 45.8625 44.2531 45.877 44.2507 45.8911C44.2484 45.9052 44.2415 45.9179 44.2314 45.9271C44.2212 45.9364 44.2083 45.9415 44.195 45.9416C44.1817 45.9418 44.1688 45.937 44.1584 45.928C42.196 43.4618 41.569 40.0893 41.4414 36.9364C41.272 32.7828 41.5646 28.5654 41.9078 24.4284C42.2356 20.5084 42.5568 16.4374 43.4258 12.5977Z" fill="#263238"/>
<path d="M72.1842 42.8104L70.3648 56.3379C70.3648 56.3379 60.863 56.5149 57.1648 54.1856C52.6812 51.3536 48.6376 33.8164 48.1668 30.975C47.3924 26.3093 48.323 23.7888 50.4504 24.9145C51.2776 25.344 52.2874 26.3305 53.4446 27.9636C54.6568 29.6676 61.424 40.4858 63.7736 42.7608C65.0936 44.0329 72.1842 42.8104 72.1842 42.8104Z" fill="#EBEBEB"/>
<path d="M68.1098 55.3562C68.3298 53.3478 69.476 45.1657 69.8368 43.4169C69.861 43.2942 69.938 43.2824 69.927 43.4169C69.4232 49.4491 68.4882 53.4092 68.1846 55.3656C68.1824 55.4152 68.1098 55.4152 68.1098 55.3562Z" fill="#263238"/>
<path d="M66.3696 56.227C63.3182 56.0335 59.2878 55.519 57.1692 54.1856C52.6856 51.3536 48.642 33.8164 48.1712 30.975C47.3968 26.3093 48.3274 23.7888 50.4548 24.9145C50.5226 24.9486 50.5887 24.9864 50.6528 25.0278L66.3696 56.227Z" fill="#263238"/>
<path d="M54.8196 53.5508L54.2498 43.424C54.2498 43.424 56.7886 40.4103 56.2298 37.6892C55.946 36.311 51.5636 25.8326 51.1346 25.403C49.4076 23.6779 46.4948 24.3646 45.3002 25.3346C38.6782 30.7036 34.0098 42.2251 31.7702 53.5508H54.8196Z" fill="#1B926D"/>
<path d="M54.8196 53.5508L54.2498 43.424C54.2498 43.424 56.7886 40.4103 56.2298 37.6892C55.946 36.311 51.5636 25.8326 51.1346 25.403C49.4076 23.6779 46.4948 24.3646 45.3002 25.3346C38.6782 30.7036 34.0098 42.2251 31.7702 53.5508H54.8196Z" fill="#1B926D"/>
<path d="M54.2498 43.4264L54.813 53.5531H31.7724C34.0098 42.2251 38.6782 30.7036 45.3002 25.3346C45.386 25.2662 45.4806 25.2001 45.5818 25.134L45.7534 25.0302C45.8194 24.99 45.8898 24.9546 45.9734 24.9169L46.0834 24.865L52.6526 42.0528L51.1544 25.4101C51.5174 25.8255 54.2344 32.2305 55.5544 35.6785C55.5605 35.6869 55.565 35.6965 55.5676 35.7068L55.7722 36.2567C55.7964 36.3228 55.8206 36.3888 55.8448 36.4502C55.88 36.5517 55.9152 36.6508 55.9482 36.7405C56.063 37.0492 56.1622 37.3643 56.2452 37.6845C56.7952 40.4103 54.2498 43.4264 54.2498 43.4264Z" fill="#EBEBEB"/>
<path d="M45.7534 25.0302C45.1924 26.7058 44.6072 28.3719 44.0352 30.0428L43.9384 29.8847L47.3066 29.972H47.5266L47.4364 30.1938L46.299 33.007L46.277 32.8087L51.2072 39.851L52.8352 42.211L52.4546 42.329L52.8286 37.3092C52.9474 35.6336 53.0926 33.9628 53.2268 32.2895L53.2554 32.3934L51.6714 30.0192L51.5878 29.8894L51.722 29.8351L52.7538 29.4103L52.7032 29.5401C52.1818 28.1642 51.6538 26.7907 51.1456 25.4078C51.7308 26.7553 52.2984 28.11 52.8726 29.4622L52.91 29.5543L52.822 29.5944L51.8056 30.0664L51.854 29.8823L53.4908 32.2164L53.5216 32.2612V32.3202C53.4226 33.9958 53.3324 35.6714 53.2136 37.347L52.8396 42.9732L52.5008 42.5012L50.8618 40.1412L45.9866 33.0612L45.9206 32.9668L45.9668 32.863L47.168 30.0782L47.3 30.3142L43.9362 30.1396H43.78L43.8394 29.9909C44.4752 28.3153 45.1 26.668 45.7534 25.0302Z" fill="#DBDBDB"/>
<path d="M51.04 24.6526C51.04 24.6526 51.1082 28.3578 50.479 28.4002C48.543 28.5324 46.4706 25.6131 46.365 25.1576C46.3386 25.042 46.574 22.1722 46.761 19.9444C46.882 18.5095 46.981 17.3484 46.981 17.3484L51.8298 20.5296L51.0884 24.3764L51.04 24.6526Z" fill="#EB9481"/>
<path d="M51.8298 20.5296L51.0884 24.3764C50.1191 24.0037 49.2338 23.4166 48.4898 22.653C47.7458 21.8895 47.1598 20.9666 46.7698 19.9444C46.8908 18.5095 46.9898 17.3484 46.9898 17.3484L47.6014 17.7212L51.8298 20.5296Z" fill="#263238"/>
<path d="M57.0856 14.5329C57.9282 21.3769 54.208 22.682 52.833 22.8755C51.5856 23.0501 47.3176 23.4773 45.8216 16.7725C44.3256 10.0678 47.0206 7.48828 49.8498 6.92424C52.679 6.3602 56.243 7.69832 57.0856 14.5329Z" fill="#EB9481"/>
<path d="M55.7898 13.6597C55.642 13.6463 55.4951 13.6234 55.3498 13.5912C55.1903 13.5909 55.0355 13.5336 54.9098 13.4284C54.8752 13.3881 54.8548 13.3362 54.852 13.2815C54.8491 13.2268 54.8641 13.1728 54.8944 13.1287C54.9626 13.0494 55.0494 12.9911 55.1458 12.96C55.2421 12.9289 55.3445 12.926 55.4422 12.9517C55.6492 12.9687 55.8425 13.069 55.9834 13.2325C56.0137 13.2709 56.033 13.318 56.0388 13.3679C56.0447 13.4178 56.0368 13.4685 56.0163 13.5138C55.9958 13.559 55.9635 13.5969 55.9233 13.6228C55.883 13.6487 55.8367 13.6615 55.7898 13.6597Z" fill="#263238"/>
<path d="M51.4712 14.101C51.6162 14.0668 51.7594 14.0243 51.9002 13.9736C52.0564 13.9514 52.2016 13.8752 52.3138 13.7564C52.3419 13.7113 52.3553 13.6575 52.3521 13.6034C52.349 13.5493 52.3293 13.4977 52.2962 13.4567C52.2188 13.3867 52.1255 13.34 52.0258 13.3214C51.9261 13.3027 51.8235 13.3128 51.7286 13.3505C51.5261 13.3959 51.3471 13.5215 51.227 13.7022C51.2009 13.7445 51.1869 13.7942 51.1868 13.845C51.1867 13.8958 51.2006 13.9455 51.2265 13.9879C51.2525 14.0304 51.2896 14.0637 51.3331 14.0838C51.3766 14.1039 51.4246 14.1099 51.4712 14.101Z" fill="#263238"/>
<path d="M52.635 15.6893C52.635 15.6704 52.602 15.7152 52.6042 15.7341C52.657 16.2061 52.6416 16.7442 52.2588 16.9354C52.2478 16.9354 52.2588 16.9637 52.2588 16.9613C52.7406 16.8433 52.7538 16.1212 52.635 15.6893Z" fill="#263238"/>
<path d="M52.2082 15.2362C51.502 15.2362 51.5658 16.756 52.2082 16.7513C52.8506 16.7466 52.7978 15.2291 52.2082 15.2362Z" fill="#263238"/>
<path d="M51.9332 15.3306C51.8144 15.4202 51.7 15.5666 51.5526 15.602C51.4052 15.6374 51.2446 15.4769 51.1258 15.3282C51.1126 15.314 51.1016 15.3282 51.1016 15.3471C51.1016 15.6374 51.227 15.93 51.5174 15.9607C51.8078 15.9914 51.9574 15.7247 52.019 15.425C52.0278 15.3707 51.9816 15.2952 51.9332 15.3306Z" fill="#263238"/>
<path d="M55.0352 15.432C55.0352 15.4132 55.0704 15.4533 55.0704 15.4722C55.0704 15.9442 55.1496 16.4799 55.5522 16.6191C55.5546 16.6202 55.5566 16.622 55.558 16.6243C55.5594 16.6266 55.5601 16.6293 55.5601 16.6321C55.5601 16.6349 55.5594 16.6376 55.558 16.6399C55.5566 16.6422 55.5546 16.644 55.5522 16.6451C55.0638 16.5908 54.967 15.8781 55.0352 15.432Z" fill="#263238"/>
<path d="M55.4092 14.9246C56.1088 14.8397 56.2188 16.3406 55.5698 16.4303C54.9208 16.52 54.8196 14.9978 55.4092 14.9246Z" fill="#263238"/>
<path d="M55.7084 15.0002C55.8272 15.071 55.946 15.2078 56.0802 15.2055C56.2144 15.2031 56.3376 15.0308 56.4256 14.8656C56.4256 14.8491 56.4454 14.8656 56.4476 14.8822C56.4762 15.1701 56.408 15.4769 56.1528 15.5548C55.8976 15.6326 55.7304 15.3919 55.6446 15.1087C55.6292 15.0592 55.6622 14.9718 55.7084 15.0002Z" fill="#263238"/>
<path d="M52.6746 19.3662C52.7802 19.4771 52.8946 19.6281 53.0442 19.6423C53.2065 19.6396 53.3663 19.5994 53.5128 19.5243C53.5282 19.5243 53.5414 19.5243 53.5326 19.5479C53.4705 19.6404 53.386 19.7129 53.2884 19.7578C53.1907 19.8027 53.0835 19.8183 52.9782 19.8028C52.8886 19.7783 52.8079 19.7257 52.7463 19.6517C52.6848 19.5777 52.6453 19.4857 52.6328 19.3874C52.6262 19.3614 52.6592 19.352 52.6746 19.3662Z" fill="#263238"/>
<path d="M54.4104 17.5608C54.4104 17.5608 54.538 18.2546 54.5556 18.585C54.5556 18.6157 54.483 18.6346 54.3796 18.6487C54.118 18.7168 53.8439 18.7064 53.5874 18.6186C53.3309 18.5307 53.1019 18.3689 52.9254 18.1508C52.9034 18.1201 52.9408 18.0823 52.9694 18.1012C53.3769 18.3652 53.8532 18.4803 54.3268 18.4292C54.3444 18.3372 54.0716 17.2492 54.12 17.2492C54.3603 17.2569 54.5985 17.299 54.8284 17.3743C54.6084 15.9206 54.1684 14.5164 53.9484 13.065C53.9468 13.0543 53.9489 13.0433 53.9542 13.0341C53.9595 13.0249 53.9678 13.0181 53.9775 13.015C53.9871 13.0118 53.9975 13.0125 54.0067 13.0169C54.0159 13.0213 54.0234 13.0292 54.0276 13.039C54.5886 14.4739 54.8834 16.1424 55.154 17.6386C55.1826 17.818 54.5358 17.608 54.4104 17.5608Z" fill="#263238"/>
<path d="M54.0298 18.5732C53.8786 18.7902 53.6778 18.9617 53.4468 19.0712C53.3198 19.1265 53.1798 19.1381 53.0464 19.1042C52.7538 19.0263 52.7428 18.7408 52.7934 18.4953C52.8247 18.3671 52.8706 18.2435 52.9298 18.1272C53.2433 18.3968 53.6284 18.553 54.0298 18.5732Z" fill="#263238"/>
<path d="M53.4512 19.0712C53.3242 19.1265 53.1842 19.1381 53.0508 19.1042C52.7582 19.0263 52.7472 18.7408 52.7978 18.4953C52.951 18.4993 53.0986 18.5581 53.217 18.6625C53.3354 18.7668 53.4178 18.9107 53.4512 19.0712Z" fill="#FF99BA"/>
<path d="M46.1758 16.3548C47.663 16.3147 47.5684 13.8013 47.5684 13.8013C47.5684 13.8013 49.2492 13.5653 49.2778 10.6507C49.2778 10.6507 50.1578 12.3829 52.4414 12.6567C52.9276 12.7157 51.2644 11.4295 51.2644 11.4295C51.2644 11.4295 53.2664 13.2443 56.848 12.3947C57.1032 12.3334 56.4278 8.27416 53.548 6.98796C50.6682 5.70176 48.1514 6.58676 46.464 8.5668C46.464 8.5668 44.4224 9.66656 44.264 11.7811C44.1056 13.8957 45.5972 16.369 46.1758 16.3548Z" fill="#263238"/>
<path d="M51.6934 18.1767C51.3178 18.1742 50.9504 18.0586 50.633 17.8432C50.3156 17.6277 50.061 17.3211 49.8981 16.958C49.7352 16.595 49.6705 16.1902 49.7115 15.7897C49.7525 15.3891 49.8974 15.009 50.1298 14.6925C50.3623 14.376 50.6729 14.1359 51.0263 13.9994C51.3796 13.8629 51.7617 13.8356 52.1288 13.9205C52.496 14.0054 52.8335 14.1992 53.1031 14.4797C53.3727 14.7603 53.5634 15.1164 53.6536 15.5076C53.7265 15.8257 53.7309 16.1575 53.6663 16.4777C53.6017 16.7979 53.4699 17.0981 53.2809 17.3555C53.0919 17.6128 52.8507 17.8205 52.5756 17.9628C52.3005 18.1052 51.9988 18.1783 51.6934 18.1767ZM51.7176 14.1647C51.573 14.1629 51.4288 14.1812 51.2886 14.219C50.8593 14.3327 50.4865 14.6176 50.2462 15.0159C50.0058 15.4141 49.9161 15.8956 49.9951 16.3623C50.0741 16.829 50.3161 17.2459 50.6716 17.528C51.0271 17.8101 51.4695 17.9362 51.9087 17.8806C52.3479 17.8251 52.7508 17.592 53.0354 17.2289C53.32 16.8658 53.4648 16.4 53.4405 15.9264C53.4161 15.4527 53.2244 15.0068 52.9043 14.6795C52.5842 14.3522 52.1598 14.1681 51.7176 14.1647Z" fill="#1B926D"/>
<path d="M56.265 17.6056C55.4972 17.6056 54.8064 16.7536 54.692 15.6374C54.627 15.1049 54.7201 14.564 54.9582 14.0916C55.0484 13.8818 55.1876 13.7006 55.3624 13.5656C55.5371 13.4305 55.7414 13.3462 55.9554 13.3208C56.1695 13.2954 56.386 13.3298 56.584 13.4206C56.782 13.5114 56.9548 13.6555 57.0856 13.839C57.4155 14.2472 57.6165 14.7569 57.6598 15.2952C57.783 16.4752 57.2198 17.5136 56.397 17.6103C56.353 17.6072 56.309 17.6056 56.265 17.6056ZM56.0868 13.5936C56.0531 13.5912 56.0193 13.5912 55.9856 13.5936C55.8161 13.6215 55.6553 13.693 55.517 13.8018C55.3787 13.9107 55.267 14.0538 55.1914 14.219C54.982 14.6387 54.9004 15.1182 54.9582 15.5902C55.0638 16.612 55.693 17.379 56.3684 17.2988C57.0438 17.2186 57.4992 16.3218 57.3936 15.2999C57.3537 14.8261 57.1759 14.3778 56.8854 14.0184C56.7867 13.893 56.6647 13.7911 56.5272 13.7192C56.3897 13.6473 56.2397 13.6069 56.0868 13.6007V13.5936Z" fill="#1B926D"/>
<path d="M53.6118 15.7672L53.4182 15.5689C53.691 15.2598 54.3532 14.809 54.8988 15.3117L54.7228 15.5288C54.2366 15.0757 53.636 15.7341 53.6118 15.7672Z" fill="#1B926D"/>
<path d="M44.7898 17.3696L44.5412 17.2658C44.5852 17.1407 44.9944 16.0362 45.5796 15.8639C46.1274 15.7011 49.7376 15.6279 49.8894 15.6279V15.9158C48.8554 15.9347 46.0702 16.0102 45.6478 16.1353C45.2584 16.2557 44.8932 17.0675 44.7898 17.3696Z" fill="#1B926D"/>
<path d="M46.8996 17.1548C46.8996 17.1548 45.408 15.0733 44.5214 15.6515C43.6348 16.2297 44.8184 19.2977 45.903 19.6635C46.0399 19.7218 46.1864 19.7497 46.3337 19.7454C46.4809 19.7411 46.6258 19.7047 46.7596 19.6385C46.8933 19.5723 47.0131 19.4776 47.1117 19.3602C47.2103 19.2428 47.2856 19.1051 47.333 18.9555L46.8996 17.1548Z" fill="#EB9481"/>
<path d="M44.88 16.5224C44.8771 16.5236 44.8747 16.5257 44.873 16.5284C44.8712 16.5312 44.8703 16.5344 44.8703 16.5377C44.8703 16.541 44.8712 16.5442 44.873 16.547C44.8747 16.5497 44.8771 16.5518 44.88 16.553C45.6434 16.8433 46.068 17.5678 46.376 18.3254C46.1406 18.0398 45.8304 17.8912 45.4718 18.1932C45.4686 18.1973 45.4667 18.2022 45.4662 18.2075C45.4657 18.2127 45.4667 18.218 45.4691 18.2227C45.4715 18.2273 45.4751 18.231 45.4795 18.2333C45.484 18.2357 45.4889 18.2365 45.4938 18.2357C45.6234 18.183 45.7652 18.1753 45.899 18.2139C46.0329 18.2524 46.1521 18.3352 46.2396 18.4505C46.3858 18.6425 46.5126 18.8505 46.618 19.0712C46.6554 19.142 46.7764 19.0971 46.7456 19.0169V18.998C46.7104 17.9738 45.9096 16.5766 44.88 16.5224Z" fill="#263238"/>
<path d="M46.4926 19.3402C46.4926 19.3869 46.4797 19.4325 46.4555 19.4713C46.4313 19.5101 46.397 19.5404 46.3568 19.5582C46.3166 19.5761 46.2724 19.5808 46.2297 19.5717C46.187 19.5626 46.1478 19.5401 46.117 19.5071C46.0863 19.4741 46.0653 19.432 46.0568 19.3862C46.0483 19.3405 46.0527 19.293 46.0693 19.2499C46.086 19.2068 46.1142 19.1699 46.1504 19.144C46.1865 19.118 46.2291 19.1042 46.2726 19.1042C46.3309 19.1042 46.3869 19.1291 46.4282 19.1733C46.4694 19.2176 46.4926 19.2776 46.4926 19.3402Z" fill="white"/>
<path d="M45.8568 18.9343C45.8568 18.975 45.8417 19.014 45.8149 19.0428C45.7881 19.0715 45.7517 19.0877 45.7138 19.0877C45.6759 19.0877 45.6395 19.0715 45.6127 19.0428C45.5859 19.014 45.5708 18.975 45.5708 18.9343C45.5708 18.8936 45.5859 18.8546 45.6127 18.8258C45.6395 18.797 45.6759 18.7809 45.7138 18.7809C45.7517 18.7809 45.7881 18.797 45.8149 18.8258C45.8417 18.8546 45.8568 18.8936 45.8568 18.9343Z" fill="white"/>
<path d="M50.6792 33.9628C50.6792 33.9628 49.1722 31.8388 50.6088 30.8476C52.0454 29.8564 53.2158 32.2282 53.2158 32.2282L50.6792 33.9628Z" fill="#455A64"/>
<path d="M62.5966 47.9977L62.8056 50.6055L62.8804 51.4645L62.1764 51.0374L60.06 49.7323L50.6286 33.8731L53.1674 32.1361L62.5988 47.9977H62.5966Z" fill="#455A64"/>
<path d="M62.8078 50.6078L62.8804 51.4692L62.1764 51.0397L62.8078 50.6078Z" fill="#37474F"/>
<path d="M53.3246 31.9095L50.3628 33.9368L50.7379 34.5674L53.6997 32.5402L53.3246 31.9095Z" fill="#263238"/>
<path d="M53.7386 32.6094L50.7767 34.6367L51.1518 35.2673L54.1137 33.2401L53.7386 32.6094Z" fill="#263238"/>
<path d="M51.1522 35.2631L52.107 34.607L54.9934 40.7053L54.6282 40.9248L51.1522 35.2631Z" fill="#263238"/>
<path d="M41.162 29.2003C33.7898 37.583 25.3594 51.8114 28.7804 54.9668C31.9022 57.8507 43.5666 55.4388 50.9234 52.543C52.3248 51.9908 46.9502 38.6804 45.518 39.4332C44.0059 40.2442 42.4482 40.9536 40.854 41.5572C40.4514 41.6634 42.5194 36.5824 45.0582 30.4204C47.8918 23.5552 45.3838 24.4071 41.162 29.2003Z" fill="#EB9481"/>
<path d="M63.2698 38.8503C63.2478 40.3843 59.73 40.002 59.73 40.002C60.2363 40.3775 60.6044 40.9309 60.7706 41.5667C61.0148 42.7018 59.4506 43.6104 59.4506 43.6104C59.9013 44.1173 60.1994 44.7579 60.3064 45.4489C60.4362 46.5604 58.9864 47.7168 58.9864 47.7168C59.1589 48.4277 59.0878 49.1814 58.7862 49.8408C57.9062 51.566 55.099 51.54 53.3522 51.8917C51.3959 52.3322 49.4757 52.9407 47.6102 53.7112L44.649 39.8722C44.649 39.8722 52.2852 35.2395 54.3906 35.3882C56.188 35.5251 63.3094 36.5092 63.2698 38.8503Z" fill="#EB9481"/>
<path d="M59.7058 39.9595C57.849 39.3341 55.8602 39.1878 53.9374 39.0674C53.8934 39.0674 53.8912 39.1382 53.9374 39.1382C55.8514 39.235 57.7874 39.8793 59.6926 40.0563C59.7035 40.0561 59.7141 40.0517 59.7223 40.0439C59.7305 40.0362 59.7359 40.0255 59.7374 40.0139C59.739 40.0023 59.7367 39.9904 59.7309 39.9805C59.7251 39.9705 59.7162 39.9631 59.7058 39.9595Z" fill="#263238"/>
<path d="M59.4176 43.4547C58.9841 43.3552 58.5402 43.3179 58.0976 43.3438C57.6268 43.3438 57.1582 43.3438 56.6874 43.3579C55.7487 43.3847 54.8101 43.4358 53.8714 43.5113C53.8296 43.5113 53.823 43.5821 53.8714 43.5821C54.8086 43.5585 55.7458 43.5491 56.683 43.568C57.1509 43.5774 57.6195 43.5908 58.0888 43.6081C58.528 43.6552 58.9707 43.6497 59.4088 43.5916C59.4232 43.5887 59.4364 43.5808 59.4461 43.5691C59.4559 43.5574 59.4618 43.5425 59.4628 43.5268C59.4638 43.5111 59.4599 43.4955 59.4517 43.4824C59.4435 43.4694 59.4315 43.4596 59.4176 43.4547Z" fill="#263238"/>
<path d="M58.9688 47.7145C58.6036 47.5894 58.1504 47.6673 57.7742 47.6862C57.3459 47.7066 56.9177 47.7247 56.4894 47.7404C55.6314 47.7735 54.7756 47.8042 53.9198 47.8042C53.9122 47.8062 53.9055 47.811 53.9007 47.8176C53.8959 47.8242 53.8933 47.8324 53.8933 47.8407C53.8933 47.8491 53.8959 47.8573 53.9007 47.8639C53.9055 47.8705 53.9122 47.8752 53.9198 47.8773C54.7998 47.8773 55.6622 47.8986 56.5312 47.8962C56.9602 47.8962 57.387 47.8962 57.8138 47.882C58.179 47.882 58.6322 47.9127 58.9754 47.7617C58.9794 47.759 58.9826 47.7551 58.9846 47.7505C58.9866 47.7459 58.9873 47.7408 58.9866 47.7357C58.9859 47.7307 58.9838 47.726 58.9807 47.7222C58.9775 47.7185 58.9734 47.7158 58.9688 47.7145Z" fill="#263238"/>
<path d="M44.7898 25.5163C39.5098 28.766 25.5684 48.4933 27.8498 54.1313C30.1312 59.7694 47.036 54.2328 47.036 54.2328L46.0108 39.1005C46.0108 39.1005 41.536 41.5997 41.3908 41.3566C41.2456 41.1136 44.0308 34.3144 45.1484 31.5485C46.266 28.7826 47.5992 23.7912 44.7898 25.5163Z" fill="#EBEBEB"/>
<path d="M44.9438 53.3053C44.6952 51.3017 43.9516 43.0676 43.9032 41.2693C43.9032 41.1442 43.9736 41.1112 43.9912 41.241C44.8712 47.2236 44.8712 51.3064 45.0186 53.277C45.0208 53.3407 44.9504 53.3572 44.9438 53.3053Z" fill="#263238"/>
<path d="M45.9074 39.1099C45.4144 39.2864 44.9349 39.5034 44.473 39.7589C44.0528 39.9666 43.6326 40.1743 43.2168 40.389C42.3104 40.861 41.415 41.333 40.5218 41.8381C39.6286 42.3431 38.742 42.8364 37.862 43.3556C36.982 43.8748 36.1328 44.4459 35.255 44.9674C35.2154 44.991 35.255 45.0548 35.2924 45.0312C36.1856 44.5261 37.1096 44.0872 38.0116 43.6152L40.667 42.1992C41.547 41.7272 42.4402 41.267 43.3224 40.7832C43.7624 40.5472 44.187 40.3112 44.6182 40.0752C45.0915 39.8467 45.5495 39.5834 45.9888 39.2869C46.0021 39.2711 46.0106 39.2514 46.0134 39.2304C46.0161 39.2093 46.0128 39.1879 46.0041 39.1688C45.9953 39.1497 45.9814 39.1339 45.9642 39.1234C45.9469 39.1129 45.9272 39.1082 45.9074 39.1099Z" fill="#263238"/>
<path d="M44.5698 34.7274C44.2904 35.0885 44.0132 35.4519 43.7492 35.8272C43.7008 35.8956 43.6568 35.9688 43.6084 36.0396L43.8284 35.4543C44.1171 34.7801 44.3705 34.0891 44.5874 33.3846C44.5874 33.3515 44.5522 33.3374 44.5368 33.3633C44.187 34.0414 43.8719 34.7394 43.593 35.4543C43.2982 36.1387 42.9968 36.8231 42.713 37.5122C42.4292 38.2013 42.1366 38.8928 41.866 39.5914C41.5743 40.2665 41.3294 40.9638 41.1334 41.6776C41.1334 41.7201 41.1774 41.7366 41.1994 41.7036C41.57 41.039 41.8936 40.3456 42.1674 39.6291C42.46 38.94 42.7328 38.2438 43.0144 37.5523C43.1332 37.262 43.2454 36.9694 43.3598 36.6768L43.5006 36.4809C43.6326 36.3015 43.7558 36.1151 43.8768 35.9286C44.1254 35.5392 44.3564 35.1428 44.5852 34.7486C44.5868 34.7462 44.5875 34.7432 44.5874 34.7402C44.5873 34.7373 44.5864 34.7344 44.5847 34.732C44.583 34.7297 44.5806 34.728 44.5779 34.7271C44.5753 34.7263 44.5724 34.7264 44.5698 34.7274Z" fill="#263238"/>
<path d="M49.3812 37.2432L49.005 37.439L45.9822 33.0447L45.9162 32.9503L45.9624 32.8465L47.0624 30.2764L43.923 30.1136H43.7668L43.8262 29.9649C44.4664 28.3129 45.0912 26.6727 45.7446 25.0349C45.2012 26.6586 44.6446 28.2752 44.0792 29.8941L47.2978 29.9767H47.5178L46.3276 32.9055L49.3812 37.2432Z" fill="#DBDBDB"/>
<path d="M43.9384 29.8847L44.0889 29.8847L44.0358 30.0381L43.9384 29.8847Z" fill="#DBDBDB"/>
<path d="M46.277 32.8134L46.3397 32.9055L46.2986 33.0117L46.277 32.8134Z" fill="#DBDBDB"/>
<path d="M47.1636 30.0664L47.2956 30.293L47.0712 30.2812L47.1636 30.0664Z" fill="#DBDBDB"/>
<path d="M69.8236 56.4488L55.0462 57.5982L60.5704 36.7287L75.3456 35.5794L69.8236 56.4488Z" fill="white"/>
<path d="M70.8334 56.371L56.0582 57.5203L61.5824 36.6508L76.3576 35.4991L70.8334 56.371Z" fill="#455A64"/>
<path d="M63.1532 36.5352C63.1152 36.7148 63.0445 36.8846 62.9453 37.0348C62.846 37.185 62.72 37.3128 62.5746 37.4107C62.4404 37.5028 62.3876 37.3092 62.5218 37.2219C62.7081 37.0895 62.847 36.8931 62.9156 36.665C62.9275 36.6281 62.9363 36.5902 62.942 36.5517C62.974 36.4242 62.974 36.2898 62.942 36.1623C62.9276 36.1081 62.8956 36.0612 62.8518 36.0301C62.8482 36.0308 62.8444 36.0308 62.8408 36.0301C62.8408 36.0301 62.8254 36.0301 62.8232 36.0301H62.7946C62.7594 36.0241 62.7233 36.0299 62.6912 36.0466C62.6282 36.0757 62.5725 36.1202 62.5284 36.1764C62.4744 36.2481 62.43 36.3276 62.3964 36.4124C62.3744 36.4502 62.359 36.4903 62.3392 36.5328V36.5611C62.3313 36.5739 62.326 36.5884 62.3238 36.6036C62.3229 36.613 62.3229 36.6225 62.3238 36.6319L62.1148 36.6484C62.1547 36.5043 62.2132 36.3669 62.2886 36.2402C62.345 36.1311 62.4225 36.0361 62.5158 35.9616C62.6091 35.8872 62.7162 35.8349 62.8298 35.8083C62.9131 35.8001 62.9962 35.8267 63.0617 35.8825C63.1273 35.9384 63.1703 36.0191 63.1818 36.108C63.2029 36.2509 63.1931 36.397 63.1532 36.5352Z" fill="#1B926D"/>
<path d="M64.3082 36.4408C64.2304 36.8024 64.0235 37.1168 63.7318 37.3163C63.5954 37.4084 63.5448 37.2148 63.679 37.1275C63.8653 36.9951 64.0042 36.7987 64.0728 36.5706C64.0728 36.5352 64.0926 36.4927 64.0992 36.4549C64.1313 36.3282 64.1313 36.1946 64.0992 36.0679C64.0847 36.0125 64.0519 35.9646 64.0068 35.9334H63.9584C63.9239 35.9272 63.8885 35.933 63.8572 35.9499C63.7939 35.9782 63.738 36.0228 63.6944 36.0797C63.6405 36.1472 63.596 36.2227 63.5624 36.3039C63.5399 36.342 63.5207 36.3823 63.5052 36.4242V36.4526C63.4991 36.4663 63.494 36.4805 63.4898 36.495C63.4898 36.495 63.4898 36.5139 63.4898 36.521L63.2808 36.5375C63.3212 36.3943 63.3797 36.2578 63.4546 36.1316C63.5097 36.0214 63.5868 35.9256 63.6803 35.851C63.7739 35.7763 63.8816 35.7247 63.9958 35.6997C64.0791 35.6916 64.1622 35.7182 64.2277 35.774C64.2933 35.8298 64.3363 35.9105 64.3478 35.9994C64.3684 36.1478 64.3548 36.2993 64.3082 36.4408Z" fill="#1B926D"/>
<path d="M65.4698 36.3487C65.392 36.7116 65.1842 37.027 64.8912 37.2266C64.757 37.3187 64.7064 37.1228 64.8406 37.0355C65.0268 36.904 65.1657 36.7084 65.2344 36.4809C65.2344 36.4431 65.2542 36.403 65.2608 36.3652C65.2917 36.2384 65.2917 36.1051 65.2608 35.9782C65.2453 35.9233 65.2127 35.8758 65.1684 35.8437H65.1222C65.087 35.8377 65.0509 35.8434 65.0188 35.8602C64.9557 35.8878 64.9004 35.9326 64.8582 35.99C64.8049 36.0576 64.7598 36.1321 64.724 36.2118C64.702 36.2496 64.6866 36.2921 64.6668 36.3346V36.3629C64.6598 36.3762 64.6546 36.3905 64.6514 36.4054C64.6514 36.4054 64.6514 36.4242 64.6514 36.4313L64.4314 36.4478C64.4736 36.3054 64.532 36.1691 64.6052 36.0419C64.6609 35.9322 64.7382 35.8368 64.8316 35.7623C64.925 35.6877 65.0324 35.6358 65.1464 35.61C65.2297 35.6018 65.3127 35.628 65.3785 35.6833C65.4444 35.7386 65.4881 35.8187 65.5006 35.9074C65.5231 36.055 65.5125 36.2063 65.4698 36.3487Z" fill="#1B926D"/>
<path d="M66.6226 36.259C66.5448 36.6219 66.337 36.9373 66.044 37.137C65.9098 37.229 65.857 37.0331 65.9912 36.9458C66.1774 36.8143 66.3163 36.6187 66.385 36.3912C66.3969 36.3535 66.4057 36.3148 66.4114 36.2756C66.4449 36.149 66.4449 36.015 66.4114 35.8885C66.3975 35.8335 66.3654 35.7857 66.3212 35.754H66.3102C66.3102 35.754 66.2948 35.754 66.2926 35.754C66.2831 35.7556 66.2735 35.7556 66.264 35.754C66.2286 35.7501 66.1928 35.7566 66.1606 35.7729C66.0968 35.8004 66.0408 35.8451 65.9978 35.9027C65.9447 35.9699 65.9003 36.0445 65.8658 36.1245C65.8438 36.1623 65.8284 36.2048 65.8086 36.2472V36.2756C65.8011 36.2877 65.7958 36.3013 65.7932 36.3157C65.7923 36.3251 65.7923 36.3346 65.7932 36.344L65.5842 36.3605C65.6242 36.2172 65.6827 36.0805 65.758 35.9546C65.8137 35.8449 65.891 35.7495 65.9844 35.6749C66.0779 35.6004 66.1852 35.5484 66.2992 35.5227C66.3822 35.5145 66.465 35.5408 66.5305 35.5961C66.5959 35.6514 66.6392 35.7316 66.6512 35.8201C66.674 35.9668 66.6642 36.1172 66.6226 36.259Z" fill="#1B926D"/>
<path d="M67.7776 36.1694C67.7004 36.5318 67.4933 36.8472 67.2012 37.0473C67.0648 37.1393 67.0142 36.9434 67.1484 36.8561C67.3346 36.7246 67.4735 36.529 67.5422 36.3015C67.5422 36.2638 67.562 36.2236 67.5686 36.1859C67.6006 36.0584 67.6006 35.924 67.5686 35.7965C67.5536 35.7419 67.5208 35.695 67.4762 35.6643C67.4762 35.6643 67.4608 35.6643 67.4564 35.6643C67.4469 35.6659 67.4373 35.6659 67.4278 35.6643C67.3931 35.6602 67.358 35.6668 67.3266 35.6832C67.2628 35.7108 67.2068 35.7555 67.1638 35.813C67.1095 35.8793 67.0649 35.9541 67.0318 36.0348C67.0093 36.0738 66.9901 36.1149 66.9746 36.1576V36.1859C66.9685 36.1988 66.9634 36.2122 66.9592 36.226C66.9592 36.226 66.9592 36.2449 66.9592 36.2543L66.7502 36.2708C66.7902 36.1275 66.8487 35.9908 66.924 35.8649C66.9791 35.7547 67.0562 35.6589 67.1497 35.5843C67.2433 35.5096 67.351 35.458 67.4652 35.433C67.5482 35.4249 67.631 35.4511 67.6965 35.5064C67.7619 35.5618 67.8052 35.6419 67.8172 35.7304C67.8374 35.878 67.8238 36.0287 67.7776 36.1694Z" fill="#1B926D"/>
<path d="M68.9348 36.0797C68.8576 36.4422 68.6505 36.7575 68.3584 36.9576C68.222 37.0496 68.1714 36.8538 68.3056 36.7664C68.4918 36.6349 68.6307 36.4393 68.6994 36.2118C68.6994 36.1741 68.7192 36.1316 68.7258 36.0962C68.7567 35.9685 68.7567 35.8345 68.7258 35.7068C68.7095 35.653 68.677 35.6065 68.6334 35.5746H68.6224C68.6224 35.5746 68.607 35.5746 68.6048 35.5746H68.5762C68.541 35.5686 68.5049 35.5744 68.4728 35.5912C68.41 35.6205 68.3549 35.6659 68.3122 35.7233C68.258 35.7901 68.2128 35.8648 68.178 35.9452C68.156 35.9829 68.1406 36.0254 68.1208 36.0679V36.0938C68.1138 36.1071 68.1086 36.1214 68.1054 36.1363C68.1054 36.1363 68.1054 36.1552 68.1054 36.1646L67.8854 36.1812C67.9276 36.038 67.986 35.9009 68.0592 35.7729C68.1153 35.6637 68.1927 35.5689 68.2861 35.4947C68.3795 35.4206 68.4867 35.369 68.6004 35.3434C68.6838 35.3345 68.7671 35.3605 68.8331 35.4159C68.899 35.4713 68.9426 35.5518 68.9546 35.6407C68.9803 35.7867 68.9735 35.9371 68.9348 36.0797Z" fill="#1B926D"/>
<path d="M70.0898 35.99C70.012 36.3529 69.8042 36.6683 69.5112 36.8679C69.377 36.96 69.3242 36.7641 69.4584 36.6768C69.6446 36.5452 69.7835 36.3496 69.8522 36.1222C69.8639 36.0844 69.8727 36.0458 69.8786 36.0065C69.9118 35.8792 69.9118 35.7445 69.8786 35.6171C69.8632 35.5635 69.8314 35.5169 69.7884 35.485C69.7848 35.4857 69.781 35.4857 69.7774 35.485C69.7774 35.485 69.762 35.485 69.7598 35.485H69.7312C69.696 35.479 69.6599 35.4847 69.6278 35.5015C69.5648 35.5306 69.5091 35.575 69.465 35.6313C69.4118 35.6993 69.3674 35.7747 69.333 35.8555C69.311 35.8932 69.2956 35.9357 69.2758 35.9782V36.0042C69.2679 36.017 69.2626 36.0314 69.2604 36.0466C69.2595 36.056 69.2595 36.0655 69.2604 36.075L69.0514 36.0915C69.0913 35.9474 69.1498 35.8099 69.2252 35.6832C69.2813 35.5741 69.3587 35.4792 69.4521 35.405C69.5455 35.3309 69.6527 35.2793 69.7664 35.2537C69.8495 35.2449 69.9326 35.271 69.9982 35.3264C70.0638 35.3818 70.1069 35.4623 70.1184 35.551C70.1412 35.6977 70.1314 35.8481 70.0898 35.99Z" fill="#1B926D"/>
<path d="M71.247 35.9003C71.1693 36.2619 70.9623 36.5763 70.6706 36.7759C70.5342 36.8679 70.4836 36.6744 70.6178 36.5871C70.8041 36.4547 70.943 36.2583 71.0116 36.0301C71.0116 35.9947 71.0314 35.9522 71.038 35.9168C71.07 35.7893 71.07 35.655 71.038 35.5274C71.023 35.4729 70.9902 35.426 70.9456 35.3953C70.9456 35.3953 70.9302 35.3953 70.9258 35.3953H70.8972C70.8627 35.3891 70.8273 35.3949 70.796 35.4118C70.7331 35.4409 70.6773 35.4853 70.6332 35.5416C70.5793 35.6091 70.5348 35.6846 70.5012 35.7658C70.48 35.8047 70.4609 35.8449 70.444 35.8862V35.9145C70.4379 35.9282 70.4328 35.9424 70.4286 35.957C70.4286 35.957 70.4286 35.9758 70.4286 35.9853L70.2086 36.0018C70.2485 35.8577 70.307 35.7203 70.3824 35.5935C70.4386 35.4842 70.516 35.3891 70.6093 35.3146C70.7027 35.2401 70.8099 35.188 70.9236 35.1616C71.0069 35.1535 71.09 35.1801 71.1555 35.2359C71.2211 35.2917 71.2641 35.3725 71.2756 35.4614C71.2994 35.608 71.2896 35.7587 71.247 35.9003Z" fill="#1B926D"/>
<path d="M72.4042 35.8106C72.3264 36.1722 72.1195 36.4866 71.8278 36.6862C71.6914 36.7782 71.6408 36.5847 71.775 36.4974C71.9613 36.365 72.1002 36.1686 72.1688 35.9404C72.1688 35.905 72.1886 35.8626 72.1952 35.8272C72.2262 35.6995 72.2262 35.5654 72.1952 35.4378C72.1791 35.3832 72.1466 35.3359 72.1028 35.3032H72.0918C72.0918 35.3032 72.0764 35.3032 72.0742 35.3032H72.0456C72.0104 35.2972 71.9743 35.303 71.9422 35.3198C71.8801 35.3492 71.8251 35.3936 71.7816 35.4496C71.7278 35.5176 71.6826 35.593 71.6474 35.6738C71.6254 35.7115 71.61 35.7516 71.5902 35.7941V35.8224C71.5832 35.8357 71.578 35.85 71.5748 35.8649C71.5748 35.8649 71.5748 35.8838 71.5748 35.8932L71.3548 35.9074C71.3971 35.765 71.4554 35.6287 71.5286 35.5015C71.5847 35.3921 71.662 35.2969 71.7554 35.2224C71.8488 35.1479 71.956 35.0958 72.0698 35.0696C72.1534 35.0614 72.2367 35.0879 72.3026 35.1437C72.3685 35.1995 72.412 35.2802 72.424 35.3693C72.45 35.516 72.4432 35.6673 72.4042 35.8106Z" fill="#1B926D"/>
<path d="M73.5614 35.721C73.4831 36.083 73.2753 36.3974 72.9828 36.5965C72.8486 36.6886 72.798 36.495 72.93 36.4077C73.1163 36.2753 73.2552 36.0789 73.3238 35.8508C73.336 35.8132 73.3448 35.7745 73.3502 35.7351C73.3837 35.6086 73.3837 35.4746 73.3502 35.3481C73.3363 35.293 73.3042 35.2452 73.26 35.2136C73.26 35.2136 73.26 35.2136 73.249 35.2136H73.2028C73.1676 35.2076 73.1315 35.2133 73.0994 35.2301C73.0357 35.2576 72.9796 35.3023 72.9366 35.3599C72.884 35.4275 72.8396 35.502 72.8046 35.5817C72.7826 35.6218 72.7672 35.662 72.7474 35.7044V35.7328C72.7395 35.7456 72.7342 35.76 72.732 35.7752C72.732 35.7752 72.732 35.7941 72.732 35.8012L72.523 35.8177C72.5634 35.6745 72.6219 35.538 72.6968 35.4118C72.7525 35.3021 72.8298 35.2067 72.9232 35.1321C73.0167 35.0576 73.124 35.0056 73.238 34.9799C73.3213 34.9718 73.4044 34.9984 73.4699 35.0542C73.5355 35.11 73.5785 35.1907 73.59 35.2796C73.6132 35.4271 73.6034 35.5784 73.5614 35.721Z" fill="#1B926D"/>
<path d="M74.7098 35.6289C74.6326 35.9914 74.4255 36.3067 74.1334 36.5068C73.997 36.5989 73.9464 36.403 74.0806 36.3157C74.2668 36.1842 74.4057 35.9886 74.4744 35.7611C74.4744 35.7233 74.4942 35.6832 74.5008 35.6454C74.5329 35.5187 74.5329 35.3851 74.5008 35.2584C74.4863 35.203 74.4535 35.1551 74.4084 35.1239C74.4084 35.1239 74.393 35.1239 74.3886 35.1239C74.3791 35.1255 74.3695 35.1255 74.36 35.1239C74.3253 35.1198 74.2902 35.1263 74.2588 35.1428C74.1951 35.1703 74.139 35.215 74.096 35.2726C74.0426 35.3395 73.9981 35.4142 73.964 35.4944C73.9423 35.5338 73.9232 35.5748 73.9068 35.6171V35.6454C73.9007 35.6592 73.8956 35.6734 73.8914 35.6879C73.8914 35.6879 73.8914 35.7068 73.8914 35.7139L73.6824 35.7304C73.7224 35.587 73.7809 35.4504 73.8562 35.3245C73.9117 35.2146 73.9889 35.119 74.0823 35.0444C74.1758 34.9698 74.2833 34.918 74.3974 34.8926C74.4804 34.8844 74.5632 34.9107 74.6287 34.966C74.6941 35.0213 74.7374 35.1015 74.7494 35.19C74.7696 35.3376 74.7561 35.4882 74.7098 35.6289Z" fill="#1B926D"/>
<path d="M75.8736 35.5392C75.7964 35.9017 75.5893 36.2171 75.2972 36.4172C75.1608 36.5092 75.1102 36.3133 75.2444 36.226C75.4306 36.0945 75.5695 35.8989 75.6382 35.6714C75.6382 35.6336 75.658 35.5935 75.6646 35.5558C75.6955 35.4281 75.6955 35.294 75.6646 35.1664C75.6483 35.1125 75.6158 35.066 75.5722 35.0342C75.5722 35.0342 75.5568 35.0342 75.5546 35.0342C75.5451 35.0358 75.5355 35.0358 75.526 35.0342C75.4906 35.0303 75.4548 35.0368 75.4226 35.0531C75.3595 35.0807 75.3042 35.1254 75.262 35.1829C75.2078 35.2497 75.1626 35.3244 75.1278 35.4047C75.1058 35.4425 75.0904 35.485 75.0706 35.5274V35.5558C75.064 35.5684 75.0588 35.5819 75.0552 35.5959C75.0552 35.5959 75.0552 35.6148 75.0552 35.6242L74.8352 35.6407C74.877 35.4981 74.9354 35.3618 75.009 35.2348C75.0647 35.1251 75.142 35.0297 75.2354 34.9551C75.3288 34.8806 75.4362 34.8286 75.5502 34.8029C75.6336 34.7941 75.7169 34.8201 75.7829 34.8755C75.8488 34.9308 75.8924 35.0114 75.9044 35.1003C75.9265 35.2472 75.916 35.3976 75.8736 35.5392Z" fill="#1B926D"/>
<path d="M75.6316 40.1932C76.4126 41.9089 78.3596 44.0282 78.5312 45.4347C78.5854 45.7802 78.5344 46.1352 78.3858 46.4472C78.2372 46.7592 77.9989 47.0116 77.7062 47.167C77.7062 47.167 79.0262 47.8514 78.9866 49.1564C78.9668 49.8267 77.9482 50.3836 77.9482 50.3836C77.9482 50.3836 78.9822 50.9807 78.881 52.1395C78.7996 53.0622 77.792 53.48 77.792 53.48C77.792 53.48 78.5334 54.5514 78.1704 55.4624C77.4334 57.3102 70.0172 57.4023 68.8402 54.4877C68.2902 53.1283 70.103 53.2109 70.103 53.2109C70.103 53.2109 67.5246 52.4156 67.463 50.7754C67.4014 49.1352 69.7554 49.3972 69.7554 49.3972C69.7554 49.3972 67.2606 48.6042 67.3618 46.8979C67.4674 45.1208 69.7818 45.8123 69.7818 45.8123C69.7818 45.8123 68.1208 44.6323 68.4772 43.3461C69.0646 41.2221 72.2172 43.8464 73.8408 43.4098L74.7098 40.5165L75.6316 40.1932Z" fill="#EB9481"/>
<path d="M77.1452 42.6712C76.5358 40.9767 78.4784 38.8527 78.1132 37.1417C77.6204 34.8289 75.2114 37.1417 74.7076 40.507L74.745 43.1998L77.1452 42.6712Z" fill="#EB9481"/>
<path d="M77.6424 53.572C77.6463 53.5734 77.6497 53.5762 77.652 53.5798C77.6544 53.5834 77.6557 53.5876 77.6557 53.5921C77.6557 53.5965 77.6544 53.6008 77.652 53.6044C77.6497 53.608 77.6463 53.6107 77.6424 53.6121C75.2092 54.28 72.347 54.2139 69.9974 53.218C69.9204 53.185 69.9358 53.0363 70.0282 53.0552C72.6374 53.5862 74.9892 53.834 77.6424 53.572Z" fill="#263238"/>
<path d="M77.9834 50.3978C78.012 50.3978 78.0186 50.4474 77.9834 50.4544C75.4732 51.1294 72.2502 50.9595 69.6674 49.4703C69.5794 49.4184 69.5486 49.2768 69.6542 49.3287C71.445 50.1783 75.5898 50.648 77.9834 50.3978Z" fill="#263238"/>
<path d="M69.6234 45.64C72.1512 46.9664 74.8198 47.292 77.605 47.2C77.6424 47.2 77.6402 47.2519 77.605 47.2637C76.2542 47.705 74.4722 47.5658 73.095 47.3298C71.8119 47.1371 70.5982 46.587 69.575 45.7344C69.5398 45.7014 69.5684 45.6117 69.6234 45.64Z" fill="#263238"/>
<path d="M63.4766 19.9278H61.9366V18.139H60.269V16.487H61.9366V14.6981H63.4766V16.4752H65.1442V18.1272H63.4766V19.9278ZM62.1566 19.6918H63.2566V17.903H64.9242V16.723H63.2566V14.9341H62.1566V16.7112H60.489V17.8912H62.1566V19.6918Z" fill="#1B926D"/>
<path d="M32.4808 35.9853H30.9408V34.1964H29.2732V32.5444H30.9298V30.7532H32.4698V32.5444H34.1396V34.1964H32.4698L32.4808 35.9853ZM31.1608 35.7493H32.2608V33.9604H33.9306V32.7804H32.2608V30.9892H31.1608V32.7804H29.4932V33.9604H31.1498L31.1608 35.7493Z" fill="#1B926D"/>
<path d="M125.84 92.8636H100.804V57.4825H125.84V92.8636Z" fill="#455A64"/>
<path d="M123.466 59.7505H103.178V90.5933H123.466V59.7505Z" fill="white"/>
<path d="M110.779 59.7505H103.178V90.5933H110.779V59.7505Z" fill="#EBEBEB"/>
<path d="M108.165 65.9927C107.984 66.1134 107.785 66.2019 107.578 66.2546C107.054 66.3914 106.501 66.2998 106.04 65.9998C105.579 65.6999 105.247 65.2161 105.118 64.6546C105.029 64.2635 105.042 63.8535 105.157 63.4701C105.271 63.0867 105.482 62.7447 105.767 62.4819C106.051 62.2192 106.398 62.0459 106.768 61.9813C107.139 61.9166 107.519 61.9632 107.866 62.1157C108.213 62.2682 108.515 62.5209 108.736 62.8456C108.958 63.1704 109.092 63.5546 109.123 63.9558C109.154 64.3571 109.081 64.7597 108.912 65.1191C108.743 65.4786 108.484 65.7809 108.165 65.9927Z" fill="#A6A6A6"/>
<path d="M107.71 63.8852C107.71 64.0169 107.674 64.1458 107.606 64.2556C107.538 64.3653 107.442 64.451 107.328 64.5017C107.215 64.5525 107.09 64.566 106.97 64.5406C106.849 64.5152 106.738 64.452 106.651 64.359C106.565 64.266 106.505 64.1474 106.481 64.0183C106.457 63.8891 106.469 63.7552 106.516 63.6334C106.563 63.5117 106.642 63.4076 106.744 63.3344C106.847 63.2611 106.967 63.222 107.089 63.222C107.254 63.222 107.411 63.2918 107.527 63.4161C107.644 63.5404 107.709 63.7091 107.71 63.8852Z" fill="white"/>
<path d="M108.165 65.7189L108.165 65.9927C107.984 66.1134 107.785 66.2019 107.578 66.2546C107.316 66.3248 107.043 66.3375 106.776 66.2921C106.509 66.2467 106.254 66.1441 106.025 65.9903V65.7189C106.018 65.5638 106.041 65.4088 106.092 65.2634C106.143 65.1179 106.22 64.9851 106.32 64.8728C106.42 64.7605 106.541 64.6711 106.674 64.6101C106.807 64.549 106.95 64.5175 107.095 64.5175C107.24 64.5175 107.383 64.549 107.516 64.6101C107.649 64.6711 107.769 64.7605 107.869 64.8728C107.969 64.9851 108.047 65.1179 108.098 65.2634C108.149 65.4088 108.172 65.5638 108.165 65.7189Z" fill="white"/>
<path d="M117.597 62.3583H112.121V62.7642H117.597V62.3583Z" fill="#EBEBEB"/>
<path d="M121.583 63.4816H112.121V63.8876H121.583V63.4816Z" fill="#EBEBEB"/>
<path d="M119.473 64.6026H112.121V65.0086H119.473V64.6026Z" fill="#EBEBEB"/>
<path d="M116.365 66.847H112.121V67.2529H116.365V66.847Z" fill="#EBEBEB"/>
<path d="M119.473 67.9704H112.121V68.3763H119.473V67.9704Z" fill="#EBEBEB"/>
<path d="M121.583 69.0937H112.121V69.4996H121.583V69.0937Z" fill="#EBEBEB"/>
<path d="M117.597 70.2147H112.121V70.6206H117.597V70.2147Z" fill="#EBEBEB"/>
<path d="M121.583 72.4614H112.121V72.8674H121.583V72.4614Z" fill="#EBEBEB"/>
<path d="M118.985 73.5824H112.121V73.9884H118.985V73.5824Z" fill="#EBEBEB"/>
<path d="M117.218 74.7058H112.121V75.1117H117.218V74.7058Z" fill="#EBEBEB"/>
<path d="M120.644 75.8292H112.121V76.2351H120.644V75.8292Z" fill="#EBEBEB"/>
<path d="M118.985 78.0735H112.121V78.4794H118.985V78.0735Z" fill="#EBEBEB"/>
<path d="M121.583 79.1969H112.121V79.6028H121.583V79.1969Z" fill="#EBEBEB"/>
<path d="M120.644 81.4412H112.121V81.8472H120.644V81.4412Z" fill="#EBEBEB"/>
<path d="M117.17 82.5646H112.121V82.9705H117.17V82.5646Z" fill="#EBEBEB"/>
<path d="M121.583 83.6856H112.121V84.0915H121.583V83.6856Z" fill="#EBEBEB"/>
<path d="M118.985 85.9323H112.121V86.3382H118.985V85.9323Z" fill="#EBEBEB"/>
<path d="M121.583 87.0533H112.121V87.4592H121.583V87.0533Z" fill="#EBEBEB"/>
<path d="M120.644 88.1767H112.121V88.5826H120.644V88.1767Z" fill="#EBEBEB"/>
<path d="M107.573 67.9704H105.061V68.3763H107.573V67.9704Z" fill="#A6A6A6"/>
<path d="M109.243 69.0937H105.061V69.4996H109.243V69.0937Z" fill="#A6A6A6"/>
<path d="M108.557 70.2147H105.061V70.6206H108.557V70.2147Z" fill="#A6A6A6"/>
<path d="M109.243 72.4614H105.061V72.8674H109.243V72.4614Z" fill="#A6A6A6"/>
<path d="M109.505 73.5824H105.061V73.9884H109.505V73.5824Z" fill="#A6A6A6"/>
<path d="M108.178 74.7058H105.061V75.1117H108.178V74.7058Z" fill="#A6A6A6"/>
<path d="M108.744 75.8292H105.061V76.2351H108.744V75.8292Z" fill="#A6A6A6"/>
<path d="M119.667 55.427H106.977V60.2508H119.667V55.427Z" fill="#A6A6A6"/>
<path d="M117.836 57.2984H108.808V53.5555H117.836V57.2984Z" fill="#A6A6A6"/>
<path d="M28.8376 67.6706H14.1416V91.3178H28.8376V67.6706Z" fill="#1B926D"/>
<path d="M30.613 61.3222H12.3684V67.6706H30.613V61.3222Z" fill="#455A64"/>
<path d="M26.3824 74.4769H16.599V84.9718H26.3824V74.4769Z" fill="white"/>
<path d="M14.1416 67.6706V69.5114L22.4158 72.8697V91.3178H26.3824V67.6706H14.1416Z" fill="black"/>
<path d="M9.5898 90.7774C9.59097 90.2514 9.78671 89.7474 10.134 89.3762C10.4814 89.0049 10.9519 88.7967 11.4422 88.7974H15.1074C15.5973 88.7974 16.0673 89.0058 16.4141 89.377C16.761 89.7482 16.9564 90.2518 16.9576 90.7774C16.9564 91.3034 16.7611 91.8075 16.4144 92.1795C16.0677 92.5514 15.5977 92.7609 15.1074 92.7622H11.4444C10.9533 92.7622 10.4822 92.5532 10.1346 92.1811C9.78687 91.8091 9.59097 91.3042 9.5898 90.7774Z" fill="#455A64"/>
<path d="M9.5898 90.7774C9.59097 90.2514 9.78671 89.7474 10.134 89.3762C10.4814 89.0049 10.9519 88.7967 11.4422 88.7974H13.277V92.7692H11.4422C11.1986 92.7689 10.9575 92.7172 10.7326 92.6169C10.5077 92.5166 10.3035 92.3698 10.1314 92.1849C9.95943 91.9999 9.82307 91.7804 9.73013 91.5389C9.6372 91.2974 9.58951 91.0387 9.5898 90.7774Z" fill="#1B926D"/>
<path d="M34.7358 90.775C34.7346 91.301 34.5389 91.805 34.1916 92.1763C33.8442 92.5475 33.3737 92.7557 32.8834 92.7551H29.2182C28.9755 92.7554 28.7352 92.7044 28.5108 92.6051C28.2865 92.5057 28.0826 92.36 27.9108 92.1761C27.739 91.9923 27.6027 91.7739 27.5095 91.5335C27.4164 91.2931 27.3683 91.0354 27.368 90.775C27.3686 90.2488 27.5637 89.7444 27.9106 89.3723C28.2574 89.0002 28.7277 88.7909 29.2182 88.7903H32.8834C33.3741 88.7909 33.8446 89.0001 34.1918 89.3721C34.539 89.7442 34.7346 90.2486 34.7358 90.775Z" fill="#455A64"/>
<path d="M34.7358 90.775C34.7346 91.301 34.5389 91.805 34.1916 92.1763C33.8442 92.5475 33.3737 92.7557 32.8834 92.7551H31.0486V88.7903H32.8834C33.3741 88.7909 33.8446 89.0001 34.1918 89.3721C34.539 89.7442 34.7346 90.2486 34.7358 90.775Z" fill="#1B926D"/>
<path d="M38.8938 91.5845C38.7222 91.7686 38.5185 91.9147 38.2942 92.0143C38.07 92.1139 37.8297 92.1652 37.587 92.1652C37.3443 92.1652 37.104 92.1139 36.8798 92.0143C36.6555 91.9147 36.4518 91.7686 36.2802 91.5845L33.6886 88.8044C33.517 88.6204 33.3808 88.4018 33.288 88.1613C33.1951 87.9207 33.1473 87.663 33.1473 87.4026C33.1473 87.1423 33.1951 86.8845 33.288 86.6439C33.3808 86.4034 33.517 86.1848 33.6886 86.0008C34.0362 85.6292 34.5069 85.4206 34.9976 85.4206C35.4883 85.4206 35.959 85.6292 36.3066 86.0008L38.8982 88.7808C39.2426 89.1542 39.4354 89.6584 39.4346 90.1837C39.4338 90.7089 39.2394 91.2125 38.8938 91.5845Z" fill="#455A64"/>
<path d="M38.8938 91.5845C38.7222 91.7686 38.5185 91.9147 38.2942 92.0143C38.07 92.1139 37.8297 92.1652 37.587 92.1652C37.3443 92.1652 37.104 92.1139 36.8798 92.0143C36.6555 91.9147 36.4518 91.7686 36.2802 91.5845L34.9822 90.1921L37.6002 87.3837L38.8982 88.7761C39.244 89.1496 39.4376 89.6549 39.4368 90.1813C39.436 90.7077 39.2407 91.2123 38.8938 91.5845Z" fill="#1B926D"/>
<path d="M22.1298 94.7469C22.131 94.2209 22.3267 93.717 22.674 93.3457C23.0214 92.9744 23.4919 92.7663 23.9822 92.7669H27.6474C27.8901 92.7666 28.1304 92.8175 28.3548 92.9169C28.5791 93.0162 28.783 93.162 28.9548 93.3458C29.1266 93.5297 29.2629 93.7481 29.3561 93.9885C29.4492 94.2289 29.4973 94.4866 29.4976 94.7469C29.4976 95.2735 29.3027 95.7786 28.9558 96.1512C28.6089 96.5238 28.1383 96.7334 27.6474 96.734H23.9822C23.4911 96.7334 23.0203 96.5239 22.673 96.1513C22.3257 95.7788 22.1304 95.2738 22.1298 94.7469Z" fill="#455A64"/>
<path d="M22.1298 94.7469C22.131 94.2209 22.3267 93.717 22.674 93.3457C23.0214 92.9744 23.4919 92.7663 23.9822 92.7669H25.817V96.7388H23.9822C23.7387 96.7384 23.4975 96.6867 23.2726 96.5864C23.0477 96.4862 22.8435 96.3393 22.6714 96.1544C22.4994 95.9694 22.3631 95.7499 22.2701 95.5084C22.1772 95.267 22.1295 95.0082 22.1298 94.7469Z" fill="#1B926D"/>
</svg>
