<svg width="117" height="88" viewBox="0 0 117 88" fill="none" xmlns="http://www.w3.org/2000/svg">
<g clip-path="url(#clip0_178_339)">
<path d="M67.1237 59.6733C67.1237 59.6733 51.5859 57.7742 46.1476 54.7675C40.7094 51.7607 0.310989 50.3365 0.310989 59.6733C0.310989 69.01 46.7692 73.1245 46.7692 73.1245L71.1636 71.7003L67.1237 59.6733Z" fill="#FBBEBE"/>
<path opacity="0.1" d="M67.1237 59.6733C67.1237 59.6733 51.5859 57.7742 46.1476 54.7675C40.7094 51.7607 0.310989 50.3365 0.310989 59.6733C0.310989 69.01 46.7692 73.1245 46.7692 73.1245L71.1636 71.7003L67.1237 59.6733Z" fill="black"/>
<path d="M62.6175 57.9325L65.8805 67.5858L117 68.2188V53.9763C117 53.9763 97.4223 49.387 81.8845 59.1985C81.8845 59.1985 63.5498 56.983 62.6175 57.9325Z" fill="#158750"/>
<path opacity="0.1" d="M62.6175 57.9169L65.8805 67.5702L117 68.2032V53.9607C117 53.9607 97.4223 49.3714 81.8845 59.1829C81.8845 59.1829 63.5498 56.9674 62.6175 57.9169Z" fill="black"/>
<path d="M4.17236 53.8971C4.17236 54.4365 5.35991 54.8369 5.47668 55.3572C5.59249 55.8732 4.88692 56.6579 5.11018 57.1508C5.34097 57.6547 5.61362 58.1376 5.92516 58.5943C6.21766 59.0208 7.12117 58.9585 7.49162 59.3585C7.85434 59.7218 8.23856 60.0621 8.64213 60.3775C9.03524 60.7104 9.56781 60.7803 10.0148 61.0868C10.4398 61.3783 10.3884 62.4473 10.8586 62.7127C11.3078 62.9663 11.9955 62.7623 12.4829 62.9903C12.9507 63.2091 13.1973 64.0005 13.6974 64.194C14.1797 64.3806 14.7766 64.3003 15.2865 64.4619C15.78 64.6184 16.3322 64.593 16.8493 64.7247C17.3514 64.8526 17.7349 65.6192 18.2573 65.7226C18.7662 65.8233 19.3626 65.5547 19.8889 65.631C20.4028 65.7055 21.0005 65.043 21.5291 65.0932C22.0466 65.1422 22.5342 65.4489 23.0641 65.4737C23.5837 65.498 24.0974 65.731 24.6275 65.731C25.1575 65.731 25.7044 66.2374 26.2239 66.2132C26.7538 66.1884 27.2336 65.4208 27.751 65.3717C28.2797 65.3216 28.9103 66.1234 29.4243 66.0489C29.9505 65.9726 30.3673 65.1878 30.8763 65.0871C31.3987 64.9837 32.0736 65.5446 32.5758 65.4167C33.093 65.2849 33.3999 64.372 33.8935 64.2155C34.4034 64.0538 35.0354 64.2728 35.5177 64.0861C36.0178 63.8926 36.6271 63.9237 37.095 63.7048C37.5823 63.4769 37.9321 62.9375 38.3814 62.6838C38.8515 62.4184 39.0683 61.7602 39.4933 61.4687C39.9404 61.1622 40.6215 61.2013 41.0146 60.8683C41.4297 60.5167 42.2073 60.4984 42.5575 60.1202C42.928 59.7201 43.0779 59.0484 43.3704 58.6218C43.6784 58.1725 43.0738 57.2227 43.2889 56.7479C43.512 56.2551 44.4451 56.0549 44.5609 55.5389C44.6803 55.0001 44.7416 54.4495 44.7437 53.8971C44.7437 53.3578 43.9457 52.9456 43.8289 52.4253C43.7131 51.9093 44.3004 51.1681 44.0772 50.6753C43.862 50.2003 43.8895 49.4703 43.5814 49.021C43.2889 48.5945 42.559 48.4273 42.1885 48.0273C41.8383 47.6491 41.2114 47.5436 40.7963 47.192C40.4032 46.8591 40.4533 45.855 40.0063 45.5484C39.5813 45.257 38.9879 45.124 38.5177 44.8586C38.0684 44.605 37.4327 44.6478 36.9453 44.4198C36.4776 44.201 35.7449 44.6321 35.2448 44.4386C34.7625 44.252 34.3713 43.8441 33.8615 43.6824C33.368 43.526 33.1361 42.3328 32.619 42.2011C32.1168 42.0732 31.499 42.2855 30.9766 42.1821C30.4677 42.0814 29.7829 43.0228 29.2567 42.9465C28.7427 42.872 28.3584 41.6153 27.8297 41.5652C27.3123 41.5161 26.7288 42.167 26.1989 42.1422C25.6793 42.118 25.1576 42.4993 24.6275 42.4993C24.0975 42.4993 23.5695 41.9759 23.05 42.0002C22.52 42.025 22.0528 42.7167 21.5354 42.7657C21.0067 42.8159 20.3576 41.7638 19.8437 41.8383C19.3174 41.9145 18.9108 42.7278 18.4019 42.8285C17.8794 42.9319 17.225 42.427 16.7227 42.5549C16.2055 42.6866 15.8944 43.5511 15.4008 43.7076C14.891 43.8692 14.5768 44.479 14.0946 44.6657C13.5944 44.8592 12.6653 43.9536 12.1975 44.1725C11.7101 44.4004 11.2892 44.795 10.84 45.0486C10.3698 45.314 9.62237 45.1805 9.19735 45.472C8.7503 45.7785 8.64038 46.6014 8.24726 46.9344C7.83221 47.286 7.14761 47.3918 6.79735 47.7701C6.4269 48.1701 6.37543 48.8869 6.08297 49.3135C5.77495 49.7628 5.78457 50.3853 5.56952 50.8601C5.34636 51.3529 4.75056 51.7256 4.6348 52.2415C4.5181 52.7617 4.17236 53.3579 4.17236 53.8971Z" fill="#3F3D56"/>
<path d="M60.1314 63.7878C60.1314 63.7878 42.5736 54.6092 31.231 58.0907C19.8884 61.5722 4.03975 55.5588 2.17521 57.616C0.310661 59.6732 -2.33078 81.8283 20.0437 83.0943C42.4182 84.3603 61.5298 79.2963 61.5298 79.2963L60.1314 63.7878Z" fill="#FBBEBE"/>
<path d="M64.2663 62.8103C64.2663 62.8103 57.3347 62.3635 57.6454 64.8955C57.9562 67.4275 58.2669 87.0505 60.1315 87.5253C61.996 88 76.757 88 82.8167 88H117V57.6615C117 57.6615 92.761 56.1918 80.6414 62.3635C80.6414 62.3635 66.0704 62.1493 64.2663 62.8103Z" fill="#158750"/>
<path d="M31.7932 15.3565C32.4556 15.3946 33.0944 15.6199 33.6381 16.007C34.1817 16.3942 34.6088 16.9279 34.8713 17.5484C35.6409 19.4433 34.6499 21.6691 33.1623 23.0508C31.6746 24.4326 29.7636 25.2224 28.0273 26.2605C25.6951 27.6549 23.5995 29.5905 22.4326 32.0752C21.2657 34.5599 21.1416 37.6377 22.5132 40.0114C23.7863 42.2147 26.1013 43.5333 28.3092 44.7494" stroke="#3F3D56" stroke-miterlimit="10"/>
<path d="M25.5784 3.80425C26.2407 3.84235 26.8795 4.06761 27.4232 4.45477C27.9669 4.84192 28.3939 5.37567 28.6564 5.99616C29.4261 7.89102 28.4351 10.1168 26.9474 11.4986C25.4597 12.8803 23.5487 13.6701 21.8124 14.7082C19.4803 16.1026 17.3846 18.0383 16.2177 20.523C15.0508 23.0076 14.9267 26.0855 16.2984 28.4592C17.5715 30.6624 19.8864 31.981 22.0943 33.1971" stroke="#3F3D56" stroke-miterlimit="10"/>
<path d="M5.1435 6.4612C5.69012 6.07837 6.33064 5.85819 6.99325 5.82535C7.65585 5.79251 8.31433 5.94831 8.89486 6.27527C10.6424 7.2937 11.1966 9.67156 10.8508 11.6917C10.505 13.7118 9.46865 15.5278 8.7197 17.4313C7.71374 19.9879 7.22012 22.8251 7.79088 25.5173C8.36165 28.2096 10.1135 30.7206 12.6248 31.7424C14.9558 32.6908 17.5789 32.2901 20.0557 31.8751" stroke="#3F3D56" stroke-miterlimit="10"/>
<path d="M23.1513 30.3427C21.0918 30.3427 19.4222 29.5168 19.4222 28.498C19.4222 27.4792 21.0918 26.6533 23.1513 26.6533C25.2108 26.6533 26.8804 27.4792 26.8804 28.498C26.8804 29.5168 25.2108 30.3427 23.1513 30.3427Z" fill="#158750"/>
<path d="M23.6176 30.0262C21.5581 30.0262 19.8885 29.2003 19.8885 28.1815C19.8885 27.1627 21.5581 26.3368 23.6176 26.3368C25.6771 26.3368 27.3467 27.1627 27.3467 28.1815C27.3467 29.2003 25.6771 30.0262 23.6176 30.0262Z" stroke="#3F3D56" stroke-miterlimit="10"/>
<path d="M15.0717 28.7602C13.0122 28.7602 11.3426 27.9343 11.3426 26.9155C11.3426 25.8967 13.0122 25.0708 15.0717 25.0708C17.1312 25.0708 18.8008 25.8967 18.8008 26.9155C18.8008 27.9343 17.1312 28.7602 15.0717 28.7602Z" fill="#158750"/>
<path d="M15.538 28.4437C13.4785 28.4437 11.8089 27.6178 11.8089 26.599C11.8089 25.5802 13.4785 24.7542 15.538 24.7542C17.5975 24.7542 19.2671 25.5802 19.2671 26.599C19.2671 27.6178 17.5975 28.4437 15.538 28.4437Z" stroke="#3F3D56" stroke-miterlimit="10"/>
<path d="M13.8285 35.7232C11.769 35.7232 10.0995 34.8973 10.0995 33.8785C10.0995 32.8597 11.769 32.0338 13.8285 32.0338C15.8881 32.0338 17.5576 32.8597 17.5576 33.8785C17.5576 34.8973 15.8881 35.7232 13.8285 35.7232Z" fill="#158750"/>
<path d="M14.2948 35.4067C12.2353 35.4067 10.5658 34.5808 10.5658 33.562C10.5658 32.5432 12.2353 31.7173 14.2948 31.7173C16.3544 31.7173 18.0239 32.5432 18.0239 33.562C18.0239 34.5808 16.3544 35.4067 14.2948 35.4067Z" stroke="#3F3D56" stroke-miterlimit="10"/>
<path d="M14.6054 18.3157C12.5459 18.3157 10.8763 17.4898 10.8763 16.471C10.8763 15.4522 12.5459 14.6262 14.6054 14.6262C16.6649 14.6262 18.3345 15.4522 18.3345 16.471C18.3345 17.4898 16.6649 18.3157 14.6054 18.3157Z" fill="#158750"/>
<path d="M15.0717 17.9992C13.0122 17.9992 11.3426 17.1733 11.3426 16.1545C11.3426 15.1357 13.0122 14.3097 15.0717 14.3097C17.1312 14.3097 18.8008 15.1357 18.8008 16.1545C18.8008 17.1733 17.1312 17.9992 15.0717 17.9992Z" stroke="#3F3D56" stroke-miterlimit="10"/>
<path d="M23.9281 17.208C21.8686 17.208 20.1991 16.3821 20.1991 15.3632C20.1991 14.3444 21.8686 13.5185 23.9281 13.5185C25.9877 13.5185 27.6572 14.3444 27.6572 15.3632C27.6572 16.3821 25.9877 17.208 23.9281 17.208Z" fill="#158750"/>
<path d="M24.3945 16.8915C22.3349 16.8915 20.6654 16.0656 20.6654 15.0467C20.6654 14.0279 22.3349 13.202 24.3945 13.202C26.454 13.202 28.1235 14.0279 28.1235 15.0467C28.1235 16.0656 26.454 16.8915 24.3945 16.8915Z" stroke="#3F3D56" stroke-miterlimit="10"/>
<path d="M19.7328 13.2517C17.6733 13.2517 16.0037 12.4258 16.0037 11.407C16.0037 10.3882 17.6733 9.56225 19.7328 9.56225C21.7923 9.56225 23.4619 10.3882 23.4619 11.407C23.4619 12.4258 21.7923 13.2517 19.7328 13.2517Z" fill="#158750"/>
<path d="M20.1991 12.9352C18.1396 12.9352 16.4701 12.1093 16.4701 11.0905C16.4701 10.0717 18.1396 9.24575 20.1991 9.24575C22.2587 9.24575 23.9282 10.0717 23.9282 11.0905C23.9282 12.1093 22.2587 12.9352 20.1991 12.9352Z" stroke="#3F3D56" stroke-miterlimit="10"/>
<path d="M10.5658 14.043C8.50633 14.043 6.83676 13.2171 6.83676 12.1982C6.83676 11.1794 8.50633 10.3535 10.5658 10.3535C12.6254 10.3535 14.2949 11.1794 14.2949 12.1982C14.2949 13.2171 12.6254 14.043 10.5658 14.043Z" fill="#158750"/>
<path d="M11.0317 13.7265C8.97215 13.7265 7.30257 12.9006 7.30257 11.8817C7.30257 10.8629 8.97215 10.037 11.0317 10.037C13.0912 10.037 14.7607 10.8629 14.7607 11.8817C14.7607 12.9006 13.0912 13.7265 11.0317 13.7265Z" stroke="#3F3D56" stroke-miterlimit="10"/>
<path d="M3.72892 19.2652C1.6694 19.2652 -0.00015974 18.4393 -0.00015974 17.4205C-0.00015974 16.4017 1.6694 15.5757 3.72892 15.5757C5.78844 15.5757 7.45801 16.4017 7.45801 17.4205C7.45801 18.4393 5.78844 19.2652 3.72892 19.2652Z" fill="#158750"/>
<path d="M4.19524 18.9487C2.13572 18.9487 0.466157 18.1228 0.466157 17.104C0.466157 16.0852 2.13572 15.2592 4.19524 15.2592C6.25475 15.2592 7.92432 16.0852 7.92432 17.104C7.92432 18.1228 6.25475 18.9487 4.19524 18.9487Z" stroke="#3F3D56" stroke-miterlimit="10"/>
<path d="M27.8129 10.0867C25.7534 10.0867 24.0838 9.26081 24.0838 8.24199C24.0838 7.22317 25.7534 6.39725 27.8129 6.39725C29.8724 6.39725 31.542 7.22317 31.542 8.24199C31.542 9.26081 29.8724 10.0867 27.8129 10.0867Z" fill="#158750"/>
<path d="M28.2787 9.77024C26.2192 9.77024 24.5496 8.94431 24.5496 7.92549C24.5496 6.90667 26.2192 6.08075 28.2787 6.08075C30.3382 6.08075 32.0078 6.90667 32.0078 7.92549C32.0078 8.94431 30.3382 9.77024 28.2787 9.77024Z" stroke="#3F3D56" stroke-miterlimit="10"/>
<path d="M25.4819 4.07323C23.4223 4.07323 21.7528 3.24731 21.7528 2.22849C21.7528 1.20967 23.4223 0.383747 25.4819 0.383747C27.5414 0.383747 29.2109 1.20967 29.2109 2.22849C29.2109 3.24731 27.5414 4.07323 25.4819 4.07323Z" fill="#158750"/>
<path d="M25.9482 3.75673C23.8887 3.75673 22.2191 2.93081 22.2191 1.91199C22.2191 0.893167 23.8887 0.0672474 25.9482 0.0672474C28.0077 0.0672474 29.6772 0.893167 29.6772 1.91199C29.6772 2.93081 28.0077 3.75673 25.9482 3.75673Z" stroke="#3F3D56" stroke-miterlimit="10"/>
<path d="M3.88468 8.50423C1.82517 8.50423 0.155602 7.67831 0.155602 6.65949C0.155602 5.64067 1.82517 4.81475 3.88468 4.81475C5.9442 4.81475 7.61377 5.64067 7.61377 6.65949C7.61377 7.67831 5.9442 8.50423 3.88468 8.50423Z" fill="#158750"/>
<path d="M4.35051 8.18773C2.29099 8.18773 0.621422 7.36181 0.621422 6.34299C0.621422 5.32417 2.29099 4.49825 4.35051 4.49825C6.41003 4.49825 8.07959 5.32417 8.07959 6.34299C8.07959 7.36181 6.41003 8.18773 4.35051 8.18773Z" stroke="#3F3D56" stroke-miterlimit="10"/>
<path d="M38.2231 23.0632C36.1635 23.0632 34.494 22.2373 34.494 21.2185C34.494 20.1997 36.1635 19.3737 38.2231 19.3737C40.2826 19.3737 41.9521 20.1997 41.9521 21.2185C41.9521 22.2373 40.2826 23.0632 38.2231 23.0632Z" fill="#158750"/>
<path d="M38.6894 22.7467C36.6299 22.7467 34.9603 21.9208 34.9603 20.902C34.9603 19.8832 36.6299 19.0573 38.6894 19.0573C40.7489 19.0573 42.4185 19.8832 42.4185 20.902C42.4185 21.9208 40.7489 22.7467 38.6894 22.7467Z" stroke="#3F3D56" stroke-miterlimit="10"/>
<path d="M25.3266 22.1137C23.2671 22.1137 21.5975 21.2878 21.5975 20.269C21.5975 19.2502 23.2671 18.4242 25.3266 18.4242C27.3861 18.4242 29.0557 19.2502 29.0557 20.269C29.0557 21.2878 27.3861 22.1137 25.3266 22.1137Z" fill="#158750"/>
<path d="M25.7929 21.7972C23.7334 21.7972 22.0638 20.9713 22.0638 19.9525C22.0638 18.9337 23.7334 18.1077 25.7929 18.1077C27.8524 18.1077 29.522 18.9337 29.522 19.9525C29.522 20.9713 27.8524 21.7972 25.7929 21.7972Z" stroke="#3F3D56" stroke-miterlimit="10"/>
<path d="M8.39054 23.538C6.33103 23.538 4.66146 22.7121 4.66146 21.6932C4.66146 20.6744 6.33103 19.8485 8.39054 19.8485C10.4501 19.8485 12.1196 20.6744 12.1196 21.6932C12.1196 22.7121 10.4501 23.538 8.39054 23.538Z" fill="#158750"/>
<path d="M8.85637 23.2215C6.79685 23.2215 5.12728 22.3956 5.12728 21.3767C5.12728 20.3579 6.79685 19.532 8.85637 19.532C10.9159 19.532 12.5854 20.3579 12.5854 21.3767C12.5854 22.3956 10.9159 23.2215 8.85637 23.2215Z" stroke="#3F3D56" stroke-miterlimit="10"/>
<path d="M17.4023 24.171C15.3428 24.171 13.6732 23.3451 13.6732 22.3262C13.6732 21.3074 15.3428 20.4815 17.4023 20.4815C19.4618 20.4815 21.1313 21.3074 21.1313 22.3262C21.1313 23.3451 19.4618 24.171 17.4023 24.171Z" fill="#158750"/>
<path d="M17.8686 23.8545C15.8091 23.8545 14.1395 23.0286 14.1395 22.0097C14.1395 20.9909 15.8091 20.165 17.8686 20.165C19.9281 20.165 21.5977 20.9909 21.5977 22.0097C21.5977 23.0286 19.9281 23.8545 17.8686 23.8545Z" stroke="#3F3D56" stroke-miterlimit="10"/>
<path d="M16.7807 8.34598C14.7212 8.34598 13.0516 7.52007 13.0516 6.50124C13.0516 5.48242 14.7212 4.6565 16.7807 4.6565C18.8402 4.6565 20.5098 5.48242 20.5098 6.50124C20.5098 7.52007 18.8402 8.34598 16.7807 8.34598Z" fill="#158750"/>
<path d="M17.247 8.02948C15.1875 8.02948 13.5179 7.20357 13.5179 6.18474C13.5179 5.16592 15.1875 4.34 17.247 4.34C19.3065 4.34 20.9761 5.16592 20.9761 6.18474C20.9761 7.20357 19.3065 8.02948 17.247 8.02948Z" stroke="#3F3D56" stroke-miterlimit="10"/>
<path d="M32.7851 18.1575C30.7256 18.1575 29.056 17.3316 29.056 16.3127C29.056 15.2939 30.7256 14.468 32.7851 14.468C34.8446 14.468 36.5142 15.2939 36.5142 16.3127C36.5142 17.3316 34.8446 18.1575 32.7851 18.1575Z" fill="#158750"/>
<path d="M33.2509 17.841C31.1914 17.841 29.5218 17.0151 29.5218 15.9962C29.5218 14.9774 31.1914 14.1515 33.2509 14.1515C35.3104 14.1515 36.98 14.9774 36.98 15.9962C36.98 17.0151 35.3104 17.841 33.2509 17.841Z" stroke="#3F3D56" stroke-miterlimit="10"/>
<path d="M30.6098 25.2787C28.5503 25.2787 26.8807 24.4528 26.8807 23.434C26.8807 22.4152 28.5503 21.5893 30.6098 21.5893C32.6693 21.5893 34.3389 22.4152 34.3389 23.434C34.3389 24.4528 32.6693 25.2787 30.6098 25.2787Z" fill="#158750"/>
<path d="M31.0756 24.9622C29.0161 24.9622 27.3465 24.1363 27.3465 23.1175C27.3465 22.0987 29.0161 21.2727 31.0756 21.2727C33.1351 21.2727 34.8047 22.0987 34.8047 23.1175C34.8047 24.1363 33.1351 24.9622 31.0756 24.9622Z" stroke="#3F3D56" stroke-miterlimit="10"/>
<g opacity="0.3">
<path d="M30.5225 36.0299C29.9961 35.0707 29.9 34.1049 30.3079 33.8727C30.7158 33.6405 31.4731 34.2299 31.9995 35.1892C32.5259 36.1484 32.622 37.1143 32.2141 37.3464C31.8062 37.5786 31.0489 36.9892 30.5225 36.0299Z" fill="#158750"/>
<path d="M30.7685 36.1749C30.2422 35.2157 30.1461 34.2498 30.554 34.0177C30.9618 33.7855 31.7192 34.3749 32.2456 35.3341C32.772 36.2934 32.8681 37.2592 32.4602 37.4914C32.0523 37.7236 31.2949 37.1342 30.7685 36.1749Z" stroke="#3F3D56" stroke-miterlimit="10"/>
</g>
<g opacity="0.3">
<path d="M11.0853 40.6285C10.7737 40.2739 11.1728 39.3923 11.9768 38.6595C12.7808 37.9266 13.6852 37.62 13.9968 37.9746C14.3084 38.3292 13.9093 39.2108 13.1053 39.9436C12.3013 40.6765 11.3969 40.9831 11.0853 40.6285Z" fill="#158750"/>
<path d="M11.1703 40.3525C10.8586 39.9979 11.2578 39.1163 12.0618 38.3834C12.8658 37.6506 13.7702 37.344 14.0818 37.6986C14.3934 38.0532 13.9942 38.9348 13.1902 39.6676C12.3862 40.4005 11.4819 40.7071 11.1703 40.3525Z" stroke="#3F3D56" stroke-miterlimit="10"/>
</g>
<g opacity="0.3">
<path d="M28.4876 30.6588C28.176 30.3041 28.5752 29.4226 29.3792 28.6897C30.1832 27.9569 31.0875 27.6502 31.3992 28.0049C31.7108 28.3595 31.3116 29.241 30.5076 29.9739C29.7036 30.7067 28.7993 31.0134 28.4876 30.6588Z" fill="#158750"/>
<path d="M28.5726 30.3827C28.261 30.0281 28.6601 29.1465 29.4641 28.4137C30.2681 27.6808 31.1725 27.3742 31.4841 27.7288C31.7957 28.0835 31.3966 28.965 30.5926 29.6979C29.7886 30.4307 28.8842 30.7373 28.5726 30.3827Z" stroke="#3F3D56" stroke-miterlimit="10"/>
</g>
</g>
<defs>
<clipPath id="clip0_178_339">
<rect width="117" height="88" fill="white" transform="matrix(-1 0 0 1 117 0)"/>
</clipPath>
</defs>
</svg>
