<svg width="128" height="121" viewBox="0 0 128 121" fill="none" xmlns="http://www.w3.org/2000/svg">
<path d="M14.9439 31.9189C4.47493 40.6244 85.0343 -32.4635 117.342 50.8813C118.89 54.8754 118.773 59.5844 116.708 63.3808C105.408 84.1588 127.318 100.905 118.715 113.599C112.103 123.357 44.7922 131.719 22.4757 120.057C0.159247 108.396 15.5018 88.2911 12.4333 70.7099C9.36479 53.1287 3.26137 47.0139 14.9439 31.9189Z" fill="#E5B1E4"/>
<path opacity="0.1" d="M63.3272 87.2403C77.5524 87.2403 89.0842 85.5541 89.0842 83.4741C89.0842 81.3941 77.5524 79.708 63.3272 79.708C49.1021 79.708 37.5703 81.3941 37.5703 83.4741C37.5703 85.5541 49.1021 87.2403 63.3272 87.2403Z" fill="black"/>
<path d="M49.166 38.6548H47.7954V79.7081H49.166V38.6548Z" fill="#B3B3B3"/>
<path d="M53.0996 79.7081H51.6948V82.8639H53.0996V79.7081Z" fill="#B3B3B3"/>
<path d="M94.9392 62.9082V65.5784H40.3677V48.6678H43.0378V62.9082H94.9392Z" fill="#B3B3B3"/>
<path d="M68.8632 65.5784H66.4434V68.2487H68.8632V65.5784Z" fill="#B3B3B3"/>
<path d="M81.4302 69.4586V68.2487H53.8766V69.4586H81.4302Z" fill="#B3B3B3"/>
<path d="M53.8765 82.0254H55.0864V68.2486H53.8765V82.0254Z" fill="#B3B3B3"/>
<path d="M54.4813 83.6094C54.893 83.6094 55.2268 83.2756 55.2268 82.8639C55.2268 82.4522 54.893 82.1184 54.4813 82.1184C54.0696 82.1184 53.7358 82.4522 53.7358 82.8639C53.7358 83.2756 54.0696 83.6094 54.4813 83.6094Z" fill="black" stroke="black" stroke-width="1.408" stroke-miterlimit="10"/>
<path d="M54.4812 84.6688C55.478 84.6688 56.2861 83.8607 56.2861 82.8639C56.2861 81.8671 55.478 81.059 54.4812 81.059C53.4844 81.059 52.6763 81.8671 52.6763 82.8639C52.6763 83.8607 53.4844 84.6688 54.4812 84.6688Z" fill="black" stroke="black" stroke-width="1.408" stroke-miterlimit="10"/>
<path d="M57.074 53.9247C57.074 53.9247 62.1667 49.8933 64.2249 50.7545C66.2832 51.6157 70.1772 51.7269 71.3454 51.56L72.5136 51.3932L73.0143 59.1255H57.074L55.3115 57.4567L57.074 53.9247Z" fill="#5A87AF"/>
<path d="M57.074 55.4462C57.074 55.4462 62.1667 51.4148 64.2249 52.2759C66.2832 53.1371 70.1772 53.2484 71.3454 53.0815L72.5136 52.9146L72.9157 59.1255H73.0143L72.5136 51.3931L71.3454 51.56C70.1772 51.7269 66.2832 51.6156 64.2249 50.7545C62.1667 49.8933 57.074 53.9247 57.074 53.9247L55.3115 57.4566L55.8271 57.9449L57.074 55.4462Z" fill="#367AAD"/>
<path d="M80.2197 82.0254H81.4297V68.2486H80.2197V82.0254Z" fill="#B3B3B3"/>
<path d="M54.4995 53.9247C54.9061 54.0995 55.3441 54.1896 55.7867 54.1896C56.2294 54.1896 56.6674 54.0995 57.074 53.9247C57.074 53.9247 57.8732 55.3215 56.667 56.9405C55.6474 56.3473 54.4559 56.1198 53.2896 56.2957C53.2896 56.2957 54.762 56.021 54.4995 53.9247Z" fill="#E2B88F"/>
<path d="M80.8251 83.6094C81.2368 83.6094 81.5705 83.2756 81.5705 82.8639C81.5705 82.4522 81.2368 82.1184 80.8251 82.1184C80.4134 82.1184 80.0796 82.4522 80.0796 82.8639C80.0796 83.2756 80.4134 83.6094 80.8251 83.6094Z" fill="black" stroke="black" stroke-width="1.408" stroke-miterlimit="10"/>
<path d="M80.8249 84.6688C81.8218 84.6688 82.6299 83.8607 82.6299 82.8639C82.6299 81.8671 81.8218 81.059 80.8249 81.059C79.8281 81.059 79.02 81.8671 79.02 82.8639C79.02 83.8607 79.8281 84.6688 80.8249 84.6688Z" fill="black" stroke="black" stroke-width="1.408" stroke-miterlimit="10"/>
<path d="M55.1076 54.5626C55.3966 53.0226 53.5251 51.379 50.9276 50.8916C48.33 50.4041 45.99 51.2574 45.701 52.7974C45.412 54.3374 47.2835 55.981 49.8811 56.4684C52.4786 56.9559 54.8187 56.1026 55.1076 54.5626Z" fill="#E2B88F"/>
<path d="M52.1394 51.2194C53.5625 51.9668 54.4199 53.095 54.2176 54.1731C53.9286 55.7131 51.5886 56.5664 48.991 56.079C48.5791 56.002 48.1739 55.8924 47.7793 55.7512C48.4406 56.0929 49.1489 56.3346 49.8811 56.4684C52.4787 56.9558 54.8186 56.1025 55.1076 54.5625C55.3492 53.2749 54.08 51.9154 52.1394 51.2194Z" fill="#DD9C66"/>
<path d="M48.0375 50.7545C48.0375 50.7545 48.21 54.0077 50.4045 54.4527C52.599 54.8977 51.9315 55.4326 51.9315 55.4326L52.599 54.8977L50.4045 55.009C50.4045 55.009 49.4857 55.8648 51.2639 56.1215C52.3309 56.2764 53.4147 56.2764 54.4817 56.1215C54.4817 56.1215 56.2705 56.3106 56.7155 56.6055C57.1606 56.9003 58.6069 57.1229 58.9407 57.7904L59.7195 59.348H53.1553L47.4812 57.1231C47.4812 57.1231 44.53 55.2315 45.6718 52.1163C46.8136 49.0011 48.0375 50.7545 48.0375 50.7545Z" fill="black" stroke="black" stroke-width="0.992" stroke-miterlimit="10"/>
<path d="M66.4434 59.1255C66.4434 59.1255 66.8536 53.7129 66.4434 50.6338C66.4434 50.6338 87.4779 50.1249 90.5653 50.6338C90.5653 50.6338 91.9838 55.7878 90.5653 59.348L66.4434 59.1255Z" fill="#FBB03B"/>
<path d="M90.5658 51.992C90.9059 53.3376 91.111 54.7139 91.178 56.1003C91.3172 53.2393 90.5658 50.5052 90.5658 50.5052C87.4784 49.9963 66.4438 50.5052 66.4438 50.5052C66.5041 50.9574 66.5462 51.4606 66.575 51.9888C68.3474 51.9471 87.6208 51.5065 90.5658 51.992ZM66.6207 54.8472C66.5904 57.0615 66.4438 58.9969 66.4438 58.9969L66.5333 58.9977C66.5881 57.9066 66.6433 56.3588 66.6207 54.8472Z" fill="#F7991C"/>
<path d="M91.7853 58.4579H45.0091C44.2237 58.4579 43.5869 59.0947 43.5869 59.8802V61.486C43.5869 62.2714 44.2237 62.9082 45.0091 62.9082H91.7853C92.5708 62.9082 93.2075 62.2714 93.2075 61.486V59.8802C93.2075 59.0947 92.5708 58.4579 91.7853 58.4579Z" fill="white"/>
<path d="M91.2049 58.4859H45.5895C45.0589 58.4874 44.5504 58.6989 44.1752 59.0741C43.8 59.4494 43.5885 59.9578 43.5869 60.4885V60.9335C43.5869 60.9851 43.5908 61.0358 43.5947 61.0865C43.6344 60.5841 43.8616 60.115 44.2312 59.7724C44.6007 59.4297 45.0856 59.2386 45.5895 59.2369H91.2049C91.7089 59.2386 92.1937 59.4297 92.5633 59.7724C92.9328 60.115 93.16 60.5841 93.1997 61.0865C93.2036 61.0358 93.2075 60.9851 93.2075 60.9335V60.4885C93.206 59.9578 92.9945 59.4494 92.6193 59.0741C92.244 58.6989 91.7356 58.4874 91.2049 58.4859Z" fill="#E6E6E6"/>
<path d="M47.0928 55.5855C45.7787 55.2778 44.491 55.4488 43.4966 55.97C44.0463 57.0743 45.2163 57.9921 46.7081 58.3413C48.0603 58.6579 49.3828 58.4383 50.3505 57.8394C49.7239 56.7862 48.5545 55.9278 47.0928 55.5855Z" fill="white"/>
<path d="M46.6756 56.3761C47.8218 56.6279 48.8515 57.2542 49.6023 58.1562C49.8633 58.0616 50.114 57.9408 50.3505 57.7955C49.7239 56.7424 48.5546 55.8839 47.0928 55.5417C45.7787 55.234 44.4911 55.405 43.4966 55.9261C43.5897 56.1112 43.6978 56.2883 43.8199 56.4557C44.7477 56.1749 45.7337 56.1474 46.6756 56.3761Z" fill="#E6E6E6"/>
<path opacity="0.7" d="M51.8877 51.1338C51.8877 51.1338 52.1535 50.5787 53.0436 50.2628C53.9336 49.9468 55.0604 50.8369 55.1368 51.4488C55.2131 52.0607 55.5156 53.0823 55.0862 53.8232C55.0862 53.8232 52.9569 52.6546 51.8877 51.1338Z" fill="#91A9AA"/>
<path opacity="0.6" d="M53.2897 26.639H43.5869V30.1987H53.2897V26.639Z" fill="white"/>
<path opacity="0.6" d="M43.6001 32.702L46.5723 35.4623V38.6548H50.364V35.4623H50.3305L53.3027 32.702V30.1986H43.6001V32.702Z" fill="#134184"/>
<path opacity="0.6" d="M48.8717 32.3961C49.2269 32.3961 49.5149 32.1097 49.5149 31.7563C49.5149 31.403 49.2269 31.1166 48.8717 31.1166C48.5165 31.1166 48.2285 31.403 48.2285 31.7563C48.2285 32.1097 48.5165 32.3961 48.8717 32.3961Z" fill="#1B4468"/>
<path opacity="0.6" d="M49.1776 33.7032C49.3466 33.7032 49.4836 33.5538 49.4836 33.3695C49.4836 33.1852 49.3466 33.0357 49.1776 33.0357C49.0086 33.0357 48.8716 33.1852 48.8716 33.3695C48.8716 33.5538 49.0086 33.7032 49.1776 33.7032Z" fill="#1B4468"/>
<path opacity="0.6" d="M51.1192 33.0356C51.5437 33.0356 51.8878 32.6621 51.8878 32.2013C51.8878 31.7404 51.5437 31.3669 51.1192 31.3669C50.6947 31.3669 50.3506 31.7404 50.3506 32.2013C50.3506 32.6621 50.6947 33.0356 51.1192 33.0356Z" fill="#1B4468"/>
<path opacity="0.6" d="M48.6618 35.2609C48.7778 35.2609 48.8719 35.1364 48.8719 34.9828C48.8719 34.8291 48.7778 34.7046 48.6618 34.7046C48.5457 34.7046 48.4517 34.8291 48.4517 34.9828C48.4517 35.1364 48.5457 35.2609 48.6618 35.2609Z" fill="#1B4468"/>
<path d="M52.9869 79.7081H43.9751V81.059H52.9869V79.7081Z" fill="#B3B3B3"/>
<path d="M45.4087 79.7081H44.0039V82.8639H45.4087V79.7081Z" fill="#B3B3B3"/>
<path opacity="0.13" d="M29.8122 109.03C38.9897 109.03 46.4295 107.826 46.4295 106.342C46.4295 104.857 38.9897 103.654 29.8122 103.654C20.6347 103.654 13.1948 104.857 13.1948 106.342C13.1948 107.826 20.6347 109.03 29.8122 109.03Z" fill="black"/>
<path opacity="0.13" d="M98.1882 107.841C107.366 107.841 114.806 106.638 114.806 105.153C114.806 103.669 107.366 102.465 98.1882 102.465C89.0106 102.465 81.5708 103.669 81.5708 105.153C81.5708 106.638 89.0106 107.841 98.1882 107.841Z" fill="black"/>
<path d="M106.079 104.526C106.079 102.915 104.824 101.61 103.274 101.61C101.725 101.61 100.469 102.915 100.469 104.526C100.47 104.737 100.492 104.947 100.536 105.153H106.013C106.057 104.947 106.079 104.737 106.079 104.526ZM97.3885 104.526C97.3885 102.915 96.1327 101.61 94.5834 101.61C93.0342 101.61 91.7783 102.915 91.7783 104.526C91.7787 104.737 91.8011 104.947 91.8452 105.153H97.3217C97.3658 104.947 97.3882 104.737 97.3885 104.526Z" fill="#42210B"/>
<path d="M97.2779 65.6017C97.2779 65.6017 98.5845 82.8611 97.9681 88.9881C97.3517 95.115 97.9681 90.7597 97.9681 90.7597L96.835 102.497C96.835 102.497 91.8891 103.235 91.7784 102.94C91.6677 102.645 90.7818 88.4713 90.4127 85.6662C90.0437 82.8611 88.7887 67.2399 89.2316 65.6017L97.2779 65.6017Z" fill="#5A87AF"/>
<path d="M97.2778 65.6018H96.3182C96.3182 65.6018 97.6248 82.8612 97.0084 88.9881C96.392 95.1151 97.0084 90.7598 97.0084 90.7598L95.8753 102.497C95.8753 102.497 93.3302 102.877 91.8506 102.983C92.4727 103.148 96.8349 102.497 96.8349 102.497L97.968 90.7598C97.968 90.7598 97.3517 95.1151 97.968 88.9881C98.5844 82.8612 97.2778 65.6018 97.2778 65.6018Z" fill="#367AAD"/>
<path d="M95.0583 38.2197H100.87L101.44 65.0708C101.44 65.0708 95.6998 65.9566 94.4956 65.4399L95.0583 38.2197Z" fill="#5A87AF"/>
<path d="M99.975 38.2197H98.7939L99.3638 65.0708C99.3638 65.0708 96.554 65.5043 94.4536 65.5878C96.4524 65.7023 100.545 65.0708 100.545 65.0708L99.975 38.2197Z" fill="#367AAD"/>
<path d="M88.1242 59.682C88.1242 59.682 87.386 60.5678 86.7217 75.4792L96.8349 74.8887C96.8349 74.8887 95.2108 62.3126 95.4323 59.3733L88.1242 59.682Z" fill="white"/>
<path d="M103.51 29.933C103.51 25.6931 100.844 22.2559 97.5553 22.2559C94.2666 22.2559 91.6006 25.6931 91.6006 29.933C91.6006 32.5594 92.6241 34.8766 94.1842 36.2608V34.1161H100.926V36.2608C102.487 34.8766 103.51 32.5594 103.51 29.933Z" fill="#E5A16E"/>
<path d="M103.657 31.3261C104.275 31.3261 104.776 30.7723 104.776 30.089C104.776 29.4058 104.275 28.8519 103.657 28.8519C103.038 28.8519 102.537 29.4058 102.537 30.089C102.537 30.7723 103.038 31.3261 103.657 31.3261Z" fill="#E5A16E"/>
<path d="M103.615 30.7454C103.844 30.7454 104.03 30.4761 104.03 30.144C104.03 29.8119 103.844 29.5426 103.615 29.5426C103.386 29.5426 103.2 29.8119 103.2 30.144C103.2 30.4761 103.386 30.7454 103.615 30.7454Z" fill="#E28140"/>
<path d="M91.342 31.3261C91.9605 31.3261 92.4619 30.7723 92.4619 30.089C92.4619 29.4058 91.9605 28.8519 91.342 28.8519C90.7236 28.8519 90.2222 29.4058 90.2222 30.089C90.2222 30.7723 90.7236 31.3261 91.342 31.3261Z" fill="#E5A16E"/>
<path d="M91.3006 30.7454C91.5297 30.7454 91.7154 30.4761 91.7154 30.144C91.7154 29.8119 91.5297 29.5426 91.3006 29.5426C91.0715 29.5426 90.8857 29.8119 90.8857 30.144C90.8857 30.4761 91.0715 30.7454 91.3006 30.7454Z" fill="#E28140"/>
<path d="M100.921 23.6515C101.883 25.0152 102.47 26.8274 102.47 28.8162C102.47 33.0562 99.804 36.4934 96.5153 36.4934C95.2414 36.4934 94.062 35.976 93.0938 35.0977C94.183 36.6412 95.7535 37.6102 97.4995 37.6102C100.788 37.6102 103.454 34.173 103.454 29.933C103.454 27.3354 102.453 25.0407 100.921 23.6515Z" fill="#E28140"/>
<path d="M92.0858 30.5728C92.0858 30.5728 91.7905 27.9646 93.4637 27.9646C93.4637 27.9646 93.2176 27.0295 93.4637 26.1437L98.3357 25.75H101.584C101.584 25.75 101.977 25.8976 101.928 27.1772C101.928 27.1772 101.879 27.8661 102.962 28.1614L103.159 29.5394L103.454 29.4409C103.454 29.4409 104.586 27.0787 103.011 24.0768C101.436 21.0748 96.8102 21.0256 96.8102 21.0256C96.8102 21.0256 94.3495 20.9764 92.3318 23.3386C90.6697 25.2844 90.6094 28.8012 90.6094 28.8012C90.6094 28.8012 91.4882 28.4567 91.5655 30.5728H92.0858Z" fill="black" stroke="black" stroke-width="1.367" stroke-miterlimit="10"/>
<path d="M100.117 26.2693C101.562 26.2693 102.734 25.2056 102.734 23.8935C102.734 22.5813 101.562 21.5176 100.117 21.5176C98.6712 21.5176 97.4995 22.5813 97.4995 23.8935C97.4995 25.2056 98.6712 26.2693 100.117 26.2693Z" fill="black" stroke="black" stroke-width="1.367" stroke-miterlimit="10"/>
<path d="M96.6918 26.5865C98.5832 26.5865 100.117 25.1477 100.117 23.3727C100.117 21.5977 98.5832 20.1588 96.6918 20.1588C94.8004 20.1588 93.2671 21.5977 93.2671 23.3727C93.2671 25.1477 94.8004 26.5865 96.6918 26.5865Z" fill="black" stroke="black" stroke-width="1.453" stroke-miterlimit="10"/>
<path d="M93.4898 25.9844C94.5642 25.9844 95.4352 25.1497 95.4352 24.1202C95.4352 23.0906 94.5642 22.256 93.4898 22.256C92.4154 22.256 91.5444 23.0906 91.5444 24.1202C91.5444 25.1497 92.4154 25.9844 93.4898 25.9844Z" fill="black" stroke="black" stroke-width="1.367" stroke-miterlimit="10"/>
<path d="M102.716 25.7992C103.123 25.7992 103.454 25.256 103.454 24.586C103.454 23.9159 103.123 23.3727 102.716 23.3727C102.308 23.3727 101.978 23.9159 101.978 24.586C101.978 25.256 102.308 25.7992 102.716 25.7992Z" fill="black" stroke="black" stroke-width="1.367" stroke-miterlimit="10"/>
<path d="M95.0586 36.2608V38.9881C95.0586 38.9881 97.8122 41.7933 100.116 38.7913L99.9107 36.2608L95.0586 36.2608Z" fill="#E5A16E"/>
<path d="M100.008 36.261H99.2205L99.4262 38.7914C98.7547 39.6663 98.0451 40.0474 97.3765 40.149C98.2509 40.2761 99.2699 40.0209 100.214 38.7914L100.008 36.261Z" fill="#E28140"/>
<path d="M94.128 34.1161V36.2608C95.0866 37.1113 96.2474 37.6102 97.499 37.6102C98.7507 37.6102 99.9115 37.1113 100.87 36.2608V34.1161H94.128ZM91.5654 30.5728C91.5654 30.5728 92.2333 33.5256 94.128 34.1161V34.4114C94.128 34.4114 91.931 33.4763 91.5654 30.5728ZM100.87 34.1161C100.87 34.1161 102.814 32.935 103.454 29.4409C103.454 29.4409 103.355 32.8366 100.87 34.4114V34.1161Z" fill="#CCCCCC"/>
<path d="M95.7812 65.6018L105.114 64.4064C105.114 64.4064 106.431 78.432 105.988 85.5186C105.545 92.6052 106.079 101.537 106.079 101.537C106.079 101.537 100.673 103.161 99.6398 102.275C98.6063 101.39 98.4717 79.5393 98.133 76.5127C97.7943 73.4861 95.7812 65.6018 95.7812 65.6018Z" fill="#5A87AF"/>
<path d="M105.989 85.5186C106.432 78.432 105.114 64.4064 105.114 64.4064L102.934 64.6858C103.033 65.3679 104.977 78.7756 104.908 85.6939C104.84 92.415 105.733 100.74 105.829 101.61C105.988 101.565 106.08 101.537 106.08 101.537C106.08 101.537 105.546 92.6052 105.989 85.5186Z" fill="#367AAD"/>
<path d="M95.0585 38.2197C95.0585 38.2197 90.2158 38.2007 85.3438 41.1043C85.3438 41.1043 83.5229 52.7184 87.1154 60.1003C87.1154 60.1003 95.6454 61.7249 101.354 58.4769C101.354 58.4769 95.7768 55.0806 90.3634 56.2617C90.3634 56.2617 92.9717 53.8503 95.8752 54.0472L95.0981 38.9861L95.0585 38.2197Z" fill="white"/>
<path d="M100.116 57.3936C100.116 57.3936 100.934 72.6003 100.213 74.9625C100.213 74.9625 109.216 74.6672 110.112 74.9625C110.112 74.9625 108.356 58.2056 107.394 57.3936H100.116Z" fill="white"/>
<path d="M100.213 38.2197C100.213 38.2197 107.834 39.4001 108.277 40.1784C108.72 40.9566 111.475 48.3385 109.261 59.0176C109.261 59.0176 106.354 60.8564 94.4957 56.1723L94.144 54.2136C94.1482 54.0391 98.9521 53.4804 100.058 53.2106C100.936 52.9964 99.6303 44.4886 100.213 38.2197Z" fill="white"/>
<path d="M95.0983 38.9861C95.0983 38.9861 93.3164 43.7125 92.3813 44.9921C92.3813 44.9921 95.692 52.8611 95.8575 53.7002C95.8575 53.7002 95.9944 40.8049 95.0983 38.9861ZM100.189 38.4929C100.189 38.4929 102.421 42.3346 103.208 43.0728C103.157 43.3377 99.9883 53.7036 100.17 53.1161C100.499 53.1474 98.8862 43.4289 100.189 38.4929Z" fill="#CCCCCC"/>
<path d="M94.1443 54.2136C94.1443 54.2136 91.0526 54.7854 90.462 55.5728C89.8715 56.3602 90.2723 56.2374 90.9598 56.1506C91.6473 56.0637 94.4945 55.7875 94.496 56.1723L94.1443 54.2136ZM104.242 52.9153C104.242 52.9153 108.228 49.6673 108.326 51.8326L106.899 53.4566C106.899 53.4566 106.259 53.0629 104.242 52.9153Z" fill="#E5A16E"/>
<path d="M90.7099 49.868C91.6079 49.868 92.3359 49.14 92.3359 48.242C92.3359 47.344 91.6079 46.6161 90.7099 46.6161C89.8119 46.6161 89.084 47.344 89.084 48.242C89.084 49.14 89.8119 49.868 90.7099 49.868Z" fill="#808080"/>
<path d="M90.7098 48.8742C91.059 48.8742 91.342 48.5912 91.342 48.242C91.342 47.8929 91.059 47.6098 90.7098 47.6098C90.3607 47.6098 90.0776 47.8929 90.0776 48.242C90.0776 48.5912 90.3607 48.8742 90.7098 48.8742Z" fill="#1A1A1A"/>
<path d="M104.167 48.4843H102.912V44.663H102.248V48.4843V49.2453V49.2555H102.912V49.2453H104.167V48.4843Z" fill="#FF0000"/>
<path d="M100.116 37.4626C100.116 37.4626 103.627 37.5856 105.047 40.9197L104.198 41.0428C104.198 41.0428 102.854 38.4231 100.213 38.2197" fill="black"/>
<path d="M102.261 44.663H103.038C103.038 44.663 102.999 41.7102 104.881 41.8579C106.764 42.0055 106.616 44.5154 106.616 44.5154L107.428 44.4784C107.428 44.4784 107.502 41.0459 104.881 40.7875C102.261 40.5291 102.261 44.663 102.261 44.663Z" fill="#808080"/>
<path d="M106.729 44.4792V48.448H105.696V49.2193H106.729H107.394V48.448V44.4792H106.729Z" fill="#FF0000"/>
<path d="M104.489 49.8679C104.683 49.8679 104.84 49.4217 104.84 48.8713C104.84 48.321 104.683 47.8748 104.489 47.8748C104.295 47.8748 104.138 48.321 104.138 48.8713C104.138 49.4217 104.295 49.8679 104.489 49.8679Z" fill="#808080"/>
<path d="M105.486 49.8679C105.68 49.8679 105.837 49.4217 105.837 48.8713C105.837 48.321 105.68 47.8748 105.486 47.8748C105.292 47.8748 105.135 48.321 105.135 48.8713C105.135 49.4217 105.292 49.8679 105.486 49.8679Z" fill="#808080"/>
<path d="M90.1758 46.707C90.1758 46.707 89.8129 39.4926 95.0587 37.4626V38.2197C95.0587 38.2197 91.0034 39.8248 90.8926 46.6161L90.1758 46.707Z" fill="black"/>
<path d="M89.6743 51.9107C89.6743 51.9107 89.7125 51.9705 89.768 52.0797C89.8447 52.2295 89.9132 52.3835 89.973 52.5409C90.0597 52.7615 90.1332 52.9871 90.1931 53.2164C90.2246 53.3426 90.2593 53.4725 90.2837 53.6071C90.3111 53.7411 90.3348 53.878 90.3531 54.0162C90.3722 54.154 90.3873 54.2929 90.3948 54.4306C90.4076 54.5673 90.4061 54.7041 90.4059 54.8356C90.4086 54.9667 90.3928 55.0957 90.3838 55.2159C90.372 55.3299 90.3537 55.443 90.329 55.5548C90.3107 55.6503 90.285 55.7442 90.252 55.8356C90.2384 55.8766 90.2277 55.9151 90.214 55.9499C90.1974 55.9839 90.1822 56.0152 90.1685 56.0435C90.1132 56.1553 90.0775 56.2144 90.0775 56.2144C90.0775 56.2144 90.0769 56.1415 90.083 56.0222C90.0845 55.9927 90.0863 55.96 90.0882 55.9245C90.0871 55.8885 90.086 55.8496 90.0848 55.8081C90.0802 55.7251 90.0855 55.6352 90.0755 55.534C90.0653 55.4331 90.0652 55.3267 90.0503 55.212C90.0367 55.0976 90.0317 54.9786 90.0135 54.8541C89.9982 54.7298 89.9858 54.602 89.9671 54.4714C89.9503 54.3412 89.9352 54.2085 89.9144 54.0759C89.8785 53.8092 89.8426 53.5426 89.809 53.2926C89.7756 53.0414 89.7468 52.8053 89.7271 52.6007C89.7041 52.397 89.692 52.2244 89.6836 52.1031C89.6758 51.9817 89.6743 51.9107 89.6743 51.9107ZM106.899 53.4566C106.899 53.4566 106.852 53.4343 106.764 53.4009C106.675 53.3693 106.542 53.3294 106.371 53.2871C106.287 53.2621 106.19 53.2483 106.087 53.2266C105.983 53.2045 105.871 53.1851 105.749 53.1694C105.508 53.1279 105.232 53.1104 104.934 53.0786C104.784 53.0717 104.628 53.0645 104.465 53.0571C104.304 53.0466 104.136 53.0443 103.964 53.0445C103.792 53.0444 103.615 53.0397 103.434 53.0432C103.253 53.0516 103.068 53.0549 102.881 53.0606C102.505 53.061 102.117 53.1109 101.723 53.1274C101.329 53.1528 100.929 53.2033 100.529 53.2403C100.129 53.28 99.7306 53.3382 99.3374 53.3854C98.9441 53.4322 98.559 53.4984 98.1849 53.5516C97.9979 53.5788 97.8145 53.6087 97.6339 53.6322C97.4544 53.6623 97.279 53.6918 97.1078 53.7206C96.7661 53.7805 96.4418 53.8317 96.142 53.8784C95.8423 53.9251 95.5701 53.9814 95.3266 54.0215C95.0831 54.0629 94.8709 54.0989 94.6961 54.1286C94.3456 54.1852 94.144 54.2136 94.144 54.2136C94.144 54.2136 94.3364 54.149 94.6754 54.0429C94.8453 53.9912 95.0517 53.9284 95.2884 53.8564C95.5262 53.7881 95.7922 53.7006 96.0883 53.6298C96.3836 53.5553 96.7039 53.4752 97.044 53.3962C97.2141 53.3563 97.3885 53.3154 97.5673 53.2734C97.7469 53.2359 97.9315 53.2035 98.1187 53.1673C98.306 53.1318 98.4963 53.0958 98.6894 53.0593C98.7858 53.0411 98.8828 53.0227 98.9804 53.0043C99.0787 52.9903 99.1774 52.9762 99.2767 52.962C99.6741 52.9093 100.076 52.8446 100.481 52.8002C100.888 52.7677 101.293 52.7219 101.695 52.7011C101.895 52.6908 102.095 52.6838 102.291 52.6777C102.39 52.6747 102.488 52.6716 102.585 52.6686C102.682 52.6696 102.779 52.6706 102.875 52.6716C103.066 52.6742 103.255 52.6743 103.439 52.6797C103.623 52.6879 103.804 52.7041 103.979 52.7154C104.33 52.7308 104.66 52.789 104.964 52.8272C105.267 52.8839 105.543 52.934 105.784 53.0044C105.897 53.0312 106.009 53.0642 106.119 53.1032C106.221 53.1396 106.316 53.1666 106.398 53.2037C106.527 53.2541 106.653 53.3127 106.774 53.3793C106.858 53.4276 106.899 53.4566 106.899 53.4566ZM109.261 59.0177C109.261 59.0177 109.207 59.0447 109.104 59.0892C109 59.1335 108.847 59.1977 108.647 59.2633C108.406 59.3441 108.161 59.4121 107.913 59.4669C107.59 59.5399 107.263 59.5912 106.933 59.6203C106.752 59.6429 106.562 59.6445 106.365 59.6552C106.168 59.6588 105.964 59.6524 105.754 59.6427C105.545 59.6216 105.328 59.6153 105.111 59.5752C105.001 59.558 104.891 59.5406 104.779 59.523C104.669 59.4972 104.558 59.4711 104.446 59.4449C104.219 59.3908 103.994 59.3252 103.773 59.2485C103.551 59.1781 103.333 59.0969 103.111 59.0172C102.67 58.8631 102.219 58.7128 101.765 58.5659C101.311 58.4162 100.858 58.2676 100.409 58.1256C99.9615 57.9817 99.5207 57.8401 99.0942 57.703C98.2406 57.4296 97.4443 57.1713 96.7628 56.9454C95.3987 56.4975 94.4956 56.1723 94.4956 56.1723C94.4956 56.1723 95.4384 56.3538 96.8332 56.7011C97.1822 56.7869 97.5598 56.8817 97.9574 56.9885C98.3552 57.0945 98.7753 57.2045 99.2067 57.3296C99.6385 57.4532 100.086 57.5772 100.537 57.7173C100.988 57.8551 101.446 57.9987 101.903 58.1453C102.357 58.2976 102.812 58.4548 103.259 58.6163C103.48 58.6963 103.698 58.7851 103.913 58.8619C104.12 58.9414 104.331 59.0103 104.545 59.0685C104.65 59.097 104.755 59.1252 104.859 59.1532C104.964 59.1746 105.068 59.1959 105.171 59.2169C105.377 59.2667 105.583 59.2832 105.782 59.3145C106.16 59.3559 106.539 59.3736 106.919 59.3676C107.007 59.3654 107.094 59.3633 107.178 59.3612C107.263 59.3553 107.346 59.3495 107.426 59.3439C107.588 59.3369 107.74 59.3152 107.884 59.3007C108.17 59.2632 108.42 59.2223 108.624 59.1787C108.828 59.1351 108.988 59.0974 109.096 59.0667C109.204 59.0371 109.261 59.0177 109.261 59.0177ZM105.047 50.307C105.047 50.307 105.054 50.3466 105.059 50.4121C105.065 50.4778 105.068 50.5698 105.067 50.6774C105.065 50.7847 105.059 50.9073 105.044 51.0358C105.031 51.1644 105.011 51.2991 104.989 51.4321C104.977 51.4981 104.965 51.5642 104.953 51.6292L104.914 51.8185C104.887 51.9414 104.862 52.0561 104.841 52.1543C104.828 52.205 104.821 52.2499 104.812 52.2921C104.804 52.3286 104.797 52.3655 104.793 52.4027C104.785 52.4652 104.776 52.5066 104.776 52.5066C104.751 52.481 104.728 52.4537 104.707 52.4247C104.682 52.3923 104.661 52.3566 104.645 52.3185C104.62 52.2714 104.6 52.2219 104.585 52.1709C104.547 52.0467 104.526 51.9179 104.522 51.7881C104.517 51.6437 104.527 51.4992 104.553 51.3569C104.598 51.0934 104.689 50.8398 104.821 50.6077C104.867 50.5298 104.919 50.4555 104.976 50.3855C104.998 50.3578 105.022 50.3316 105.047 50.307ZM87.1152 60.1003L87.7427 60.1292C88.1416 60.147 88.7112 60.1678 89.3936 60.1876L90.495 60.2107C90.8856 60.2165 91.2973 60.2158 91.7229 60.2167C92.1485 60.2163 92.588 60.2064 93.0341 60.1953C93.4804 60.1859 93.933 60.164 94.3849 60.1362L95.0615 60.0924C95.2857 60.0716 95.5096 60.0549 95.7308 60.0312C96.1728 59.9809 96.6087 59.937 97.0264 59.869C97.2357 59.8375 97.4405 59.8029 97.6407 59.7651L97.938 59.7116C98.0351 59.6905 98.1311 59.6697 98.2257 59.6491L98.5058 59.5875L98.7746 59.5178L99.0354 59.452L99.283 59.3772L99.521 59.3055L99.7444 59.2267C99.8895 59.1748 100.03 59.1314 100.155 59.0746C100.283 59.0213 100.401 58.9715 100.512 58.9253C100.619 58.8727 100.717 58.8245 100.806 58.7809C100.851 58.759 100.893 58.7383 100.933 58.7187L101.041 58.6571C101.108 58.6185 101.165 58.5856 101.211 58.559L101.354 58.4769L101.225 58.5787L101.07 58.7015L100.97 58.779L100.851 58.8568C100.767 58.9117 100.673 58.9725 100.571 59.0389C100.467 59.1004 100.35 59.1605 100.227 59.2284C100.104 59.2992 99.9669 59.3574 99.8243 59.4252C99.7527 59.4585 99.6792 59.4929 99.6029 59.5252C99.5258 59.5553 99.4469 59.5861 99.3663 59.6175L99.1191 59.7139C99.0338 59.7428 98.947 59.7721 98.8586 59.802L98.588 59.8907L98.3058 59.9699L98.0153 60.0505C97.9164 60.0742 97.8164 60.0981 97.7152 60.1224C97.5135 60.1746 97.3045 60.2124 97.0924 60.2534C96.668 60.3339 96.2274 60.405 95.7774 60.4563C95.5525 60.483 95.3254 60.5026 95.0975 60.5262C94.8694 60.5436 94.6404 60.5638 94.4112 60.5781C93.9524 60.6011 93.4936 60.6181 93.0421 60.6224C92.8164 60.6273 92.5924 60.6256 92.3713 60.6211C92.1501 60.6193 91.9318 60.6114 91.717 60.6057C91.2876 60.5942 90.8732 60.5673 90.4807 60.5398C90.0882 60.5124 89.7178 60.4778 89.3766 60.4402C88.6939 60.3681 88.1281 60.2833 87.7335 60.2163C87.536 60.1842 87.3817 60.1527 87.2764 60.1326L87.1152 60.1003Z" fill="#E6E6E6"/>
<path d="M93.4341 29.907C93.4557 29.8738 93.4798 29.8423 93.5062 29.8128C93.5746 29.7339 93.6505 29.6618 93.7328 29.5975C93.7882 29.5543 93.8461 29.5144 93.9061 29.478C93.9735 29.4362 94.0441 29.3999 94.1172 29.3694C94.196 29.3349 94.2773 29.3067 94.3605 29.2851C94.4481 29.2642 94.5373 29.2503 94.6271 29.2435C94.7182 29.2373 94.8097 29.2415 94.8998 29.2558C94.9446 29.2628 94.9891 29.2687 95.0321 29.2789L95.1561 29.3218C95.2338 29.3484 95.3075 29.3852 95.3753 29.4315C95.4076 29.4502 95.4389 29.4708 95.4688 29.4932L95.5455 29.5642C95.5912 29.6029 95.6329 29.6461 95.67 29.6931C95.7018 29.7359 95.727 29.775 95.7478 29.8065C95.789 29.8696 95.8089 29.907 95.8089 29.907C95.8089 29.907 95.7693 29.8863 95.7064 29.8482C95.6751 29.8289 95.6369 29.8065 95.5962 29.7787C95.556 29.75 95.5005 29.7328 95.4493 29.7037L95.3672 29.6626C95.3386 29.6495 95.3066 29.6414 95.2756 29.6302C95.2125 29.6042 95.1468 29.5848 95.0796 29.5723C95.0451 29.5657 95.0106 29.5574 94.9759 29.5493L94.8673 29.5404C94.7936 29.5334 94.7194 29.5326 94.6456 29.5381C94.608 29.5386 94.5705 29.5424 94.5336 29.5493C94.4964 29.5557 94.4586 29.556 94.4219 29.5644C94.3487 29.5827 94.2745 29.5922 94.2047 29.6154C94.1337 29.6334 94.0657 29.6555 94.001 29.678C93.9353 29.6981 93.8754 29.7243 93.8172 29.7436L93.6621 29.8075L93.5412 29.8596L93.4341 29.907ZM101.732 29.907L101.625 29.8596L101.504 29.8075C101.458 29.7885 101.406 29.767 101.349 29.7436C101.291 29.7243 101.231 29.6981 101.165 29.678C101.101 29.6555 101.033 29.6334 100.962 29.6154C100.892 29.5922 100.818 29.5827 100.745 29.5644C100.708 29.556 100.67 29.5557 100.633 29.5493C100.596 29.5424 100.558 29.5386 100.521 29.5381C100.447 29.5326 100.373 29.5334 100.299 29.5404L100.191 29.5492C100.156 29.5574 100.121 29.5657 100.087 29.5723C100.02 29.5847 99.954 29.6042 99.8909 29.6302C99.8598 29.6414 99.8278 29.6494 99.7993 29.6626L99.7172 29.7037C99.6659 29.7328 99.6104 29.75 99.5702 29.7787C99.5296 29.8065 99.4914 29.8289 99.4601 29.8481C99.3972 29.8863 99.3575 29.9069 99.3575 29.9069C99.3575 29.9069 99.3774 29.8696 99.4187 29.8065C99.4395 29.775 99.4646 29.7359 99.4965 29.6931C99.5335 29.646 99.5752 29.6028 99.6209 29.5642L99.6976 29.4931C99.7276 29.4708 99.7588 29.4502 99.7912 29.4315C99.859 29.3852 99.9327 29.3483 100.01 29.3218L100.134 29.2789C100.177 29.2687 100.222 29.2628 100.267 29.2558C100.357 29.2415 100.448 29.2373 100.539 29.2434C100.629 29.2503 100.718 29.2642 100.806 29.2851C100.889 29.3067 100.97 29.3349 101.049 29.3694C101.122 29.3999 101.193 29.4362 101.26 29.4779C101.32 29.5144 101.378 29.5543 101.434 29.5975C101.516 29.6617 101.592 29.7339 101.66 29.8128C101.687 29.8423 101.711 29.8738 101.732 29.907Z" fill="black"/>
<path d="M94.7896 31.245C95.1462 31.245 95.4352 30.9804 95.4352 30.654C95.4352 30.3276 95.1462 30.0629 94.7896 30.0629C94.4331 30.0629 94.144 30.3276 94.144 30.654C94.144 30.9804 94.4331 31.245 94.7896 31.245Z" fill="black"/>
<path d="M100.489 31.245C100.845 31.245 101.134 30.9804 101.134 30.654C101.134 30.3276 100.845 30.0629 100.489 30.0629C100.132 30.0629 99.8433 30.3276 99.8433 30.654C99.8433 30.9804 100.132 31.245 100.489 31.245Z" fill="black"/>
<path d="M28.0263 107.272C28.0583 107.107 28.075 106.941 28.0764 106.774C28.0764 105.051 26.4663 103.654 24.4801 103.654C22.4939 103.654 20.8838 105.051 20.8838 106.774C20.8851 106.941 20.9019 107.107 20.9339 107.272H28.0263ZM38.3258 107.272C38.3577 107.107 38.3745 106.941 38.3759 106.774C38.3759 105.051 36.7658 103.654 34.7796 103.654C32.7934 103.654 31.1833 105.051 31.1833 106.774C31.1846 106.941 31.2014 107.107 31.2333 107.272H38.3258Z" fill="#42210B"/>
<path d="M21.178 72.3717C21.178 72.3717 19.301 81.1448 20.781 87.6234C20.8483 87.9264 20.8786 88.2365 20.8712 88.5469C20.8254 91.1153 20.6015 102.503 20.2124 103.823C20.2124 103.823 25.434 105.27 29.7325 104.419C29.7325 104.419 29.2643 88.7991 28.9664 87.4804C28.7176 86.3791 27.945 73.308 27.9876 72.7122L21.178 72.3717Z" fill="#5A87AF"/>
<path d="M33.9205 34.6134C33.9205 31.2479 31.7356 28.5196 29.0404 28.5196C26.3451 28.5196 24.1602 31.2479 24.1602 34.6134C24.1602 36.6709 24.9776 38.4888 26.2282 39.5922V37.2457H31.4914V39.8821C32.9436 38.8263 33.9205 36.8629 33.9205 34.6134Z" fill="#E5A16E"/>
<path d="M30.4447 28.777C31.6953 29.8804 32.5127 31.6983 32.5127 33.7558C32.5127 37.1213 30.3278 39.8496 27.6325 39.8496C27.1527 39.849 26.6769 39.7618 26.228 39.5922C26.9961 40.2976 27.9975 40.6946 29.0402 40.7072C31.7355 40.7072 33.9204 37.9789 33.9204 34.6134C33.9204 31.8577 32.4552 29.5303 30.4447 28.777Z" fill="#E28140"/>
<path d="M31.4912 37.2294L33.2791 36.0483L33.2109 36.6389L31.4912 37.8536V37.2294Z" fill="#CCCCCC"/>
<path d="M26.2185 37.1834L24.4307 36.0023L24.4988 36.5928L26.2185 37.8077V37.1834Z" fill="#CCCCCC"/>
<path d="M29.0698 29.3588C29.4184 29.373 32.7612 29.6267 33.5331 34.1419C33.5396 34.18 33.5398 34.2188 33.5337 34.257C33.4457 34.8015 32.7688 39.112 33.1938 40.31C33.6366 41.5581 35.8667 43.1104 38.401 41.2503C38.5879 41.1091 38.7421 40.9292 38.8529 40.723C38.9638 40.5167 39.0288 40.2889 39.0434 40.0551C39.0581 39.8214 39.022 39.5873 38.9377 39.3688C38.8535 39.1503 38.723 38.9526 38.5552 38.7892C37.5129 37.7466 36.416 36.0151 36.0311 34.1246C35.4732 31.384 34.5443 24.8046 29.0403 24.8182C22.8084 24.8337 22.2358 29.5486 22.185 31.4576C22.1328 33.417 20.6357 36.7568 19.4349 38.563C19.1807 38.9431 19.0493 39.3921 19.0586 39.8493C19.0678 40.3065 19.2172 40.7499 19.4865 41.1194C20.3535 42.306 21.9184 43.4101 24.231 41.2329C24.4985 40.9835 24.691 40.6642 24.7866 40.3112C24.8822 39.9581 24.8771 39.5854 24.7718 39.2351C24.4098 38.0565 23.992 36.0886 24.6251 34.6134C25.5876 32.3705 25.003 29.8233 29.0134 29.361C29.0321 29.3588 29.0509 29.358 29.0698 29.3588Z" fill="black" stroke="black" stroke-width="1.488" stroke-miterlimit="10"/>
<path d="M21.8728 43.4878C23.6749 43.4878 25.1357 42.2302 25.1357 40.6789C25.1357 39.1276 23.6749 37.87 21.8728 37.87C20.0707 37.87 18.6099 39.1276 18.6099 40.6789C18.6099 42.2302 20.0707 43.4878 21.8728 43.4878Z" fill="black" stroke="black" stroke-width="1.488" stroke-miterlimit="10"/>
<path d="M23.1497 32.4919C24.2623 32.4919 25.1642 31.6026 25.1642 30.5057C25.1642 29.4088 24.2623 28.5196 23.1497 28.5196C22.0372 28.5196 21.1353 29.4088 21.1353 30.5057C21.1353 31.6026 22.0372 32.4919 23.1497 32.4919Z" fill="black" stroke="black" stroke-width="1.488" stroke-miterlimit="10"/>
<path d="M21.4475 35.3783C22.3877 35.3783 23.1499 34.6034 23.1499 33.6475C23.1499 32.6917 22.3877 31.9168 21.4475 31.9168C20.5073 31.9168 19.7451 32.6917 19.7451 33.6475C19.7451 34.6034 20.5073 35.3783 21.4475 35.3783Z" fill="black" stroke="black" stroke-width="1.488" stroke-miterlimit="10"/>
<path d="M20.4021 39.856C21.7052 39.856 22.7617 38.782 22.7617 37.4571C22.7617 36.1322 21.7052 35.0581 20.4021 35.0581C19.0989 35.0581 18.0425 36.1322 18.0425 37.4571C18.0425 38.782 19.0989 39.856 20.4021 39.856Z" fill="black" stroke="black" stroke-width="2.063" stroke-miterlimit="10"/>
<path d="M22.3313 40.2688C23.6344 40.2688 24.6908 39.1948 24.6908 37.8699C24.6908 36.545 23.6344 35.4709 22.3313 35.4709C21.0281 35.4709 19.9717 36.545 19.9717 37.8699C19.9717 39.1948 21.0281 40.2688 22.3313 40.2688Z" fill="black" stroke="black" stroke-width="2.063" stroke-miterlimit="10"/>
<path d="M28.4653 73.3506C28.4653 73.3506 29.9771 87.1491 31.3654 89.4109C31.5154 89.6533 31.5864 89.9363 31.5685 90.2209C31.4844 91.502 31.2452 94.2679 30.7537 104.425C30.7537 104.425 34.9672 105.65 39.6062 104.799C39.6062 104.799 38.4571 90.1191 38.3294 89.0977C38.2017 88.0763 35.7856 71.861 35.4877 71.6482L28.4653 73.3506Z" fill="#5A87AF"/>
<path d="M36.2766 42.8713C37.9094 42.8713 39.233 41.5213 39.233 39.856C39.233 38.1907 37.9094 36.8406 36.2766 36.8406C34.6439 36.8406 33.3203 38.1907 33.3203 39.856C33.3203 41.5213 34.6439 42.8713 36.2766 42.8713Z" fill="black" stroke="black" stroke-width="1.488" stroke-miterlimit="10"/>
<path d="M28.9986 87.4805C28.7498 86.3792 27.9772 74.9686 28.0197 74.3728H26.2192C26.1767 74.9686 26.9493 86.3792 27.1981 87.4805C27.496 88.7991 27.9642 104.419 27.9642 104.419C27.1974 104.544 26.424 104.624 25.6479 104.658C26.9851 104.727 28.4201 104.686 29.7647 104.419C29.7647 104.419 29.2965 88.7991 28.9986 87.4805Z" fill="#367AAD"/>
<path d="M36.457 39.2885C37.6009 39.2885 38.5282 38.242 38.5282 36.951C38.5282 35.66 37.6009 34.6135 36.457 34.6135C35.3131 34.6135 34.3857 35.66 34.3857 36.951C34.3857 38.242 35.3131 39.2885 36.457 39.2885Z" fill="black" stroke="black" stroke-width="1.488" stroke-miterlimit="10"/>
<path d="M39.0459 56.8799C39.0459 56.8799 39.6361 65.7566 38.8416 71.9419C38.8416 71.9419 40.1608 75.8034 38.6676 77.2602C38.5996 77.3244 38.5131 77.3655 38.4204 77.3777C38.3277 77.3898 38.2335 77.3725 38.1512 77.328C38.069 77.2836 38.0028 77.2143 37.9622 77.1301C37.9216 77.0459 37.9086 76.951 37.925 76.859C38.0779 75.9994 38.198 74.8265 37.7337 74.7551C37.7337 74.7551 37.6391 74.9654 37.5449 75.2411C37.5255 75.2978 37.4883 75.3467 37.4388 75.3804C37.3893 75.4142 37.3302 75.431 37.2703 75.4282C37.2105 75.4255 37.1531 75.4034 37.1069 75.3653C37.0607 75.3273 37.028 75.2752 37.0139 75.217C36.7401 74.0624 36.6764 72.8679 36.8258 71.6908C36.8258 71.6908 35.5773 58.4121 36.0881 56.8799L39.0459 56.8799Z" fill="#E5A16E"/>
<path d="M39.1998 71.9421C39.9943 65.7567 39.404 56.8801 39.404 56.8801H38.7231C38.7231 56.8801 38.5689 68.6815 39.0726 74.5778C39.0726 74.5778 38.4659 77.457 38.6675 77.2602C40.1608 75.8034 39.1998 71.9421 39.1998 71.9421Z" fill="#E28140"/>
<path d="M34.5464 73.5408C34.8443 73.7536 36.8255 88.7332 36.9531 89.7547C37.0688 90.6798 38.0222 102.497 38.201 104.942C38.6624 104.893 39.1318 104.827 39.606 104.74C39.606 104.74 38.4569 90.1791 38.3292 89.1576C38.2015 88.1362 36.0303 73.2104 35.7324 72.9977L34.5464 73.5408Z" fill="#367AAD"/>
<path d="M27.8031 42.8714C27.8031 42.8714 26.6773 42.5167 26.2188 43.8818C26.2188 43.8818 21.9015 43.9985 19.7451 44.6795C19.7451 44.6795 16.7376 48.4247 13.4463 55.1775C13.7726 54.986 14.605 55.4565 14.9214 55.5826C16.1641 56.0775 17.215 56.6352 18.0427 56.8232C18.0427 56.8232 19.5274 53.9859 20.4023 53.5319C20.4023 53.5319 19.4614 66.0161 16.8511 70.2153C16.8511 70.2153 16.9646 70.8396 18.213 71.5205C18.213 71.5205 17.532 75.0955 23.8876 74.5281C23.8876 74.5281 24.2281 75.1523 28.1436 74.2443C32.0591 73.3364 28.53 74.0741 28.53 74.0741C28.53 74.0741 30.3467 72.6524 32.7213 73.1852C34.9555 73.6864 35.6341 72.5419 37.2798 72.5419C38.9254 72.5419 39.8334 70.7261 39.8334 70.7261C39.8334 70.7261 38.5282 66.5268 37.677 65.5621C36.8258 64.5974 35.2936 60.7954 35.5774 59.2633C35.8611 57.7311 35.5337 58.3572 35.5337 58.3572L40.0153 57.6288C40.0153 57.6288 39.6545 56.7097 39.2332 55.4613C38.8119 54.2129 39.0104 46.6908 36.8825 44.566L32.3855 43.8818C32.3855 43.8818 32.0055 42.998 30.0746 42.4768L27.8031 42.8714Z" fill="#5A87AF"/>
<path d="M27.6326 39.8497C27.6326 39.8497 27.8596 42.9771 27.2354 43.8283C27.2354 43.8283 27.4197 46.4386 28.8597 47.914C28.8597 47.914 30.1294 46.7727 31.0941 43.8819C31.0941 43.8819 30.2997 42.7374 30.5266 39.8497H27.6326Z" fill="#E5A16E"/>
<path d="M17.4922 52.8509L20.5565 64.5974L28.9212 63.6895L25.5501 51.6592L17.4922 52.8509Z" fill="#DEC5E2"/>
<path d="M14.0318 55.2013C14.0318 55.2013 13.0446 57.8297 13.9161 60.5328C13.9942 60.7737 14.1358 60.9891 14.3261 61.1562C14.5164 61.3234 14.7482 61.436 14.9972 61.4824C16.9045 61.8417 22.1606 62.4827 26.7976 59.846C26.7976 59.846 30.5428 57.4229 26.8543 56.4213L27.0783 57.2206C27.0783 57.2206 25.8329 57.8031 25.2654 56.3277C24.6979 54.8523 24.3575 57.1789 25.1519 58.0301C25.9464 58.8813 20.0447 57.1789 17.4344 58.3138C17.4344 58.3138 17.7203 57.0172 17.2096 56.5632L14.0318 55.2013Z" fill="#E5A16E"/>
<path d="M25.1393 56.1022C25.101 56.0154 25.0434 55.9385 24.9709 55.8774C25.0203 55.9571 25.0767 56.0324 25.1393 56.1022ZM27.9967 56.9337C27.9701 57.9457 26.4297 59.4963 26.4297 59.4963C21.5705 61.7284 16.4231 61.0118 14.5159 60.6525C14.2638 60.6041 14.0312 60.4833 13.8467 60.3049C13.8685 60.3813 13.864 60.4541 13.8887 60.5307C13.9668 60.7716 14.1085 60.987 14.2987 61.1541C14.489 61.3212 14.7209 61.4339 14.9698 61.4803C16.8771 61.8395 22.1332 62.4806 26.7702 59.8438C26.7702 59.8438 29.506 58.0734 27.9967 56.9337ZM30.5267 39.8497H29.8458C29.6188 42.7374 30.4132 43.8818 30.4132 43.8818C29.7631 45.8301 28.975 46.9828 28.5298 47.528C28.6316 47.6634 28.7419 47.7923 28.8598 47.914C28.8598 47.914 30.1295 46.7727 31.0942 43.8818C31.0942 43.8819 30.2998 42.7374 30.5267 39.8497Z" fill="#E28140"/>
<path d="M26.228 37.2457V39.5923C26.9961 40.2976 27.9975 40.6946 29.0402 40.7072C29.9243 40.7006 30.7832 40.4115 31.4913 39.8821V37.2457H26.228Z" fill="#CCCCCC"/>
<path d="M36.0881 35.3783C36.8716 35.3783 37.5068 34.7321 37.5068 33.9351C37.5068 33.138 36.8716 32.4919 36.0881 32.4919C35.3046 32.4919 34.6694 33.138 34.6694 33.9351C34.6694 34.7321 35.3046 35.3783 36.0881 35.3783Z" fill="black" stroke="black" stroke-width="1.488" stroke-miterlimit="10"/>
<path d="M35.1886 33.2735C35.8889 33.2735 36.4567 32.524 36.4567 31.5994C36.4567 30.6748 35.8889 29.9253 35.1886 29.9253C34.4882 29.9253 33.9204 30.6748 33.9204 31.5994C33.9204 32.524 34.4882 33.2735 35.1886 33.2735Z" fill="black" stroke="black" stroke-width="1.488" stroke-miterlimit="10"/>
<path d="M20.4502 52.5748L20.9366 53.9859L23.2065 53.532L22.7536 52.2342L20.4502 52.5748Z" fill="white"/>
<path d="M23.7739 49.049C23.7739 49.049 23.9816 44.9285 26.2186 43.8818C26.2186 43.8818 22.8561 43.8141 22.7617 49.049H23.7739Z" fill="black"/>
<path d="M23.3486 51.7302C24.1948 51.7302 24.8808 51.0443 24.8808 50.198C24.8808 49.3518 24.1948 48.6658 23.3486 48.6658C22.5024 48.6658 21.8164 49.3518 21.8164 50.198C21.8164 51.0443 22.5024 51.7302 23.3486 51.7302Z" fill="#999999"/>
<path d="M23.3483 50.9472C23.762 50.9472 24.0974 50.6118 24.0974 50.198C24.0974 49.7843 23.762 49.4489 23.3483 49.4489C22.9345 49.4489 22.5991 49.7843 22.5991 50.198C22.5991 50.6118 22.9345 50.9472 23.3483 50.9472Z" fill="black"/>
<path d="M31.4912 50.9472L30.0742 54.1561L31.6899 55.0498L32.158 54.2839L31.3494 53.8724L32.3851 51.4748L31.4912 50.9472Z" fill="#FF0000"/>
<path d="M32.3252 55.1695C32.6213 54.5166 32.7254 53.9256 32.5577 53.8496C32.3901 53.7736 32.0142 54.2413 31.7182 54.8943C31.4221 55.5473 31.318 56.1382 31.4857 56.2142C31.6533 56.2902 32.0292 55.8225 32.3252 55.1695Z" fill="#999999"/>
<path d="M35.1372 52.7091L35.9649 53.2624L34.3853 56.4544L33.0518 55.8585L33.5199 55.0498L34.1367 55.2202L35.1372 52.7091Z" fill="#FF0000"/>
<path d="M33.3555 55.6559C33.6516 55.0029 33.7557 54.412 33.5881 54.336C33.4204 54.26 33.0445 54.7277 32.7485 55.3806C32.4524 56.0336 32.3483 56.6245 32.5159 56.7006C32.6836 56.7766 33.0595 56.3088 33.3555 55.6559Z" fill="#999999"/>
<path d="M32.3853 43.8818C32.3853 43.8818 35.1799 45.3037 34.7968 48.6659L35.6906 49.049C35.6906 49.049 36.0597 43.907 32.3853 43.8818Z" fill="black"/>
<path d="M32.3851 51.4748L31.4912 50.9472C31.4912 50.9472 32.8389 47.5593 35.2223 48.6659C37.6056 49.7725 36.7502 51.943 35.965 53.2624L35.1372 52.7091C35.1372 52.7091 36.4991 50.6662 35.0095 49.9853C35.0095 49.9853 33.6337 48.6659 32.3851 51.4748Z" fill="#999999"/>
<path d="M26.2186 43.8818C26.2186 43.8818 25.8168 47.0682 27.2354 49.4489C27.2354 49.4489 27.5333 48.141 28.8598 47.914C27.974 46.7155 27.4144 45.3078 27.2354 43.8283C27.2354 43.8283 27.6201 43.7871 27.5129 42.8714C27.5129 42.8714 26.7906 42.3465 26.2186 43.8818Z" fill="#367AAD"/>
<path d="M32.3852 43.8818C32.3852 43.8818 31.8885 47.8573 31.094 49.0489C31.094 49.0489 30.7677 47.7438 28.8596 47.914C28.8596 47.914 30.8103 45.2973 31.094 43.8818C31.094 43.8818 30.8181 43.9864 30.6575 42.6611C30.6575 42.6611 31.9739 42.9707 32.3852 43.8818ZM37.8354 65.9262C36.544 64.4855 34.6721 59.8754 34.5863 59.6827C34.6071 59.7296 36.6301 64.4551 37.9036 65.8757L37.8354 65.9262ZM35.4636 60.63C35.3388 58.9143 36.2364 55.6753 36.2674 55.5367C36.2598 55.5704 35.5105 58.9273 35.6335 60.6177L35.4636 60.63ZM18.1948 71.6038C17.3698 71.4269 16.7984 70.3012 16.7745 70.2534L16.7471 70.1985L16.7905 70.1551C17.2247 69.721 17.9348 67.7798 17.9411 67.76C17.9157 67.84 17.4119 69.6943 16.9541 70.2284C17.0744 70.4475 17.5793 71.2977 18.2303 71.4372L18.1948 71.6038Z" fill="#367AAD"/>
<path d="M23.9459 74.9662C23.2372 74.9698 22.5322 74.863 21.8564 74.6495C21.6522 74.6392 19.5473 74.5017 18.5428 73.2114C17.4998 71.8713 19.0727 69.1801 19.1337 69.0629C19.1192 69.0906 17.7011 71.8527 18.6772 73.1069C19.662 74.372 21.8544 74.4791 21.8765 74.4799L21.9022 74.4852C21.9214 74.4922 23.841 75.1822 25.9074 74.4844L25.9619 74.6457C25.3118 74.8614 24.6309 74.9697 23.9459 74.9662Z" fill="#367AAD"/>
<path d="M26.2133 74.7069L26.1867 74.6921C25.0177 74.0384 25.9758 70.8036 26.0104 70.6631L26.0175 70.6331C26.0094 70.6658 25.2263 73.899 26.2443 74.5285C26.7029 74.4472 32.0548 73.5059 34.4869 73.3804C34.6397 73.278 36.0021 72.6172 36.6235 72.5084C36.3793 72.0547 35.6551 70.3318 35.7122 69.3691C35.6505 70.4101 36.8195 72.5124 36.8313 72.5335L36.8974 72.6515L36.7624 72.66C36.2628 72.6916 34.5637 73.5323 34.5468 73.5408L34.5132 73.5494C32.0035 73.6756 26.3006 74.6912 26.2433 74.7015L26.2133 74.7069ZM20.2945 52.4537C20.116 52.0672 20.0239 51.6464 20.0244 51.2207C20.025 50.795 20.1182 50.3745 20.2976 49.9884C20.0631 50.7805 20.1173 51.63 20.4504 52.3859L20.2945 52.4537Z" fill="#367AAD"/>
<path d="M25.519 33.935C25.5887 33.8346 25.6726 33.7449 25.7681 33.6685C25.8142 33.6306 25.8627 33.5956 25.9133 33.564L25.9971 33.5123C26.027 33.4967 26.0586 33.4826 26.0904 33.4675C26.1568 33.4373 26.2254 33.4123 26.2956 33.3928C26.3699 33.3753 26.4456 33.3644 26.5217 33.3601L26.6373 33.3589L26.751 33.3758C26.8242 33.3876 26.8957 33.4088 26.9636 33.4387C27.0269 33.4649 27.0872 33.4978 27.1434 33.537C27.1946 33.5692 27.2417 33.6075 27.2837 33.6511C27.3226 33.6831 27.3577 33.7196 27.3883 33.7596C27.4158 33.7951 27.4383 33.827 27.4569 33.8528C27.4938 33.9049 27.5131 33.935 27.5131 33.935C27.5131 33.935 27.4826 33.9139 27.4323 33.8761L27.3438 33.8072C27.306 33.778 27.266 33.7517 27.2242 33.7286C27.1784 33.6974 27.1301 33.6701 27.0797 33.647L26.9977 33.6113C26.9704 33.597 26.9414 33.5863 26.9115 33.5792C26.8509 33.5595 26.7885 33.5458 26.7253 33.5381L26.6284 33.526L26.5297 33.53C26.4637 33.5319 26.398 33.5394 26.3334 33.5526C26.2706 33.5729 26.2049 33.5807 26.146 33.6063C26.1161 33.6172 26.0869 33.6288 26.0573 33.6383L25.974 33.6751C25.919 33.6977 25.8704 33.7269 25.8226 33.7491C25.7777 33.776 25.7339 33.7979 25.6974 33.8209L25.6019 33.8803C25.5488 33.9138 25.519 33.935 25.519 33.935ZM30.4946 33.8946C30.5643 33.7941 30.6482 33.7044 30.7436 33.628C30.7897 33.5901 30.8382 33.5551 30.8888 33.5235L30.9726 33.4718C31.0026 33.4562 31.0341 33.4421 31.0659 33.427C31.1323 33.3968 31.2009 33.3718 31.2711 33.3523C31.3454 33.3348 31.4211 33.3239 31.4972 33.3196L31.6128 33.3184C31.6509 33.3241 31.6888 33.3297 31.7265 33.3353C31.7998 33.3471 31.8712 33.3683 31.9392 33.3982C32.0025 33.4244 32.0627 33.4574 32.1189 33.4966C32.1701 33.5287 32.2173 33.567 32.2592 33.6106C32.2981 33.6426 32.3332 33.6791 32.3638 33.7192C32.3913 33.7546 32.4138 33.7865 32.4324 33.8123C32.4693 33.8644 32.4886 33.8946 32.4886 33.8946C32.4886 33.8946 32.4581 33.8734 32.4078 33.8356L32.3193 33.7668C32.2815 33.7375 32.2415 33.7112 32.1997 33.6881C32.1539 33.6569 32.1056 33.6296 32.0552 33.6065L31.9733 33.5708C31.9459 33.5565 31.917 33.5458 31.887 33.5387C31.8264 33.519 31.764 33.5053 31.7008 33.4977L31.6039 33.4855L31.5052 33.4896C31.4392 33.4914 31.3735 33.4989 31.3089 33.5121C31.2461 33.5324 31.1804 33.5402 31.1216 33.5658C31.0916 33.5767 31.0624 33.5883 31.0329 33.5978L30.9495 33.6346C30.8945 33.6572 30.8459 33.6864 30.7981 33.7087C30.7532 33.7355 30.7094 33.7574 30.6729 33.7804L30.5774 33.8398C30.5243 33.8733 30.4946 33.8946 30.4946 33.8946Z" fill="black"/>
<path d="M26.5159 34.4923C26.6687 34.4923 26.7925 34.3618 26.7925 34.2008C26.7925 34.0397 26.6687 33.9092 26.5159 33.9092C26.3631 33.9092 26.2393 34.0397 26.2393 34.2008C26.2393 34.3618 26.3631 34.4923 26.5159 34.4923Z" fill="black" stroke="black" stroke-width="1.436" stroke-miterlimit="10"/>
<path d="M31.4915 34.4923C31.6442 34.4923 31.7681 34.3618 31.7681 34.2008C31.7681 34.0397 31.6442 33.9092 31.4915 33.9092C31.3387 33.9092 31.2148 34.0397 31.2148 34.2008C31.2148 34.3618 31.3387 34.4923 31.4915 34.4923Z" fill="black" stroke="black" stroke-width="1.436" stroke-miterlimit="10"/>
</svg>
