<svg width="139" height="110" viewBox="0 0 139 110" fill="none" xmlns="http://www.w3.org/2000/svg">
<g clip-path="url(#clip0_1_114)">
<path opacity="0.18" d="M134.698 92.5739C131.717 96.9791 127.543 100.526 122.965 103.373L122.11 103.897C118.705 105.92 115.087 107.619 111.196 108.513C107.167 109.438 102.973 109.47 98.8415 109.515C91.2434 109.579 83.6123 109.429 76.0405 109.962C70.0574 110.386 64.8571 107.21 60.91 102.977C60.7455 102.802 60.5811 102.62 60.4265 102.441C56.8971 98.4731 54.4565 93.7071 52.1639 88.9571C49.3384 83.109 46.638 77.047 46.1051 70.6148C45.6676 65.338 46.707 60.055 46.7893 54.7623C46.8912 48.1896 45.5163 41.604 46.2827 35.0696C46.9406 29.3524 49.243 23.8969 52.2034 18.9107C54.8348 14.4576 58.0319 10.2566 62.1467 7.03891C66.9667 3.33618 72.7446 0.993607 78.8462 0.268254C92.8189 -1.47788 107.542 5.51304 114.686 17.3242C121.514 28.5958 121.442 42.7149 127.471 54.408C131.313 61.8585 137.635 68.3994 138.809 76.6512C139.598 82.1801 137.865 87.8973 134.698 92.5739Z" fill="#68E1FD"/>
<path opacity="0.54" d="M122.962 103.373L122.106 103.897C118.705 105.92 115.087 107.619 111.196 108.512C107.167 109.438 102.973 109.47 98.8417 109.515C91.2435 109.579 83.6125 109.429 76.0406 109.962C70.0575 110.386 64.8572 107.21 60.9101 102.977C60.7457 102.802 60.5812 102.62 60.4266 102.441C67.4097 100.315 78.2181 98.9486 90.3587 98.9486C104.17 98.9486 116.275 100.72 122.962 103.373Z" fill="#68E1FD"/>
<path d="M94.8913 96.5321L95.2202 99.686C95.2202 99.686 93.9769 101.512 92.352 101.63C90.7271 101.748 90.1745 100.992 90.1745 100.992L90.4409 96.3533" fill="#F7AD7E"/>
<path d="M90.1581 100.992L90.2666 99.1306L95.0261 97.8856L95.2038 99.686C95.2038 99.686 93.9604 101.512 92.3355 101.63C90.7107 101.748 90.1581 100.992 90.1581 100.992Z" fill="white"/>
<path d="M79.7147 95.8522L79.3661 100.091C79.3661 100.091 80.6423 101.968 82.3099 102.09C83.9776 102.211 84.5466 101.432 84.5466 101.432L84.2736 96.6694" fill="#F7AD7E"/>
<path d="M84.5466 101.445L84.4381 99.5296L79.547 98.2527L79.3661 100.098C79.3661 100.098 80.6423 101.975 82.3099 102.096C83.9776 102.217 84.5466 101.445 84.5466 101.445Z" fill="white"/>
<path d="M77.8135 55.4581C77.8135 55.4581 77.5208 60.074 78.251 73.7558C78.9812 87.4375 79.1983 95.9352 79.1983 95.9352C79.1983 95.9352 79.9187 97.5568 82.3461 97.5887C84.7736 97.6207 84.938 96.6311 84.938 96.6311L87.3096 61.5552L89.7864 97.3493C89.7864 97.3493 92.9638 97.9048 95.2367 96.6853C96.8484 95.8171 94.8781 55.4166 94.8781 55.4166C94.8781 55.4166 87.0892 59.5696 77.8135 55.4581Z" fill="#3F3D56"/>
<path d="M83.6816 26.0643C83.6816 26.0643 77.2281 29.0905 77.08 30.0929C76.932 31.0952 77.8135 55.4677 77.8135 55.4677C77.8135 55.4677 79.9055 58.1044 86.3228 58.1044C92.9013 58.1044 94.5887 56.2817 94.8748 55.4325C95.161 54.5834 96.2169 30.2812 96.0721 29.2565C95.9274 28.2318 89.9739 26.1058 89.9739 26.1058L83.6816 26.0643Z" fill="#F3FCFF"/>
<path d="M90.9935 35.4717L90.4179 35.3919C90.6284 33.9267 91.0264 30.9994 91.0264 30.4185C91.0264 29.8375 90.7205 27.2933 89.2963 26.0292C88.9909 25.7547 88.6277 25.5478 88.2319 25.4227C87.8361 25.2976 87.4171 25.2573 87.0037 25.3046C83.5664 25.5982 82.7046 27.8041 82.6487 27.9573C82.4347 28.7834 82.2721 29.6213 82.1619 30.4663H81.5699C81.6808 29.5716 81.85 28.6845 82.0764 27.8104V27.7913C82.1126 27.6796 83.0138 25.0683 86.9445 24.7332C87.4374 24.6777 87.9368 24.7263 88.4086 24.8756C88.8804 25.025 89.3133 25.2714 89.6778 25.5982C91.2731 27.0188 91.5987 29.7481 91.5987 30.4121C91.6053 31.1846 91.0166 35.2993 90.9935 35.4717Z" fill="#68E1FD"/>
<path d="M90.9935 35.4717L90.4179 35.3919C90.6284 33.9267 91.0264 30.9994 91.0264 30.4185C91.0264 29.8375 90.7205 27.2933 89.2963 26.0292C88.9909 25.7547 88.6277 25.5478 88.2319 25.4227C87.8361 25.2976 87.4171 25.2573 87.0037 25.3046C83.5664 25.5982 82.7046 27.8041 82.6487 27.9573C82.4347 28.7834 82.2721 29.6213 82.1619 30.4663H81.5699C81.6808 29.5716 81.85 28.6845 82.0764 27.8104V27.7913C82.1126 27.6796 83.0138 25.0683 86.9445 24.7332C87.4374 24.6777 87.9368 24.7263 88.4086 24.8756C88.8804 25.025 89.3133 25.2714 89.6778 25.5982C91.2731 27.0188 91.5987 29.7481 91.5987 30.4121C91.6053 31.1846 91.0166 35.2993 90.9935 35.4717Z" fill="url(#paint0_linear_1_114)"/>
<path d="M90.7534 56.3551L90.9113 70.6976L97.6312 70.0496L95.0525 47.2956L90.7534 56.3551Z" fill="#F3FCFF"/>
<path d="M84.0697 26.0515L83.9907 58.5034C86.2555 59.1671 88.6963 58.9614 90.8093 57.9288L89.0693 26.0515L86.5498 26.6261L84.0697 26.0515Z" fill="#68E1FD"/>
<path d="M84.0697 26.0515L83.9907 58.5034C86.2555 59.1671 88.6963 58.9614 90.8093 57.9288L89.0693 26.0515L86.5498 26.6261L84.0697 26.0515Z" fill="#68E1FD"/>
<path d="M84.1124 22.3869C84.1124 22.3869 84.073 24.5736 84.0927 26.1728C84.1124 27.3667 84.471 29.6555 86.6945 29.6555C88.918 29.6555 89.1779 26.7379 89.1384 26.1728C89.2015 25.3227 89.2015 24.4692 89.1384 23.6191C88.9937 22.2401 84.2374 21.4197 84.1124 22.3869Z" fill="#F7AD7E"/>
<path d="M84.1256 24.8992C84.1256 24.8992 84.3822 27.6668 86.1978 27.3093C86.9235 27.1845 87.5915 26.8442 88.1094 26.3353C88.6272 25.8264 88.9696 25.174 89.0891 24.4682C89.1581 24.1642 89.143 23.8478 89.0454 23.5512C88.9478 23.2547 88.771 22.9884 88.5332 22.7795L84.1256 24.8992Z" fill="url(#paint1_linear_1_114)"/>
<path d="M90.3061 22.5561C89.6055 24.5544 87.724 25.793 86.405 25.9111C85.0861 26.0292 83.6454 24.8609 83.0665 23.4052C82.4875 21.9496 82.4086 16.36 82.4086 16.36C82.3906 15.9883 82.4663 15.618 82.629 15.2811C82.8132 14.8756 83.1487 13.653 83.6158 13.2987C85.7111 12.7684 87.9173 12.8148 89.987 13.4328C90.4245 13.8031 90.6449 14.9842 90.7435 15.2013C90.7888 15.3338 90.8186 15.4709 90.8324 15.6099C91.0001 16.9602 90.9212 20.8068 90.3061 22.5561Z" fill="#F7AD7E"/>
<path d="M82.3494 17.854C82.2127 17.7688 82.0484 17.7357 81.8881 17.761C81.7278 17.7863 81.5828 17.8683 81.4811 17.9912C81.399 18.1535 81.3659 18.335 81.3857 18.5148C81.3878 18.6965 81.4032 18.8778 81.4317 19.0574C81.5413 19.5404 81.79 19.9832 82.1488 20.3343C82.2321 20.4284 82.331 20.5082 82.4415 20.5705C82.4975 20.6013 82.5595 20.6202 82.6235 20.6263C82.6875 20.6323 82.7522 20.6253 82.8132 20.6056C82.9087 20.5544 82.9891 20.4803 83.0467 20.3903C83.1043 20.3003 83.1372 20.1975 83.1421 20.0917C83.2174 19.6451 83.1755 19.1873 83.0204 18.7606C82.9035 18.396 82.6681 18.0779 82.3494 17.854V17.854Z" fill="#F7AD7E"/>
<path d="M91.0758 17.7837C91.2121 17.6982 91.3761 17.6646 91.5364 17.6893C91.6967 17.7141 91.8419 17.7954 91.9441 17.9178C92.0288 18.0804 92.062 18.2637 92.0395 18.4445C92.0408 18.6253 92.0254 18.8059 91.9935 18.984C91.884 19.467 91.6353 19.9098 91.2764 20.2609C91.193 20.3548 91.094 20.4346 90.9837 20.4971C90.9277 20.5278 90.8657 20.5468 90.8017 20.5529C90.7376 20.5589 90.673 20.5519 90.612 20.5322C90.5162 20.4813 90.4357 20.4072 90.378 20.3171C90.3204 20.2271 90.2877 20.1242 90.2831 20.0183C90.2067 19.5709 90.2475 19.1121 90.4015 18.6839C90.519 18.3205 90.7558 18.0044 91.0758 17.7837V17.7837Z" fill="#F7AD7E"/>
<path d="M83.9743 56.3551L83.7539 70.6976L74.1954 70.0496L77.8629 47.2956L83.9743 56.3551Z" fill="#F3FCFF"/>
<path d="M77.3465 42.9478L80.1621 36.9784L78.7543 70.1773L74.1954 70.0688C74.1954 70.0688 77.7708 52.4542 77.3465 42.9478Z" fill="url(#paint2_linear_1_114)"/>
<path d="M95.5886 42.2232L92.773 36.257L92.6809 70.4806L97.6312 70.0496C97.6312 70.0496 95.1643 51.736 95.5886 42.2232Z" fill="url(#paint3_linear_1_114)"/>
<path d="M77.2149 29.8503C77.2149 29.8503 72.406 41.2081 71.86 43.1809C71.314 45.1537 73.0113 51.1071 73.679 50.0856C75.7282 46.9445 77.7313 42.0381 77.7313 42.0381L77.2149 29.8503Z" fill="#F3FCFF"/>
<path d="M95.661 28.583C95.661 28.583 100.467 39.944 101.016 41.9136C101.565 43.8832 99.8613 49.8398 99.1969 48.8183C97.1444 45.6772 95.1445 40.7708 95.1445 40.7708L95.661 28.583Z" fill="#F3FCFF"/>
<path d="M96.6444 44.0619C96.5096 44.196 92.6809 55.3144 92.6809 55.3144C92.6809 55.3144 95.1544 55.3144 96.9767 55.4581C96.9767 55.4581 100.736 46.9573 100.891 46.2007C101.045 45.4442 102.187 41.3294 99.6442 40.8346C97.1016 40.3398 96.6444 44.0619 96.6444 44.0619Z" fill="#F3FCFF"/>
<path d="M76.2314 45.3292C76.363 45.4633 80.1785 56.5817 80.1785 56.5817C80.1785 56.5817 77.7017 56.5817 75.8795 56.7254C75.8795 56.7254 72.1231 48.2246 71.9653 47.468C71.8074 46.7115 70.6726 42.5967 73.2119 42.1019C75.7512 41.6071 76.2314 45.3292 76.2314 45.3292Z" fill="#F3FCFF"/>
<path d="M90.885 17.9944C90.885 17.905 90.8521 17.8157 90.8323 17.7263C90.7126 17.2479 90.5486 16.781 90.3423 16.3313C90.0133 15.5684 89.7074 14.8086 89.3917 14.0457C89.3423 13.9244 89.2897 13.8063 89.2404 13.685V13.6626C89.2432 13.6675 89.2448 13.673 89.2448 13.6786C89.2448 13.6842 89.2432 13.6897 89.2404 13.6945C89.1886 13.7473 89.1242 13.7868 89.0529 13.8095C88.6245 13.9656 88.1847 14.0905 87.7372 14.1829C87.1515 14.2594 86.5558 14.2181 85.9873 14.0616C85.4972 13.9244 85.0005 13.519 84.4808 13.5413H84.4019C84.1364 13.5529 83.8829 13.6524 83.6837 13.8231C83.4844 13.9938 83.3513 14.2256 83.3066 14.4798C83.2025 15.7154 82.9281 16.9318 82.4908 18.0966C81.9317 17.7295 81.8725 17.0017 81.8692 16.3728C81.8659 15.7439 81.8692 15.0704 81.8692 14.416C81.8453 14.1004 81.8821 13.7832 81.9777 13.4807C82.0296 13.324 82.1223 13.1829 82.2467 13.0711C82.3712 12.9592 82.5232 12.8804 82.6882 12.8422C82.9579 12.7975 83.2671 12.8837 83.4973 12.7401C83.5841 12.6635 83.6537 12.5704 83.7017 12.4666C83.7498 12.3628 83.7754 12.2505 83.7769 12.1367C83.8188 11.6728 83.9956 11.23 84.2868 10.8599C84.9249 10.1288 86.1419 10.081 87.1056 10.3874C88.0694 10.6939 88.9016 11.2717 89.8456 11.626C90.5034 11.8654 91.2205 12.0282 91.6316 12.539C91.8181 12.8269 91.9298 13.1544 91.9573 13.4934C92.0984 14.2751 92.0763 15.0764 91.8921 15.8496C91.7079 16.6228 91.3654 17.3522 90.885 17.9944V17.9944Z" fill="#3F3D56"/>
<path d="M91.0922 17.3815C91.0322 17.5133 90.9436 17.6309 90.8323 17.7263C90.7126 17.2479 90.5486 16.781 90.3423 16.3313C89.9761 15.4502 89.6088 14.5681 89.2404 13.685C89.4551 13.5604 89.6914 13.475 89.9377 13.4328C90.101 13.404 90.2687 13.4099 90.4294 13.4502C90.5902 13.4904 90.74 13.564 90.8685 13.6658C91.0568 13.8521 91.1858 14.087 91.2402 14.3426C91.3369 14.7615 91.3822 15.1901 91.3751 15.6194C91.4371 16.2206 91.3397 16.8272 91.0922 17.3815V17.3815Z" fill="url(#paint4_linear_1_114)"/>
<path d="M90.5561 13.3051C90.1266 13.4845 89.7325 13.7351 89.3917 14.0457C89.3423 13.9244 89.2897 13.8063 89.2404 13.685V13.6626C89.2432 13.6675 89.2448 13.673 89.2448 13.6786C89.2448 13.6842 89.2432 13.6897 89.2404 13.6945C89.1886 13.7473 89.1242 13.7868 89.0529 13.8095C88.6245 13.9656 88.1847 14.0905 87.7372 14.1829C87.1515 14.2594 86.5558 14.2181 85.9873 14.0616C85.4972 13.9244 85.0005 13.519 84.4808 13.5413H84.4019C84.4282 13.4647 84.4611 13.3817 84.4907 13.2923C84.7407 12.507 84.9051 11.8271 85.8327 11.5813C86.3824 11.4508 86.9614 11.5025 87.4773 11.7281C87.974 11.9324 88.4312 12.2517 88.9641 12.3347C89.2851 12.3436 89.6044 12.3821 89.9179 12.4496C90.0945 12.5222 90.2473 12.6403 90.3598 12.7911C90.4722 12.9419 90.5401 13.1196 90.5561 13.3051V13.3051Z" fill="url(#paint5_linear_1_114)"/>
<path d="M76.7807 56.6775L77.2248 58.5098L80.6127 58.3502L79.7246 56.569L76.7807 56.6775Z" fill="#F7AD7E"/>
<path d="M93.3092 55.2761L92.3092 57.6479L95.5327 57.8299L95.9405 55.3847L93.3092 55.2761Z" fill="#F7AD7E"/>
<path d="M81.754 58.2959H76.5307V59.1961H81.754V58.2959Z" fill="#F3FCFF"/>
<path d="M96.1478 57.6639H91.3455V58.5098H96.1478V57.6639Z" fill="#F3FCFF"/>
<path d="M83.7046 36.8348H82.2738V36.2602H83.2079C83.4513 34.7375 83.6552 31.3857 82.1619 30.8111C82.0139 30.7472 81.8481 30.7335 81.6911 30.7723C81.5342 30.8111 81.3953 30.9001 81.2968 31.025C80.2903 32.0688 80.1259 35.2195 80.2838 35.6154C80.3577 35.69 80.4475 35.7481 80.5469 35.7856C80.6463 35.823 80.7529 35.839 80.8594 35.8324L80.9482 36.4006C80.7412 36.4223 80.532 36.3959 80.3376 36.3238C80.1431 36.2516 79.9691 36.1358 79.8298 35.9857C79.3792 35.5036 79.7147 32.2029 80.6489 30.8941C81.1126 30.2557 81.7277 30.0258 82.3823 30.278C84.7275 31.1814 83.7901 36.3783 83.7473 36.5986L83.7046 36.8348Z" fill="#68E1FD"/>
<path d="M83.7046 36.8348H82.2738V36.2602H83.2079C83.4513 34.7375 83.6552 31.3857 82.1619 30.8111C82.0139 30.7472 81.8481 30.7335 81.6911 30.7723C81.5342 30.8111 81.3953 30.9001 81.2968 31.025C80.2903 32.0688 80.1259 35.2195 80.2838 35.6154C80.3577 35.69 80.4475 35.7481 80.5469 35.7856C80.6463 35.823 80.7529 35.839 80.8594 35.8324L80.9482 36.4006C80.7412 36.4223 80.532 36.3959 80.3376 36.3238C80.1431 36.2516 79.9691 36.1358 79.8298 35.9857C79.3792 35.5036 79.7147 32.2029 80.6489 30.8941C81.1126 30.2557 81.7277 30.0258 82.3823 30.278C84.7275 31.1814 83.7901 36.3783 83.7473 36.5986L83.7046 36.8348Z" fill="url(#paint6_linear_1_114)"/>
<path d="M81.1554 36.1697C81.1806 35.9153 81.0427 35.6942 80.8474 35.6761C80.6521 35.6579 80.4734 35.8494 80.4482 36.1039C80.423 36.3584 80.561 36.5794 80.7563 36.5976C80.9516 36.6157 81.1303 36.4242 81.1554 36.1697Z" fill="#68E1FD"/>
<path d="M82.5609 36.5824C82.586 36.3279 82.4481 36.1069 82.2528 36.0887C82.0575 36.0705 81.8788 36.2621 81.8536 36.5166C81.8285 36.771 81.9664 36.9921 82.1617 37.0102C82.357 37.0284 82.5357 36.8369 82.5609 36.5824Z" fill="#68E1FD"/>
<path d="M81.1554 36.1697C81.1806 35.9153 81.0427 35.6942 80.8474 35.6761C80.6521 35.6579 80.4734 35.8494 80.4482 36.1039C80.423 36.3584 80.561 36.5794 80.7563 36.5976C80.9516 36.6157 81.1303 36.4242 81.1554 36.1697Z" fill="url(#paint7_linear_1_114)"/>
<path d="M82.5609 36.5824C82.586 36.3279 82.4481 36.1069 82.2528 36.0887C82.0575 36.0705 81.8788 36.2621 81.8536 36.5166C81.8285 36.771 81.9664 36.9921 82.1617 37.0102C82.357 37.0284 82.5357 36.8369 82.5609 36.5824Z" fill="url(#paint8_linear_1_114)"/>
<path d="M90.7731 36.8635C91.3672 36.8635 91.8487 36.3962 91.8487 35.8197C91.8487 35.2432 91.3672 34.7758 90.7731 34.7758C90.1791 34.7758 89.6976 35.2432 89.6976 35.8197C89.6976 36.3962 90.1791 36.8635 90.7731 36.8635Z" fill="#68E1FD"/>
<path d="M90.9475 36.324C91.3689 36.324 91.7106 35.9925 91.7106 35.5834C91.7106 35.1744 91.3689 34.8429 90.9475 34.8429C90.526 34.8429 90.1844 35.1744 90.1844 35.5834C90.1844 35.9925 90.526 36.324 90.9475 36.324Z" fill="url(#paint9_linear_1_114)"/>
<path d="M90.987 36.0144C91.2449 36.0144 91.454 35.8114 91.454 35.5611C91.454 35.3108 91.2449 35.1078 90.987 35.1078C90.729 35.1078 90.5199 35.3108 90.5199 35.5611C90.5199 35.8114 90.729 36.0144 90.987 36.0144Z" fill="#F3FCFF"/>
<path d="M90.2699 35.9186L89.7962 36.257C89.7962 36.257 90.0594 36.7007 90.3258 36.7678L90.6547 36.257C90.6547 36.257 90.4179 36.257 90.2699 35.9186Z" fill="url(#paint10_linear_1_114)"/>
<path d="M99.6837 102.556C99.9534 102.715 100.266 102.948 100.246 103.284C100.229 103.43 100.17 103.568 100.075 103.683C99.4666 104.49 96.128 104.238 95.1742 104.228C93.0065 104.206 93.0954 104.337 90.9573 103.944C90.7841 103.926 90.6187 103.864 90.4771 103.766C90.2702 103.55 90.1529 103.268 90.1482 102.974C90.0725 102.284 90.0891 101.588 90.1975 100.902C90.1984 100.867 90.2067 100.832 90.2219 100.799C90.2372 100.767 90.2591 100.738 90.2863 100.714C90.3136 100.701 90.3434 100.695 90.3735 100.695C90.4037 100.695 90.4334 100.701 90.4607 100.714C90.7999 100.854 91.1524 100.96 91.5132 101.033C92.1055 101.096 92.7023 100.963 93.2072 100.656C93.4685 100.507 93.717 100.337 93.9506 100.149C94.1117 100.024 94.4275 99.6285 94.6248 99.6094C94.8222 99.5902 95.1906 99.9095 95.3781 100.018L96.2695 100.542L99.6837 102.556Z" fill="#3F3D56"/>
<path d="M82.1488 100.985C81.3529 100.736 80.62 100.327 79.9976 99.785C79.8808 99.6708 79.7301 99.5949 79.5667 99.5679C79.4856 99.5685 79.4053 99.5836 79.3299 99.6126C77.8289 100.081 76.4021 100.749 75.09 101.598C74.7414 101.818 74.3565 102.144 74.3861 102.585C74.419 103.095 74.9651 103.338 75.4223 103.45C78.0643 104.098 80.8105 104.247 83.5105 103.887C83.7473 103.873 83.9753 103.794 84.1683 103.66C84.3881 103.431 84.5205 103.136 84.5433 102.824C84.6584 102.144 84.7078 101.196 84.4085 100.57C84.0855 100.795 83.716 100.948 83.3258 101.02C82.9355 101.091 82.5339 101.08 82.1488 100.985V100.985Z" fill="#3F3D56"/>
<path d="M84.1848 26.4282C84.1848 26.4282 85.5005 29.2278 86.2208 29.5821L84.5762 30.6419L84.0894 27.9317L84.1848 26.4282Z" fill="#68E1FD"/>
<path d="M89.1022 26.4569C89.1022 26.4569 87.9313 29.5215 86.2307 29.5821L87.9707 31.1335L89.2239 28.899L89.1022 26.4569Z" fill="#68E1FD"/>
<path d="M84.1848 26.4282C84.1848 26.4282 85.5005 29.2278 86.2208 29.5821L84.5762 30.6419L84.0894 27.9317L84.1848 26.4282Z" fill="url(#paint11_linear_1_114)"/>
<path d="M89.1022 26.4569C89.1022 26.4569 87.9313 29.5215 86.2307 29.5821L87.9707 31.1335L89.2239 28.899L89.1022 26.4569Z" fill="url(#paint12_linear_1_114)"/>
<path d="M85.2176 30.1407L85.7932 31.0824L85.3689 51.0912L87.1912 53.5683L88.4049 49.4408L86.7044 31.1112L87.1912 30.4057L86.2208 29.5789L85.2176 30.1407Z" fill="#3F3D56"/>
</g>
<g clip-path="url(#clip1_1_114)">
<path opacity="0.18" d="M88.6975 92.5739C85.7175 96.9791 81.5434 100.526 76.9648 103.373L76.1096 103.897C72.7052 105.92 69.0871 107.619 65.1959 108.513C61.1666 109.438 56.9728 109.47 52.8415 109.515C45.2434 109.579 37.6123 109.429 30.0405 109.962C24.0574 110.386 18.8571 107.21 14.91 102.977C14.7455 102.802 14.5811 102.62 14.4265 102.441C10.8971 98.4731 8.45649 93.7071 6.16389 88.9571C3.33843 83.109 0.637965 77.047 0.105108 70.6148C-0.332361 65.338 0.70704 60.055 0.789271 54.7623C0.891237 48.1896 -0.483666 41.604 0.282727 35.0696C0.940576 29.3524 3.24304 23.8969 6.20336 18.9107C8.83475 14.4576 12.0319 10.2566 16.1467 7.03891C20.9667 3.33618 26.7446 0.993607 32.8462 0.268254C46.8189 -1.47788 61.5416 5.51304 68.6858 17.3242C75.5143 28.5958 75.4419 42.7149 81.4711 54.408C85.3129 61.8585 91.6348 68.3994 92.8091 76.6512C93.5985 82.1801 91.8651 87.8973 88.6975 92.5739Z" fill="#68E1FD"/>
<path opacity="0.54" d="M76.9617 103.373L76.1065 103.897C72.7054 105.92 69.0872 107.619 65.196 108.512C61.1667 109.438 56.9729 109.47 52.8417 109.515C45.2435 109.579 37.6125 109.429 30.0406 109.962C24.0575 110.386 18.8572 107.21 14.9101 102.977C14.7457 102.802 14.5812 102.62 14.4266 102.441C21.4097 100.315 32.2181 98.9486 44.3587 98.9486C58.1702 98.9486 70.2746 100.72 76.9617 103.373Z" fill="#68E1FD"/>
<path d="M48.8913 96.5321L49.2202 99.686C49.2202 99.686 47.9769 101.512 46.352 101.63C44.7271 101.748 44.1745 100.992 44.1745 100.992L44.4409 96.3533" fill="#F7AD7E"/>
<path d="M44.1581 100.992L44.2666 99.1306L49.0261 97.8856L49.2038 99.686C49.2038 99.686 47.9604 101.512 46.3355 101.63C44.7107 101.748 44.1581 100.992 44.1581 100.992Z" fill="white"/>
<path d="M33.7147 95.8522L33.3661 100.091C33.3661 100.091 34.6423 101.968 36.3099 102.09C37.9776 102.211 38.5466 101.432 38.5466 101.432L38.2736 96.6694" fill="#F7AD7E"/>
<path d="M38.5466 101.445L38.4381 99.5296L33.547 98.2527L33.3661 100.098C33.3661 100.098 34.6423 101.975 36.3099 102.096C37.9776 102.217 38.5466 101.445 38.5466 101.445Z" fill="white"/>
<path d="M31.8135 55.4581C31.8135 55.4581 31.5208 60.074 32.251 73.7558C32.9812 87.4375 33.1983 95.9352 33.1983 95.9352C33.1983 95.9352 33.9187 97.5568 36.3461 97.5887C38.7736 97.6207 38.938 96.6311 38.938 96.6311L41.3096 61.5552L43.7864 97.3493C43.7864 97.3493 46.9638 97.9048 49.2367 96.6853C50.8484 95.8171 48.8781 55.4166 48.8781 55.4166C48.8781 55.4166 41.0892 59.5696 31.8135 55.4581Z" fill="#3F3D56"/>
<path d="M37.6816 26.0643C37.6816 26.0643 31.2281 29.0905 31.08 30.0929C30.932 31.0952 31.8135 55.4677 31.8135 55.4677C31.8135 55.4677 33.9055 58.1044 40.3228 58.1044C46.9013 58.1044 48.5887 56.2817 48.8748 55.4325C49.161 54.5834 50.2169 30.2812 50.0721 29.2565C49.9274 28.2318 43.9739 26.1058 43.9739 26.1058L37.6816 26.0643Z" fill="#F3FCFF"/>
<path d="M44.9935 35.4717L44.4179 35.3919C44.6284 33.9267 45.0264 30.9994 45.0264 30.4185C45.0264 29.8375 44.7205 27.2933 43.2963 26.0292C42.9909 25.7547 42.6277 25.5478 42.2319 25.4227C41.8361 25.2976 41.4171 25.2573 41.0037 25.3046C37.5664 25.5982 36.7046 27.8041 36.6487 27.9573C36.4347 28.7834 36.2721 29.6213 36.1619 30.4663H35.5699C35.6808 29.5716 35.85 28.6845 36.0764 27.8104V27.7913C36.1126 27.6796 37.0138 25.0683 40.9445 24.7332C41.4374 24.6777 41.9368 24.7263 42.4086 24.8756C42.8804 25.025 43.3133 25.2714 43.6778 25.5982C45.2731 27.0188 45.5987 29.7481 45.5987 30.4121C45.6053 31.1846 45.0166 35.2993 44.9935 35.4717Z" fill="#68E1FD"/>
<path d="M44.9935 35.4717L44.4179 35.3919C44.6284 33.9267 45.0264 30.9994 45.0264 30.4185C45.0264 29.8375 44.7205 27.2933 43.2963 26.0292C42.9909 25.7547 42.6277 25.5478 42.2319 25.4227C41.8361 25.2976 41.4171 25.2573 41.0037 25.3046C37.5664 25.5982 36.7046 27.8041 36.6487 27.9573C36.4347 28.7834 36.2721 29.6213 36.1619 30.4663H35.5699C35.6808 29.5716 35.85 28.6845 36.0764 27.8104V27.7913C36.1126 27.6796 37.0138 25.0683 40.9445 24.7332C41.4374 24.6777 41.9368 24.7263 42.4086 24.8756C42.8804 25.025 43.3133 25.2714 43.6778 25.5982C45.2731 27.0188 45.5987 29.7481 45.5987 30.4121C45.6053 31.1846 45.0166 35.2993 44.9935 35.4717Z" fill="url(#paint13_linear_1_114)"/>
<path d="M44.7534 56.3551L44.9113 70.6976L51.6312 70.0496L49.0525 47.2956L44.7534 56.3551Z" fill="#F3FCFF"/>
<path d="M38.0697 26.0515L37.9907 58.5034C40.2555 59.1671 42.6963 58.9614 44.8093 57.9288L43.0693 26.0515L40.5498 26.6261L38.0697 26.0515Z" fill="#68E1FD"/>
<path d="M38.0697 26.0515L37.9907 58.5034C40.2555 59.1671 42.6963 58.9614 44.8093 57.9288L43.0693 26.0515L40.5498 26.6261L38.0697 26.0515Z" fill="#68E1FD"/>
<path d="M38.1124 22.3869C38.1124 22.3869 38.073 24.5736 38.0927 26.1728C38.1124 27.3667 38.471 29.6555 40.6945 29.6555C42.918 29.6555 43.1779 26.7379 43.1384 26.1728C43.2015 25.3227 43.2015 24.4692 43.1384 23.6191C42.9937 22.2401 38.2374 21.4197 38.1124 22.3869Z" fill="#F7AD7E"/>
<path d="M38.1256 24.8992C38.1256 24.8992 38.3822 27.6668 40.1978 27.3093C40.9235 27.1845 41.5915 26.8442 42.1094 26.3353C42.6272 25.8264 42.9696 25.174 43.0891 24.4682C43.1581 24.1642 43.143 23.8478 43.0454 23.5512C42.9478 23.2547 42.771 22.9884 42.5332 22.7795L38.1256 24.8992Z" fill="url(#paint14_linear_1_114)"/>
<path d="M44.3061 22.5561C43.6055 24.5544 41.724 25.793 40.405 25.9111C39.0861 26.0292 37.6454 24.8609 37.0665 23.4052C36.4875 21.9496 36.4086 16.36 36.4086 16.36C36.3906 15.9883 36.4663 15.618 36.629 15.2811C36.8132 14.8756 37.1487 13.653 37.6158 13.2987C39.7111 12.7684 41.9173 12.8148 43.987 13.4328C44.4245 13.8031 44.6449 14.9842 44.7435 15.2013C44.7888 15.3338 44.8186 15.4709 44.8324 15.6099C45.0001 16.9602 44.9212 20.8068 44.3061 22.5561Z" fill="#F7AD7E"/>
<path d="M36.3494 17.854C36.2127 17.7688 36.0484 17.7357 35.8881 17.761C35.7278 17.7863 35.5828 17.8683 35.4811 17.9912C35.399 18.1535 35.3659 18.335 35.3857 18.5148C35.3878 18.6965 35.4032 18.8778 35.4317 19.0574C35.5413 19.5404 35.79 19.9832 36.1488 20.3343C36.2321 20.4284 36.331 20.5082 36.4415 20.5705C36.4975 20.6013 36.5595 20.6202 36.6235 20.6263C36.6875 20.6323 36.7522 20.6253 36.8132 20.6056C36.9087 20.5544 36.9891 20.4803 37.0467 20.3903C37.1043 20.3003 37.1372 20.1975 37.1421 20.0917C37.2174 19.6451 37.1755 19.1873 37.0204 18.7606C36.9035 18.396 36.6681 18.0779 36.3494 17.854V17.854Z" fill="#F7AD7E"/>
<path d="M45.0758 17.7837C45.2121 17.6982 45.3761 17.6646 45.5364 17.6893C45.6967 17.7141 45.8419 17.7954 45.9441 17.9178C46.0288 18.0804 46.062 18.2637 46.0395 18.4445C46.0408 18.6253 46.0254 18.8059 45.9935 18.984C45.884 19.467 45.6353 19.9098 45.2764 20.2609C45.193 20.3548 45.094 20.4346 44.9837 20.4971C44.9277 20.5278 44.8657 20.5468 44.8017 20.5529C44.7376 20.5589 44.673 20.5519 44.612 20.5322C44.5162 20.4813 44.4357 20.4072 44.378 20.3171C44.3204 20.2271 44.2877 20.1242 44.2831 20.0183C44.2067 19.5709 44.2475 19.1121 44.4015 18.6839C44.519 18.3205 44.7558 18.0044 45.0758 17.7837V17.7837Z" fill="#F7AD7E"/>
<path d="M37.9743 56.3551L37.7539 70.6976L28.1954 70.0496L31.8629 47.2956L37.9743 56.3551Z" fill="#F3FCFF"/>
<path d="M31.3465 42.9478L34.1621 36.9784L32.7543 70.1773L28.1954 70.0688C28.1954 70.0688 31.7708 52.4542 31.3465 42.9478Z" fill="url(#paint15_linear_1_114)"/>
<path d="M49.5886 42.2232L46.773 36.257L46.6809 70.4806L51.6312 70.0496C51.6312 70.0496 49.1643 51.736 49.5886 42.2232Z" fill="url(#paint16_linear_1_114)"/>
<path d="M31.2149 29.8503C31.2149 29.8503 26.406 41.2081 25.86 43.1809C25.314 45.1537 27.0113 51.1071 27.679 50.0856C29.7282 46.9445 31.7313 42.0381 31.7313 42.0381L31.2149 29.8503Z" fill="#F3FCFF"/>
<path d="M49.661 28.583C49.661 28.583 54.4665 39.944 55.0158 41.9136C55.5651 43.8832 53.8613 49.8398 53.1969 48.8183C51.1444 45.6772 49.1445 40.7708 49.1445 40.7708L49.661 28.583Z" fill="#F3FCFF"/>
<path d="M50.6444 44.0619C50.5096 44.196 46.6809 55.3144 46.6809 55.3144C46.6809 55.3144 49.1544 55.3144 50.9767 55.4581C50.9767 55.4581 54.7363 46.9573 54.8909 46.2007C55.0454 45.4442 56.1868 41.3294 53.6442 40.8346C51.1016 40.3398 50.6444 44.0619 50.6444 44.0619Z" fill="#F3FCFF"/>
<path d="M30.2314 45.3292C30.363 45.4633 34.1785 56.5817 34.1785 56.5817C34.1785 56.5817 31.7017 56.5817 29.8795 56.7254C29.8795 56.7254 26.1231 48.2246 25.9653 47.468C25.8074 46.7115 24.6726 42.5967 27.2119 42.1019C29.7512 41.6071 30.2314 45.3292 30.2314 45.3292Z" fill="#F3FCFF"/>
<path d="M44.885 17.9944C44.885 17.905 44.8521 17.8157 44.8323 17.7263C44.7126 17.2479 44.5486 16.781 44.3423 16.3313C44.0133 15.5684 43.7074 14.8086 43.3917 14.0457C43.3423 13.9244 43.2897 13.8063 43.2404 13.685V13.6626C43.2432 13.6675 43.2448 13.673 43.2448 13.6786C43.2448 13.6842 43.2432 13.6897 43.2404 13.6945C43.1886 13.7473 43.1242 13.7868 43.0529 13.8095C42.6245 13.9656 42.1847 14.0905 41.7372 14.1829C41.1515 14.2594 40.5558 14.2181 39.9873 14.0616C39.4972 13.9244 39.0005 13.519 38.4808 13.5413H38.4019C38.1364 13.5529 37.8829 13.6524 37.6837 13.8231C37.4844 13.9938 37.3513 14.2256 37.3066 14.4798C37.2025 15.7154 36.9281 16.9318 36.4908 18.0966C35.9317 17.7295 35.8725 17.0017 35.8692 16.3728C35.8659 15.7439 35.8692 15.0704 35.8692 14.416C35.8453 14.1004 35.8821 13.7832 35.9777 13.4807C36.0296 13.324 36.1223 13.1829 36.2467 13.0711C36.3712 12.9592 36.5232 12.8804 36.6882 12.8422C36.9579 12.7975 37.2671 12.8837 37.4973 12.7401C37.5841 12.6635 37.6537 12.5704 37.7017 12.4666C37.7498 12.3628 37.7754 12.2505 37.7769 12.1367C37.8188 11.6728 37.9956 11.23 38.2868 10.8599C38.9249 10.1288 40.1419 10.081 41.1056 10.3874C42.0694 10.6939 42.9016 11.2717 43.8456 11.626C44.5034 11.8654 45.2205 12.0282 45.6316 12.539C45.8181 12.8269 45.9298 13.1544 45.9573 13.4934C46.0984 14.2751 46.0763 15.0764 45.8921 15.8496C45.7079 16.6228 45.3654 17.3522 44.885 17.9944V17.9944Z" fill="#3F3D56"/>
<path d="M45.0922 17.3815C45.0322 17.5133 44.9436 17.6309 44.8323 17.7263C44.7126 17.2479 44.5486 16.781 44.3423 16.3313C43.9761 15.4502 43.6088 14.5681 43.2404 13.685C43.4551 13.5604 43.6914 13.475 43.9377 13.4328C44.101 13.404 44.2687 13.4099 44.4294 13.4502C44.5902 13.4904 44.74 13.564 44.8685 13.6658C45.0568 13.8521 45.1858 14.087 45.2402 14.3426C45.3369 14.7615 45.3822 15.1901 45.3751 15.6194C45.4371 16.2206 45.3397 16.8272 45.0922 17.3815V17.3815Z" fill="url(#paint17_linear_1_114)"/>
<path d="M44.5561 13.3051C44.1266 13.4845 43.7325 13.7351 43.3917 14.0457C43.3423 13.9244 43.2897 13.8063 43.2404 13.685V13.6626C43.2432 13.6675 43.2448 13.673 43.2448 13.6786C43.2448 13.6842 43.2432 13.6897 43.2404 13.6945C43.1886 13.7473 43.1242 13.7868 43.0529 13.8095C42.6245 13.9656 42.1847 14.0905 41.7372 14.1829C41.1515 14.2594 40.5558 14.2181 39.9873 14.0616C39.4972 13.9244 39.0005 13.519 38.4808 13.5413H38.4019C38.4282 13.4647 38.4611 13.3817 38.4907 13.2923C38.7407 12.507 38.9051 11.8271 39.8327 11.5813C40.3824 11.4508 40.9614 11.5025 41.4773 11.7281C41.974 11.9324 42.4312 12.2517 42.9641 12.3347C43.2851 12.3436 43.6044 12.3821 43.9179 12.4496C44.0945 12.5222 44.2473 12.6403 44.3598 12.7911C44.4722 12.9419 44.5401 13.1196 44.5561 13.3051V13.3051Z" fill="url(#paint18_linear_1_114)"/>
<path d="M30.7807 56.6775L31.2248 58.5098L34.6127 58.3502L33.7246 56.569L30.7807 56.6775Z" fill="#F7AD7E"/>
<path d="M47.3092 55.2761L46.3092 57.6479L49.5327 57.8299L49.9405 55.3847L47.3092 55.2761Z" fill="#F7AD7E"/>
<path d="M35.754 58.2959H30.5307V59.1961H35.754V58.2959Z" fill="#F3FCFF"/>
<path d="M50.1478 57.6639H45.3455V58.5098H50.1478V57.6639Z" fill="#F3FCFF"/>
<path d="M37.7046 36.8348H36.2738V36.2602H37.2079C37.4513 34.7375 37.6552 31.3857 36.1619 30.8111C36.0139 30.7472 35.8481 30.7335 35.6911 30.7723C35.5342 30.8111 35.3953 30.9001 35.2968 31.025C34.2903 32.0688 34.1259 35.2195 34.2838 35.6154C34.3577 35.69 34.4475 35.7481 34.5469 35.7856C34.6463 35.823 34.7529 35.839 34.8594 35.8324L34.9482 36.4006C34.7412 36.4223 34.532 36.3959 34.3376 36.3238C34.1431 36.2516 33.9691 36.1358 33.8298 35.9857C33.3792 35.5036 33.7147 32.2029 34.6489 30.8941C35.1126 30.2557 35.7277 30.0258 36.3823 30.278C38.7275 31.1814 37.7901 36.3783 37.7473 36.5986L37.7046 36.8348Z" fill="#68E1FD"/>
<path d="M37.7046 36.8348H36.2738V36.2602H37.2079C37.4513 34.7375 37.6552 31.3857 36.1619 30.8111C36.0139 30.7472 35.8481 30.7335 35.6911 30.7723C35.5342 30.8111 35.3953 30.9001 35.2968 31.025C34.2903 32.0688 34.1259 35.2195 34.2838 35.6154C34.3577 35.69 34.4475 35.7481 34.5469 35.7856C34.6463 35.823 34.7529 35.839 34.8594 35.8324L34.9482 36.4006C34.7412 36.4223 34.532 36.3959 34.3376 36.3238C34.1431 36.2516 33.9691 36.1358 33.8298 35.9857C33.3792 35.5036 33.7147 32.2029 34.6489 30.8941C35.1126 30.2557 35.7277 30.0258 36.3823 30.278C38.7275 31.1814 37.7901 36.3783 37.7473 36.5986L37.7046 36.8348Z" fill="url(#paint19_linear_1_114)"/>
<path d="M35.1554 36.1697C35.1806 35.9153 35.0427 35.6942 34.8474 35.6761C34.6521 35.6579 34.4734 35.8494 34.4482 36.1039C34.423 36.3584 34.561 36.5794 34.7563 36.5976C34.9516 36.6157 35.1303 36.4242 35.1554 36.1697Z" fill="#68E1FD"/>
<path d="M36.5609 36.5824C36.586 36.3279 36.4481 36.1069 36.2528 36.0887C36.0575 36.0705 35.8788 36.2621 35.8536 36.5166C35.8285 36.771 35.9664 36.9921 36.1617 37.0102C36.357 37.0284 36.5357 36.8369 36.5609 36.5824Z" fill="#68E1FD"/>
<path d="M35.1554 36.1697C35.1806 35.9153 35.0427 35.6942 34.8474 35.6761C34.6521 35.6579 34.4734 35.8494 34.4482 36.1039C34.423 36.3584 34.561 36.5794 34.7563 36.5976C34.9516 36.6157 35.1303 36.4242 35.1554 36.1697Z" fill="url(#paint20_linear_1_114)"/>
<path d="M36.5609 36.5824C36.586 36.3279 36.4481 36.1069 36.2528 36.0887C36.0575 36.0705 35.8788 36.2621 35.8536 36.5166C35.8285 36.771 35.9664 36.9921 36.1617 37.0102C36.357 37.0284 36.5357 36.8369 36.5609 36.5824Z" fill="url(#paint21_linear_1_114)"/>
<path d="M44.7731 36.8635C45.3672 36.8635 45.8487 36.3962 45.8487 35.8197C45.8487 35.2432 45.3672 34.7758 44.7731 34.7758C44.1791 34.7758 43.6976 35.2432 43.6976 35.8197C43.6976 36.3962 44.1791 36.8635 44.7731 36.8635Z" fill="#68E1FD"/>
<path d="M44.9475 36.324C45.3689 36.324 45.7106 35.9925 45.7106 35.5834C45.7106 35.1744 45.3689 34.8429 44.9475 34.8429C44.526 34.8429 44.1844 35.1744 44.1844 35.5834C44.1844 35.9925 44.526 36.324 44.9475 36.324Z" fill="url(#paint22_linear_1_114)"/>
<path d="M44.987 36.0144C45.2449 36.0144 45.454 35.8114 45.454 35.5611C45.454 35.3108 45.2449 35.1078 44.987 35.1078C44.729 35.1078 44.5199 35.3108 44.5199 35.5611C44.5199 35.8114 44.729 36.0144 44.987 36.0144Z" fill="#F3FCFF"/>
<path d="M44.2699 35.9186L43.7962 36.257C43.7962 36.257 44.0594 36.7007 44.3258 36.7678L44.6547 36.257C44.6547 36.257 44.4179 36.257 44.2699 35.9186Z" fill="url(#paint23_linear_1_114)"/>
<path d="M53.6837 102.556C53.9534 102.715 54.2659 102.948 54.2462 103.284C54.2289 103.43 54.1696 103.568 54.0751 103.683C53.4666 104.49 50.128 104.238 49.1742 104.228C47.0065 104.206 47.0954 104.337 44.9573 103.944C44.7841 103.926 44.6187 103.864 44.4771 103.766C44.2702 103.55 44.1529 103.268 44.1482 102.974C44.0725 102.284 44.0891 101.588 44.1975 100.902C44.1984 100.867 44.2067 100.832 44.2219 100.799C44.2372 100.767 44.2591 100.738 44.2863 100.714C44.3136 100.701 44.3434 100.695 44.3735 100.695C44.4037 100.695 44.4334 100.701 44.4607 100.714C44.7999 100.854 45.1524 100.96 45.5132 101.033C46.1055 101.096 46.7023 100.963 47.2072 100.656C47.4685 100.507 47.717 100.337 47.9506 100.149C48.1117 100.024 48.4275 99.6285 48.6248 99.6094C48.8222 99.5902 49.1906 99.9095 49.3781 100.018L50.2695 100.542L53.6837 102.556Z" fill="#3F3D56"/>
<path d="M36.1488 100.985C35.3529 100.736 34.62 100.327 33.9976 99.785C33.8808 99.6708 33.7301 99.5949 33.5667 99.5679C33.4856 99.5685 33.4053 99.5836 33.3299 99.6126C31.8289 100.081 30.4021 100.749 29.09 101.598C28.7414 101.818 28.3565 102.144 28.3861 102.585C28.419 103.095 28.9651 103.338 29.4223 103.45C32.0643 104.098 34.8105 104.247 37.5105 103.887C37.7473 103.873 37.9753 103.794 38.1683 103.66C38.3881 103.431 38.5205 103.136 38.5433 102.824C38.6584 102.144 38.7078 101.196 38.4085 100.57C38.0855 100.795 37.716 100.948 37.3258 101.02C36.9355 101.091 36.5339 101.08 36.1488 100.985V100.985Z" fill="#3F3D56"/>
<path d="M38.1848 26.4282C38.1848 26.4282 39.5005 29.2278 40.2208 29.5821L38.5762 30.6419L38.0894 27.9317L38.1848 26.4282Z" fill="#68E1FD"/>
<path d="M43.1022 26.4569C43.1022 26.4569 41.9313 29.5215 40.2307 29.5821L41.9707 31.1335L43.2239 28.899L43.1022 26.4569Z" fill="#68E1FD"/>
<path d="M38.1848 26.4282C38.1848 26.4282 39.5005 29.2278 40.2208 29.5821L38.5762 30.6419L38.0894 27.9317L38.1848 26.4282Z" fill="url(#paint24_linear_1_114)"/>
<path d="M43.1022 26.4569C43.1022 26.4569 41.9313 29.5215 40.2307 29.5821L41.9707 31.1335L43.2239 28.899L43.1022 26.4569Z" fill="url(#paint25_linear_1_114)"/>
<path d="M39.2176 30.1407L39.7932 31.0824L39.3689 51.0912L41.1912 53.5683L42.4049 49.4408L40.7044 31.1112L41.1912 30.4057L40.2208 29.5789L39.2176 30.1407Z" fill="#3F3D56"/>
</g>
<defs>
<linearGradient id="paint0_linear_1_114" x1="86.1551" y1="34.3193" x2="87.6215" y2="20.7556" gradientUnits="userSpaceOnUse">
<stop offset="0.02" stop-color="white" stop-opacity="0"/>
<stop offset="0.39" stop-color="white" stop-opacity="0.39"/>
<stop offset="1" stop-color="white"/>
</linearGradient>
<linearGradient id="paint1_linear_1_114" x1="87.1353" y1="18.6105" x2="86.2984" y2="28.8968" gradientUnits="userSpaceOnUse">
<stop offset="0.01"/>
<stop offset="0.83" stop-opacity="0.07"/>
<stop offset="1" stop-opacity="0"/>
</linearGradient>
<linearGradient id="paint2_linear_1_114" x1="47.7499" y1="46.903" x2="83.6412" y2="55.4644" gradientUnits="userSpaceOnUse">
<stop offset="0.01"/>
<stop offset="0.83" stop-opacity="0.07"/>
<stop offset="1" stop-opacity="0"/>
</linearGradient>
<linearGradient id="paint3_linear_1_114" x1="131.26" y1="45.0547" x2="87.4209" y2="55.5115" gradientUnits="userSpaceOnUse">
<stop offset="0.01"/>
<stop offset="0.83" stop-opacity="0.07"/>
<stop offset="1" stop-opacity="0"/>
</linearGradient>
<linearGradient id="paint4_linear_1_114" x1="89.4377" y1="15.5715" x2="91.5757" y2="15.5715" gradientUnits="userSpaceOnUse">
<stop offset="0.01"/>
<stop offset="0.83" stop-opacity="0.07"/>
<stop offset="1" stop-opacity="0"/>
</linearGradient>
<linearGradient id="paint5_linear_1_114" x1="84.3756" y1="12.8678" x2="90.5561" y2="12.8678" gradientUnits="userSpaceOnUse">
<stop offset="0.01"/>
<stop offset="0.83" stop-opacity="0.07"/>
<stop offset="1" stop-opacity="0"/>
</linearGradient>
<linearGradient id="paint6_linear_1_114" x1="81.8231" y1="36.506" x2="81.7178" y2="26.4058" gradientUnits="userSpaceOnUse">
<stop offset="0.02" stop-color="white" stop-opacity="0"/>
<stop offset="0.39" stop-color="white" stop-opacity="0.39"/>
<stop offset="1" stop-color="white"/>
</linearGradient>
<linearGradient id="paint7_linear_1_114" x1="80.446" y1="36.1353" x2="81.1598" y2="36.1353" gradientUnits="userSpaceOnUse">
<stop offset="0.01"/>
<stop offset="0.83" stop-opacity="0.07"/>
<stop offset="1" stop-opacity="0"/>
</linearGradient>
<linearGradient id="paint8_linear_1_114" x1="81.8528" y1="36.5466" x2="82.5665" y2="36.5466" gradientUnits="userSpaceOnUse">
<stop offset="0.01"/>
<stop offset="0.83" stop-opacity="0.07"/>
<stop offset="1" stop-opacity="0"/>
</linearGradient>
<linearGradient id="paint9_linear_1_114" x1="91.2468" y1="34.1629" x2="90.7034" y2="36.8859" gradientUnits="userSpaceOnUse">
<stop offset="0.01"/>
<stop offset="0.83" stop-opacity="0.07"/>
<stop offset="1" stop-opacity="0"/>
</linearGradient>
<linearGradient id="paint10_linear_1_114" x1="90.4837" y1="33.4127" x2="90.0901" y2="38.0531" gradientUnits="userSpaceOnUse">
<stop offset="0.01"/>
<stop offset="0.83" stop-opacity="0.07"/>
<stop offset="1" stop-opacity="0"/>
</linearGradient>
<linearGradient id="paint11_linear_1_114" x1="85.3985" y1="25.8696" x2="84.7136" y2="33.7707" gradientUnits="userSpaceOnUse">
<stop offset="0.02" stop-color="white" stop-opacity="0"/>
<stop offset="0.39" stop-color="white" stop-opacity="0.39"/>
<stop offset="1" stop-color="white"/>
</linearGradient>
<linearGradient id="paint12_linear_1_114" x1="88.0069" y1="26.0962" x2="87.3219" y2="33.9974" gradientUnits="userSpaceOnUse">
<stop offset="0.02" stop-color="white" stop-opacity="0"/>
<stop offset="0.39" stop-color="white" stop-opacity="0.39"/>
<stop offset="1" stop-color="white"/>
</linearGradient>
<linearGradient id="paint13_linear_1_114" x1="40.1551" y1="34.3193" x2="41.6215" y2="20.7556" gradientUnits="userSpaceOnUse">
<stop offset="0.02" stop-color="white" stop-opacity="0"/>
<stop offset="0.39" stop-color="white" stop-opacity="0.39"/>
<stop offset="1" stop-color="white"/>
</linearGradient>
<linearGradient id="paint14_linear_1_114" x1="41.1353" y1="18.6105" x2="40.2984" y2="28.8968" gradientUnits="userSpaceOnUse">
<stop offset="0.01"/>
<stop offset="0.83" stop-opacity="0.07"/>
<stop offset="1" stop-opacity="0"/>
</linearGradient>
<linearGradient id="paint15_linear_1_114" x1="1.74985" y1="46.903" x2="37.6412" y2="55.4644" gradientUnits="userSpaceOnUse">
<stop offset="0.01"/>
<stop offset="0.83" stop-opacity="0.07"/>
<stop offset="1" stop-opacity="0"/>
</linearGradient>
<linearGradient id="paint16_linear_1_114" x1="85.2604" y1="45.0547" x2="41.4209" y2="55.5115" gradientUnits="userSpaceOnUse">
<stop offset="0.01"/>
<stop offset="0.83" stop-opacity="0.07"/>
<stop offset="1" stop-opacity="0"/>
</linearGradient>
<linearGradient id="paint17_linear_1_114" x1="43.4377" y1="15.5715" x2="45.5757" y2="15.5715" gradientUnits="userSpaceOnUse">
<stop offset="0.01"/>
<stop offset="0.83" stop-opacity="0.07"/>
<stop offset="1" stop-opacity="0"/>
</linearGradient>
<linearGradient id="paint18_linear_1_114" x1="38.3756" y1="12.8678" x2="44.5561" y2="12.8678" gradientUnits="userSpaceOnUse">
<stop offset="0.01"/>
<stop offset="0.83" stop-opacity="0.07"/>
<stop offset="1" stop-opacity="0"/>
</linearGradient>
<linearGradient id="paint19_linear_1_114" x1="35.8231" y1="36.506" x2="35.7178" y2="26.4058" gradientUnits="userSpaceOnUse">
<stop offset="0.02" stop-color="white" stop-opacity="0"/>
<stop offset="0.39" stop-color="white" stop-opacity="0.39"/>
<stop offset="1" stop-color="white"/>
</linearGradient>
<linearGradient id="paint20_linear_1_114" x1="34.446" y1="36.1353" x2="35.1598" y2="36.1353" gradientUnits="userSpaceOnUse">
<stop offset="0.01"/>
<stop offset="0.83" stop-opacity="0.07"/>
<stop offset="1" stop-opacity="0"/>
</linearGradient>
<linearGradient id="paint21_linear_1_114" x1="35.8528" y1="36.5466" x2="36.5665" y2="36.5466" gradientUnits="userSpaceOnUse">
<stop offset="0.01"/>
<stop offset="0.83" stop-opacity="0.07"/>
<stop offset="1" stop-opacity="0"/>
</linearGradient>
<linearGradient id="paint22_linear_1_114" x1="45.2468" y1="34.1629" x2="44.7034" y2="36.8859" gradientUnits="userSpaceOnUse">
<stop offset="0.01"/>
<stop offset="0.83" stop-opacity="0.07"/>
<stop offset="1" stop-opacity="0"/>
</linearGradient>
<linearGradient id="paint23_linear_1_114" x1="44.4837" y1="33.4127" x2="44.0901" y2="38.0531" gradientUnits="userSpaceOnUse">
<stop offset="0.01"/>
<stop offset="0.83" stop-opacity="0.07"/>
<stop offset="1" stop-opacity="0"/>
</linearGradient>
<linearGradient id="paint24_linear_1_114" x1="39.3985" y1="25.8696" x2="38.7136" y2="33.7707" gradientUnits="userSpaceOnUse">
<stop offset="0.02" stop-color="white" stop-opacity="0"/>
<stop offset="0.39" stop-color="white" stop-opacity="0.39"/>
<stop offset="1" stop-color="white"/>
</linearGradient>
<linearGradient id="paint25_linear_1_114" x1="42.0069" y1="26.0962" x2="41.3219" y2="33.9974" gradientUnits="userSpaceOnUse">
<stop offset="0.02" stop-color="white" stop-opacity="0"/>
<stop offset="0.39" stop-color="white" stop-opacity="0.39"/>
<stop offset="1" stop-color="white"/>
</linearGradient>
<clipPath id="clip0_1_114">
<rect width="93" height="110" fill="white" transform="translate(46)"/>
</clipPath>
<clipPath id="clip1_1_114">
<rect width="93" height="110" fill="white"/>
</clipPath>
</defs>
</svg>
