<svg width="35" height="35" viewBox="0 0 35 35" fill="none" xmlns="http://www.w3.org/2000/svg">
<g clip-path="url(#clip0_64_1229)">
<path d="M24.9177 29.3854C25.5294 29.3854 26.0253 28.8511 26.0253 28.192C26.0253 27.5329 25.5294 26.9987 24.9177 26.9987C24.306 26.9987 23.8101 27.5329 23.8101 28.192C23.8101 28.8511 24.306 29.3854 24.9177 29.3854Z" fill="url(#paint0_linear_64_1229)"/>
<path d="M11.919 23.7758C11.3902 23.2471 10.7543 22.9112 10.0825 22.9112C9.38939 22.9112 8.74626 23.2471 8.22461 23.7973C9.22503 23.5829 10.497 23.4686 11.919 23.7758Z" fill="url(#paint1_linear_64_1229)"/>
<path d="M34.9717 32.1365C34.1142 26.2197 30.6413 21.2176 25.8607 18.495C26.0822 20.16 26.3037 22.9969 25.775 25.498C26.8325 25.8839 27.6114 26.9415 27.6114 28.192C27.6114 29.7784 26.4181 31.0218 24.9174 31.0218C23.4168 31.0218 22.2234 29.7498 22.2234 28.192C22.2234 26.8343 23.1095 25.7195 24.31 25.4123C25.0318 22.4681 24.4458 18.6594 24.2815 17.6875C24.0885 17.6018 23.8956 17.5232 23.6955 17.4374C22.0877 19.1024 19.9153 20.1314 17.5 20.1314C15.1419 20.1314 12.9695 19.131 11.3903 17.5232C11.1402 18.0806 10.6685 19.4383 10.7543 21.4677C13.1124 21.9394 14.9203 24.8263 14.9203 28.2992C14.9203 29.5783 14.6702 30.8574 14.1986 31.9365C13.9414 32.7511 12.8623 33.0798 12.3621 33.0798C11.6118 33.0798 11.0044 32.4438 11.0044 31.6363C11.0044 30.8288 11.6189 30.1929 12.3621 30.1929C12.5836 30.1929 12.8909 30.25 13.2268 30.3858C13.7984 28.7351 13.3625 26.4984 13.091 25.7481C10.4256 24.5262 7.98168 25.3622 7.08845 25.7481C6.83834 26.4984 6.35957 28.5422 6.95268 30.3858C7.28853 30.25 7.58866 30.1929 7.81733 30.1929C8.56765 30.1929 9.17505 30.8288 9.17505 31.6363C9.17505 32.4438 8.5605 33.0798 7.81733 33.0798C7.3457 33.0798 6.28811 32.7725 6.00942 32.0222C5.50921 30.9146 5.2591 29.6355 5.2591 28.2992C5.2591 24.8549 7.03843 21.9965 9.3394 21.4677C9.28224 20.1314 9.45374 19.0238 9.64668 18.2163C4.58024 20.8889 0.914398 26.0268 0.0283075 32.1365C-0.193215 33.6372 0.914398 34.9949 2.33643 34.9949H32.6422C34.0856 34.9949 35.1932 33.6372 34.9717 32.1365Z" fill="url(#paint2_linear_64_1229)"/>
<path d="M17.4999 18.8881C21.666 18.8881 25.0531 15.308 25.0531 10.8847C25.0531 10.2701 24.9959 9.69132 24.8602 9.10535C24.8602 9.10535 21.3087 7.99774 17.4999 7.99774C13.6983 7.99774 10.1682 9.10535 10.1682 9.10535C10.0539 9.69132 9.97528 10.2701 9.97528 10.8847C9.94669 15.3294 13.3338 18.8881 17.4999 18.8881Z" fill="url(#paint3_linear_64_1229)"/>
<path d="M24.2529 7.39034C24.7817 5.30374 25.2819 3.19571 25.7821 1.10911C20.3584 -0.362947 14.6417 -0.362947 9.2251 1.10911C9.72531 3.19571 10.2541 5.30374 10.7543 7.39034C15.1633 6.18983 19.8367 6.18983 24.2529 7.39034ZM15.4706 2.58116H16.8855V1.08052H18.1074V2.58116H19.5223V3.86027H18.1074V5.36091H16.8855V3.86027H15.4706V2.58116Z" fill="url(#paint4_linear_64_1229)"/>
</g>
<defs>
<linearGradient id="paint0_linear_64_1229" x1="24.9177" y1="26.9987" x2="24.9177" y2="29.3854" gradientUnits="userSpaceOnUse">
<stop stop-color="#657AEA"/>
<stop offset="1" stop-color="#D06CFF" stop-opacity="0.41"/>
</linearGradient>
<linearGradient id="paint1_linear_64_1229" x1="10.0718" y1="22.9112" x2="10.0718" y2="23.7973" gradientUnits="userSpaceOnUse">
<stop stop-color="#657AEA"/>
<stop offset="1" stop-color="#D06CFF" stop-opacity="0.41"/>
</linearGradient>
<linearGradient id="paint2_linear_64_1229" x1="17.5" y1="17.4374" x2="17.5" y2="34.9949" gradientUnits="userSpaceOnUse">
<stop stop-color="#657AEA"/>
<stop offset="1" stop-color="#D06CFF" stop-opacity="0.41"/>
</linearGradient>
<linearGradient id="paint3_linear_64_1229" x1="17.5141" y1="7.99774" x2="17.5141" y2="18.8881" gradientUnits="userSpaceOnUse">
<stop stop-color="#657AEA"/>
<stop offset="1" stop-color="#D06CFF" stop-opacity="0.41"/>
</linearGradient>
<linearGradient id="paint4_linear_64_1229" x1="17.5036" y1="0.00506592" x2="17.5036" y2="7.39034" gradientUnits="userSpaceOnUse">
<stop stop-color="#657AEA"/>
<stop offset="1" stop-color="#D06CFF" stop-opacity="0.41"/>
</linearGradient>
<clipPath id="clip0_64_1229">
<rect width="35" height="35" fill="white"/>
</clipPath>
</defs>
</svg>
