<svg width="40" height="24" viewBox="0 0 40 24" fill="none" xmlns="http://www.w3.org/2000/svg">
<path d="M35.851 0.633334L27.6668 8.33333V3.33333C27.6668 2.44928 27.263 1.60143 26.5441 0.976311C25.8252 0.351189 24.8502 0 23.8335 0H4.66683C3.65017 0 2.67514 0.351189 1.95625 0.976311C1.23736 1.60143 0.833496 2.44928 0.833496 3.33333V20C0.833496 20.8841 1.23736 21.7319 1.95625 22.357C2.67514 22.9821 3.65017 23.3333 4.66683 23.3333H23.8335C24.8502 23.3333 25.8252 22.9821 26.5441 22.357C27.263 21.7319 27.6668 20.8841 27.6668 20V15.8333L35.8893 22.9833C36.1563 23.2174 36.497 23.3773 36.8685 23.443C37.24 23.5086 37.6255 23.477 37.9763 23.3521C38.3271 23.2272 38.6275 23.0147 38.8394 22.7414C39.0513 22.4681 39.1652 22.1463 39.1668 21.8167V1.81667C39.1773 1.47858 39.0692 1.14571 38.857 0.862293C38.6448 0.578873 38.3384 0.358309 37.9786 0.229898C37.6187 0.101487 37.2225 0.0713072 36.8425 0.143367C36.4625 0.215426 36.1167 0.386315 35.851 0.633334Z" fill="url(#paint0_linear_64_1228)"/>
<defs>
<linearGradient id="paint0_linear_64_1228" x1="20.0005" y1="0" x2="20.0005" y2="23.4763" gradientUnits="userSpaceOnUse">
<stop stop-color="#657AEA"/>
<stop offset="1" stop-color="#D06CFF" stop-opacity="0.41"/>
</linearGradient>
</defs>
</svg>
