<svg width="117" height="111" viewBox="0 0 117 111" fill="none" xmlns="http://www.w3.org/2000/svg">
<path d="M59.3306 106.933C90.1763 106.933 115.182 94.7882 115.182 79.8068C115.182 64.8254 90.1763 52.6806 59.3306 52.6806C28.4849 52.6806 3.47949 64.8254 3.47949 79.8068C3.47949 94.7882 28.4849 106.933 59.3306 106.933Z" fill="#78C7FF"/>
<path d="M91.1706 97.3181C99.5748 97.3181 106.388 93.3255 106.388 88.4004C106.388 83.4753 99.5748 79.4827 91.1706 79.4827C82.7665 79.4827 75.9536 83.4753 75.9536 88.4004C75.9536 93.3255 82.7665 97.3181 91.1706 97.3181Z" fill="#6FA7EA"/>
<path d="M55.0483 72.3986L45.2975 67.0595C45.1356 66.9808 44.9564 66.9398 44.7745 66.9398C44.5926 66.9398 44.4134 66.9808 44.2515 67.0595L11.9338 84.764C11.8704 84.7841 11.8154 84.8225 11.7763 84.8739C11.7373 84.9253 11.7163 84.9871 11.7163 85.0504C11.7163 85.1138 11.7373 85.1755 11.7763 85.2269C11.8154 85.2783 11.8704 85.3167 11.9338 85.3368L21.6822 90.6781C21.8446 90.7551 22.0237 90.7952 22.2052 90.7952C22.3867 90.7952 22.5658 90.7551 22.7282 90.6781L25.6087 89.0997L52.1654 74.592L55.0506 72.9825C55.1158 72.9625 55.1727 72.9234 55.2129 72.8708C55.2531 72.8182 55.2747 72.7548 55.2744 72.6898C55.2742 72.6247 55.2521 72.5615 55.2115 72.5092C55.1708 72.4568 55.1136 72.4181 55.0483 72.3986Z" fill="#6FA7EA"/>
<path d="M98.881 85.0837L97.374 84.3245C97.374 84.3245 97.5214 77.3448 99.0471 71.9391C100.61 66.4046 105.159 60.2908 109.458 62.5818C113.756 64.8728 106.116 69.5815 103.818 74.1258C101.521 78.6701 98.881 85.0837 98.881 85.0837Z" fill="#307FB9"/>
<path opacity="0.15" d="M98.881 85.0837L97.374 84.3245C97.374 84.3245 97.5214 77.3448 99.0471 71.9391C100.61 66.4046 105.159 60.2908 109.458 62.5818C113.756 64.8728 106.116 69.5815 103.818 74.1258C101.521 78.6701 98.881 85.0837 98.881 85.0837Z" fill="black"/>
<path d="M98.6822 83.4276C98.6622 83.427 98.6425 83.4227 98.6243 83.4149C98.6061 83.4071 98.5897 83.396 98.576 83.3822C98.5623 83.3684 98.5516 83.3522 98.5445 83.3344C98.5374 83.3167 98.5341 83.2978 98.5347 83.2789C98.8577 72.4475 103.849 65.8341 108.026 63.4631C108.061 63.4434 108.102 63.4376 108.141 63.447C108.181 63.4563 108.214 63.4801 108.235 63.5131C108.256 63.5461 108.262 63.5855 108.252 63.6228C108.242 63.66 108.217 63.6921 108.183 63.7118C104.071 66.045 99.1595 72.5718 98.8389 83.2855C98.8386 83.3047 98.8343 83.3236 98.8263 83.3411C98.8182 83.3586 98.8065 83.3745 98.7919 83.3877C98.7773 83.4009 98.7601 83.4113 98.7413 83.4181C98.7224 83.425 98.7023 83.4282 98.6822 83.4276Z" fill="white"/>
<path d="M99.5618 85.4167L98.2163 84.7618C98.2163 84.7618 98.3824 81.3341 101.151 76.8675C103.608 72.9004 108.587 69.7924 110.679 70.9001C112.303 71.7571 112.678 73.6352 111.121 74.885C109.565 76.1349 102.382 78.7567 99.5618 85.4167Z" fill="#307FB9"/>
<path d="M99.0214 84.3223C99.2554 84.3667 99.3373 83.8183 99.3841 83.6785C99.473 83.4165 99.5666 83.159 99.6696 82.9015C99.8711 82.4006 100.1 81.9101 100.355 81.4318C100.847 80.5119 101.422 79.6346 102.075 78.81C102.685 78.038 103.351 77.3067 104.066 76.6211C104.712 76.0046 105.392 75.4206 106.102 74.8717C106.697 74.41 107.314 73.9726 107.948 73.5619C108.416 73.26 108.884 72.9714 109.374 72.7006C109.629 72.5585 109.884 72.4186 110.148 72.2899L110.223 72.2543C110.265 72.2349 110.297 72.2005 110.312 72.1586C110.327 72.1168 110.324 72.071 110.304 72.0312C110.283 71.9915 110.247 71.9611 110.203 71.9467C110.159 71.9324 110.11 71.9352 110.069 71.9546C109.905 72.0301 109.748 72.1145 109.601 72.1988C109.189 72.4208 108.786 72.6428 108.391 72.8915C107.804 73.2511 107.232 73.6315 106.673 74.0326C105.981 74.5298 105.315 75.0575 104.677 75.6154C103.95 76.2473 103.265 76.9221 102.627 77.6356C101.936 78.4049 101.31 79.2252 100.755 80.0887C100.165 81.0026 99.6717 81.9692 99.2811 82.9747C99.2078 83.1686 99.1376 83.3617 99.0705 83.5541C98.9721 83.7462 98.9126 83.954 98.895 84.1669C98.8979 84.2007 98.9106 84.2331 98.9316 84.2605C98.9527 84.2879 98.9813 84.3093 99.0144 84.3223H99.0214Z" fill="white"/>
<path d="M22.6604 78.9965C22.6604 78.9965 22.6978 74.6431 20.8937 71.04C19.0896 67.4369 16.2675 64.9994 13.4057 64.4422C10.5439 63.8849 7.90436 66.1271 10.7592 68.2162C13.614 70.3052 18.8579 72.7228 20.5333 79.4893L22.6604 78.9965Z" fill="#307FB9"/>
<path opacity="0.15" d="M22.6604 78.9965C22.6604 78.9965 22.6978 74.6431 20.8937 71.04C19.0896 67.4369 16.2675 64.9994 13.4057 64.4422C10.5439 63.8849 7.90436 66.1271 10.7592 68.2162C13.614 70.3052 18.8579 72.7228 20.5333 79.4893L22.6604 78.9965Z" fill="black"/>
<path d="M21.4672 78.2439C21.4373 78.2439 21.4086 78.2332 21.3869 78.2138C21.3651 78.1944 21.352 78.1678 21.3502 78.1396C20.9103 71.171 14.859 66.64 11.8685 65.8674C11.8388 65.8596 11.8136 65.841 11.7982 65.8157C11.7829 65.7903 11.7787 65.7602 11.7866 65.732C11.7949 65.7032 11.8147 65.6787 11.8419 65.6637C11.869 65.6488 11.9013 65.6446 11.9317 65.6521C14.9737 66.4402 21.1373 71.0467 21.5842 78.1262C21.5849 78.1554 21.574 78.1838 21.5536 78.2056C21.5332 78.2274 21.5048 78.2411 21.4742 78.2439H21.4672Z" fill="white"/>
<path d="M23.0301 84.9727C23.6098 84.2787 23.9987 83.459 24.1621 82.5872C24.3255 81.7154 24.2581 80.8187 23.9661 79.9777C23.7962 79.4699 23.5245 78.998 23.1658 78.588C22.878 78.2661 22.4638 78.0996 22.1268 77.831C21.4014 77.2604 20.559 76.6544 20.2969 75.7486C20.0863 75.0271 20.1308 74.3434 19.7096 73.6663C19.4614 73.2422 19.0662 72.9128 18.5911 72.7339C17.971 72.5119 17.2877 72.6584 16.6325 72.7339C15.6965 72.8338 14.9945 72.5274 14.1849 72.1189C13.2933 71.6749 12.252 71.3242 11.2856 71.5972C10.9713 71.6856 10.6801 71.8356 10.4308 72.0375C10.1815 72.2395 9.97972 72.4889 9.83853 72.7696C9.69734 73.0502 9.61988 73.3559 9.61118 73.6668C9.60247 73.9777 9.66272 74.2869 9.788 74.5742C10.0033 75.0715 10.4011 75.4756 10.6936 75.9373C10.9861 76.3991 11.1405 76.9274 10.9276 77.4314C10.7638 77.8043 10.4596 78.0974 10.3379 78.477C9.99158 79.476 10.1858 80.364 11.2318 80.879C12.3246 81.4096 14.0398 81.01 14.5873 82.3132C14.7933 82.8082 14.8003 83.3566 14.9126 83.8783C15.1432 84.9282 15.7866 85.8554 16.7121 86.4712C17.9686 87.2993 19.6745 87.0973 20.9779 86.5201C21.7786 86.1614 22.481 85.6318 23.0301 84.9727Z" fill="#307FB9"/>
<path d="M13.1789 78.6679C13.2045 78.672 13.2308 78.6681 13.2538 78.6568C14.1755 78.3188 15.1645 78.1786 16.1501 78.2461C17.1356 78.3137 18.0932 78.5874 18.9541 79.0475C18.9835 79.0625 19.0181 79.0658 19.0501 79.0566C19.0821 79.0475 19.109 79.0266 19.1249 78.9987C19.1331 78.9851 19.1383 78.97 19.1403 78.9544C19.1423 78.9388 19.1409 78.9229 19.1364 78.9078C19.1318 78.8927 19.1241 78.8786 19.1136 78.8664C19.1032 78.8542 19.0903 78.8441 19.0757 78.8366C18.1813 78.3601 17.1868 78.0775 16.1635 78.0092C15.1403 77.9409 14.1138 78.0885 13.1579 78.4415C13.1354 78.4532 13.1172 78.4711 13.1057 78.4928C13.0942 78.5146 13.09 78.5391 13.0935 78.5632C13.0971 78.5873 13.1083 78.6098 13.1256 78.6277C13.1429 78.6456 13.1656 78.6581 13.1906 78.6635L13.1789 78.6679Z" fill="white"/>
<path d="M21.35 85.0105C21.3194 85.0111 21.2897 85.0002 21.2674 84.9803C21.2451 84.9604 21.2319 84.933 21.2307 84.9039C21.0131 79.8867 15.7036 74.5809 12.1444 73.1379C12.1301 73.1323 12.117 73.1241 12.106 73.1137C12.0951 73.1032 12.0864 73.0908 12.0805 73.0772C12.0746 73.0636 12.0716 73.049 12.0718 73.0342C12.0719 73.0195 12.0751 73.0049 12.0813 72.9914C12.0941 72.9641 12.1178 72.9427 12.1471 72.9319C12.1765 72.9211 12.2092 72.9217 12.238 72.9337C15.8533 74.4033 21.2447 79.7979 21.467 84.8995C21.4676 84.9143 21.4652 84.9292 21.4597 84.9431C21.4543 84.9571 21.446 84.9699 21.4354 84.9808C21.4247 84.9918 21.4119 85.0006 21.3977 85.0068C21.3834 85.013 21.368 85.0165 21.3524 85.0171L21.35 85.0105Z" fill="white"/>
<path d="M50.6562 13.32L24.1721 27.821C23.9098 27.9835 23.6919 28.2025 23.5361 28.4603C23.3803 28.7181 23.2911 29.0072 23.2759 29.304V88.4737C23.2759 89.0153 23.6784 89.2351 24.1721 88.9621L50.6562 74.4566C50.9167 74.2945 51.1335 74.0767 51.2892 73.8207C51.4448 73.5647 51.535 73.2776 51.5524 72.9825V13.804C51.5524 13.2623 51.15 13.0403 50.6562 13.32ZM50.2631 68.598C50.2631 69.062 49.9191 69.3572 49.4956 69.5881L25.2438 82.877C24.8226 83.099 24.4763 82.9214 24.4763 82.4552V33.2489C24.4764 32.9945 24.5472 32.7446 24.6815 32.5244C24.8158 32.3042 25.009 32.1215 25.2415 31.9946L49.4932 18.7035C49.5711 18.6606 49.6594 18.6379 49.7494 18.6377C49.8394 18.6375 49.9279 18.6598 50.0059 18.7023C50.0839 18.7449 50.1488 18.8061 50.1939 18.88C50.2391 18.9539 50.2629 19.0377 50.2631 19.1231V68.598Z" fill="#455A64"/>
<path d="M50.2629 68.598C50.2629 69.062 49.9189 69.3572 49.4954 69.5881L25.2436 82.877C24.8224 83.099 24.4761 82.9214 24.4761 82.4552V33.2489C24.4762 32.9945 24.5469 32.7446 24.6813 32.5244C24.8156 32.3042 25.0088 32.1215 25.2413 31.9946L49.493 18.7035C49.5708 18.6606 49.6592 18.6379 49.7492 18.6377C49.8392 18.6375 49.9276 18.6598 50.0057 18.7023C50.0837 18.7449 50.1486 18.8061 50.1937 18.88C50.2389 18.9539 50.2627 19.0377 50.2629 19.1231V68.598Z" fill="#263238"/>
<path d="M25.2436 82.877L49.4954 69.5926C49.6656 69.5053 49.823 69.397 49.9634 69.2707L24.4761 55.6532V82.4552C24.4761 82.9214 24.8224 83.1079 25.2436 82.877Z" fill="#37474F"/>
<path d="M48.2996 67.7344V19.3584L25.2413 31.9946C25.0088 32.1215 24.8156 32.3042 24.6813 32.5244C24.5469 32.7446 24.4762 32.9945 24.4761 33.2489V81.3541L47.5321 68.7245C47.9556 68.4937 48.2996 68.1984 48.2996 67.7344Z" fill="#307FB9"/>
<path d="M24.0597 89.022C23.7922 89.129 23.5035 89.1796 23.2134 89.1704C22.9234 89.1613 22.6388 89.0924 22.3795 88.9687L21.3546 88.4071C21.0931 88.2464 20.8753 88.0293 20.7191 87.7734C20.563 87.5176 20.4728 87.2304 20.4561 86.9352V27.75C20.462 27.5307 20.5145 27.3147 20.6105 27.1151C20.6433 27.0463 20.6784 26.9797 20.7181 26.9108L23.5261 28.4648C23.4671 28.5649 23.4155 28.6688 23.3717 28.7756C23.3035 28.9437 23.2663 29.1217 23.2617 29.3018V88.4737C23.2758 88.9732 23.6174 89.1996 24.0597 89.022Z" fill="#263238"/>
<path d="M38.2047 77.1006C38.778 77.1006 38.8389 77.7111 38.8389 77.9731C38.8046 78.4979 38.6424 79.0081 38.3651 79.4634C38.0878 79.9188 37.7029 80.3068 37.2407 80.5971C37.0552 80.7089 36.8424 80.7731 36.6229 80.7836C36.0496 80.7836 35.9888 80.1731 35.9888 79.9111C36.0233 79.3863 36.1853 78.8761 36.4622 78.4205C36.739 77.9649 37.1232 77.5762 37.5846 77.2849C37.7717 77.1748 37.985 77.1115 38.2047 77.1006Z" fill="#307FB9"/>
<path d="M37.3955 21.514C37.6295 21.3808 37.8331 21.4874 37.8331 21.7538C37.8246 21.8978 37.7806 22.0379 37.7046 22.1628C37.6285 22.2878 37.5227 22.394 37.3955 22.4731C37.1615 22.604 36.9556 22.4975 36.9556 22.2333C36.9636 22.0889 37.0076 21.9484 37.0841 21.8233C37.1606 21.6983 37.2673 21.5923 37.3955 21.514Z" fill="#263238"/>
<path d="M34.5686 25.0194C34.7839 24.9017 34.9571 24.9972 34.9571 25.2414C34.9499 25.3691 34.911 25.4935 34.8435 25.6042C34.776 25.715 34.6818 25.809 34.5686 25.8785C34.3533 25.9962 34.1802 25.9007 34.1802 25.6565C34.1877 25.5289 34.2268 25.4047 34.2942 25.294C34.3617 25.1833 34.4557 25.0892 34.5686 25.0194Z" fill="#263238"/>
<path d="M35.8671 24.2912L40.2171 21.9092C40.4511 21.7782 40.6477 21.8714 40.6477 22.1156C40.6363 22.2528 40.5915 22.3855 40.5168 22.5034C40.442 22.6213 40.3395 22.7211 40.2171 22.795L35.8671 25.177C35.6331 25.308 35.4365 25.2148 35.4365 24.9706C35.4479 24.8334 35.4928 24.7007 35.5675 24.5828C35.6422 24.4649 35.7448 24.3651 35.8671 24.2912Z" fill="#263238"/>
<path d="M51.5431 13.6685C51.4776 13.2245 51.1055 13.0669 50.6586 13.3133L24.1698 27.821C23.9047 27.9771 23.687 28.1959 23.538 28.456L20.73 26.902C20.8813 26.644 21.0996 26.427 21.3641 26.2715L47.8365 11.766C48.1143 11.6324 48.4213 11.5628 48.7328 11.5628C49.0442 11.5628 49.3512 11.6324 49.629 11.766L50.6586 12.3254C50.8985 12.4764 51.1016 12.6744 51.2542 12.9061C51.4067 13.1378 51.5052 13.3977 51.5431 13.6685Z" fill="#37474F"/>
<path d="M44.5954 15.4647C44.4579 15.5343 44.305 15.5721 44.1492 15.5748C43.9934 15.5775 43.8392 15.5451 43.6991 15.4802C43.6522 15.4612 43.6116 15.4306 43.5815 15.3915C43.5515 15.3524 43.5331 15.3064 43.5283 15.2582C43.5283 15.1961 43.5283 14.9652 43.5283 14.9008C43.5358 14.8454 43.5583 14.7928 43.5936 14.7481C43.6288 14.7033 43.6757 14.668 43.7296 14.6455L46.568 13.0915C46.706 13.0223 46.8592 12.9849 47.0153 12.9822C47.1714 12.9795 47.3259 13.0116 47.4665 13.076C47.5126 13.0958 47.5523 13.1268 47.5819 13.1657C47.6115 13.2046 47.6298 13.2502 47.635 13.298C47.635 13.3623 47.635 13.6021 47.635 13.6643C47.6277 13.72 47.6053 13.773 47.57 13.8181C47.5348 13.8632 47.4878 13.8989 47.4338 13.9218L44.5954 15.4647Z" fill="#307FB9"/>
<path opacity="0.25" d="M44.5954 15.4647C44.4579 15.5343 44.305 15.5721 44.1492 15.5748C43.9934 15.5775 43.8392 15.5451 43.6991 15.4802C43.6522 15.4612 43.6116 15.4306 43.5815 15.3915C43.5515 15.3524 43.5331 15.3064 43.5283 15.2582C43.5283 15.1961 43.5283 14.9652 43.5283 14.9008C43.5358 14.8454 43.5583 14.7928 43.5936 14.7481C43.6288 14.7033 43.6757 14.668 43.7296 14.6455L46.568 13.0915C46.706 13.0223 46.8592 12.9849 47.0153 12.9822C47.1714 12.9795 47.3259 13.0116 47.4665 13.076C47.5126 13.0958 47.5523 13.1268 47.5819 13.1657C47.6115 13.2046 47.6298 13.2502 47.635 13.298C47.635 13.3623 47.635 13.6021 47.635 13.6643C47.6277 13.72 47.6053 13.773 47.57 13.8181C47.5348 13.8632 47.4878 13.8989 47.4338 13.9218L44.5954 15.4647Z" fill="black"/>
<path d="M44.5954 15.1115L47.4338 13.5575C47.6912 13.4155 47.7029 13.1957 47.4642 13.0647C47.3236 13.0004 47.1691 12.9683 47.013 12.971C46.8569 12.9737 46.7037 13.0111 46.5657 13.0802L43.7273 14.6342C43.4722 14.7741 43.4582 14.9939 43.6992 15.1249C43.8392 15.1895 43.9933 15.222 44.149 15.2197C44.3047 15.2174 44.4576 15.1803 44.5954 15.1115Z" fill="#307FB9"/>
<path opacity="0.3" d="M44.5954 15.1115L47.4338 13.5575C47.6912 13.4155 47.7029 13.1957 47.4642 13.0647C47.3236 13.0004 47.1691 12.9683 47.013 12.971C46.8569 12.9737 46.7037 13.0111 46.5657 13.0802L43.7273 14.6342C43.4722 14.7741 43.4582 14.9939 43.6992 15.1249C43.8392 15.1895 43.9933 15.222 44.149 15.2197C44.3047 15.2174 44.4576 15.1803 44.5954 15.1115Z" fill="black"/>
<path d="M22.2296 36.6677C22.2241 36.52 22.1818 36.3756 22.1061 36.2463C22.0305 36.1171 21.9237 36.0066 21.7944 35.924C21.7521 35.8944 21.7019 35.8764 21.6494 35.8721C21.597 35.8678 21.5443 35.8773 21.4972 35.8996C21.4434 35.9307 21.2281 36.0439 21.172 36.0772C21.125 36.111 21.088 36.1557 21.0646 36.2071C21.0412 36.2584 21.0323 36.3147 21.0386 36.3703V42.9681C21.0442 43.1156 21.0864 43.2597 21.1616 43.3889C21.2368 43.5181 21.3429 43.6287 21.4715 43.7118C21.5138 43.7388 21.5627 43.755 21.6135 43.7589C21.6643 43.7628 21.7153 43.7542 21.7616 43.734C21.8225 43.7051 22.0401 43.5853 22.0986 43.552C22.1456 43.5182 22.1826 43.4735 22.206 43.4221C22.2293 43.3707 22.2383 43.3145 22.232 43.2589L22.2296 36.6677Z" fill="#307FB9"/>
<path opacity="0.3" d="M22.2296 36.6677C22.2241 36.52 22.1818 36.3756 22.1061 36.2463C22.0305 36.1171 21.9237 36.0066 21.7944 35.924C21.7521 35.8944 21.7019 35.8764 21.6494 35.8721C21.597 35.8678 21.5443 35.8773 21.4972 35.8996C21.4434 35.9307 21.2281 36.0439 21.172 36.0772C21.125 36.111 21.088 36.1557 21.0646 36.2071C21.0412 36.2584 21.0323 36.3147 21.0386 36.3703V42.9681C21.0442 43.1156 21.0864 43.2597 21.1616 43.3889C21.2368 43.5181 21.3429 43.6287 21.4715 43.7118C21.5138 43.7388 21.5627 43.755 21.6135 43.7589C21.6643 43.7628 21.7153 43.7542 21.7616 43.734C21.8225 43.7051 22.0401 43.5853 22.0986 43.552C22.1456 43.5182 22.1826 43.4735 22.206 43.4221C22.2293 43.3707 22.2383 43.3145 22.232 43.2589L22.2296 36.6677Z" fill="black"/>
<path d="M21.9067 36.852V43.4498C21.9067 43.7296 21.7125 43.8494 21.4715 43.7185C21.3429 43.6354 21.2368 43.5248 21.1616 43.3956C21.0864 43.2664 21.0442 43.1222 21.0386 42.9748V36.3703C21.0386 36.0883 21.2328 35.9684 21.4715 36.0994C21.6017 36.1831 21.7091 36.295 21.7848 36.4259C21.8605 36.5567 21.9023 36.7028 21.9067 36.852Z" fill="#307FB9"/>
<path opacity="0.4" d="M21.9067 36.852V43.4498C21.9067 43.7296 21.7125 43.8494 21.4715 43.7185C21.3429 43.6354 21.2368 43.5248 21.1616 43.3956C21.0864 43.2664 21.0442 43.1222 21.0386 42.9748V36.3703C21.0386 36.0883 21.2328 35.9684 21.4715 36.0994C21.6017 36.1831 21.7091 36.295 21.7848 36.4259C21.8605 36.5567 21.9023 36.7028 21.9067 36.852Z" fill="black"/>
<path d="M22.2296 45.51C22.2241 45.3622 22.1818 45.2178 22.1061 45.0886C22.0305 44.9593 21.9237 44.8489 21.7944 44.7663C21.7521 44.7366 21.7019 44.7186 21.6494 44.7143C21.597 44.71 21.5443 44.7196 21.4972 44.7419C21.4434 44.773 21.2281 44.8862 21.172 44.9195C21.125 44.9533 21.088 44.998 21.0646 45.0493C21.0412 45.1007 21.0323 45.1569 21.0386 45.2125V48.3205C21.0446 48.4676 21.0869 48.6113 21.1621 48.7401C21.2373 48.8689 21.3432 48.9791 21.4715 49.062C21.5124 49.0907 21.5606 49.1085 21.6113 49.1136C21.6619 49.1187 21.713 49.1108 21.7593 49.0909C21.8201 49.062 22.0378 48.9421 22.0963 48.9088C22.1431 48.8754 22.18 48.831 22.2033 48.7801C22.2267 48.7291 22.2358 48.6733 22.2296 48.618V45.51Z" fill="#307FB9"/>
<path opacity="0.3" d="M22.2296 45.51C22.2241 45.3622 22.1818 45.2178 22.1061 45.0886C22.0305 44.9593 21.9237 44.8489 21.7944 44.7663C21.7521 44.7366 21.7019 44.7186 21.6494 44.7143C21.597 44.71 21.5443 44.7196 21.4972 44.7419C21.4434 44.773 21.2281 44.8862 21.172 44.9195C21.125 44.9533 21.088 44.998 21.0646 45.0493C21.0412 45.1007 21.0323 45.1569 21.0386 45.2125V48.3205C21.0446 48.4676 21.0869 48.6113 21.1621 48.7401C21.2373 48.8689 21.3432 48.9791 21.4715 49.062C21.5124 49.0907 21.5606 49.1085 21.6113 49.1136C21.6619 49.1187 21.713 49.1108 21.7593 49.0909C21.8201 49.062 22.0378 48.9421 22.0963 48.9088C22.1431 48.8754 22.18 48.831 22.2033 48.7801C22.2267 48.7291 22.2358 48.6733 22.2296 48.618V45.51Z" fill="black"/>
<path d="M21.9067 45.6765V48.7845C21.9067 49.0642 21.7125 49.1863 21.4715 49.0531C21.3429 48.97 21.2368 48.8594 21.1616 48.7302C21.0864 48.601 21.0442 48.4569 21.0386 48.3094V45.2014C21.0386 44.9217 21.2328 44.7996 21.4715 44.9306C21.6005 45.0139 21.7071 45.1248 21.7827 45.2544C21.8583 45.3839 21.9008 45.5285 21.9067 45.6765Z" fill="#307FB9"/>
<path opacity="0.4" d="M21.9067 45.6765V48.7845C21.9067 49.0642 21.7125 49.1863 21.4715 49.0531C21.3429 48.97 21.2368 48.8594 21.1616 48.7302C21.0864 48.601 21.0442 48.4569 21.0386 48.3094V45.2014C21.0386 44.9217 21.2328 44.7996 21.4715 44.9306C21.6005 45.0139 21.7071 45.1248 21.7827 45.2544C21.8583 45.3839 21.9008 45.5285 21.9067 45.6765Z" fill="black"/>
<path d="M29.9846 40.0022C30.0079 40.11 30.0392 40.216 30.0782 40.3196C30.2303 40.7104 30.5041 41.0789 30.4807 41.4962C30.455 41.9669 30.0642 42.331 29.7647 42.7061C29.3754 43.2022 29.116 43.7789 29.0078 44.3888C28.8996 44.9986 28.9456 45.6241 29.1422 46.2137C29.4299 46.9319 29.829 47.6053 30.3263 48.2117L31.4565 49.7324C31.7982 50.1582 32.2344 50.5076 32.7341 50.7559C33.7053 51.2766 34.7889 51.5803 35.9025 51.6439C37.7329 51.7611 39.5536 51.3082 41.0879 50.354C42.7142 49.3328 41.9982 46.7132 43.6619 45.7564C45.6743 44.602 46.6337 40.5927 44.1674 38.9188C44.1674 38.9188 44.5652 36.4635 43.8351 35.8375C43.1075 35.2599 42.2072 34.9135 41.2611 34.8473C39.9554 34.7186 38.6473 34.9606 37.3439 34.9561C36.0022 34.952 34.6616 35.0314 33.3308 35.1937C32.8628 35.2536 32.203 35.4157 31.9502 35.8486C31.8789 36.0183 31.8594 36.2038 31.8941 36.3836C31.8905 36.6688 31.783 36.9441 31.5899 37.1628C31.2997 37.4958 30.8879 37.72 30.579 38.033C30.3241 38.2941 30.1375 38.6083 30.0343 38.9504C29.931 39.2924 29.914 39.6527 29.9846 40.0022Z" fill="#263238"/>
<path d="M42.9717 43.5453C45.0777 43.6008 45.3515 44.027 47.2375 45.7986C48.8053 47.2705 54.0001 51.8192 54.0001 51.8192L60.2245 53.391L58.755 56.9941C58.755 56.9941 57.351 56.9386 54.543 56.9363C52.8184 56.9363 52.2194 56.57 50.4831 55.4711C49.5986 54.9095 44.6073 51.8104 44.6073 51.8104L42.9717 43.5453Z" fill="#E6E6E6"/>
<path d="M67.1111 46.105L55.7036 49.9189L52.5586 62.7949L52.8137 63.0524L63.6596 59.2141L67.3638 46.3625L67.1111 46.105Z" fill="#307FB9"/>
<path opacity="0.35" d="M55.9563 50.1764L52.8137 63.0524L52.5586 62.7949L55.7036 49.9189L55.9563 50.1764Z" fill="black"/>
<path opacity="0.25" d="M67.3636 46.3625L55.9561 50.1764L52.8135 63.0524L63.6594 59.2141L67.3636 46.3625Z" fill="black"/>
<g opacity="0.2">
<path d="M61.9629 56.5945C62.0682 56.8475 62.9434 57.4048 64.2093 57.3049L64.4222 56.5634L61.9629 56.5945Z" fill="black"/>
</g>
<g opacity="0.1">
<path d="M63.9289 48.9998L64.0225 48.5669C64.074 48.3294 63.4047 48.4537 62.5272 48.8467L60.468 49.4372C59.5905 49.8301 58.7622 50.1232 58.7083 50.3607L58.6147 50.7914L63.9289 48.9998Z" fill="black"/>
</g>
<path d="M64.6071 47.0462C64.6399 46.8975 64.3731 46.9286 64.0151 47.0196L63.3575 47.2305C63.3575 47.2305 63.6266 46.6045 62.0705 47.0085C60.36 47.4525 60.3226 48.2584 60.3226 48.2584C60.055 48.3684 59.7807 48.4633 59.5012 48.5425C58.9326 48.7179 58.8718 48.8222 58.825 48.9732L58.7407 49.2463L64.5556 47.306C64.5556 47.306 64.5837 47.195 64.6071 47.0462Z" fill="#37474F"/>
<path d="M63.9943 47.8743C63.4561 48.0963 63.2338 48.2184 63.1519 48.5869C63.0606 49.0065 63.0419 49.1819 63.0419 49.1819L60.0139 50.3141C60.0139 50.3141 60.1777 49.6947 60.2175 49.4882C60.2573 49.2818 59.8572 49.2818 59.333 49.5104L59.457 48.9954L64.1674 47.3371L63.9943 47.8743Z" fill="#37474F"/>
<path d="M64.0833 49.0065C64.0833 49.0065 64.1277 48.8134 64.1792 48.5736C64.2307 48.3338 63.5615 48.4604 62.684 48.8533L60.6248 49.4438C59.7473 49.8368 58.9166 50.1298 58.8651 50.3674L58.7715 50.8114L64.0833 49.0065Z" fill="#37474F"/>
<path d="M66.0953 50.767C66.0953 50.767 65.6905 52.1789 65.5828 52.543C65.4752 52.907 63.6079 53.7173 62.6742 53.8283C60.8865 54.0392 60.6829 54.4055 61.1111 55.6043C61.5089 56.7143 62.6719 57.1361 64.2865 56.9563C65.0446 56.872 66.0906 56.2348 66.5025 55.1226C67.0266 53.7018 66.7365 52.1855 66.9541 51.3486C67.1717 50.5117 66.5493 50.2719 66.0953 50.767Z" fill="#FFA8A7"/>
<path d="M48.4191 70.1831L47.2093 70.8491L46.7015 71.1266L40.0466 74.7696L39.1387 75.258L37.606 76.0972L38.074 71.5661L38.9678 62.7927V62.7017L39.01 62.3087L40.18 50.838L40.6924 45.8186L40.8726 44.0182L40.9334 43.4365H40.9662C41.5081 43.2935 42.081 43.2935 42.6229 43.4365C42.7437 43.4713 42.8612 43.5158 42.9739 43.5697C43.6759 43.9005 44.1439 44.5443 44.5324 45.2214C44.6278 45.3863 44.7138 45.556 44.7898 45.7298C45.0783 46.3878 45.3008 47.0701 45.4543 47.7677C45.7609 49.0553 46.1563 50.3718 46.3131 52.4475C46.3378 52.9818 46.308 53.5171 46.2242 54.0459C46.1187 55.4452 46.1008 56.8492 46.1704 58.2506C46.3669 61.4252 47.2093 62.8637 48.4191 70.1831Z" fill="#E0E0E0"/>
<path d="M46.7014 71.1221L40.0464 74.7652L39.1385 75.258L37.6058 76.0972L36.5505 76.6744L30.1436 80.182C30.2114 77.74 30.2418 75.0915 30.181 72.5896C30.1623 71.7526 30.1553 70.8979 30.1927 70.0232C30.3144 66.9863 30.9228 63.7295 33.1037 60.3019L33.2043 60.1287C33.4617 61.5784 35.8017 62.5196 37.9077 62.7416L38.1417 62.7616C38.4061 62.786 38.6799 62.7971 38.963 62.7971H39.1409C40.9216 62.7816 43.0299 62.3842 45.4589 61.605C45.6929 62.8926 45.9269 64.582 46.1772 66.5578C46.2896 67.4458 46.4034 68.3923 46.5189 69.3972C46.5657 69.9589 46.6382 70.5338 46.7014 71.1221Z" fill="#FFA8A7"/>
<path d="M47.2095 70.8446L46.7017 71.1221L40.0468 74.7652L39.1389 75.258L37.6062 76.0972L36.5508 76.6744L30.1439 80.182L29.4419 80.566C29.477 77.9375 29.5004 75.3623 29.4981 73.7462C29.4981 72.2432 29.5332 70.9068 29.6197 69.7213C29.7906 67.3814 30.1462 65.621 30.7406 64.289C31.438 62.8311 32.263 61.4313 33.207 60.1043C33.207 60.1043 33.792 61.978 38.1678 62.2732H38.1958C38.4532 62.291 38.7247 62.3021 39.0102 62.3065H39.3424C44.79 62.3065 45.3913 61.0034 45.3913 61.0034C45.9235 62.9196 46.3445 64.8621 46.6526 66.822C46.768 67.5146 46.8796 68.2546 46.9872 69.042C47.0668 69.6192 47.1417 70.2186 47.2095 70.8446Z" fill="#307FB9"/>
<path opacity="0.4" d="M47.2095 70.8446L46.7017 71.1221L40.0468 74.7652L39.1389 75.258L37.6062 76.0972L36.5508 76.6744L30.1439 80.182L29.4419 80.566C29.477 77.9375 29.5004 75.3623 29.4981 73.7462C29.4981 72.2432 29.5332 70.9068 29.6197 69.7213C29.7906 67.3814 30.1462 65.621 30.7406 64.289C31.438 62.8311 32.263 61.4313 33.207 60.1043C33.207 60.1043 33.792 61.978 38.1678 62.2732H38.1958C38.4532 62.291 38.7247 62.3021 39.0102 62.3065H39.3424C44.79 62.3065 45.3913 61.0034 45.3913 61.0034C45.9235 62.9196 46.3445 64.8621 46.6526 66.822C46.768 67.5146 46.8796 68.2546 46.9872 69.042C47.0668 69.6192 47.1417 70.2186 47.2095 70.8446Z" fill="black"/>
<path opacity="0.2" d="M44.0854 67.8987C44.0854 67.8987 43.477 69.7324 40.9171 70.7603L40.7954 71.3219L40.0466 74.7652L39.1387 75.258L39.6816 71.4596L39.9156 69.8079C41.4976 69.6522 42.9726 68.9769 44.0854 67.8987Z" fill="black"/>
<path d="M36.3003 43.9671L33.7263 44.2246C32.0228 44.6198 31.2529 45.3346 31.0774 46.7621C30.9955 47.4281 30.572 49.2041 31.1663 51.4241C31.7045 53.4398 33.1413 58.3727 33.1413 58.3727C33.1413 58.3727 29.8349 62.4664 29.2358 69.486C35.2871 73.2334 44.5699 71.2198 47.0807 68.9554C46.8701 66.8109 45.4263 60.9257 45.2461 59.0143C45.2461 59.0143 45.3795 56.0284 45.6299 54.7341C47.544 52.7516 47.3006 50.8558 46.4419 49.3262C44.8553 46.5023 42.4639 44.0204 41.6893 44.0226L36.3003 43.9671Z" fill="#307FB9"/>
<path opacity="0.7" d="M36.3003 43.9671L33.7263 44.2246C32.0228 44.6198 31.2529 45.3346 31.0774 46.7621C30.9955 47.4281 30.572 49.2041 31.1663 51.4241C31.7045 53.4398 33.1413 58.3727 33.1413 58.3727C33.1413 58.3727 29.8349 62.4664 29.2358 69.486C35.2871 73.2334 44.5699 71.2198 47.0807 68.9554C46.8701 66.8109 45.4263 60.9257 45.2461 59.0143C45.2461 59.0143 45.3795 56.0284 45.6299 54.7341C47.544 52.7516 47.3006 50.8558 46.4419 49.3262C44.8553 46.5023 42.4639 44.0204 41.6893 44.0226L36.3003 43.9671Z" fill="white"/>
<path d="M38.5303 59.2518C38.5303 59.2962 38.5303 59.3362 38.5303 59.3695V59.4272C38.5318 59.4457 38.5318 59.4642 38.5303 59.4827C38.4413 60.3707 38.336 61.3142 38.2237 62.2754C38.2237 62.2754 38.2237 62.2754 38.2237 62.2888C38.2073 62.4442 38.1886 62.5996 38.1699 62.7572C37.8259 65.6543 37.4164 68.7512 37.1005 71.5706C37.0233 72.2543 36.9531 72.9203 36.8899 73.5686C36.7916 74.5387 36.6863 75.6021 36.5787 76.6766L30.1718 80.1842L29.4698 80.5682L27.6797 81.5473C28.04 78.184 28.8801 70.3918 29.3481 66.8753C29.4019 66.4779 29.4721 66.0805 29.5517 65.6854L29.6149 65.3968L29.6429 65.2791C29.6734 65.1459 29.7038 65.0171 29.7365 64.8862C29.7693 64.7552 29.7997 64.6442 29.8301 64.5265C29.9027 64.2579 29.9799 63.9937 30.0641 63.7362C30.1039 63.6119 30.1414 63.4876 30.1835 63.3655C30.2256 63.2434 30.2607 63.1213 30.3028 63.0014C30.3871 62.7616 30.469 62.5263 30.5555 62.2976C30.5545 62.2933 30.5545 62.2887 30.5555 62.2843C30.5953 62.1755 30.6374 62.0623 30.6796 61.9602C30.7357 61.8092 30.7942 61.6627 30.8527 61.5162L30.9229 61.3408C30.958 61.2609 30.9884 61.1832 31.0212 61.1055C31.1359 60.8324 31.2552 60.5727 31.3605 60.3307C31.3839 60.2774 31.4096 60.2242 31.433 60.1731C31.4564 60.122 31.4939 60.0466 31.522 59.9844C31.5922 59.829 31.6624 59.6847 31.7302 59.5404C31.7583 59.4782 31.7887 59.4183 31.8168 59.3606C31.8449 59.3029 31.8847 59.2274 31.9151 59.1652L31.9595 59.0764L32.0063 58.9898C32.0094 58.9785 32.015 58.9679 32.0227 58.9588C32.0291 58.9426 32.0369 58.927 32.0461 58.9121C32.0518 58.9022 32.0565 58.8918 32.0602 58.8811C32.0796 58.8497 32.0968 58.817 32.1116 58.7834L32.2684 58.4948C32.2684 58.4792 32.2848 58.4681 32.2895 58.4548L32.3503 58.3483L30.4034 50.6893L29.4347 46.8842V46.822C29.4791 46.4846 29.7763 44.8928 31.4892 44.4089C32.4562 44.172 33.4468 44.0322 34.4446 43.9915C34.8284 43.9693 35.1747 43.9604 35.4578 43.9538H35.9048H36.1739C36.1745 43.9589 36.1745 43.9642 36.1739 43.9693C36.1879 44.0026 36.2277 44.1025 36.2885 44.2579C36.2951 44.2839 36.3045 44.3092 36.3166 44.3334C36.3169 44.3371 36.3169 44.3408 36.3166 44.3445C36.7378 45.4412 37.9195 48.6335 38.5069 51.4063C38.6098 51.8858 38.6941 52.3543 38.7549 52.7983C38.9304 54.1858 38.8017 56.5079 38.5303 59.2518Z" fill="#FAFAFA"/>
<path d="M32.4134 54.6808C32.4134 54.6808 32.6474 53.5864 32.9914 51.2221C33.3915 48.4959 33.2488 47.1484 32.8159 46.287L30.3753 50.7026L32.3222 58.3616C32.3222 58.3616 30.3215 61.8381 29.5142 65.6876C31.4283 60.5572 33.5226 59.0276 33.5226 59.0276L32.4134 54.6808Z" fill="#E6E6E6"/>
<path d="M40.9639 42.2577C41.722 42.2577 41.8109 42.3776 42.4638 43.2079C42.8522 43.7029 45.3116 47.5546 45.3116 47.5546C45.3116 47.5546 43.3553 45.1126 41.8788 44.3711C41.5946 44.2131 41.2869 44.0964 40.9662 44.0248L40.9639 42.2577Z" fill="#EBEBEB"/>
<path d="M35.3572 50.4428C35.3572 50.2208 35.3338 49.7413 35.294 49.1375C35.0998 46.176 35.0062 43.512 36.0592 43.29L36.1505 43.6985C35.3829 43.8561 35.6357 47.6678 35.7316 49.102C35.7737 49.7191 35.8065 50.212 35.7948 50.4517L35.3572 50.4428Z" fill="#307FB9"/>
<path d="M31.8472 31.0534L33.4852 32.3254C33.5742 32.2287 33.6415 32.1158 33.683 31.9936C33.7244 31.8713 33.7391 31.7424 33.7262 31.6145C33.7133 31.4867 33.673 31.3628 33.6078 31.2502C33.5426 31.1377 33.4539 31.039 33.3471 30.9601C33.1318 30.7912 32.8565 30.7067 32.5776 30.724C32.2988 30.7414 32.0374 30.8592 31.8472 31.0534Z" fill="#263238"/>
<path d="M36.1246 42.4464C36.1246 41.4718 33.7308 40.0044 32.4953 37.9553C31.2597 35.9063 31.8775 32.5363 33.5717 32.0191C33.5857 32.0191 33.6325 31.5862 33.6395 31.5551C33.7332 31.1641 33.8911 30.7895 34.1075 30.4451C34.7978 29.3173 36.2603 28.4471 37.6175 28.265C42.9831 27.5236 45.4495 29.5016 46.4347 31.6772C46.754 32.409 46.8963 33.1995 46.8512 33.9904C46.8236 34.5713 46.5964 35.1277 46.2043 35.5746C45.8122 36.0216 45.2768 36.3345 44.6797 36.4657L36.1246 42.4464Z" fill="#263238"/>
<path d="M43.5681 30.949C44.6187 31.393 45.6179 32.9093 45.6015 37.1761C45.5875 40.7947 44.4175 41.7094 43.8278 41.978C43.2381 42.2466 42.0845 42.109 40.9637 41.9469V44.0248C40.9637 44.0248 41.8037 44.8085 41.5089 45.3013C41.214 45.7942 40.1259 46.2115 38.4341 45.7076C36.5177 45.137 36.0801 43.9316 36.0801 43.9316L36.0356 39.3717C36.0356 39.3717 35.3921 40.0133 34.2572 39.072C33.3212 38.2928 32.9843 36.9586 33.6886 36.226C34.3929 35.4934 35.2962 35.4356 36.1105 36.2548L36.6955 35.9618C37.7391 35.8463 39.2695 35.6798 40.3974 35.1404C43.2896 33.744 43.5891 32.23 43.5681 30.949Z" fill="#FFA8A7"/>
<path d="M36.127 35.6643L36.141 37.6623C36.2762 37.6657 36.4108 37.6428 36.5364 37.5951C36.662 37.5473 36.7759 37.4757 36.8713 37.3846C36.9666 37.2936 37.0413 37.185 37.0908 37.0655C37.1402 36.946 37.1634 36.8182 37.1589 36.6899C37.1564 36.4266 37.0483 36.1741 36.8566 35.9836C36.665 35.7931 36.4041 35.6789 36.127 35.6643Z" fill="#263238"/>
<path d="M43.6665 35.9485C43.6675 36.0423 43.6975 36.1339 43.7528 36.2117C43.8081 36.2896 43.8863 36.3503 43.9776 36.3864C44.069 36.4225 44.1695 36.4323 44.2667 36.4147C44.3639 36.3971 44.4535 36.3528 44.5244 36.2873C44.5953 36.2219 44.6444 36.1381 44.6656 36.0464C44.6868 35.9547 44.6792 35.8591 44.6436 35.7715C44.6081 35.6839 44.5462 35.6081 44.4657 35.5535C44.3852 35.4989 44.2896 35.468 44.1907 35.4645C44.1226 35.463 44.0549 35.4744 43.9915 35.4981C43.9281 35.5217 43.8703 35.5571 43.8215 35.6021C43.7727 35.6472 43.7339 35.701 43.7073 35.7605C43.6807 35.82 43.6668 35.8839 43.6665 35.9485Z" fill="black"/>
<path d="M39.6303 36.1616C39.6262 36.2304 39.6364 36.2993 39.6604 36.3644C39.6845 36.4294 39.7218 36.4894 39.7703 36.5407C39.8187 36.5921 39.8774 36.6338 39.9429 36.6636C40.0085 36.6934 40.0795 36.7107 40.1521 36.7144C40.2257 36.715 40.2988 36.7017 40.367 36.6755C40.4353 36.6492 40.4974 36.6104 40.5498 36.5613C40.6022 36.5122 40.6438 36.4538 40.6724 36.3894C40.7009 36.325 40.7157 36.2559 40.716 36.186C40.7183 36.1184 40.7066 36.051 40.6814 35.9876C40.6563 35.9243 40.6182 35.8663 40.5694 35.8169C40.5207 35.7676 40.4621 35.7278 40.3971 35.6999C40.3321 35.672 40.262 35.6565 40.1907 35.6543C40.1194 35.6521 40.0484 35.6633 39.9816 35.6871C39.9149 35.711 39.8537 35.7471 39.8017 35.7934C39.7497 35.8397 39.7077 35.8952 39.6783 35.9569C39.6489 36.0185 39.6326 36.0851 39.6303 36.1527V36.1616Z" fill="black"/>
<path d="M45.005 35.0538L43.7017 34.5632C43.7318 34.48 43.7797 34.4036 43.8424 34.3388C43.9051 34.274 43.9812 34.2221 44.066 34.1865C44.1508 34.1508 44.2424 34.1322 44.3351 34.1317C44.4279 34.1312 44.5197 34.1488 44.6049 34.1836C44.7766 34.2521 44.914 34.3807 44.9885 34.5427C45.063 34.7047 45.0689 34.8877 45.005 35.0538Z" fill="black"/>
<path d="M42.4312 35.5577L42.3657 38.5192L44.0435 38.1662L42.4312 35.5577Z" fill="#F28F8F"/>
<path d="M40.4537 39.1231L42.0917 39.6048C42.0678 39.7107 42.0213 39.8109 41.955 39.8991C41.8886 39.9872 41.8039 40.0615 41.706 40.1173C41.6082 40.1731 41.4993 40.2092 41.3861 40.2234C41.2729 40.2376 41.1578 40.2295 41.048 40.1998C40.8232 40.1256 40.6367 39.973 40.5263 39.773C40.4159 39.573 40.3899 39.3406 40.4537 39.1231Z" fill="#B16668"/>
<path d="M41.3595 40.2264C41.3577 40.0103 41.2659 39.8036 41.1042 39.6515C40.9424 39.4993 40.7239 39.4139 40.4961 39.4139C40.4735 39.4128 40.4508 39.4128 40.4282 39.4139C40.4366 39.5873 40.4998 39.7544 40.6095 39.8933C40.7193 40.0323 40.8705 40.1367 41.0436 40.1931C41.1454 40.2249 41.2529 40.2363 41.3595 40.2264Z" fill="#F28F8F"/>
<path d="M40.9638 41.958C39.7821 41.8248 37.3461 41.181 36.9507 40.2419C37.1091 40.7133 37.4132 41.1287 37.8235 41.4341C38.5583 42.0335 40.9638 42.6573 40.9638 42.6573V41.958Z" fill="#F28F8F"/>
<path d="M36.0685 42.2688C35.7596 42.2089 35.4858 42.3376 35.2331 42.7417C34.9804 43.1457 34.4258 44.0071 34.4258 44.0071C34.4258 44.0071 34.138 46.8464 34.4258 47.5591C34.6738 48.1718 37.4093 50.4695 37.4093 50.4695C37.4093 50.4695 36.6956 53.0203 36.6698 53.8572C36.6441 54.6941 38.3078 57.871 38.5091 59.496C38.5091 59.496 39.1011 54.39 38.846 52.5496C38.4061 49.3595 36.829 45.2392 36.0848 43.9294L36.0685 42.2688Z" fill="#EBEBEB"/>
<path d="M37.7416 52.836C37.559 52.4238 37.3439 52.0253 37.0981 51.6439C36.7096 51.0334 36.23 50.4473 35.7971 50.2963C35.7314 50.2716 35.6617 50.2581 35.5911 50.2564H35.5677C35.4965 50.2602 35.4266 50.2768 35.3618 50.3052C35.0202 50.4495 34.6598 50.8913 34.3673 51.3997C34.0678 51.9102 33.8209 52.4469 33.6302 53.0025C33.5179 53.3466 33.567 54.077 33.7004 54.9117C33.9625 56.5323 34.5452 58.5569 34.8704 58.9565C35.1088 59.2357 35.3905 59.479 35.7058 59.678C35.5127 59.7992 35.3044 59.8969 35.0857 59.9689C34.962 60.0117 34.8313 60.0335 34.6996 60.0332V60.3241H34.737C34.8761 60.322 35.0141 60.3003 35.1465 60.2597C35.4532 60.1653 35.7429 60.0268 36.0053 59.849C36.2823 60.0055 36.583 60.1208 36.8968 60.1909C37.0446 60.2245 37.1974 60.2335 37.3485 60.2175L37.311 59.9289C37.18 59.9394 37.048 59.9297 36.9203 59.9C36.6951 59.8443 36.4782 59.7623 36.2744 59.6558C36.5714 59.4316 36.8316 59.1667 37.0466 58.87C37.2291 58.6058 37.4538 57.6956 37.6223 56.65C37.7252 56.0261 37.8095 55.3557 37.8563 54.7452C37.9077 53.8927 37.8843 53.1623 37.7416 52.836ZM36.7752 58.7101C36.5556 59.0106 36.2861 59.2752 35.9772 59.4938C35.6491 59.3015 35.3565 59.0593 35.1114 58.7767C34.8072 58.4015 34.2456 56.4257 33.9929 54.8673C33.8642 54.0792 33.8174 53.3977 33.9204 53.0913C34.1112 52.529 34.3637 51.9873 34.6738 51.4751C34.9968 50.9468 35.3408 50.5583 35.5794 50.5494C35.8626 50.5494 36.3212 51.0356 36.7494 51.6594C36.836 51.7815 36.9179 51.9147 36.9975 52.0479C37.172 52.3348 37.3283 52.6313 37.4655 52.9359C37.5942 53.2378 37.6082 53.9194 37.5497 54.7119C37.517 55.1559 37.4655 55.6199 37.4 56.0816C37.2221 57.2871 36.9717 58.4171 36.7752 58.7035V58.7101Z" fill="#455A64"/>
<path d="M37.7676 60.0466C37.7713 60.1313 37.7483 60.2151 37.7017 60.2875C37.6551 60.3599 37.5868 60.4175 37.5057 60.453C37.4245 60.4886 37.3341 60.5005 37.2458 60.4872C37.1575 60.474 37.0753 60.4361 37.0097 60.3786C36.9441 60.321 36.8979 60.2462 36.8771 60.1637C36.8563 60.0812 36.8618 59.9947 36.8929 59.9152C36.9239 59.8357 36.9791 59.7667 37.0515 59.717C37.1239 59.6672 37.2103 59.639 37.2996 59.6359C37.419 59.6316 37.5353 59.6725 37.623 59.7495C37.7108 59.8265 37.7627 59.9333 37.7676 60.0466Z" fill="#263238"/>
<path d="M35.1445 60.162C35.1486 60.2468 35.126 60.3309 35.0797 60.4035C35.0334 60.4761 34.9653 60.5341 34.8842 60.57C34.8031 60.6059 34.7126 60.6181 34.6242 60.6051C34.5358 60.5921 34.4534 60.5545 34.3875 60.497C34.3217 60.4395 34.2753 60.3648 34.2543 60.2822C34.2333 60.1997 34.2386 60.1131 34.2696 60.0335C34.3005 59.9538 34.3557 59.8847 34.4282 59.8348C34.5006 59.785 34.587 59.7567 34.6765 59.7535C34.7355 59.7511 34.7944 59.7598 34.8499 59.7791C34.9053 59.7983 34.9563 59.8278 34.9997 59.8657C35.0432 59.9036 35.0784 59.9493 35.1032 60.0002C35.128 60.051 35.1421 60.106 35.1445 60.162Z" fill="#263238"/>
<path d="M37.8187 54.7408L37.559 54.723C37.5325 54.7207 37.508 54.7088 37.4905 54.6898C37.4731 54.6708 37.4641 54.6461 37.4654 54.6209C37.5192 53.8061 37.4911 53.2067 37.3858 52.967C36.9319 51.9147 35.9818 50.596 35.5817 50.6116C35.1815 50.6271 34.3532 52.019 33.9928 53.1024C33.9109 53.351 33.9366 53.9504 34.0607 54.7585C34.0647 54.7832 34.0585 54.8084 34.0431 54.8288C34.0278 54.8491 34.0047 54.863 33.9788 54.8673L33.7214 54.905C33.6944 54.9082 33.6672 54.9011 33.6457 54.8853C33.6242 54.8695 33.6102 54.8463 33.6067 54.8207C33.464 53.9149 33.4476 53.2933 33.5552 52.9714C33.7471 52.3898 34.6527 50.212 35.5629 50.1764C36.4732 50.1409 37.5707 52.2366 37.814 52.8027C37.9474 53.1135 37.9872 53.7351 37.9264 54.6475C37.9245 54.6732 37.9123 54.6973 37.8923 54.7147C37.8722 54.732 37.8459 54.7414 37.8187 54.7408Z" fill="#307FB9"/>
<path d="M32.2076 44.38C30.4947 44.3534 29.7038 44.9017 28.618 46.2803C27.7569 47.3748 24.406 53.2889 23.2945 55.016L17.2433 51.948C16.0195 51.1466 15.624 49.8812 14.8495 49.1419C14.0749 48.4027 13.2723 48.2539 12.4206 47.6434C11.5688 47.0329 11.2225 46.5578 10.9768 47.1284C10.7311 47.6989 11.6788 48.6224 11.859 48.8511C12.0391 49.0798 12.9892 49.5881 11.756 49.6059C10.5228 49.6237 8.08221 48.4115 7.48785 48.1962C6.89349 47.9809 6.92859 48.6535 7.22109 49.0842C7.51359 49.5149 7.49955 50.7314 7.99329 51.4352C8.51511 52.1811 8.80059 52.5052 9.96357 52.9892C11.0446 53.4332 13.3144 53.6108 14.4634 54.2923C15.6123 54.9739 18.4601 57.3759 20.1917 58.8167C22.3936 60.6482 23.9123 60.9834 25.1385 59.8845C26.3295 58.7012 27.537 57.3137 28.1266 56.61C29.7155 54.7119 32.2287 50.394 32.2287 50.394C32.2287 50.394 33.3168 48.174 32.2076 44.38Z" fill="#FFA8A7"/>
<path d="M32.444 44.218C29.9214 44.218 29.168 45.0838 27.8763 47.084C26.5846 49.0842 23.2712 54.8096 23.2712 54.8096L18.4999 52.4386C18.4999 52.4386 17.6411 54.2324 16.7285 56.0816C16.7285 56.0816 19.4289 58.3016 20.7065 59.3517C21.9842 60.4018 23.6783 61.2254 25.2485 59.94C26.9262 58.568 32.3667 51.4396 32.3667 51.4396C33.6584 49.2152 33.3706 45.843 32.444 44.218Z" fill="#F0F0F0"/>
<path d="M23.271 54.8096C24.0502 55.6798 24.9932 56.6588 24.9511 57.4292C24.9511 57.4292 25.4846 56.7454 23.6103 54.2257L23.271 54.8096Z" fill="#E0E0E0"/>
<path d="M14.2458 33.4598L12.2943 34.521L12.3013 32.3942L10.8411 31.595L7.43644 33.4598V37.1894L4.03174 39.0542V42.7838L5.4919 43.583L7.43644 42.5174V44.6509L8.8966 45.4501L12.3013 43.583V39.8534L15.706 37.9886V34.259L14.2458 33.4598Z" fill="#307FB9"/>
<path d="M5.4917 39.8534V43.583L8.8964 41.7182V45.4501L12.3011 43.583V39.8534L15.7058 37.9886V34.259L12.2894 36.1305L12.3011 32.3942L8.8964 34.259V37.9886L5.4917 39.8534Z" fill="#307FB9"/>
<g opacity="0.2">
<path d="M5.4919 43.583L4.03174 42.7838V39.0542L5.4919 39.8534V43.583Z" fill="black"/>
<path d="M8.89668 34.259L7.43652 33.4598V37.1894L8.89668 37.9886V34.259Z" fill="black"/>
<path d="M8.89668 45.4501L7.43652 44.6509V42.5174L8.89668 41.7182V45.4501Z" fill="black"/>
</g>
<g opacity="0.5">
<path d="M8.8966 37.9886L7.43644 37.1894L4.03174 39.0542L5.4919 39.8534L8.8966 37.9886Z" fill="white"/>
<path d="M12.3014 32.3942L10.8412 31.595L7.43652 33.4598L8.89668 34.259L12.3014 32.3942Z" fill="white"/>
<path d="M15.706 34.259L14.2458 33.4598L12.2942 34.521L12.2896 36.1305L15.706 34.259Z" fill="white"/>
</g>
<path d="M70.2468 25.974C70.185 25.9232 70.1185 25.8779 70.0479 25.8386C69.7999 25.6987 68.6767 25.086 68.6182 25.0527C68.0238 24.6931 67.0832 24.773 66.2454 25.1748C65.045 25.7498 64.0458 26.9641 63.283 28.9865C63.283 28.9865 62.5108 28.4604 62.2604 28.3205C61.6403 27.9986 60.9149 28.154 60.0983 28.658C59.1786 29.2263 58.5515 29.9633 57.9782 31.0778V31.0978C57.4814 32.044 57.2098 33.0823 57.1826 34.1392C57.1826 36.4768 58.1912 37.5913 59.5039 38.4282C59.8783 38.668 60.8681 39.1719 60.9664 39.2341C61.7586 39.7303 62.6348 40.0938 63.5568 40.3085L64.8508 40.5949L66.1448 38.8922C67.0869 37.6367 67.9518 36.3306 68.7352 34.9805C70.0479 32.705 71.0752 30.4762 71.0565 28.1474C71.0378 27.1506 70.7359 26.418 70.2468 25.974Z" fill="#307FB9"/>
<path opacity="0.3" d="M70.2468 25.974C70.185 25.9232 70.1185 25.8779 70.0479 25.8386C69.7999 25.6987 68.6767 25.086 68.6182 25.0527C68.0238 24.6931 67.0832 24.773 66.2454 25.1748C65.045 25.7498 64.0458 26.9641 63.283 28.9865C63.283 28.9865 62.5108 28.4604 62.2604 28.3205C61.6403 27.9986 60.9149 28.154 60.0983 28.658C59.1786 29.2263 58.5515 29.9633 57.9782 31.0778V31.0978C57.4814 32.044 57.2098 33.0823 57.1826 34.1392C57.1826 36.4768 58.1912 37.5913 59.5039 38.4282C59.8783 38.668 60.8681 39.1719 60.9664 39.2341C61.7586 39.7303 62.6348 40.0938 63.5568 40.3085L64.8508 40.5949L66.1448 38.8922C67.0869 37.6367 67.9518 36.3306 68.7352 34.9805C70.0479 32.705 71.0752 30.4762 71.0565 28.1474C71.0378 27.1506 70.7359 26.418 70.2468 25.974Z" fill="black"/>
<path d="M70.247 25.974C70.1852 25.9232 70.1186 25.8779 70.0481 25.8386C69.8001 25.6987 68.6769 25.086 68.6184 25.0527C68.024 24.6931 67.0833 24.773 66.2456 25.1748C65.0452 25.7498 64.046 26.9641 63.2832 28.9865C63.2832 28.9865 62.511 28.4604 62.2606 28.3205C61.6405 27.9986 60.9151 28.154 60.0984 28.658C59.1788 29.2263 58.5517 29.9633 57.9784 31.0778V31.0978C57.9527 31.1466 57.9316 31.1954 57.9082 31.2443L67.7362 36.6211C68.0849 36.0839 68.4242 35.54 68.7471 34.9805C70.0598 32.705 71.0871 30.4762 71.0684 28.1474C71.0379 27.1506 70.7361 26.418 70.247 25.974Z" fill="#307FB9"/>
<path opacity="0.15" d="M70.247 25.974C70.1852 25.9232 70.1186 25.8779 70.0481 25.8386C69.8001 25.6987 68.6769 25.086 68.6184 25.0527C68.024 24.6931 67.0833 24.773 66.2456 25.1748C65.0452 25.7498 64.046 26.9641 63.2832 28.9865C63.2832 28.9865 62.511 28.4604 62.2606 28.3205C61.6405 27.9986 60.9151 28.154 60.0984 28.658C59.1788 29.2263 58.5517 29.9633 57.9784 31.0778V31.0978C57.9527 31.1466 57.9316 31.1954 57.9082 31.2443L67.7362 36.6211C68.0849 36.0839 68.4242 35.54 68.7471 34.9805C70.0598 32.705 71.0871 30.4762 71.0684 28.1474C71.0379 27.1506 70.7361 26.418 70.247 25.974Z" fill="black"/>
<path d="M63.2759 28.9777L64.591 30.6049L66.711 28.2251L64.3148 26.9131C63.8881 27.5622 63.5396 28.2547 63.2759 28.9777Z" fill="#307FB9"/>
<path opacity="0.3" d="M63.2759 28.9777L64.591 30.6049L66.711 28.2251L64.3148 26.9131C63.8881 27.5622 63.5396 28.2547 63.2759 28.9777Z" fill="black"/>
<path d="M70.2469 25.974C69.6736 25.4878 68.63 25.53 67.708 25.974C66.4514 26.5778 65.4125 27.881 64.6356 30.0877C63.8587 28.7335 62.8198 28.6913 61.5632 29.4661C60.6412 30.0344 60.0141 30.7714 59.4431 31.8859L59.4314 31.9058C58.9364 32.8534 58.6657 33.8922 58.6382 34.9495C58.6382 37.2871 59.6491 38.4016 60.9595 39.2385C61.7517 39.7348 62.6279 40.0982 63.5498 40.313L64.8439 40.5994L66.1379 38.8966C67.08 37.6411 67.9449 36.3351 68.7283 34.985C70.041 32.7095 71.0683 30.4806 71.0495 28.1518C71.0378 27.1506 70.736 26.418 70.2469 25.974Z" fill="#307FB9"/>
<g opacity="0.07">
<path d="M69.1423 25.752C69.5031 25.7363 69.8577 25.8443 70.1415 26.0561C70.1464 26.0657 70.1536 26.0741 70.1626 26.0806C70.6446 26.4979 70.9137 27.2394 70.916 28.1629C70.916 30.5938 69.746 32.9537 68.6111 34.9384C67.8336 36.2841 66.9741 37.5857 66.0371 38.8367L64.7946 40.4773L63.5848 40.2086C62.6766 39.997 61.8132 39.6396 61.0319 39.1519C59.8619 38.3971 58.7574 37.3759 58.7668 34.9606C58.7916 33.9219 59.0543 32.9008 59.5366 31.968V31.948C60.1123 30.8269 60.7324 30.1187 61.6122 29.5771C62.0209 29.2895 62.5084 29.1199 63.0162 29.0887C63.6106 29.0887 64.0996 29.4372 64.5115 30.1543C64.5217 30.1735 64.5374 30.1895 64.5569 30.2005C64.5764 30.2115 64.5988 30.217 64.6214 30.2164H64.6331C64.6573 30.2143 64.6803 30.2056 64.6993 30.1915C64.7184 30.1773 64.7328 30.1582 64.7408 30.1365C65.4826 28.0297 66.4677 26.7066 67.75 26.0917C68.1781 25.8789 68.6522 25.7627 69.1353 25.752M69.1353 25.6343C68.6327 25.6442 68.1394 25.7642 67.6939 25.9851C66.4373 26.5889 65.3983 27.8921 64.6214 30.0988C64.1722 29.3129 63.634 28.9688 63.0162 28.9688C62.486 29.0019 61.9769 29.1783 61.549 29.4772C60.6271 30.0455 59.9999 30.7825 59.429 31.897L59.4173 31.9169C58.9223 32.8645 58.6515 33.9033 58.624 34.9606C58.624 37.2982 59.6349 38.4127 60.9453 39.2496C61.7375 39.7459 62.6137 40.1093 63.5357 40.3241L64.8297 40.6105L66.1237 38.9077C67.0658 37.6522 67.9307 36.3462 68.7141 34.9961C70.0268 32.7206 71.0541 30.4917 71.0354 28.1629C71.0354 27.1617 70.7288 26.418 70.2398 25.9918C69.9309 25.7531 69.5403 25.6306 69.1423 25.6477L69.1353 25.6343Z" fill="black"/>
</g>
<path d="M70.1039 32.2677L67.5861 33.6485L66.6501 30.4184C66.6368 30.3696 66.6064 30.3265 66.5639 30.2962C66.5213 30.266 66.4692 30.2503 66.4161 30.2519C66.3613 30.2509 66.3079 30.2681 66.2652 30.3005C66.2224 30.333 66.193 30.3786 66.1821 30.4295L64.7242 36.7477L63.4981 33.5642C63.4956 33.5053 63.4686 33.4498 63.4229 33.4098C63.3773 33.3698 63.3168 33.3487 63.2547 33.3511C63.1927 33.3534 63.1341 33.3791 63.092 33.4224C63.0499 33.4657 63.0276 33.5231 63.0301 33.5819L62.2017 36.3725L59.4312 37.891C59.5223 38.0167 59.6207 38.1375 59.726 38.2528L62.534 36.7188C62.5883 36.6889 62.6285 36.6405 62.6463 36.5834L63.2992 34.3811L64.5558 37.6357C64.5724 37.6812 64.6043 37.7203 64.6465 37.7472C64.6887 37.774 64.739 37.7871 64.7898 37.7844C64.8417 37.7819 64.8912 37.7631 64.9306 37.731C64.97 37.6988 64.997 37.6551 65.0074 37.6068L66.4348 31.4308L67.1883 34.0526C67.1972 34.0863 67.2144 34.1176 67.2384 34.1438C67.2624 34.1701 67.2926 34.1907 67.3265 34.2039C67.3604 34.217 67.3972 34.2225 67.4337 34.2197C67.4703 34.217 67.5056 34.2061 67.5369 34.188L69.774 32.9648C69.9027 32.7317 70.0056 32.5008 70.1039 32.2677Z" fill="white"/>
<path d="M80.6717 91.6394C80.5758 91.9403 80.5677 92.2602 80.6483 92.5651C80.7419 92.7516 81.3269 93.3643 82.5203 93.5863C83.7137 93.8083 85.354 93.5863 86.0607 93.5464C86.7674 93.5064 88.9857 93.7684 89.69 93.8527C90.7992 93.9948 91.6509 93.7639 92.0651 93.3843C92.1322 93.308 92.1816 93.2191 92.2103 93.1235C92.2389 93.0279 92.246 92.9277 92.2313 92.8293C92.2288 92.576 92.1895 92.3242 92.1143 92.0812L80.6717 91.6394Z" fill="#263238"/>
<path d="M91.9315 90.98C91.9526 91.0666 91.9736 91.1554 91.9923 91.2442C92.1003 91.6909 92.1343 92.1507 92.093 92.6073C91.9502 92.9403 91.5594 93.1246 91.2435 93.2178C90.4082 93.4709 89.774 93.4398 88.8497 93.2644C87.9201 93.1359 86.9809 93.081 86.0417 93.1001C85.314 93.1468 84.3125 93.28 83.5847 93.2156C82.9659 93.1911 82.3552 93.0727 81.7759 92.8648C81.2915 92.6695 80.7954 92.4208 80.6761 91.9413C80.5334 90.9423 80.9756 90.5027 81.474 90.223C81.9725 89.9433 82.6815 89.9655 83.4396 89.9189C84.1253 89.8745 84.626 89.8745 85.2368 89.8301C85.7648 89.8057 86.2895 89.7366 86.8046 89.6236C87.2726 89.486 87.7406 88.9288 87.9324 88.9088C87.9324 88.9088 90.9861 88.8866 91.2763 88.9088C91.6133 88.9354 91.7162 89.9255 91.7583 90.1409C91.7911 90.3096 91.7981 90.4916 91.8449 90.6537C91.8753 90.7625 91.9034 90.8713 91.9315 90.98Z" fill="#37474F"/>
<path d="M82.5226 93.0824C82.4267 92.3631 82.2886 90.8047 83.6926 89.9033H83.8681C83.2376 89.7302 82.5682 89.7302 81.9376 89.9033C80.8215 90.1853 80.3254 91.0422 80.6038 91.948C80.6085 91.9391 80.8566 92.816 82.5226 93.0824Z" fill="#FAFAFA"/>
<path d="M86.5963 89.6747C86.1447 90.0543 85.9879 90.9179 85.9879 90.9179C85.9294 91.242 85.3116 91.2908 85.3701 90.9778C85.4644 90.5475 85.6465 90.1387 85.906 89.7746C86.1177 89.6686 86.3609 89.6334 86.5963 89.6747Z" fill="#FAFAFA"/>
<path d="M85.3304 89.8234C84.9899 90.1398 84.7672 90.5528 84.6963 91C84.6331 91.3108 84.1183 91.3064 84.1558 91C84.1558 91 84.2143 90.2341 84.6963 89.8767C84.7897 89.82 84.8961 89.7856 85.0065 89.7763C85.1169 89.767 85.228 89.7832 85.3304 89.8234Z" fill="#FAFAFA"/>
<path d="M91.37 86.802C91.37 86.802 91.2881 88.6646 91.1805 89.2751C91.1149 89.6392 90.6118 90.021 89.3599 89.9811C88.4801 89.9522 87.7875 90.021 87.8226 89.3683L87.8998 87.4658L91.37 86.802Z" fill="#FFA8A7"/>
<path d="M93.3332 82.402C93.2887 82.9103 93.2162 83.3699 93.4361 83.9293C93.7497 84.733 94.4143 85.1015 94.805 85.4167C95.2161 85.8031 95.5955 86.2187 95.9399 86.6599C96.3237 87.1039 96.4243 87.3681 97 87.8521C97.2868 88.0616 97.6261 88.1969 97.9845 88.2447C98.343 88.2926 98.7084 88.2514 99.0451 88.1251C99.5435 87.9231 99.7167 87.7633 99.6863 87.0373C99.6559 86.3114 97.2176 86.065 97.2176 86.065L93.3332 82.402Z" fill="#263238"/>
<path d="M99.3704 84.875C99.5787 84.9461 99.6302 85.3035 99.6629 86.0139C99.6863 86.5511 99.9367 87.3459 99.1154 87.6767C98.4531 87.9497 97.3955 87.7677 96.9485 87.2615C96.3916 86.6288 96.0125 86.0716 95.2169 85.3013C94.5149 84.6353 93.8129 84.4133 93.5017 83.0702C93.3028 82.2088 93.4596 81.8536 94.1007 81.6072C94.9829 81.2675 96.3659 82.3753 97.0585 82.5507C97.6529 82.6994 99.1622 84.804 99.3704 84.875Z" fill="#37474F"/>
<path d="M97.0585 82.5507L96.9415 82.513C96.547 82.5269 96.1631 82.6386 95.8282 82.8368C95.4932 83.035 95.2187 83.3129 95.032 83.6429C94.915 83.876 95.266 84.0581 95.5 83.876C95.9914 82.988 97.0023 82.7971 97.4071 82.7549C97.3075 82.6642 97.1886 82.5945 97.0585 82.5507Z" fill="#FAFAFA"/>
<path d="M97.6275 82.9547C97.2571 82.9877 96.9011 83.1073 96.5915 83.303C96.2819 83.4987 96.0284 83.7642 95.8537 84.0758C95.7367 84.2978 96.0994 84.491 96.3217 84.2978C96.4888 84.02 96.7177 83.7802 96.9925 83.595C97.2673 83.4098 97.5815 83.2837 97.9129 83.2256C97.8123 83.1368 97.7187 83.0413 97.6275 82.9547Z" fill="#FAFAFA"/>
<path d="M99.4898 83.5919L99.3704 85.0904C99.3704 85.0904 98.3666 85.7852 96.9275 85.1481C96.8854 85.066 96.7637 83.7251 96.7637 83.7251L99.4898 83.5919Z" fill="#FFA8A7"/>
<path d="M93.9067 84.0581C93.9067 84.0581 93.9745 82.4663 96.359 82.2466L96.497 82.3154C96.2257 81.9163 95.8094 81.6255 95.327 81.4984C94.5361 81.3053 93.909 81.4984 93.4925 81.9735C93.076 82.4486 93.4948 83.7495 93.9067 84.0581Z" fill="#FAFAFA"/>
<path d="M100.185 73.6108C99.8431 70.9889 99.7167 69.5282 99.7167 69.5282C99.7167 69.5282 99.6489 65.8363 99.8852 62.4242C99.9882 60.9279 100.042 59.2718 100.075 57.7622C100.118 56.0998 99.9788 54.4376 99.6582 52.8027C99.6582 52.8027 87.4224 50.4939 87.2703 54.7519C87.0854 59.8579 87.1088 68.5847 86.9006 71.9169C86.7859 73.7884 86.9848 75.3401 87.1088 78.9765C87.2094 81.9913 87.179 89.4105 87.179 89.4105C88.5269 91.1665 91.7093 89.8279 91.7093 89.8279C91.7093 89.8279 92.6921 79.4094 92.8371 77.256C92.9916 74.9405 92.7342 73.7684 92.7342 73.7684L93.9954 62.9814C93.9954 62.9814 94.0914 66.4424 94.199 68.3094C94.3067 70.1764 94.5945 71.3242 95.1069 74.8073C95.5515 77.831 96.4969 85.5477 96.4969 85.5477C98.1349 86.4668 99.7167 85.5477 99.7167 85.5477C99.7167 85.5477 100.526 76.2326 100.185 73.6108Z" fill="#455A64"/>
<path d="M98.5143 58.7123C98.5143 58.7123 96.9816 60.5683 95.0043 61.3652C95.0043 61.3652 94.1479 67.8898 94.1549 67.7611L93.9326 61.1943C93.9326 61.1943 96.8763 59.96 98.5143 58.7123Z" fill="#37474F"/>
<path d="M98.472 37.74C99.7894 37.4603 101.28 38.3527 102.272 40.3441C103.232 42.2488 105.852 47.0596 105.916 48.4071C105.983 49.8035 99.436 54.0392 99.5975 53.9571C99.649 53.9327 98.4673 50.7536 98.4673 50.7536L101.647 48.2561L99.9181 44.8773L98.472 37.74Z" fill="#FFA8A7"/>
<path d="M97.7793 37.4403C98.8885 37.3115 100.899 37.7089 101.666 38.9743C102.78 40.8058 103.795 42.9237 105.089 45.661C105.089 45.661 104.13 47.6323 101.369 47.8188L99.7145 45.066L97.7793 37.4403Z" fill="#37474F"/>
<path d="M92.1963 35.7908L92.3882 39.6758L96.4457 39.4694L96.3217 34.9561L92.1963 35.7908Z" fill="#FFA8A7"/>
<path d="M100.431 39.3961C100.089 38.3372 98.9097 37.4647 97.4192 37.4225C97.0869 37.4225 96.3896 37.4225 96.3896 37.4225C96.2211 38.0774 94.1081 38.3105 92.3016 37.9176C91.7564 38.0552 89.4936 38.5836 89.0256 38.7168C87.7269 39.1253 87.3267 40.3818 87.1255 44.4C87.1255 44.4 87.1653 52.321 87.1255 56.1016C89.4093 57.2449 92.9381 57.1028 95.4489 56.8609C99.3941 56.4835 99.9814 55.127 99.9814 55.127C99.8153 52.9226 99.9159 52.0923 99.9814 49.9167C100.031 48.2806 100.527 46.5512 100.683 44.6975C100.915 41.9425 100.662 40.1243 100.431 39.3961Z" fill="#307FB9"/>
<path d="M91.5622 36.5279C90.6262 36.4657 89.4562 37.1739 89.1543 38.6902L89.9171 38.497L91.5622 36.5279Z" fill="#307FB9"/>
<path opacity="0.3" d="M91.5622 36.5279C90.6262 36.4657 89.4562 37.1739 89.1543 38.6902L89.9171 38.497L91.5622 36.5279Z" fill="black"/>
<path d="M92.2476 36.852C92.9496 37.074 94.9971 37.0429 95.6827 36.852C96.3683 36.6611 96.3613 36.3725 96.3613 36.3725V36.0461C96.7567 36.0451 97.143 36.159 97.4681 36.3725C97.9057 36.7099 98.6592 37.9265 98.6381 38.5103C98.617 39.0942 97.302 40.6349 94.7654 40.5971C92.2288 40.5594 90.8038 39.6692 90.3662 39.0831L89.9263 38.4948C89.9263 38.4948 90.5277 37.3226 91.1197 36.8298C91.4232 36.5507 91.8125 36.3703 92.2312 36.3148L92.2476 36.852Z" fill="#307FB9"/>
<path opacity="0.2" d="M92.2476 36.852C92.9496 37.074 94.9971 37.0429 95.6827 36.852C96.3683 36.6611 96.3613 36.3725 96.3613 36.3725V36.0461C96.7567 36.0451 97.143 36.159 97.4681 36.3725C97.9057 36.7099 98.6592 37.9265 98.6381 38.5103C98.617 39.0942 97.302 40.6349 94.7654 40.5971C92.2288 40.5594 90.8038 39.6692 90.3662 39.0831L89.9263 38.4948C89.9263 38.4948 90.5277 37.3226 91.1197 36.8298C91.4232 36.5507 91.8125 36.3703 92.2312 36.3148L92.2476 36.852Z" fill="black"/>
<path d="M89.4653 31.0267C89.4653 31.0267 88.4988 32.4187 88.6088 32.5541C88.7188 32.6895 89.4302 32.816 89.4302 32.816L89.4653 31.0267Z" fill="#F28F8F"/>
<path d="M92.1517 27.1728C90.1955 27.5657 89.4139 28.1096 89.2922 31.282C89.1752 34.3678 89.5847 35.3846 90.0106 35.7997C90.2984 36.0794 91.9013 36.1305 92.7086 35.9174C93.7195 35.6532 96.0057 34.8851 97.0751 33.3355C98.334 31.5107 98.6639 29.0376 97.3091 28.0231C95.4207 26.5956 92.9497 27.013 92.1517 27.1728Z" fill="#FFA8A7"/>
<path d="M90.0107 35.7975C90.2447 36.0195 91.3656 36.1039 92.208 36.0062L92.1963 35.5466C91.4984 35.7909 90.7499 35.8768 90.0107 35.7975Z" fill="#F28F8F"/>
<path d="M89.0322 28.3649C89.5196 28.6964 90.1241 28.8342 90.717 28.749C90.7053 28.9977 90.7756 29.2437 90.9182 29.4527C91.1168 29.7377 91.4179 29.9445 91.7653 30.0344C91.5511 30.4326 91.4373 30.8727 91.433 31.3198C91.4199 31.4601 91.4517 31.6009 91.5243 31.7238C91.5467 31.7685 91.5821 31.8062 91.6262 31.8326C91.6703 31.859 91.7214 31.873 91.7735 31.873C91.8256 31.873 91.8767 31.859 91.9208 31.8326C91.9649 31.8062 92.0003 31.7685 92.0227 31.7238C92.1328 31.4876 92.2709 31.2642 92.4345 31.0578C92.6466 30.817 92.9449 30.6589 93.2723 30.6138C94.5008 30.4873 94.6552 32.0124 94.1638 32.6451C93.3588 33.6796 92.6756 32.9781 92.6756 32.9781C92.6442 33.463 92.7219 33.9488 92.9034 34.4031C93.085 34.8574 93.3662 35.2699 93.7286 35.6132C94.6018 35.8574 95.5274 35.8796 96.4125 35.6776C97.503 34.2546 98.1886 33.562 98.7713 32.3343C100.002 29.7347 99.4077 28.103 98.4554 27.4148C98.2682 26.2182 97.2737 25.681 96.1388 25.4345C94.4446 25.0638 92.8628 26.0184 91.1827 25.6565C90.9069 25.6018 90.6343 25.5336 90.366 25.4523C90.2626 25.4063 90.1447 25.3992 90.036 25.4323C89.9758 25.4703 89.9286 25.5242 89.9004 25.5873C89.8721 25.6504 89.8639 25.72 89.8769 25.7875C89.898 26.0939 90.2256 26.4335 90.3917 26.5978C90.0248 26.6297 89.6549 26.6095 89.2943 26.5379C89.169 26.5156 89.0405 26.5156 88.9152 26.5379C88.7778 26.591 88.6616 26.6841 88.5834 26.8037C88.5052 26.9234 88.469 27.0635 88.4799 27.2039C88.4813 27.4233 88.5312 27.64 88.6263 27.84C88.7215 28.0399 88.8597 28.2188 89.0322 28.3649Z" fill="#263238"/>
<path d="M98.4859 27.8011L99.6559 27.1351C99.5628 26.9879 99.4119 26.8818 99.2364 26.8402C99.0608 26.7985 98.875 26.8247 98.7199 26.9131C98.5647 27.0014 98.4529 27.1446 98.409 27.3111C98.3652 27.4776 98.3928 27.6539 98.4859 27.8011Z" fill="#263238"/>
<path d="M83.2386 45.288C82.9734 44.2994 82.7175 43.3092 82.4711 42.3176C82.2371 41.4052 81.8767 40.3485 82.2066 39.4161C82.3942 39.0089 82.6297 38.6231 82.9086 38.2661C83.15 37.8899 83.3537 37.493 83.517 37.0807C83.5989 36.8809 83.6738 36.6766 83.751 36.4746C83.8283 36.2726 83.9382 36.1571 83.8868 35.964C83.7159 35.3313 82.8548 36.1616 82.6793 36.4213C82.6014 36.5577 82.5106 36.687 82.4079 36.8076C82.2956 36.9208 82.0218 37.0629 81.8907 36.8964C81.847 36.8296 81.8228 36.753 81.8205 36.6744C81.7316 35.6998 82.1013 34.8274 82.4079 33.9172C82.4563 33.7977 82.4855 33.6719 82.4945 33.5442C82.5 33.4804 82.491 33.4163 82.468 33.3561C82.4449 33.2959 82.4085 33.2412 82.3611 33.1957C82.2848 33.1401 82.1944 33.1047 82.0991 33.093C82.0038 33.0814 81.9068 33.0938 81.8182 33.1291C81.645 33.1846 81.4953 33.2889 81.3221 33.34C81.149 33.391 81.0203 33.391 80.8682 33.4288C80.5073 33.5051 80.1598 33.6299 79.8362 33.7995C79.2746 34.1125 79.0266 34.5698 78.8792 35.1515C78.702 35.8659 78.6421 36.602 78.7013 37.3337C78.7411 37.8199 78.8324 38.2994 78.8955 38.779L79.1061 40.384C79.2489 41.4541 79.291 46.7998 79.4852 47.8632C79.6794 48.9266 80.0538 49.6392 80.9407 49.9922C82.2277 50.4895 84.308 48.2428 85.4897 47.0795L83.2386 45.288Z" fill="#FFA8A7"/>
<path d="M82.7682 44.6819C81.9399 45.2702 80.9079 46.2493 80.6997 47.2305C80.6997 47.2305 80.4937 45.4656 82.7682 43.9005V44.6819Z" fill="#F28F8F"/>
<path d="M88.9599 38.7412C88.1643 38.8123 86.8539 38.8389 85.5201 40.1998C83.9733 41.7893 81.5889 44.9239 81.5889 44.9239C81.5889 44.9239 81.9001 47.4192 84.432 48.3139C84.432 48.3139 88.1128 44.9839 88.9037 43.5497C89.6946 42.1156 89.8725 39.738 88.9599 38.7412Z" fill="#37474F"/>
<path d="M87.8998 33.4665L86.8936 32.9537L87.4716 32.4853L85.3819 31.5573L86.2945 31.0556L84.0435 29.9189L85.3819 31.04L84.2938 31.5573L86.7485 32.5652L86.1424 33.1402L87.8998 33.4665Z" fill="#307FB9"/>
<path d="M88.4124 32.2078L87.7572 31.6128L88.1152 31.3619L87.5396 30.7137L88.0918 30.5361L87.8999 29.7147L88.2883 30.6005L87.8999 30.7603L88.5223 31.4086L88.1011 31.6927L88.4124 32.2078Z" fill="#307FB9"/>
<path d="M88.0308 34.4056L86.7953 35.3202L86.339 34.6831L85.2579 35.2403L84.8157 34.4522L83.1426 34.8584L85.0778 33.9793L85.6323 34.7053L86.5309 34.2479L86.9053 34.8584L88.0308 34.4056Z" fill="#307FB9"/>
<path d="M79.4408 50.7736C79.4784 50.744 79.5268 50.7297 79.5755 50.7339C79.6241 50.738 79.6691 50.7603 79.7005 50.7958C79.9398 51.0507 80.2505 51.2358 80.5965 51.3294C80.9425 51.4229 81.3095 51.4211 81.6544 51.3242C81.6779 51.3163 81.7029 51.313 81.7278 51.3146C81.7527 51.3161 81.777 51.3224 81.7993 51.3331C81.8216 51.3437 81.8413 51.3586 81.8574 51.3767C81.8734 51.3948 81.8855 51.4158 81.8927 51.4385C81.9 51.4611 81.9024 51.4849 81.8997 51.5085C81.897 51.532 81.8893 51.5548 81.8771 51.5754C81.8649 51.596 81.8484 51.6141 81.8286 51.6286C81.8089 51.643 81.7862 51.6535 81.7621 51.6594C81.3483 51.7756 80.9083 51.7771 80.4937 51.6638C80.0791 51.5505 79.7073 51.3272 79.4221 51.02C79.406 51.0028 79.3938 50.9827 79.386 50.9609C79.3783 50.9391 79.3752 50.916 79.3769 50.8931C79.3787 50.8702 79.3852 50.8478 79.3962 50.8273C79.4071 50.8068 79.4223 50.7885 79.4408 50.7736Z" fill="#E0E0E0"/>
<path d="M79.628 51.948C79.6608 51.922 79.7022 51.9077 79.745 51.9077C79.7878 51.9077 79.8292 51.922 79.862 51.948C80.0525 52.0786 80.2708 52.1682 80.5016 52.2104C80.7324 52.2526 80.9701 52.2464 81.1981 52.1922C81.2465 52.1837 81.2964 52.1936 81.3372 52.2198C81.3779 52.246 81.4061 52.2863 81.4157 52.3321C81.4205 52.3545 81.4205 52.3777 81.4158 52.4001C81.411 52.4226 81.4017 52.4439 81.3882 52.4629C81.3747 52.4819 81.3573 52.4982 81.3372 52.5108C81.317 52.5234 81.2944 52.532 81.2707 52.5363C80.9888 52.5984 80.6959 52.6009 80.4129 52.5438C80.1298 52.4866 79.8635 52.3711 79.6327 52.2055C79.6142 52.1906 79.599 52.1724 79.5881 52.1519C79.5771 52.1314 79.5706 52.109 79.5688 52.086C79.5671 52.0631 79.5702 52.0401 79.5779 52.0183C79.5857 51.9965 79.5979 51.9764 79.6139 51.9591C79.6181 51.9548 79.6228 51.9511 79.628 51.948Z" fill="#E0E0E0"/>
<path d="M102.604 38.4926C102.583 38.5032 102.559 38.5096 102.535 38.5115C102.511 38.5133 102.486 38.5105 102.463 38.5033C102.44 38.4961 102.419 38.4845 102.4 38.4693C102.382 38.4541 102.367 38.4356 102.356 38.4149C102.185 38.1145 101.928 37.8662 101.615 37.6988C101.301 37.5314 100.944 37.4518 100.585 37.4692C100.561 37.4705 100.536 37.4672 100.513 37.4596C100.49 37.452 100.469 37.4402 100.451 37.4249C100.414 37.3938 100.392 37.3503 100.389 37.3038C100.387 37.2573 100.403 37.2116 100.436 37.1768C100.469 37.1421 100.515 37.1211 100.564 37.1184C100.995 37.097 101.424 37.1928 101.8 37.3945C102.176 37.5962 102.483 37.8955 102.686 38.2573C102.708 38.2989 102.711 38.3468 102.696 38.3907C102.68 38.4347 102.648 38.4712 102.604 38.4926Z" fill="#E0E0E0"/>
<path d="M102.707 37.316C102.668 37.3355 102.623 37.3409 102.58 37.3311C102.537 37.3213 102.499 37.297 102.473 37.2627C102.322 37.0953 102.135 36.9606 101.924 36.8679C101.713 36.7752 101.484 36.7266 101.252 36.7255C101.227 36.7246 101.204 36.7192 101.181 36.7096C101.159 36.6999 101.14 36.6863 101.123 36.6694C101.107 36.6525 101.094 36.6327 101.085 36.611C101.077 36.5894 101.073 36.5665 101.074 36.5434C101.075 36.5204 101.08 36.4978 101.091 36.4768C101.101 36.4559 101.115 36.437 101.133 36.4214C101.151 36.4057 101.172 36.3935 101.194 36.3855C101.217 36.3775 101.241 36.3738 101.266 36.3747C101.554 36.3774 101.839 36.4401 102.099 36.5582C102.359 36.6763 102.589 36.8471 102.773 37.0585C102.799 37.096 102.809 37.1419 102.8 37.1863C102.791 37.2306 102.765 37.27 102.726 37.296L102.707 37.316Z" fill="#E0E0E0"/>
<path d="M105.979 50.1121C105.955 50.0714 105.95 50.0236 105.963 49.9791C105.977 49.9346 106.009 49.897 106.051 49.8745C106.359 49.6987 106.609 49.4434 106.77 49.1384C106.931 48.8334 106.997 48.4913 106.962 48.1518C106.959 48.1289 106.961 48.1056 106.967 48.0834C106.974 48.0612 106.985 48.0405 107.001 48.0225C107.016 48.0045 107.035 47.9896 107.056 47.9786C107.078 47.9677 107.101 47.9609 107.125 47.9587C107.174 47.9537 107.223 47.9673 107.261 47.9964C107.299 48.0255 107.324 48.0679 107.329 48.1141C107.371 48.52 107.29 48.9289 107.097 49.2932C106.903 49.6575 106.605 49.9622 106.236 50.172C106.215 50.1844 106.192 50.1927 106.167 50.1965C106.143 50.2002 106.118 50.1992 106.094 50.1936C106.07 50.188 106.048 50.1779 106.028 50.1639C106.008 50.1499 105.991 50.1323 105.979 50.1121Z" fill="#E0E0E0"/>
<path d="M107.221 50.1542C107.2 50.1181 107.193 50.0762 107.202 50.0357C107.21 49.9952 107.232 49.9586 107.266 49.9322C107.436 49.7816 107.569 49.5978 107.657 49.3935C107.744 49.1892 107.784 48.9693 107.774 48.749C107.774 48.7025 107.793 48.6579 107.828 48.625C107.862 48.5921 107.909 48.5736 107.958 48.5736C108.007 48.5736 108.054 48.5921 108.089 48.625C108.124 48.6579 108.143 48.7025 108.143 48.749C108.153 49.0223 108.101 49.2944 107.989 49.5466C107.878 49.7988 107.71 50.025 107.497 50.2097C107.478 50.224 107.457 50.2346 107.433 50.2409C107.41 50.2472 107.385 50.249 107.361 50.2464C107.337 50.2437 107.314 50.2365 107.293 50.2253C107.271 50.2141 107.253 50.199 107.238 50.1809L107.221 50.1542Z" fill="#E0E0E0"/>
<path d="M85.6955 71.262C85.7392 71.283 85.7725 71.3194 85.7883 71.3634C85.804 71.4073 85.801 71.4554 85.7798 71.4973C85.6316 71.8081 85.5797 72.1525 85.6303 72.4902C85.6808 72.8279 85.8317 73.145 86.0652 73.4043C86.0969 73.4401 86.1124 73.4862 86.1085 73.5327C86.1045 73.5792 86.0814 73.6224 86.0442 73.6529C86.0072 73.6831 85.9591 73.6981 85.9105 73.6948C85.8618 73.6915 85.8165 73.6701 85.7844 73.6352C85.5039 73.3231 85.3231 72.9414 85.2634 72.5352C85.2037 72.1289 85.2676 71.7149 85.4475 71.3419C85.4696 71.3005 85.5079 71.2689 85.5543 71.2539C85.6007 71.239 85.6514 71.2419 85.6955 71.262Z" fill="#E0E0E0"/>
<path d="M84.647 71.8947C84.687 71.9126 84.7189 71.9435 84.7369 71.9818C84.755 72.02 84.7579 72.0632 84.7453 72.1034C84.6962 72.319 84.6969 72.5422 84.7474 72.7576C84.7979 72.973 84.897 73.1754 85.0378 73.351C85.0654 73.3892 85.0762 73.4361 85.0679 73.4817C85.0596 73.5273 85.0329 73.568 84.9934 73.5952C84.9533 73.622 84.9037 73.6326 84.8555 73.6246C84.8072 73.6167 84.7642 73.591 84.736 73.553C84.5625 73.3335 84.4416 73.0808 84.3818 72.8123C84.322 72.5439 84.3247 72.2664 84.3897 71.999C84.3968 71.9768 84.4086 71.9561 84.4243 71.9382C84.44 71.9203 84.4593 71.9055 84.4811 71.8948C84.5029 71.884 84.5267 71.8775 84.5512 71.8756C84.5757 71.8737 84.6003 71.8764 84.6237 71.8836L84.647 71.8947Z" fill="#E0E0E0"/>
<path d="M71.9432 10.3119C71.9317 10.1049 71.8686 9.90344 71.7592 9.724C71.6498 9.54457 71.4971 9.39228 71.3137 9.27963L70.8036 8.99769C70.6085 8.90508 70.3934 8.85687 70.1753 8.85687C69.9572 8.85687 69.742 8.90508 69.547 8.99769L57.6949 15.4956C57.5117 15.6085 57.3593 15.7609 57.2499 15.9403C57.1405 16.1197 57.0773 16.321 57.0654 16.5279V22.3421C57.0775 22.549 57.1408 22.7503 57.2501 22.9296C57.3595 23.109 57.5119 23.2614 57.6949 23.3744L58.2074 23.6541C58.4019 23.7483 58.6172 23.7973 58.8356 23.7973C59.0541 23.7973 59.2694 23.7483 59.4639 23.6541L71.3137 17.1584C71.4971 17.0458 71.6498 16.8935 71.7592 16.714C71.8686 16.5346 71.9317 16.3331 71.9432 16.1261V10.3119Z" fill="#307FB9"/>
<path opacity="0.5" d="M71.9432 10.3119C71.9317 10.1049 71.8686 9.90344 71.7592 9.724C71.6498 9.54457 71.4971 9.39228 71.3137 9.27963L70.8036 8.99769C70.6085 8.90508 70.3934 8.85687 70.1753 8.85687C69.9572 8.85687 69.742 8.90508 69.547 8.99769L57.6949 15.4956C57.5117 15.6085 57.3593 15.7609 57.2499 15.9403C57.1405 16.1197 57.0773 16.321 57.0654 16.5279V22.3421C57.0775 22.549 57.1408 22.7503 57.2501 22.9296C57.3595 23.109 57.5119 23.2614 57.6949 23.3744L58.2074 23.6541C58.4019 23.7483 58.6172 23.7973 58.8356 23.7973C59.0541 23.7973 59.2694 23.7483 59.4639 23.6541L71.3137 17.1584C71.4971 17.0458 71.6498 16.8935 71.7592 16.714C71.8686 16.5346 71.9317 16.3331 71.9432 16.1261V10.3119Z" fill="white"/>
<path opacity="0.2" d="M57.0654 22.3421C57.0775 22.549 57.1408 22.7502 57.2501 22.9296C57.3595 23.109 57.5119 23.2613 57.6949 23.3744L58.2074 23.6541C58.3844 23.7387 58.5783 23.7868 58.7763 23.7953C58.9743 23.8037 59.172 23.7722 59.3563 23.7029C59.0591 23.8095 58.8345 23.6519 58.8345 23.31V17.4958C58.8421 17.288 58.9057 17.0854 59.0193 16.9075L57.2503 15.9396C57.1364 16.1174 57.0727 16.32 57.0654 16.5279V22.3421Z" fill="black"/>
<path opacity="0.3" d="M71.9224 10.1432C71.8498 9.89011 71.6065 9.80797 71.3163 9.96781L59.4642 16.4635C59.2777 16.5721 59.1244 16.7252 59.0196 16.9075L57.2529 15.9396C57.3575 15.7579 57.5098 15.6049 57.6952 15.4956L69.545 8.99989C69.7395 8.90575 69.9548 8.85667 70.1732 8.85667C70.3917 8.85667 70.607 8.90575 70.8015 8.99989L71.3163 9.27961C71.4736 9.37719 71.6085 9.50404 71.7126 9.65247C71.8168 9.80091 71.8882 9.96784 71.9224 10.1432Z" fill="white"/>
<path d="M58.8371 19.3762L57.0704 18.4082L54.941 20.353C54.909 20.3836 54.8847 20.4207 54.8701 20.4615C54.8554 20.5023 54.8507 20.5457 54.8563 20.5885C54.862 20.6313 54.8778 20.6723 54.9026 20.7084C54.9274 20.7445 54.9606 20.7748 54.9995 20.797L56.7382 21.756C56.8101 21.7917 56.8911 21.8079 56.9722 21.8026L58.8442 21.463V19.3762H58.8371Z" fill="#307FB9"/>
<path opacity="0.5" d="M58.8371 19.3762L57.0704 18.4082L54.941 20.353C54.909 20.3836 54.8847 20.4207 54.8701 20.4615C54.8554 20.5023 54.8507 20.5457 54.8563 20.5885C54.862 20.6313 54.8778 20.6723 54.9026 20.7084C54.9274 20.7445 54.9606 20.7748 54.9995 20.797L56.7382 21.756C56.8101 21.7917 56.8911 21.8079 56.9722 21.8026L58.8442 21.463V19.3762H58.8371Z" fill="white"/>
<path opacity="0.3" d="M56.7381 21.756L55.8021 21.2476L55.6921 21.1788L55.1913 20.9035L55.1305 20.868L54.9971 20.7947C54.9581 20.7726 54.925 20.7423 54.9001 20.7062C54.8753 20.67 54.8595 20.629 54.8539 20.5863C54.8482 20.5435 54.8529 20.5 54.8676 20.4592C54.8823 20.4184 54.9066 20.3813 54.9386 20.3507L57.068 18.406L58.837 19.3762L56.7076 21.312C56.6738 21.3405 56.6473 21.376 56.6301 21.4157C56.6129 21.4553 56.6055 21.4982 56.6085 21.5411C56.6114 21.5839 56.6246 21.6255 56.6471 21.6628C56.6695 21.7 56.7006 21.7319 56.7381 21.756Z" fill="white"/>
<path d="M62.2981 17.5891C62.0536 17.7399 61.8501 17.9434 61.7041 18.183C61.5581 18.4225 61.4738 18.6914 61.458 18.9677C61.458 19.4738 61.8347 19.6803 62.2981 19.4272C62.5423 19.2762 62.7454 19.0727 62.891 18.8331C63.0365 18.5935 63.1204 18.3247 63.1358 18.0486C63.1358 17.538 62.7614 17.336 62.2981 17.5891Z" fill="white"/>
<path d="M65.389 15.893C65.1448 16.044 64.9417 16.2475 64.7961 16.4871C64.6505 16.7267 64.5666 16.9955 64.5513 17.2716C64.5513 17.7778 64.9257 17.9842 65.389 17.7289C65.6329 17.5782 65.8358 17.3749 65.9814 17.1358C66.1269 16.8966 66.211 16.6283 66.2267 16.3525C66.222 15.8441 65.8523 15.6377 65.389 15.893Z" fill="white"/>
<path d="M68.4803 14.1947C68.2365 14.3461 68.0336 14.5497 67.8881 14.7892C67.7426 15.0287 67.6585 15.2973 67.6426 15.5733C67.6426 16.0817 68.017 16.2859 68.4803 16.0328C68.7251 15.8818 68.9288 15.6779 69.0748 15.438C69.2208 15.198 69.3049 14.9287 69.3204 14.652C69.3204 14.1481 68.9436 13.9416 68.4803 14.1947Z" fill="white"/>
<path d="M94.7561 21.7094L93.9067 20.202L94.59 18.3305V17.1784L92.498 18.3239V19.4694L93.3966 20.9479C93.4114 20.97 93.4325 20.9877 93.4574 20.999L94.7561 21.7094Z" fill="#307FB9"/>
<path opacity="0.2" d="M94.7561 21.7094L93.9067 20.202L94.59 18.3305V17.1784L92.498 18.3239V19.4694L93.3966 20.9479C93.4114 20.97 93.4325 20.9877 93.4574 20.999L94.7561 21.7094Z" fill="black"/>
<path d="M101.109 9.71971C101.098 9.51328 101.035 9.31238 100.926 9.13337C100.817 8.95436 100.665 8.80232 100.482 8.68963L99.972 8.40991C99.7778 8.31579 99.5629 8.26672 99.3449 8.26672C99.1268 8.26672 98.9119 8.31579 98.7177 8.40991L86.8937 14.8901C86.7119 15.0042 86.5606 15.1568 86.4517 15.336C86.3429 15.5152 86.2795 15.7159 86.2666 15.9224V21.7233C86.2782 21.9297 86.3411 22.1306 86.45 22.3096C86.559 22.4886 86.711 22.6406 86.8937 22.7533L87.4038 23.0331C87.5986 23.1253 87.8133 23.1733 88.031 23.1733C88.2486 23.1733 88.4633 23.1253 88.6581 23.0331L93.8061 20.1915L94.7046 21.6655C94.7176 21.6852 94.7361 21.7011 94.758 21.7114C94.78 21.7216 94.8046 21.7258 94.8289 21.7235C94.8533 21.7212 94.8765 21.7125 94.8959 21.6983C94.9153 21.6841 94.9301 21.6651 94.9386 21.6433L95.8887 19.0482L100.47 16.5507C100.653 16.438 100.805 16.2859 100.914 16.1069C101.023 15.9279 101.086 15.727 101.098 15.5206L101.109 9.71971Z" fill="#307FB9"/>
<path d="M89.8091 17.0452L99.2628 11.8659C99.5436 11.7127 99.7705 11.8215 99.7705 12.1101C99.7578 12.2714 99.7052 12.4277 99.617 12.5661C99.5288 12.7046 99.4074 12.8214 99.2628 12.9071L89.8091 18.0863C89.5307 18.2395 89.3037 18.1307 89.3037 17.8421C89.3164 17.681 89.3687 17.525 89.4565 17.3866C89.5442 17.2482 89.665 17.1312 89.8091 17.0452Z" fill="white"/>
<path d="M89.8091 19.3517L99.2628 14.1747C99.5436 14.0215 99.7705 14.1303 99.7705 14.4167C99.7582 14.5784 99.7057 14.7351 99.6175 14.874C99.5293 15.0128 99.4077 15.13 99.2628 15.2159L89.8091 20.3929C89.5307 20.5483 89.3037 20.4373 89.3037 20.1509C89.316 19.9895 89.3681 19.833 89.4559 19.6941C89.5437 19.5553 89.6647 19.438 89.8091 19.3517Z" fill="white"/>
<path opacity="0.2" d="M86.2666 21.7227C86.2782 21.9291 86.3411 22.13 86.45 22.309C86.559 22.4881 86.711 22.6401 86.8937 22.7528L87.4038 23.0325C87.5805 23.1168 87.774 23.1647 87.9716 23.1732C88.1692 23.1816 88.3665 23.1503 88.5504 23.0813C88.2556 23.1857 88.031 23.0281 88.031 22.6884V16.8875C88.0385 16.6807 88.1013 16.479 88.2135 16.3015L86.4491 15.3335C86.3369 15.5119 86.2741 15.7143 86.2666 15.9218V21.7227Z" fill="black"/>
<path opacity="0.2" d="M101.088 9.546C101.016 9.29292 100.772 9.213 100.482 9.37062L88.6583 15.853C88.4722 15.9614 88.3196 16.1146 88.216 16.297L86.4517 15.3313C86.5566 15.1499 86.7089 14.997 86.8939 14.8873L98.7156 8.40492C98.9107 8.31232 99.1258 8.26411 99.3439 8.26411C99.562 8.26411 99.7771 8.31232 99.9722 8.40492L100.482 8.68464C100.64 8.78149 100.775 8.90785 100.879 9.05597C100.983 9.20409 101.054 9.37084 101.088 9.546Z" fill="white"/>
</svg>
