<svg width="32" height="35" viewBox="0 0 32 35" fill="none" xmlns="http://www.w3.org/2000/svg">
<path d="M30.8248 4.8984C30.762 4.44713 30.4373 4.07594 29.9984 3.95393L15.9313 0.0418627C15.7307 -0.0139542 15.5189 -0.0139542 15.3182 0.0418627L1.25109 3.95393C0.812177 4.07594 0.487493 4.44698 0.42466 4.8984C0.34307 5.48509 -1.51826 19.3472 3.25592 26.2432C8.02446 33.131 15.0591 34.8961 15.3562 34.9679C15.4445 34.9893 15.5344 34.9998 15.6247 34.9998C15.715 34.9998 15.805 34.9891 15.8933 34.9679C16.1905 34.8961 23.2251 33.131 27.9935 26.2432C32.7677 19.3474 30.9064 5.48524 30.8248 4.8984ZM24.6962 12.9913L15.101 22.5864C14.8778 22.8097 14.5849 22.9215 14.2923 22.9215C13.9996 22.9215 13.7068 22.8099 13.4836 22.5864L7.55094 16.6538C7.33636 16.4394 7.21588 16.1484 7.21588 15.8451C7.21588 15.5418 7.33651 15.2508 7.55094 15.0364L8.72889 13.8584C9.17558 13.4119 9.89982 13.4117 10.3464 13.8584L14.2923 17.8043L21.9008 10.1957C22.1152 9.9811 22.4062 9.86062 22.7095 9.86062C23.0129 9.86062 23.3038 9.9811 23.5183 10.1957L24.6962 11.3736C25.1429 11.8203 25.1429 12.5446 24.6962 12.9913Z" fill="url(#paint0_linear_64_1196)"/>
<defs>
<linearGradient id="paint0_linear_64_1196" x1="15.6247" y1="0" x2="15.6247" y2="34.9998" gradientUnits="userSpaceOnUse">
<stop stop-color="#039BCB"/>
<stop offset="1" stop-color="#A2D7F4" stop-opacity="0.62"/>
</linearGradient>
</defs>
</svg>
