<svg width="46" height="40" viewBox="0 0 46 40" fill="none" xmlns="http://www.w3.org/2000/svg">
<path d="M38.851 10.6333L30.6668 18.3333V13.3333C30.6668 12.4493 30.263 11.6014 29.5441 10.9763C28.8252 10.3512 27.8502 10 26.8335 10H7.66683C6.65017 10 5.67514 10.3512 4.95625 10.9763C4.23736 11.6014 3.8335 12.4493 3.8335 13.3333V30C3.8335 30.8841 4.23736 31.7319 4.95625 32.357C5.67514 32.9821 6.65017 33.3333 7.66683 33.3333H26.8335C27.8502 33.3333 28.8252 32.9821 29.5441 32.357C30.263 31.7319 30.6668 30.8841 30.6668 30V25.8333L38.8893 32.9833C39.1563 33.2174 39.497 33.3773 39.8685 33.443C40.24 33.5086 40.6255 33.477 40.9763 33.3521C41.3271 33.2272 41.6275 33.0147 41.8394 32.7414C42.0513 32.4681 42.1652 32.1463 42.1668 31.8167V11.8167C42.1773 11.4786 42.0692 11.1457 41.857 10.8623C41.6448 10.5789 41.3384 10.3583 40.9786 10.2299C40.6187 10.1015 40.2225 10.0713 39.8425 10.1434C39.4625 10.2154 39.1167 10.3863 38.851 10.6333Z" fill="url(#paint0_linear_64_1197)"/>
<defs>
<linearGradient id="paint0_linear_64_1197" x1="23.0005" y1="10" x2="23.0005" y2="33.4763" gradientUnits="userSpaceOnUse">
<stop stop-color="#039BCB"/>
<stop offset="1" stop-color="#A2D7F4" stop-opacity="0.62"/>
</linearGradient>
</defs>
</svg>
